<svg width="408" height="565" viewBox="0 0 408 565" fill="none" xmlns="http://www.w3.org/2000/svg">
<g clip-path="url(#clip0_1274_7090)">
<path d="M22.0376 487.995H22.1792C22.1792 487.995 22.2001 487.995 22.2047 487.991C22.8359 487.981 23.3023 487.835 23.5042 487.761C23.539 487.747 29.2383 485.247 29.2383 485.247L23.8801 483.801L21.8543 483.26L21.6339 483.199L21.1512 483.069C21.1512 483.069 21.0769 486.071 22.0399 487.997L22.0376 487.995Z" fill="#D06E00"/>
<path d="M14.5516 481.357L17.0694 482.246L27.2519 485.844L52.2094 494.66L63.768 498.741L68.5391 500.426L67.163 488.829L65.5943 475.586L23.7061 462.575L16.7283 460.411L16.0553 460.2L16.0507 460.256L15.8209 463.527L15.5587 467.201L14.5516 481.357Z" fill="#AD5E36"/>
<path d="M15.4291 465.927L15.5591 467.201L17.0697 482.246L27.2523 485.844L25.2009 468.1C34.9472 471.076 41.1779 475.451 45.1622 479.792L29.6262 478.773C29.5311 482.336 30.8561 482.798 30.8561 482.798L47.6267 488.562C50.2025 489.446 50.7107 491.322 50.8893 494.04C50.8963 494.145 50.8986 494.198 50.8986 494.198L63.7707 498.739L67.168 488.827L65.597 475.584L23.7088 462.577V462.573L16.7309 460.409C16.6149 460.69 16.5058 460.987 16.4107 461.287C16.1601 462.039 15.9698 462.821 15.8236 463.524C15.5428 464.868 15.4314 465.922 15.4314 465.922L15.4291 465.927Z" fill="#924425"/>
<path d="M12.1053 469.689L20.1158 472.475L22.1973 473.197L25.9357 474.497L59.3353 486.103C59.3701 485.969 59.4049 485.832 59.4397 485.697C59.4838 485.512 59.5349 485.321 59.5859 485.131L25.8104 473.394L22.1996 472.141L12.5369 468.784C12.3907 469.091 12.2468 469.397 12.1053 469.692V469.689Z" fill="#803110"/>
<path d="M45.5791 480.263C46.0154 480.759 46.4261 481.256 46.809 481.748L59.3353 486.103C59.4165 485.783 59.5001 485.46 59.5859 485.13L45.5791 480.263Z" fill="#63230B"/>
<path d="M6.81409 451.182C6.97421 451.79 7.13433 452.396 7.2898 452.999C8.5429 457.816 9.60339 462.519 10.4852 466.769L10.5409 467.036L11.2626 470.63L11.302 470.836C12.4159 476.567 13.1422 481.113 13.5042 483.457C13.5553 483.777 13.5947 484.054 13.6295 484.29C13.7108 484.852 14.096 485.323 14.6274 485.521C14.6274 485.521 20.5772 487.724 20.5819 487.724C21.1133 487.919 21.6099 487.991 22.0369 488H22.1784C22.1784 488 22.1993 488 22.2039 487.995C22.1529 487.178 22.0392 485.511 21.8535 483.262C21.8489 483.202 21.8443 483.146 21.8396 483.086C21.4126 478.162 20.6306 470.551 19.3311 463.044L21.5635 463.752L28.8129 466.045L51.7723 473.315L60.2748 476.01C60.2748 476.01 59.0913 478.801 58.2142 484.1C57.5458 488.125 57.0562 493.59 57.3973 500.384C57.4275 500.981 57.8127 501.503 58.3766 501.709L58.9173 501.909L68.4477 505.438L68.6241 505.503V505.498L69.065 502.413L71.4737 485.567L73.0587 474.497L73.3789 472.264L6.81409 451.189V451.182Z" fill="#F2A61B"/>
<path d="M58.2131 484.098C57.5447 488.123 57.0551 493.588 57.3962 500.382C57.4264 500.979 57.8116 501.501 58.3755 501.707L58.9162 501.907L68.4467 505.435L68.623 505.5V505.496L69.0639 502.408L71.4727 485.563C70.932 485.428 70.3542 485.326 69.7369 485.266C69.7369 485.266 65.3627 484.678 58.2131 484.096V484.098Z" fill="#FADE4B"/>
<path d="M68.6195 505.493V505.498L68.6242 505.493L70.6848 504.616L84.1997 498.771L98.9583 492.387C99.6104 492.106 100.063 491.494 100.163 490.792C102.144 476.245 106.929 464.98 109.222 460.202C110.004 458.582 110.496 457.709 110.496 457.709L110.491 457.695C110.069 457.842 105.806 459.531 73.3743 472.264C73.3743 472.264 73.3743 472.268 73.3697 472.273C73.3186 472.373 72.9033 473.206 72.3371 474.782C72.0215 475.665 71.6548 476.79 71.2789 478.151C69.7891 483.506 68.1392 492.568 68.6195 505.5V505.493Z" fill="#D06E00"/>
<path d="M77.7871 493.359L94.8176 486.725C95.9314 480.096 96.4582 475.961 98.2148 470.683C97.152 471.098 96.0219 471.542 94.8338 472.008C90.8958 473.559 86.2664 475.376 80.8572 477.498C79.98 480.448 78.6805 483.239 78.0075 490.565C77.9217 491.463 77.8474 492.396 77.7871 493.359Z" fill="#C15200"/>
<path d="M22.1991 472.139V473.197L25.9375 474.497L25.8122 473.392L22.1991 472.139Z" fill="#63230B"/>
<path d="M22.674 473.362L25.939 474.497L57.9787 485.633C57.9996 485.486 58.0182 485.352 58.0391 485.21L23.029 473.037C22.9896 473.149 22.8828 473.262 22.674 473.364V473.362Z" fill="#C87D4B"/>
<path d="M77.7859 493.36L94.8164 486.725L92.3729 485.033C82.3597 479.91 78.0064 490.562 78.0064 490.562C77.9205 491.461 77.8463 492.394 77.7859 493.357V493.36Z" fill="#F3B11D"/>
<path d="M81.0287 489.407V489.402L92.3762 485.036C92.7126 483.054 92.9424 481.408 93.1744 479.887C92.1209 479.546 93.3508 478.773 93.3508 478.773C93.5504 477.513 93.7662 476.31 94.0586 475.029C94.2651 474.079 94.5203 473.093 94.8359 472.009C90.898 473.559 86.2685 475.377 80.8593 477.499C80.3418 479.235 79.6805 480.916 79.0841 483.495C79.0029 483.857 78.924 484.237 78.8427 484.634C78.5225 486.229 78.2301 488.151 78.0097 490.565L81.0287 489.407Z" fill="#924425"/>
<path d="M19.3325 463.039L20.3698 472.111L20.4208 472.577L21.6345 483.195L22.1821 487.993C22.1821 487.993 22.203 487.993 22.2076 487.988C22.8388 487.979 23.3053 487.833 23.5072 487.759C23.542 487.745 24.3008 487.413 24.3008 487.413L23.8854 483.801L22.6764 473.364C22.8876 473.264 22.992 473.148 23.0314 473.037C23.166 472.656 22.5557 472.259 22.5557 472.259L22.5511 472.264L21.5672 463.747L19.3348 463.039H19.3325Z" fill="#D06E00"/>
<path d="M92.7559 479.576C92.6515 479.214 93.3477 478.772 93.3477 478.772L79.0809 483.494C79.0415 483.684 78.9951 483.879 78.9556 484.081C78.9162 484.262 78.8814 484.448 78.8396 484.634L93.1713 479.887C92.9114 479.805 92.7907 479.692 92.7559 479.576Z" fill="#63230B"/>
<g opacity="0.35">
<path d="M6.81343 451.182C6.97355 451.79 7.13367 452.396 7.28915 452.999L72.3386 474.778L73.0557 474.492L109.226 460.2C110.008 458.58 110.5 457.707 110.5 457.707L110.495 457.693C110.073 457.839 105.81 459.529 73.3783 472.261L6.81343 451.186V451.182Z" fill="#B64300"/>
</g>
<path d="M32.6686 479.504V490.073L35.126 490.375L36.5717 490.556L40.6002 491.052L45.1647 493.833L46.6104 494.711L48.6269 495.941L50.5391 497.106V482.914L47.8055 483.942C47.5688 484.033 47.3181 484.077 47.0582 484.077C46.9074 484.077 46.7612 484.063 46.6127 484.026C46.5477 484.017 46.4874 483.996 46.4224 483.975L45.1693 483.569L36.5764 480.774L35.1306 480.302L34.1723 479.991L32.6732 479.504H32.6686Z" fill="url(#paint0_linear_1274_7090)"/>
<path d="M50.5367 482.911V497.104L51.4766 496.185V482.577L50.5367 482.911Z" fill="url(#paint1_linear_1274_7090)"/>
<g opacity="0.5">
<path d="M32.6686 479.504V483.422C32.6686 483.422 33.6525 483.659 35.126 484.144C35.5669 484.295 36.0542 484.46 36.5717 484.655C39.2009 485.639 42.6307 487.229 45.1647 489.506C45.6915 489.977 46.1788 490.486 46.6104 491.017C47.7637 492.438 48.5318 494.074 48.6269 495.936L50.5391 497.101V482.909L47.8055 483.937C47.5688 484.028 47.3181 484.072 47.0582 484.072C46.9074 484.072 46.7612 484.058 46.6127 484.021C46.5477 484.012 46.4874 483.991 46.4224 483.97L45.1693 483.564L36.5764 480.769L35.1306 480.298L34.1723 479.986L32.6732 479.499L32.6686 479.504Z" fill="url(#paint2_linear_1274_7090)"/>
</g>
<path d="M35.1246 480.302V490.374L36.5703 490.555V480.775L35.1246 480.302Z" fill="#F3B022"/>
<path d="M35.1246 480.3V484.144C35.5655 484.295 36.0528 484.46 36.5703 484.655V480.771L35.1246 480.3Z" fill="#ED8E13"/>
<path d="M45.1637 483.57V493.833L46.6094 494.71V484.028C46.5444 484.018 46.4841 483.997 46.4191 483.977L45.166 483.57H45.1637Z" fill="#F3B022"/>
<path d="M45.1637 483.568V489.511C45.6904 489.982 46.1778 490.49 46.6094 491.022V484.026C46.5444 484.016 46.4841 483.995 46.4191 483.975L45.166 483.568H45.1637Z" fill="#ED8E13"/>
<path d="M94.4455 486.422C94.6242 485.352 97.1977 470.321 98.2141 470.683C98.4531 470.762 98.0679 469.55 95.2299 486.795C95.0906 487.645 56.4002 501.215 94.4432 486.422H94.4455Z" fill="#F8CE39"/>
<path d="M51.7797 473.318L55.1445 474.383C53.7012 477.731 53.0143 481.774 52.7381 483.81C52.6267 484.625 52.0768 485.31 51.3087 485.6L47.8023 486.921C47.6956 473.668 51.7797 473.315 51.7797 473.315V473.318Z" fill="#D06E00"/>
<path d="M28.5561 462.078L28.8113 466.043L29.714 480.145C29.7697 480.999 30.3359 481.726 31.1435 481.993L34.1695 482.977L46.4196 486.96C47.6495 487.362 48.9374 486.554 49.1231 485.275C49.2089 484.662 49.2994 484.066 49.3946 483.494C50.1209 478.942 51.0097 475.616 51.7731 473.318C52.757 470.368 53.5391 469.102 53.5391 469.102L28.5561 462.083V462.078Z" fill="#F2A61B"/>
<path d="M49.3973 482.173C49.5249 481.312 51.0426 472.79 51.8664 473.053C63.0119 476.635 63.1187 477.134 51.9592 473.659C50.3928 478.306 48.1001 491.101 49.3973 482.171V482.173Z" fill="#FFFFAF"/>
<path d="M36.1114 480.4L36.4664 480.523L39.8544 481.698C40.0493 481.765 40.2396 481.6 40.228 481.375L40.1793 480.565L39.8359 475.001C39.8266 474.859 39.9055 474.734 40.0285 474.685C41.0797 474.267 41.8153 473.151 41.7758 471.86C41.7341 470.419 40.7362 469.251 39.4646 469.054C39.3184 469.03 39.1629 469.019 39.0074 469.023C37.52 469.072 36.3574 470.423 36.4038 472.034C36.4316 472.981 36.8702 473.812 37.5269 474.321C37.6383 474.407 37.6847 474.553 37.6406 474.69L35.9234 479.994C35.8654 480.166 35.9536 480.349 36.1067 480.4H36.1114Z" fill="#9C2C00"/>
<path d="M35.953 480.256C35.9855 480.328 36.0412 480.374 36.1178 480.398L36.4682 480.525L36.9021 480.676L39.8562 481.698C40.0488 481.767 40.2437 481.605 40.2298 481.384L40.1764 480.569L37.2015 479.597C37.1249 479.569 37.0738 479.504 37.0622 479.432C37.046 479.39 37.0506 479.344 37.0622 479.302L38.5056 474.453C38.5543 474.316 38.5033 474.174 38.3873 474.091C37.7305 473.58 37.2943 472.751 37.2641 471.802C37.2293 470.583 37.886 469.518 38.8444 469.049C37.4405 469.183 36.3637 470.49 36.4078 472.043C36.4334 472.988 36.8743 473.817 37.5379 474.327C37.6424 474.416 37.6934 474.557 37.6516 474.694L35.9298 479.998C35.9043 480.089 35.9089 480.189 35.9553 480.261L35.953 480.256Z" fill="#BD5700"/>
<path d="M35.953 480.257C35.9855 480.329 36.0412 480.375 36.1178 480.398L36.4682 480.526L36.9021 480.677L39.8562 481.698C40.0488 481.768 40.2437 481.605 40.2298 481.385L40.1764 480.57L37.2015 479.597C37.1249 479.57 37.0738 479.505 37.0622 479.433L35.9484 480.259L35.953 480.257Z" fill="#CB7600"/>
<path d="M49.3945 483.489C44.8184 483.234 39.6714 483.032 34.1694 482.972L46.4196 486.955C47.6495 487.357 48.9374 486.549 49.123 485.27C49.2089 484.657 49.2994 484.06 49.3945 483.489Z" fill="#FADE4B"/>
<path d="M13.5094 483.453C13.5604 483.773 13.5999 484.049 13.6347 484.286C13.7159 484.848 14.1011 485.319 14.6325 485.516C14.6325 485.516 20.5824 487.719 20.5871 487.719C21.1185 487.914 21.6151 487.986 22.042 487.995H22.1836L21.6359 483.197L21.6267 483.086C18.958 483.16 16.243 483.281 13.5094 483.453Z" fill="#FADE4B"/>
<path d="M78.8402 484.634L93.1719 479.887C92.912 479.806 92.7913 479.692 92.7565 479.576L78.9562 484.082C78.9168 484.263 78.882 484.449 78.8402 484.634Z" fill="#AD5E36"/>
<path d="M58.9083 501.907L68.4388 505.436C68.4945 505.457 68.5548 505.475 68.6152 505.496H68.6198L70.6805 504.619L84.1953 498.773C84.0097 498.298 73.4141 502.432 70.098 503.736C69.6223 503.927 69.0955 503.586 69.0746 503.075C69.0654 502.854 69.0607 502.634 69.0538 502.413C68.8031 494.595 69.6548 487.374 71.0146 479.982C71.1956 479.015 71.2745 478.418 71.2699 478.151C71.2444 476.345 67.5477 489.611 67.9747 503.131C67.9886 503.641 67.5083 504.02 67.0163 503.873C61.3983 502.228 57.9268 501.359 58.9037 501.912L58.9083 501.907Z" fill="#FFFFB7"/>
<path d="M6.81525 451.182L17.3273 454.917L19.1629 447.024L26.4169 444.248L42.793 437.987C42.6677 437.31 42.54 436.643 42.4217 435.989C41.5236 431.283 40.607 427.247 39.6881 423.8C39.4096 422.771 39.1335 421.796 38.8596 420.872C38.2261 418.767 37.5903 416.922 36.9545 415.327C36.4509 414.057 35.9474 412.941 35.4438 411.97L38.9223 408.611L40.1452 407.43L37.277 406.905L37.219 406.894L32.571 406.037H32.5547L32.4874 406.021L31.8122 405.895H31.8029C31.5987 405.921 31.0255 406.011 30.3548 406.288L29.538 405.48L29.1667 405.41L24.405 404.54C22.8525 404.352 21.3001 404.955 20.2814 406.141C19.2418 407.353 18.2555 409.001 17.3227 410.958C17.202 411.216 17.0767 411.478 16.956 411.75C16.956 411.75 16.6822 412.369 16.6358 412.469C16.6033 412.553 16.3156 413.235 16.2831 413.319C16.1113 413.734 15.9118 414.222 15.7006 414.767C15.2272 415.995 14.668 417.523 14.1389 419.206C13.9718 419.747 13.8024 420.304 13.6446 420.875C12.5586 424.468 11.5932 428.277 10.7439 431.936C10.5861 432.59 10.4446 433.236 10.2984 433.876C8.75058 440.833 7.6692 446.948 7.1262 449.506C6.97536 450.204 6.87558 450.78 6.83149 451.042C6.81525 451.138 6.81061 451.189 6.81061 451.189L6.81525 451.182Z" fill="#F6C22F"/>
<path d="M6.83381 451.038C12.9136 448.283 19.5156 446.045 26.4192 444.248L42.793 437.985C42.6677 437.308 42.5423 436.641 42.4217 435.989C41.5236 431.286 40.6117 427.247 39.6881 423.8C39.4119 422.772 39.1358 421.797 38.8596 420.875C29.0878 423.89 19.497 427.57 10.7462 431.936C10.5908 432.588 10.4446 433.236 10.3007 433.879C8.75521 440.834 7.67152 446.95 7.13083 449.506C6.98 450.202 6.88021 450.78 6.83381 451.04V451.038Z" fill="#FBE75C"/>
<path d="M17.3282 410.953V410.963C23.5542 407.889 36.902 408.832 36.902 408.832L38.9255 408.611L40.1484 407.43L37.2802 406.905L37.2222 406.894L32.5742 406.037H32.5579L32.4906 406.021L31.8154 405.895H31.8061C31.6019 405.921 31.0287 406.011 30.3581 406.288L29.5412 405.48L29.1699 405.41L24.4082 404.54C22.8557 404.352 21.3033 404.955 20.2846 406.141C19.245 407.353 18.2587 409.001 17.3259 410.958L17.3282 410.953Z" fill="#FFFF99"/>
<path d="M17.3363 454.791C31.8629 446.072 24.5602 449.473 49.4062 439.797C46.7724 425.426 47.1832 417.021 44.7652 412.357C35.7266 394.924 24.0241 425.268 19.3204 443.586C16.9372 452.866 17.7239 454.401 17.334 454.791H17.3363Z" fill="#D06E00"/>
<path d="M17.3265 454.796C17.3265 454.796 17.3312 454.805 17.3359 454.791L17.3265 454.796Z" fill="#5E5E87"/>
<path d="M13.764 453.965C13.764 453.965 13.7687 453.974 13.7734 453.96L13.764 453.965Z" fill="#5E5E87"/>
<path d="M20.673 449.608L69.98 465.158L70.9221 461.581L74.0525 449.678L74.3588 448.529L76.5703 440.123L76.8256 439.155L79.0533 430.699L79.3086 429.731L81.0234 423.212L67.2835 420.313L55.0125 417.722C54.5971 417.804 54.2304 417.969 53.9148 418.175C53.3185 418.01 52.8961 417.272 52.8961 417.272L42.6416 415.109C42.6416 415.109 41.8132 414.953 41.0265 414.807C41.0219 414.802 41.0126 414.802 41.0056 414.802H40.9848C38.6828 414.487 36.3135 416.237 34.0811 418.997C34.0811 418.997 35.0488 419.856 33.4035 419.87C31.9393 421.822 30.5446 424.164 29.2706 426.595C29.2706 426.595 30.0527 427.449 28.8042 427.507C27.4908 430.086 26.3212 432.716 25.3582 435.035C25.3582 435.035 26.2215 435.868 24.9776 435.968C24.5669 436.982 24.2003 437.925 23.8847 438.754C23.5134 439.726 23.2071 440.55 22.982 441.172C22.8219 441.634 22.7012 441.985 22.6269 442.196C22.6223 442.222 22.613 442.24 22.606 442.261C21.7776 445.163 20.9306 448.222 20.6707 449.608H20.673Z" fill="#AD5E36"/>
<path d="M20.6728 449.606L69.9797 465.156L70.9219 461.579L66.5917 428.63C66.5917 428.63 63.7166 433.869 57.4627 437.955C58.2447 425.891 62.2245 419.248 62.2245 419.248L60.3239 418.846L51.6962 440.866C45.7416 443.078 37.8866 443.747 27.9338 440.325C32.9694 417.688 42.646 415.109 42.646 415.109C42.646 415.109 41.8176 414.953 41.0309 414.807C41.0263 414.802 41.017 414.802 41.0101 414.802H40.9892C38.6872 414.487 36.3179 416.237 34.0855 418.997C34.0855 418.997 35.0532 419.856 33.408 419.87C31.9437 421.822 30.549 424.166 29.2751 426.595C29.2751 426.595 30.0571 427.449 28.8086 427.507C27.4952 430.086 26.3256 432.716 25.3626 435.035C25.3626 435.035 26.2259 435.868 24.9821 435.968C24.5713 436.982 24.2047 437.925 23.8891 438.754C23.6895 439.285 23.5039 439.773 23.3414 440.204C23.2811 440.369 23.2254 440.525 23.172 440.671C23.1071 440.836 23.0514 440.991 23.0003 441.138C23.0003 441.151 22.9957 441.163 22.991 441.172H22.9864C22.8263 441.634 22.7056 441.985 22.6313 442.196C22.6267 442.222 22.6174 442.24 22.6105 442.261C21.782 445.16 20.935 448.222 20.6751 449.608L20.6728 449.606Z" fill="#924425"/>
<path d="M19.2268 444.004L68.4688 460.2V455.704L22.5475 442.438L19.2268 444.004Z" fill="#FCE85D"/>
<path d="M11.4977 452.611L73.382 472.256C73.3866 472.243 73.3866 472.222 73.3912 472.196L86.6508 438.358L87.9805 434.972L91.3314 426.42L94.7031 417.815L76.6238 414.488C75.1131 414.298 73.614 414.844 72.5744 415.953C71.1101 417.518 69.8362 419.788 68.7107 422.506C67.3323 425.844 66.1767 429.849 65.1649 434.052C64.8029 435.559 64.4571 437.089 64.1276 438.623C63.9722 439.35 63.8167 440.083 63.6658 440.817V440.821L64.1833 445.021L62.9233 444.515C62.8792 444.721 62.8374 444.93 62.798 445.137L62.6564 445.845L62.4406 446.938L61.3824 452.256L61.3221 452.553C60.9903 454.148 60.6654 455.645 60.3382 457.01L22.9797 445.183L19.2321 443.999L16.2664 447.3L11.4954 452.609L11.4977 452.611Z" fill="#F6C22F"/>
<path d="M64.1253 438.626C71.8156 438.185 79.4107 438.117 86.6485 438.359L87.9759 434.97L91.3314 426.418L93.4175 421.093L94.0116 419.582L94.7031 417.813L76.6191 414.486C75.1131 414.296 73.6094 414.844 72.5744 415.951C71.992 416.576 71.4373 417.309 70.9129 418.14C70.4093 418.936 69.9313 419.814 69.4765 420.77C69.2143 421.325 68.9567 421.903 68.7107 422.502C67.33 425.84 66.1767 429.847 65.1603 434.05C64.8029 435.552 64.4525 437.084 64.123 438.621L64.1253 438.626Z" fill="#FBE75C"/>
<path d="M69.4788 420.774C77.4406 416.041 91.9394 418.996 91.9394 418.996C92.6587 419.212 93.3502 419.41 94.0116 419.584L94.7031 417.815L76.6191 414.488C75.1131 414.298 73.6094 414.846 72.5744 415.953C71.992 416.578 71.4373 417.311 70.9129 418.142C70.4093 418.938 69.9313 419.816 69.4765 420.772L69.4788 420.774Z" fill="#FFFF99"/>
<path d="M73.3759 472.257C76.3045 457.572 93.8594 366.842 110.5 457.705L73.3783 472.257H73.3759Z" fill="#D06E00"/>
<path d="M82.534 458.074L103.352 449.914C100.592 434.84 97.6082 429.561 94.7934 429.545C93.9603 429.54 93.1435 429.998 92.3499 430.789C88.1056 435.049 84.5389 449.111 83.1489 455.207C82.7521 456.974 82.5316 458.071 82.5316 458.071L82.534 458.074Z" fill="#F3B11D"/>
<path d="M91.9484 438.241L100.748 448.308L103.352 449.914C100.592 434.84 97.6082 429.561 94.7934 429.545C93.9603 429.54 93.1435 429.998 92.3499 430.789L91.9484 438.241Z" fill="#C15200"/>
<path d="M89.5325 452.709V452.705L100.75 448.308C100.274 445.713 99.7916 443.405 99.3043 441.367C98.1997 441.061 99.063 440.388 99.063 440.388C98.7358 439.074 98.4063 437.883 98.0744 436.804C97.7681 435.806 97.4571 434.907 97.1508 434.095C95.9279 433.879 96.7795 433.157 96.7795 433.157C96.1228 431.567 95.4545 430.376 94.7932 429.545C92.8462 429.536 90.9759 432.038 89.3097 435.566C89.1194 435.968 88.9338 436.379 88.7528 436.806C87.7039 439.22 86.7455 441.989 85.9124 444.719C85.7918 445.112 85.6757 445.502 85.562 445.889C84.5039 449.492 83.6708 452.914 83.1487 455.207L89.5302 452.707L89.5325 452.709Z" fill="#924425"/>
<path d="M102.573 449.773C100.657 448.466 100.62 448.08 102.789 449.155C100.408 436.177 97.4543 430.534 99.3989 434.396C101.45 438.607 102.993 445.541 103.824 450.174C72.3785 462.461 78.9039 458.863 102.576 449.773H102.573Z" fill="#F8CE39"/>
<path d="M33.4113 419.869L66.8062 427.792C66.8457 427.671 66.8805 427.55 66.9223 427.43C66.9872 427.23 67.0522 427.028 67.1172 426.833L34.0889 418.994C34.0889 418.994 34.5251 419.379 34.314 419.642H34.3093C34.2095 419.767 33.9543 419.862 33.4113 419.867V419.869Z" fill="#803110"/>
<path d="M59.8008 425.099L59.5084 426.06L57.9745 425.698L58.3388 424.751L59.8008 425.099Z" fill="#63230B"/>
<path d="M96.6302 433.904C96.2497 433.607 96.7811 433.156 96.7811 433.156L89.3112 435.566C89.1998 435.791 89.0954 436.023 88.9956 436.258C88.9098 436.439 88.8355 436.62 88.7543 436.805L97.1523 434.096C96.8971 434.052 96.73 433.98 96.6302 433.906V433.904Z" fill="#63230B"/>
<path d="M28.8121 427.506L64.4951 436.931C64.5253 436.801 64.5508 436.676 64.581 436.555C64.6204 436.364 64.6668 436.174 64.7109 435.977L29.2785 426.592C29.2785 426.592 29.6289 426.977 29.4851 427.244C29.4155 427.379 29.2252 427.485 28.8121 427.504V427.506Z" fill="#803110"/>
<path d="M57.832 434.157L57.7137 435.141L55.1448 434.463C55.1448 434.463 55.0543 433.89 55.4419 433.525L57.832 434.159V434.157Z" fill="#63230B"/>
<path d="M98.8568 441.146C98.5111 440.819 99.0634 440.39 99.0634 440.39L85.9151 444.721C85.8455 444.946 85.7806 445.174 85.7156 445.394C85.6645 445.559 85.6158 445.726 85.5647 445.891L99.3047 441.369C99.0842 441.309 98.9427 441.235 98.8591 441.149L98.8568 441.146Z" fill="#63230B"/>
<path d="M24.9818 435.968L62.5004 446.606C62.5213 446.486 62.5445 446.365 62.57 446.244C62.6095 446.045 62.6559 445.843 62.6953 445.631L25.3624 435.032C25.3624 435.032 25.7476 435.404 25.6293 435.685C25.5736 435.819 25.3926 435.935 24.9818 435.965V435.968Z" fill="#803110"/>
<path d="M60.3251 435.833L64.4974 436.917C64.5671 436.585 64.6344 436.302 64.7109 435.977L61.2417 435.037C60.9517 435.309 60.6453 435.573 60.3228 435.836L60.3251 435.833Z" fill="#63230B"/>
<path d="M46.8994 442.191L62.5004 446.606C62.5607 446.279 62.6303 445.963 62.6953 445.631L48.9507 441.733C48.2894 441.91 47.6071 442.061 46.8994 442.191Z" fill="#63230B"/>
<path d="M73.2565 472.515C99.1074 462.454 118.305 454.395 100.537 461.008C76.2918 470.091 74.3309 471.707 74.7719 469.409C77.5449 455.07 86.1124 423.498 79.3526 443.812C72.3933 466.828 74.2613 471.695 70.9406 470.63C-68.5079 426.3 71.2075 473.325 73.2589 472.517L73.2565 472.515Z" fill="#FFFFAF"/>
<path d="M80.5422 444.171H80.5469V444.157L80.5422 444.171Z" fill="#FFFFAF"/>
<path d="M16.2656 447.303C18.4585 446.539 20.7001 445.838 22.9766 445.186L17.5488 443.354L16.2632 447.303H16.2656Z" fill="#F9DA44"/>
<path d="M86.636 424.391C88.6688 432.116 88.6688 431.392 84.9907 424.981C84.9907 424.981 85.6173 423.899 86.636 424.391Z" fill="#FBE75C"/>
<path d="M52.2634 419.338C52.2588 420.071 52.7948 418.901 53.918 418.173C53.3216 418.008 52.8992 417.27 52.8992 417.27C52.5326 417.636 52.2681 418.293 52.2611 419.338H52.2634Z" fill="#C87D4B"/>
<path d="M33.4109 419.869L66.8058 427.792C66.8453 427.671 66.8801 427.55 66.9219 427.43L34.3136 419.642H34.3089C34.2092 419.767 33.9539 419.862 33.4109 419.867V419.869Z" fill="#C87D4B"/>
<path d="M28.8132 427.507L64.4962 436.932C64.5263 436.802 64.5519 436.676 64.582 436.556L29.4861 427.247C29.4165 427.382 29.2262 427.488 28.8132 427.507Z" fill="#C87D4B"/>
<path d="M24.9821 435.967L62.5007 446.606C62.5216 446.485 62.5448 446.365 62.5703 446.244L25.6296 435.687C25.5739 435.821 25.3929 435.937 24.9821 435.967Z" fill="#C87D4B"/>
<path d="M36.4836 407.706C36.5787 407.667 28.1899 411.553 19.6828 443.761C39.5304 450.2 38.941 450.46 19.1143 444.36C18.2278 444.074 27.5054 410.822 36.4836 407.706Z" fill="#FFFFAF"/>
<path d="M85.5647 445.889L99.3047 441.367C99.0842 441.307 98.9427 441.232 98.8591 441.146H98.8545L85.7156 445.392C85.6645 445.557 85.6158 445.724 85.5647 445.889Z" fill="#AD5E36"/>
<path d="M88.7543 436.806L97.1523 434.097C96.8971 434.052 96.73 433.981 96.6302 433.906L88.9631 436.332C88.8773 436.513 88.8332 436.622 88.7543 436.808V436.806Z" fill="#AD5E36"/>
<path d="M27.772 408.256C27.7673 408.346 27.888 408.381 27.9367 408.3C28.5842 407.22 29.5472 406.619 30.3594 406.282L29.5472 405.475L29.3314 405.259C29.2757 405.31 29.2269 405.359 29.1759 405.405C28.0226 406.519 27.8021 407.689 27.772 408.256Z" fill="#F2A61B"/>
<path d="M53.7122 454.915C53.7122 454.915 55.1091 470.848 52.5844 454.557C52.5844 454.557 53.6077 453.673 53.7122 454.915Z" fill="#FCE85D"/>
<path d="M67.3915 445.641L63.6647 440.824L64.1822 445.023L67.0063 446.152C67.3219 446.277 67.6027 445.906 67.3915 445.639V445.641Z" fill="#D06E00"/>
<path d="M62.9137 444.517H62.9184C62.9833 444.19 63.0483 443.86 63.1133 443.528L62.9137 444.517Z" fill="#D06E00"/>
<path d="M33.6009 445.631L51.4737 450.794C54.4533 430.41 61.6562 419.124 61.6562 419.124L61.22 417.901C60.192 418.1 59.9205 418.442 59.9599 418.769L46.6911 415.965C39.6273 424.725 33.5985 445.631 33.5985 445.631H33.6009Z" fill="url(#paint3_linear_1274_7090)"/>
<path d="M45.3114 415.993C45.8544 415.229 46.7896 414.853 47.7062 415.046L48.0172 415.111L49.5766 415.443L56.1182 416.822L57.6474 417.149L61.2188 417.901C61.2188 417.901 53.5192 430.19 50.5326 450.574L46.6156 449.438L45.1606 449.023L36.5676 446.539L35.1219 446.124L32.6644 445.411C32.6644 445.411 38.619 425.42 45.3091 415.993H45.3114Z" fill="url(#paint4_linear_1274_7090)"/>
<path d="M35.1258 446.121L36.5715 446.537C40.3981 431.165 47.8586 418.289 49.5781 415.438L48.0187 415.106C45.8606 418.744 38.8294 431.274 35.1258 446.119V446.121Z" fill="#F7C52C"/>
<path d="M45.1655 449.023L46.6205 449.438C49.3634 433.811 55.9816 420.359 57.6523 417.147L56.1231 416.819C54.1669 420.659 47.862 433.816 45.1678 449.02L45.1655 449.023Z" fill="#F7C52C"/>
<path d="M67.9967 476.437C72.61 471.823 74.1485 471.823 78.7617 476.437C74.1485 471.823 74.1485 470.284 78.7617 465.669C74.1485 470.284 72.61 470.284 67.9967 465.669C72.61 470.284 72.61 471.823 67.9967 476.437Z" fill="#FFFFAF"/>
<path d="M5.50062 437.147C10.1139 432.533 11.6524 432.533 16.2656 437.147C11.6524 432.533 11.6524 430.994 16.2656 426.379C11.6524 430.994 10.1139 430.994 5.50062 426.379C10.1139 430.994 10.1139 432.533 5.50062 437.147Z" fill="#FFFFAF"/>
</g>
<defs>
<linearGradient id="paint0_linear_1274_7090" x1="31.7173" y1="488.305" x2="52.3358" y2="488.305" gradientUnits="userSpaceOnUse">
<stop stop-color="#3256D5"/>
<stop offset="1" stop-color="#8AA4FF"/>
</linearGradient>
<linearGradient id="paint1_linear_1274_7090" x1="50.4867" y1="489.841" x2="51.5711" y2="489.841" gradientUnits="userSpaceOnUse">
<stop stop-color="#3256D5"/>
<stop offset="1" stop-color="#8AA4FF"/>
</linearGradient>
<linearGradient id="paint2_linear_1274_7090" x1="31.7173" y1="488.3" x2="52.3358" y2="488.3" gradientUnits="userSpaceOnUse">
<stop stop-color="#3256D5"/>
<stop offset="1" stop-color="#8AA4FF"/>
</linearGradient>
<linearGradient id="paint3_linear_1274_7090" x1="32.1051" y1="433.379" x2="64.4772" y2="433.379" gradientUnits="userSpaceOnUse">
<stop stop-color="#3256D5"/>
<stop offset="1" stop-color="#8AA4FF"/>
</linearGradient>
<linearGradient id="paint4_linear_1274_7090" x1="31.1445" y1="432.785" x2="64.0896" y2="432.785" gradientUnits="userSpaceOnUse">
<stop stop-color="#3256D5"/>
<stop offset="1" stop-color="#8AA4FF"/>
</linearGradient>
<clipPath id="clip0_1274_7090">
<rect width="105" height="101" fill="white" transform="matrix(-1 0 0 1 110.5 404.5)"/>
</clipPath>
</defs>
</svg>
