<svg width="55" height="57" viewBox="0 0 55 57" fill="none" xmlns="http://www.w3.org/2000/svg">
<path d="M44.992 44.7784H32.8602C30.5409 44.7784 28.7839 42.6238 29.1866 40.2738L33.564 14.7305H47.4967C52.1595 14.7305 55.692 19.0621 54.8823 23.7868L52.3776 38.402C51.7457 42.0898 48.6315 44.7784 44.992 44.7784Z" fill="url(#paint0_linear_1375_1751)"/>
<path d="M40.5092 37.9965H9.34375L14.4932 7.94858H44.343C46.6623 7.94858 48.4194 10.1031 48.0166 12.4532L44.1827 34.8249C43.8685 36.6592 42.3195 37.9965 40.5092 37.9965Z" fill="url(#paint1_linear_1375_1751)"/>
<path d="M46.7183 20.0438L44.1853 34.8248C43.8709 36.6591 42.3219 37.9964 40.5117 37.9964H29.5803L29.1901 40.2738C29.1273 40.6384 29.1161 41.0104 29.1567 41.3783H40.5117C43.9235 41.3783 46.8298 38.8691 47.4223 35.4119L49.9553 20.631C50.1175 19.6847 49.4815 18.7896 48.5559 18.6616C47.6821 18.5407 46.8714 19.1506 46.7183 20.0438Z" fill="#7F63C2"/>
<path d="M12.3673 2.10306C10.1195 2.10306 8.19624 3.76354 7.80587 6.0411L0.988281 45.823L5.19753 47.5576L10.3946 45.823L16.9285 7.69617C17.4287 4.77821 15.247 2.10306 12.3673 2.10306Z" fill="url(#paint2_linear_1375_1751)"/>
<path d="M30.354 32.1596L33.7706 33.1705C35.5517 33.6973 37.3396 32.3608 37.403 30.4551L37.5244 26.7995C37.5426 26.2494 37.7112 25.7157 38.0107 25.2597L40.0008 22.2288C41.0382 20.6487 40.3553 18.4862 38.6133 17.8353L35.2718 16.5868C34.7689 16.3989 34.3277 16.0691 33.9987 15.635L31.8121 12.7511C30.6722 11.2477 28.4622 11.2477 27.3223 12.7511L25.1358 15.635C24.8067 16.069 24.3655 16.3989 23.8627 16.5868L20.5212 17.8353C18.7791 18.4862 18.0962 20.6487 19.1337 22.2288L21.1237 25.2597C21.4233 25.7157 21.5918 26.2494 21.6101 26.7995L21.7315 30.4551C21.7948 32.3608 23.5827 33.6973 25.3639 33.1705L28.7804 32.1596C29.2945 32.0076 29.8399 32.0076 30.354 32.1596Z" fill="url(#paint3_linear_1375_1751)"/>
<path d="M29.7474 28.4517L31.725 29.0368C32.7561 29.3419 33.7911 28.5682 33.8278 27.4649L33.898 25.3488C33.9086 25.0304 34.0061 24.7214 34.1795 24.4574L35.3315 22.7029C35.9321 21.7882 35.5367 20.5363 34.5283 20.1596L32.594 19.4369C32.3029 19.3282 32.0475 19.1372 31.857 18.886L30.5912 17.2165C29.9313 16.3461 28.6521 16.3461 27.9922 17.2165L26.7264 18.886C26.5359 19.1372 26.2805 19.3282 25.9894 19.4369L24.0551 20.1596C23.0467 20.5363 22.6514 21.7882 23.2519 22.7029L24.4039 24.4574C24.5773 24.7214 24.6748 25.0304 24.6854 25.3488L24.7556 27.4649C24.7922 28.5681 25.8272 29.3419 26.8583 29.0368L28.836 28.4517C29.1338 28.3636 29.4496 28.3636 29.7474 28.4517Z" fill="url(#paint4_linear_1375_1751)"/>
<path d="M0.987839 45.8231L0.0401295 51.353C-0.24002 52.9877 0.982251 54.4864 2.59544 54.4864H6.04236C7.70047 54.4864 9.1194 53.2615 9.40733 51.5813L10.3942 45.8231H0.987839Z" fill="url(#paint5_linear_1375_1751)"/>
<path d="M8.68305 20.239C8.61983 20.239 8.55584 20.2333 8.49142 20.2216C7.89552 20.1135 7.4977 19.5289 7.60277 18.9158L7.80436 17.7393C7.90943 17.1262 8.4774 16.7153 9.07363 16.825C9.66954 16.9331 10.0674 17.5177 9.96229 18.1309L9.7607 19.3073C9.66702 19.8541 9.20467 20.239 8.68305 20.239ZM9.66209 14.5258C9.59887 14.5258 9.53489 14.5202 9.47058 14.5085C8.87467 14.4003 8.47674 13.8156 8.58181 13.2026L9.51572 7.75277C9.62078 7.13965 10.1892 6.72898 10.7849 6.83844C11.3808 6.94654 11.7787 7.53115 11.6736 8.14428L10.7397 13.5941C10.6461 14.141 10.1838 14.5258 9.66209 14.5258Z" fill="#FFFBCC"/>
<defs>
<linearGradient id="paint0_linear_1375_1751" x1="27.6835" y1="29.7544" x2="57.0291" y2="29.7544" gradientUnits="userSpaceOnUse">
<stop stop-color="#8B71C7"/>
<stop offset="1" stop-color="#A891D9"/>
</linearGradient>
<linearGradient id="paint1_linear_1375_1751" x1="16.6265" y1="22.9725" x2="57.1288" y2="22.9725" gradientUnits="userSpaceOnUse">
<stop stop-color="#A98BDB"/>
<stop offset="1" stop-color="#C3AFE8"/>
</linearGradient>
<linearGradient id="paint2_linear_1375_1751" x1="0.988281" y1="2.10306" x2="17.0002" y2="2.10306" gradientUnits="userSpaceOnUse">
<stop stop-color="#F4D84A"/>
<stop offset="1" stop-color="#F9EA9D"/>
</linearGradient>
<linearGradient id="paint3_linear_1375_1751" x1="18.6445" y1="11.6235" x2="40.4899" y2="11.6235" gradientUnits="userSpaceOnUse">
<stop stop-color="#F4D84A"/>
<stop offset="1" stop-color="#F9EA9D"/>
</linearGradient>
<linearGradient id="paint4_linear_1375_1751" x1="29.2919" y1="29.7029" x2="29.2919" y2="15.5229" gradientUnits="userSpaceOnUse">
<stop stop-color="#F4C128"/>
<stop offset="1" stop-color="#F9DD89"/>
</linearGradient>
<linearGradient id="paint5_linear_1375_1751" x1="5.19709" y1="55.303" x2="5.19709" y2="43.4386" gradientUnits="userSpaceOnUse">
<stop stop-color="#EC6476"/>
<stop offset="1" stop-color="#EC909C"/>
</linearGradient>
</defs>
</svg>
