<svg width="45" height="43" viewBox="0 0 45 43" fill="none" xmlns="http://www.w3.org/2000/svg">
<path d="M36.813 34.6078H26.887C24.9894 34.6078 23.5518 32.8945 23.8813 31.0258L27.4628 10.7137H38.8623C42.6773 10.7137 45.5675 14.1582 44.9051 17.9154L42.8558 29.5374C42.3388 32.4699 39.7908 34.6078 36.813 34.6078Z" fill="url(#paint0_linear_215_3228)"/>
<path d="M33.1444 29.2148H7.64539L11.8585 5.32074H36.2812C38.1788 5.32074 39.6164 7.03406 39.2868 8.90281L36.15 26.6928C35.8929 28.1514 34.6256 29.2148 33.1444 29.2148Z" fill="url(#paint1_linear_215_3228)"/>
<path d="M38.2226 14.9389L36.1501 26.6928C35.8929 28.1514 34.6256 29.2148 33.1444 29.2148H24.2006L23.8813 31.0258C23.83 31.3157 23.8208 31.6115 23.854 31.9041H33.1444C35.936 31.9041 38.3138 29.9087 38.7986 27.1596L40.8711 15.4058C41.0037 14.6533 40.4834 13.9415 39.7261 13.8397C39.0112 13.7436 38.3478 14.2286 38.2226 14.9389Z" fill="#7F63C2"/>
<path d="M10.1183 0.672363C8.27921 0.672363 6.70565 1.99278 6.38626 3.8039L0.808228 35.4385L4.25216 36.8179L8.5043 35.4385L13.8502 5.12001C14.2595 2.79964 12.4744 0.672363 10.1183 0.672363Z" fill="url(#paint2_linear_215_3228)"/>
<path d="M24.8364 24.5734L27.6318 25.3772C29.0891 25.7962 30.552 24.7334 30.6038 23.2179L30.7031 20.311C30.7181 19.8735 30.856 19.4492 31.101 19.0865L32.7293 16.6764C33.5781 15.4199 33.0194 13.7002 31.5941 13.1826L28.8601 12.1898C28.4487 12.0404 28.0877 11.7781 27.8185 11.433L26.0295 9.1397C25.0968 7.94416 23.2886 7.94416 22.356 9.1397L20.567 11.433C20.2978 11.7781 19.9368 12.0404 19.5254 12.1898L16.7914 13.1826C15.3661 13.7002 14.8074 15.4199 15.6562 16.6764L17.2844 19.0865C17.5295 19.4492 17.6674 19.8735 17.6823 20.311L17.7817 23.2179C17.8335 24.7334 19.2963 25.7962 20.7536 25.3772L23.5489 24.5734C23.9696 24.4524 24.4158 24.4524 24.8364 24.5734Z" fill="url(#paint3_linear_215_3228)"/>
<path d="M24.3393 21.6248L25.9575 22.0901C26.8011 22.3327 27.6478 21.7175 27.6779 20.8402L27.7353 19.1574C27.744 18.9042 27.8238 18.6585 27.9656 18.4485L28.9082 17.0534C29.3996 16.326 29.0761 15.3305 28.251 15.031L26.6684 14.4563C26.4302 14.3698 26.2213 14.218 26.0654 14.0182L25.0298 12.6906C24.4898 11.9985 23.4432 11.9985 22.9033 12.6906L21.8677 14.0182C21.7118 14.218 21.5028 14.3698 21.2646 14.4563L19.682 15.031C18.857 15.3305 18.5335 16.326 19.0249 17.0534L19.9674 18.4485C20.1093 18.6585 20.1891 18.9042 20.1977 19.1574L20.2552 20.8402C20.2851 21.7174 21.132 22.3327 21.9756 22.0901L23.5937 21.6248C23.8373 21.5548 24.0957 21.5548 24.3393 21.6248Z" fill="url(#paint4_linear_215_3228)"/>
<path d="M0.808232 35.4385L0.0328332 39.836C-0.19638 41.1359 0.80366 42.3277 2.12354 42.3277H4.94375C6.30038 42.3277 7.46133 41.3536 7.69691 40.0175L8.50431 35.4385H0.808232Z" fill="url(#paint5_linear_215_3228)"/>
<path d="M7.10442 15.0941C7.0527 15.0941 7.00035 15.0896 6.94764 15.0803C6.46008 14.9943 6.13459 14.5294 6.22056 14.0419L6.3855 13.1064C6.47146 12.6188 6.93616 12.2921 7.42399 12.3793C7.91155 12.4652 8.23704 12.9301 8.15108 13.4177L7.98613 14.3532C7.90949 14.788 7.5312 15.0941 7.10442 15.0941ZM7.90546 10.5509C7.85373 10.5509 7.80138 10.5465 7.74876 10.5371C7.2612 10.4512 6.93563 9.9862 7.02159 9.49873L7.7857 5.16502C7.87166 4.67746 8.33672 4.3509 8.8241 4.43794C9.31166 4.5239 9.63724 4.98878 9.55127 5.47634L8.78717 9.81006C8.71053 10.2449 8.33233 10.5509 7.90546 10.5509Z" fill="#FFFBCC"/>
<defs>
<linearGradient id="paint0_linear_215_3228" x1="22.6515" y1="22.6608" x2="46.6615" y2="22.6608" gradientUnits="userSpaceOnUse">
<stop stop-color="#8B71C7"/>
<stop offset="1" stop-color="#A891D9"/>
</linearGradient>
<linearGradient id="paint1_linear_215_3228" x1="13.604" y1="17.2678" x2="46.7422" y2="17.2678" gradientUnits="userSpaceOnUse">
<stop stop-color="#A98BDB"/>
<stop offset="1" stop-color="#C3AFE8"/>
</linearGradient>
<linearGradient id="paint2_linear_215_3228" x1="0.808228" y1="0.672363" x2="13.9089" y2="0.672363" gradientUnits="userSpaceOnUse">
<stop stop-color="#F4D84A"/>
<stop offset="1" stop-color="#F9EA9D"/>
</linearGradient>
<linearGradient id="paint3_linear_215_3228" x1="15.256" y1="8.24304" x2="33.1295" y2="8.24304" gradientUnits="userSpaceOnUse">
<stop stop-color="#F4D84A"/>
<stop offset="1" stop-color="#F9EA9D"/>
</linearGradient>
<linearGradient id="paint4_linear_215_3228" x1="23.9667" y1="22.6198" x2="23.9667" y2="11.3438" gradientUnits="userSpaceOnUse">
<stop stop-color="#F4C128"/>
<stop offset="1" stop-color="#F9DD89"/>
</linearGradient>
<linearGradient id="paint5_linear_215_3228" x1="4.25217" y1="42.977" x2="4.25217" y2="33.5424" gradientUnits="userSpaceOnUse">
<stop stop-color="#EC6476"/>
<stop offset="1" stop-color="#EC909C"/>
</linearGradient>
</defs>
</svg>
