<svg width="28" height="32" viewBox="0 0 28 32" fill="none" xmlns="http://www.w3.org/2000/svg">
<path d="M14.0026 31.0649C15.799 31.0649 17.2553 29.6086 17.2553 27.8122C17.2553 26.0158 15.799 24.5596 14.0026 24.5596C12.2063 24.5596 10.75 26.0158 10.75 27.8122C10.75 29.6086 12.2063 31.0649 14.0026 31.0649Z" fill="url(#paint0_linear_1413_3980)"/>
<path d="M14.0026 7.44085C15.799 7.44085 17.2553 5.98459 17.2553 4.1882C17.2553 2.39181 15.799 0.935547 14.0026 0.935547C12.2063 0.935547 10.75 2.39181 10.75 4.1882C10.75 5.98459 12.2063 7.44085 14.0026 7.44085Z" fill="url(#paint1_linear_1413_3980)"/>
<path d="M14.0027 24.5811C16.7233 24.5811 23.9008 23.922 27.2868 22.5471C23.2495 20.2772 22.0597 17.6983 22.4211 11.9026C22.6538 8.16783 20.1164 4.58789 14.0027 4.58789C7.88907 4.58789 5.3516 8.16783 5.58446 11.9027C5.94581 17.6983 4.75597 20.2772 0.71875 22.5472C4.10464 23.9221 11.2821 24.5811 14.0027 24.5811Z" fill="url(#paint2_linear_1413_3980)"/>
<path d="M14.0015 27.0914C10.9923 27.0914 4.90049 26.5353 1.36454 25.0427C0.235435 24.566 -0.293571 23.2643 0.183074 22.1351C0.659648 21.0059 1.96152 20.4769 3.09069 20.9536C5.02679 21.7709 9.74889 22.653 14.0016 22.653C17.3127 22.653 22.4258 22.0032 24.9125 20.9536C26.0417 20.4772 27.3435 21.006 27.8201 22.1351C28.2967 23.2643 27.7677 24.566 26.6386 25.0427C23.1025 26.5352 17.0107 27.0914 14.0015 27.0914Z" fill="url(#paint3_linear_1413_3980)"/>
<path d="M21.5655 20.4366C21.377 19.8242 20.7646 19.4461 20.1326 19.552C18.1621 19.8822 15.8891 20.0993 14.0004 20.0993C10.3552 20.0993 6.50001 19.3992 4.6697 18.8135C4.26571 19.6072 3.72379 20.2976 3.02734 20.9297C3.04806 20.9377 3.06885 20.9454 3.0895 20.9541C5.02559 21.7714 9.74769 22.6535 14.0004 22.6535C15.8741 22.6535 18.3246 22.4454 20.5497 22.0745C21.3145 21.9471 21.7935 21.1776 21.5655 20.4366Z" fill="#FDC515"/>
<path d="M7.76675 16.1407C8.35201 16.1407 8.82646 15.7595 8.82646 15.2891C8.82646 14.8188 8.35201 14.4375 7.76675 14.4375C7.18148 14.4375 6.70703 14.8188 6.70703 15.2891C6.70703 15.7595 7.18148 16.1407 7.76675 16.1407Z" fill="#FDAECE"/>
<path d="M20.2394 16.1407C20.8247 16.1407 21.2991 15.7595 21.2991 15.2891C21.2991 14.8188 20.8247 14.4375 20.2394 14.4375C19.6541 14.4375 19.1797 14.8188 19.1797 15.2891C19.1797 15.7595 19.6541 16.1407 20.2394 16.1407Z" fill="#FDAECE"/>
<path d="M9.58188 15.2878C10.7425 15.2878 11.6833 14.3469 11.6833 13.1864C11.6833 12.0258 10.7425 11.085 9.58188 11.085C8.4213 11.085 7.48047 12.0258 7.48047 13.1864C7.48047 14.3469 8.4213 15.2878 9.58188 15.2878Z" fill="white"/>
<path d="M18.4217 15.2878C19.5823 15.2878 20.5231 14.3469 20.5231 13.1864C20.5231 12.0258 19.5823 11.085 18.4217 11.085C17.2611 11.085 16.3203 12.0258 16.3203 13.1864C16.3203 14.3469 17.2611 15.2878 18.4217 15.2878Z" fill="white"/>
<path d="M9.58445 14.4394C10.2761 14.4394 10.8369 13.8787 10.8369 13.187C10.8369 12.4953 10.2761 11.9346 9.58445 11.9346C8.89276 11.9346 8.33203 12.4953 8.33203 13.187C8.33203 13.8787 8.89276 14.4394 9.58445 14.4394Z" fill="#383842"/>
<path d="M18.4204 14.4394C19.1121 14.4394 19.6728 13.8787 19.6728 13.187C19.6728 12.4953 19.1121 11.9346 18.4204 11.9346C17.7287 11.9346 17.168 12.4953 17.168 13.187C17.168 13.8787 17.7287 14.4394 18.4204 14.4394Z" fill="#383842"/>
<path d="M14.0048 15.3547C13.6326 15.3547 13.2602 15.2139 12.9565 14.9322C12.9217 14.9007 12.8935 14.8626 12.8736 14.8202C12.8536 14.7777 12.8422 14.7316 12.8402 14.6847C12.8381 14.6378 12.8454 14.591 12.8616 14.5469C12.8778 14.5029 12.9025 14.4625 12.9344 14.428C12.9664 14.3936 13.0048 14.3659 13.0475 14.3464C13.0902 14.3269 13.1364 14.3161 13.1833 14.3146C13.2302 14.3131 13.277 14.321 13.3208 14.3377C13.3647 14.3544 13.4048 14.3796 13.4389 14.4119C13.7721 14.7209 14.2375 14.7209 14.5707 14.4119C14.6048 14.3796 14.6449 14.3544 14.6888 14.3377C14.7326 14.321 14.7794 14.3131 14.8263 14.3146C14.8732 14.3161 14.9194 14.3269 14.9621 14.3464C15.0048 14.3659 15.0433 14.3936 15.0752 14.428C15.1071 14.4625 15.1318 14.5029 15.148 14.5469C15.1642 14.591 15.1715 14.6378 15.1694 14.6847C15.1674 14.7316 15.156 14.7777 15.136 14.8202C15.1161 14.8626 15.0879 14.9007 15.0531 14.9322C14.7495 15.2138 14.3771 15.3547 14.0048 15.3547Z" fill="#383842"/>
<path d="M16.4333 7.32777C16.3804 7.32777 16.3267 7.32181 16.2729 7.30939C15.5894 7.15145 14.8251 7.07142 14.0012 7.07142C13.8086 7.07142 13.6175 7.07568 13.433 7.08398C13.3399 7.08833 13.2468 7.07426 13.1592 7.04258C13.0715 7.0109 12.991 6.96223 12.9221 6.89937C12.8533 6.8365 12.7976 6.76067 12.7581 6.67623C12.7186 6.59178 12.6962 6.50038 12.6921 6.40726C12.6745 6.01575 12.9774 5.68413 13.3689 5.66639C13.5746 5.6571 13.7873 5.65234 14.0012 5.65234C14.9324 5.65234 15.8042 5.74465 16.5924 5.92678C16.9741 6.01497 17.2121 6.39597 17.1239 6.77776C17.0481 7.10583 16.7562 7.32777 16.4333 7.32777ZM19.3379 8.81666C19.151 8.8169 18.9716 8.74313 18.8389 8.61147C18.752 8.5256 18.6612 8.4438 18.5668 8.36634C18.2639 8.11759 18.2202 7.67053 18.4689 7.36771C18.7176 7.06497 19.1645 7.02098 19.4675 7.2698C19.5956 7.3751 19.7189 7.4862 19.8369 7.60277C20.1155 7.87834 20.1179 8.3276 19.8422 8.60615C19.7764 8.67295 19.6978 8.72596 19.6112 8.7621C19.5247 8.79824 19.4317 8.81679 19.3379 8.81666Z" fill="#FFFCE2"/>
<defs>
<linearGradient id="paint0_linear_1413_3980" x1="14.0026" y1="26.6877" x2="14.0026" y2="31.2016" gradientUnits="userSpaceOnUse">
<stop stop-color="#FFC200"/>
<stop offset="1" stop-color="#FFE194"/>
</linearGradient>
<linearGradient id="paint1_linear_1413_3980" x1="14.0026" y1="5.96877" x2="14.0026" y2="1.24617" gradientUnits="userSpaceOnUse">
<stop stop-color="#FFC200"/>
<stop offset="1" stop-color="#FFE194"/>
</linearGradient>
<linearGradient id="paint2_linear_1413_3980" x1="0.71875" y1="4.58789" x2="27.2868" y2="4.58789" gradientUnits="userSpaceOnUse">
<stop stop-color="#FDD943"/>
<stop offset="1" stop-color="#FDEDAC"/>
</linearGradient>
<linearGradient id="paint3_linear_1413_3980" x1="0.0078125" y1="20.7783" x2="27.9954" y2="20.7783" gradientUnits="userSpaceOnUse">
<stop stop-color="#FDD943"/>
<stop offset="1" stop-color="#FDEDAC"/>
</linearGradient>
</defs>
</svg>
