<svg width="34" height="46" viewBox="0 0 34 46" fill="none" xmlns="http://www.w3.org/2000/svg">
<path d="M1.96875 18.9414C1.96875 17.2846 3.3119 15.9414 4.96875 15.9414H28.9688C30.6256 15.9414 31.9688 17.2846 31.9688 18.9414V40.7183C31.9688 43.0337 29.4571 44.4763 27.4571 43.3096L18.4804 38.0732C17.5463 37.5283 16.3912 37.5283 15.4571 38.0732L6.48036 43.3096C4.48039 44.4763 1.96875 43.0337 1.96875 40.7183V18.9414Z" fill="#769AB8"/>
<circle cx="16.9688" cy="17.9414" r="13.5" fill="#E8EFF5" stroke="#769AB8" stroke-width="3"/>
<path d="M25.454 26.4265C26.5683 25.3122 27.4522 23.9894 28.0553 22.5335C28.6584 21.0776 28.9687 19.5171 28.9687 17.9413C28.9687 16.3654 28.6584 14.805 28.0553 13.3491C27.4522 11.8932 26.5683 10.5703 25.454 9.45598C24.3397 8.34168 23.0169 7.45777 21.561 6.85471C20.105 6.25165 18.5446 5.94127 16.9687 5.94127C15.3929 5.94127 13.8325 6.25166 12.3765 6.85471C10.9206 7.45777 9.59777 8.34168 8.48347 9.45599L16.9688 17.9413L25.454 26.4265Z" fill="#D1E3F2"/>
<path d="M20.1354 21.6054C20.6047 21.6054 20.9514 21.7014 21.1754 21.8934C21.41 22.0747 21.5274 22.3627 21.5274 22.7574C21.5274 23.1627 21.41 23.4614 21.1754 23.6534C20.9514 23.8454 20.6047 23.9414 20.1354 23.9414H14.2954C13.9114 23.9414 13.6074 23.8294 13.3834 23.6054C13.1594 23.3707 13.0474 23.0774 13.0474 22.7254C13.0474 22.2667 13.2287 21.8507 13.5914 21.4774L16.9834 17.9414C17.6874 17.2054 18.0394 16.5281 18.0394 15.9094C18.0394 15.5467 17.9327 15.2694 17.7194 15.0774C17.5167 14.8854 17.2234 14.7894 16.8394 14.7894C16.53 14.7894 16.242 14.8374 15.9754 14.9334C15.7194 15.0187 15.4207 15.1467 15.0794 15.3174L14.7594 15.4774C14.7167 15.4987 14.6314 15.5467 14.5034 15.6214C14.386 15.6854 14.2794 15.7334 14.1834 15.7654C14.0874 15.7974 13.986 15.8134 13.8794 15.8134C13.6127 15.8134 13.3887 15.6961 13.2074 15.4614C13.026 15.2161 12.9354 14.9281 12.9354 14.5974C12.9354 14.3627 12.9674 14.1707 13.0314 14.0214C13.106 13.8721 13.2394 13.7334 13.4314 13.6054C13.9327 13.2641 14.4927 12.9974 15.1114 12.8054C15.7407 12.6134 16.3594 12.5174 16.9674 12.5174C17.7567 12.5174 18.45 12.6507 19.0474 12.9174C19.6447 13.1734 20.1034 13.5467 20.4234 14.0374C20.754 14.5174 20.9194 15.0721 20.9194 15.7014C20.9194 16.3521 20.786 16.9494 20.5194 17.4934C20.2634 18.0267 19.8207 18.6241 19.1914 19.2854L16.9194 21.6054H20.1354Z" fill="#769AB8"/>
</svg>
