<svg width="76" height="50" viewBox="0 0 76 50" fill="none" xmlns="http://www.w3.org/2000/svg">
<g clip-path="url(#clip0_1274_7181)">
<path d="M73.028 18.9281C67.2002 10.7619 53.378 5.22461 37.9984 5.22461C22.6188 5.22461 8.79978 10.7619 2.97198 18.9281H1.34233L0.211939 25.2799C-2.09594 38.2571 14.7029 50.0003 37.9984 50.0003C61.2939 50.0003 78.0928 38.2571 75.7849 25.2799L74.6545 18.9281H73.0249H73.028Z" fill="url(#paint0_linear_1274_7181)"/>
<path d="M74.6601 18.9278C76.8266 31.1178 60.5239 42.1134 38.0008 42.1134C15.4778 42.1134 -0.824983 31.1178 1.3416 18.9278C3.27897 8.02638 19.6131 0 38.0008 0C56.3885 0 72.7196 8.02638 74.6601 18.9278Z" fill="url(#paint1_linear_1274_7181)"/>
<path d="M74.6601 18.9278C76.8266 31.1178 60.5239 42.1134 38.0008 42.1134C15.4778 42.1134 -0.824983 31.1178 1.3416 18.9278C3.27897 8.02638 19.6131 0 38.0008 0C56.3885 0 72.7196 8.02638 74.6601 18.9278Z" fill="white" fill-opacity="0.2"/>
<path d="M63.8156 18.928C64.8707 27.3647 53.3501 34.7285 38.0019 34.7285C22.6537 34.7285 11.1331 27.3647 12.1881 18.928C13.1647 11.1296 24.6915 5.22754 38.0019 5.22754C51.3123 5.22754 62.8391 11.1296 63.8156 18.928Z" fill="url(#paint2_linear_1274_7181)"/>
<path d="M46.0772 12.516C47.0507 11.8307 48.6334 11.8276 49.6124 12.5091C50.5914 13.1906 50.5957 14.2984 49.6222 14.9838L34.7072 25.4839C34.2382 25.814 33.5998 25.9998 32.9347 26C32.2692 26 31.629 25.8142 31.1598 25.4839L26.0766 21.9052C25.1032 21.22 24.3481 19.0016 25.8489 17.5C27.3496 15.9984 28.8769 16.8147 29.8505 17.5L32.3185 19.5573C32.638 19.8237 33.0891 19.8644 33.4512 19.6596L46.0772 12.516Z" fill="url(#paint3_linear_1274_7181)"/>
</g>
<defs>
<linearGradient id="paint0_linear_1274_7181" x1="80.0421" y1="27.6125" x2="-7.64082" y2="27.6125" gradientUnits="userSpaceOnUse">
<stop stop-color="#3256D5"/>
<stop offset="1" stop-color="#8AA4FF"/>
</linearGradient>
<linearGradient id="paint1_linear_1274_7181" x1="78.7764" y1="21.0567" x2="-6.26194" y2="21.0567" gradientUnits="userSpaceOnUse">
<stop stop-color="#3256D5"/>
<stop offset="1" stop-color="#8AA4FF"/>
</linearGradient>
<linearGradient id="paint2_linear_1274_7181" x1="66.6379" y1="19.978" x2="6.91691" y2="19.978" gradientUnits="userSpaceOnUse">
<stop stop-color="#3256D5"/>
<stop offset="1" stop-color="#8AA4FF"/>
</linearGradient>
<linearGradient id="paint3_linear_1274_7181" x1="25.349" y1="19.0001" x2="50.3479" y2="19.0001" gradientUnits="userSpaceOnUse">
<stop stop-color="white"/>
<stop offset="1" stop-color="white" stop-opacity="0.73"/>
</linearGradient>
<clipPath id="clip0_1274_7181">
<rect width="76" height="50" fill="white"/>
</clipPath>
</defs>
</svg>
