<svg width="94" height="67" viewBox="0 0 94 67" fill="none" xmlns="http://www.w3.org/2000/svg">
<path d="M82.028 24.9281C76.2002 16.7619 62.378 11.2246 46.9984 11.2246C31.6188 11.2246 17.7998 16.7619 11.972 24.9281H10.3423L9.21194 31.2799C6.90406 44.2571 23.7029 56.0003 46.9984 56.0003C70.2939 56.0003 87.0928 44.2571 84.7849 31.2799L83.6545 24.9281H82.0249H82.028Z" fill="url(#paint0_linear_1274_7185)"/>
<path d="M83.6601 24.9278C85.8266 37.1178 69.5239 48.1134 47.0008 48.1134C24.4778 48.1134 8.17502 37.1178 10.3416 24.9278C12.279 14.0264 28.6131 6 47.0008 6C65.3885 6 81.7196 14.0264 83.6601 24.9278Z" fill="url(#paint1_linear_1274_7185)"/>
<path d="M83.6601 24.9278C85.8266 37.1178 69.5239 48.1134 47.0008 48.1134C24.4778 48.1134 8.17502 37.1178 10.3416 24.9278C12.279 14.0264 28.6131 6 47.0008 6C65.3885 6 81.7196 14.0264 83.6601 24.9278Z" fill="white" fill-opacity="0.2"/>
<path d="M72.8156 24.928C73.8707 33.3647 62.3501 40.7285 47.0019 40.7285C31.6537 40.7285 20.1331 33.3647 21.1881 24.928C22.1647 17.1296 33.6915 11.2275 47.0019 11.2275C60.3123 11.2275 71.8391 17.1296 72.8156 24.928Z" fill="url(#paint2_linear_1274_7185)"/>
<g filter="url(#filter0_f_1274_7185)">
<path d="M61.7676 7.96777C75.3071 11.8505 84.2031 20.9965 85.3965 31.5391C87.1099 46.6975 71.928 58.9873 47.002 58.9873C22.0763 58.9872 6.90213 46.6963 8.61523 31.5381C9.80173 21.0554 18.5997 11.9538 32.0078 8.03418C21.1715 11.5936 13.2473 18.8946 12.3252 27.7002C10.9083 41.2509 26.3802 53.0791 46.9922 53.0791C67.604 53.079 83.0751 41.2508 81.6582 27.7002C80.7302 18.8384 72.7103 11.5018 61.7676 7.96777Z" fill="url(#paint3_linear_1274_7185)"/>
</g>
<path d="M49.4035 16.9254L52.6094 20.1499C53.0208 20.5632 53.7524 20.855 54.5907 20.9401L61.2538 21.6087C63.4643 21.8306 64.4628 23.341 62.9808 24.2619L58.409 27.0974C57.8218 27.4621 57.5643 27.9666 57.7087 28.468L58.8768 32.5405C59.2725 33.9203 56.9049 34.9657 54.7446 34.3518L48.2794 32.5131C47.4693 32.2822 46.5304 32.2822 45.7203 32.5131L39.2551 34.3518C37.0948 34.9657 34.7273 33.9203 35.1229 32.5405L36.291 28.468C36.4354 27.9635 36.1779 27.459 35.5907 27.0974L31.0189 24.2619C29.5369 23.344 30.5354 21.8306 32.7459 21.6087L39.409 20.9401C40.2473 20.855 40.9758 20.5632 41.3903 20.1499L44.5962 16.9254C45.6324 15.8829 48.3673 15.8829 49.4035 16.9254Z" fill="url(#paint4_linear_1274_7185)"/>
<defs>
<filter id="filter0_f_1274_7185" x="-7.9" y="-1.9" width="109.8" height="71.8" filterUnits="userSpaceOnUse" color-interpolation-filters="sRGB">
<feFlood flood-opacity="0" result="BackgroundImageFix"/>
<feBlend mode="normal" in="SourceGraphic" in2="BackgroundImageFix" result="shape"/>
<feGaussianBlur stdDeviation="3.95" result="effect1_foregroundBlur_1274_7185"/>
</filter>
<linearGradient id="paint0_linear_1274_7185" x1="89.0421" y1="33.6125" x2="1.35918" y2="33.6125" gradientUnits="userSpaceOnUse">
<stop stop-color="#3256D5"/>
<stop offset="1" stop-color="#8AA4FF"/>
</linearGradient>
<linearGradient id="paint1_linear_1274_7185" x1="87.7764" y1="27.0567" x2="2.73806" y2="27.0567" gradientUnits="userSpaceOnUse">
<stop stop-color="#3256D5"/>
<stop offset="1" stop-color="#8AA4FF"/>
</linearGradient>
<linearGradient id="paint2_linear_1274_7185" x1="75.6379" y1="25.978" x2="15.9169" y2="25.978" gradientUnits="userSpaceOnUse">
<stop stop-color="#3256D5"/>
<stop offset="1" stop-color="#8AA4FF"/>
</linearGradient>
<linearGradient id="paint3_linear_1274_7185" x1="89.6281" y1="33.477" x2="0.738385" y2="33.477" gradientUnits="userSpaceOnUse">
<stop stop-color="#3256D5"/>
<stop offset="1" stop-color="#8AA4FF"/>
</linearGradient>
<linearGradient id="paint4_linear_1274_7185" x1="30.3156" y1="25.3377" x2="63.681" y2="25.3377" gradientUnits="userSpaceOnUse">
<stop stop-color="white"/>
<stop offset="1" stop-color="white" stop-opacity="0.73"/>
</linearGradient>
</defs>
</svg>
