<svg width="106" height="102" viewBox="0 0 106 102" fill="none" xmlns="http://www.w3.org/2000/svg">
<g clip-path="url(#clip0_1274_7091)">
<path d="M17.0376 83.9951H17.1792C17.1792 83.9951 17.2001 83.9951 17.2047 83.9905C17.8359 83.9812 18.3023 83.835 18.5042 83.7607C18.539 83.7468 24.2383 81.2467 24.2383 81.2467L18.8801 79.8005L16.8543 79.2597L16.6339 79.1993L16.1512 79.0693C16.1512 79.0693 16.0769 82.0708 17.0399 83.9975L17.0376 83.9951Z" fill="#D06E00"/>
<path d="M9.55159 77.3566L12.0694 78.2456L22.2519 81.8437L47.2094 90.66L58.768 94.7408L63.5391 96.4261L62.163 84.8289L60.5943 71.5858L18.7061 58.5749L11.7283 56.4114L11.0553 56.2002L11.0507 56.2559L10.8209 59.5266L10.5587 63.2012L9.55159 77.3566Z" fill="#AD5E36"/>
<path d="M10.4291 61.9269L10.5591 63.2013L12.0697 78.2457L22.2523 81.8437L20.2009 64.0997C29.9472 67.0756 36.1779 71.4512 40.1622 75.7921L24.6262 74.773C24.5311 78.3362 25.8561 78.7982 25.8561 78.7982L42.6267 84.562C45.2025 85.4464 45.7107 87.322 45.8893 90.0403C45.8963 90.1447 45.8986 90.1981 45.8986 90.1981L58.7707 94.7386L62.168 84.8266L60.597 71.5836L18.7088 58.5773V58.5726L11.7309 56.4092C11.6149 56.6901 11.5058 56.9872 11.4107 57.2866C11.1601 58.0387 10.9698 58.821 10.8236 59.5244C10.5428 60.8684 10.4314 61.9223 10.4314 61.9223L10.4291 61.9269Z" fill="#924425"/>
<path d="M7.10527 65.6895L15.1158 68.4751L17.1973 69.197L20.9357 70.4969L54.3353 82.1034C54.3701 81.9688 54.4049 81.8319 54.4397 81.6972C54.4838 81.5115 54.5349 81.3212 54.5859 81.1308L20.8104 69.3943L17.1996 68.1408L7.5369 64.7842C7.39071 65.0906 7.24683 65.397 7.10527 65.6918V65.6895Z" fill="#803110"/>
<path d="M40.5791 76.2627C41.0154 76.7595 41.4261 77.2562 41.809 77.7483L54.3353 82.1031C54.4165 81.7828 54.5001 81.4601 54.5859 81.1305L40.5791 76.2627Z" fill="#63230B"/>
<path d="M1.81409 47.1816C1.97421 47.7898 2.13433 48.3957 2.2898 48.9992C3.5429 53.8159 4.60339 58.5189 5.4852 62.7692L5.54089 63.0362L6.26257 66.6295L6.30202 66.8361C7.41588 72.5674 8.14221 77.1126 8.50422 79.4571C8.55527 79.7774 8.59473 80.0536 8.62953 80.2904C8.71075 80.8522 9.09595 81.3234 9.62736 81.5207C9.62736 81.5207 15.5772 83.7236 15.5819 83.7236C16.1133 83.9186 16.6099 83.9906 17.0369 83.9999H17.1784C17.1784 83.9999 17.1993 83.9999 17.2039 83.9952C17.1529 83.1781 17.0392 81.5114 16.8535 79.2621C16.8489 79.2017 16.8443 79.146 16.8396 79.0857C16.4126 74.1622 15.6306 66.5506 14.3311 59.0435L16.5635 59.7515L23.8129 62.045L46.7723 69.3153L55.2748 72.0103C55.2748 72.0103 54.0913 74.8005 53.2142 80.1001C52.5458 84.1252 52.0562 89.5896 52.3973 96.384C52.4275 96.9806 52.8127 97.5029 53.3766 97.7095L53.9173 97.9091L63.4477 101.438L63.6241 101.503V101.498L64.065 98.4128L66.4737 81.5671L68.0587 70.4968L68.3789 68.2637L1.81409 47.1886V47.1816Z" fill="#F2A61B"/>
<path d="M53.2131 80.098C52.5447 84.1232 52.0551 89.5875 52.3962 96.382C52.4264 96.9785 52.8116 97.5008 53.3755 97.7074L53.9162 97.9071L63.4467 101.435L63.623 101.5V101.496L64.0639 98.4085L66.4727 81.5628C65.932 81.4281 65.3542 81.326 64.7369 81.2656C64.7369 81.2656 60.3627 80.6784 53.2131 80.0957V80.098Z" fill="#FADE4B"/>
<path d="M63.6195 101.493V101.498L63.6242 101.493L65.6848 100.616L79.1997 94.7708L93.9583 88.3872C94.6104 88.1063 95.0629 87.4935 95.1627 86.7925C97.1445 72.2449 101.929 60.9796 104.222 56.2023C105.004 54.5821 105.496 53.7092 105.496 53.7092L105.491 53.6953C105.069 53.8416 100.806 55.5315 68.3743 68.2638C68.3743 68.2638 68.3743 68.2685 68.3697 68.2731C68.3186 68.3729 67.9033 69.2063 67.3371 70.7824C67.0215 71.6645 66.6548 72.7904 66.2789 74.1507C64.7891 79.5059 63.1392 88.5683 63.6195 101.5V101.493Z" fill="#D06E00"/>
<path d="M72.7871 89.3595L89.8176 82.7252C90.9314 76.0955 91.4582 71.9613 93.2148 66.6826C92.152 67.0981 91.0219 67.5415 89.8338 68.0081C85.8958 69.5587 81.2664 71.3763 75.8572 73.498C74.98 76.4484 73.6805 79.2386 73.0075 86.5646C72.9217 87.4629 72.8474 88.3961 72.7871 89.3595Z" fill="#C15200"/>
<path d="M17.1991 68.1387V69.1972L20.9375 70.4971L20.8122 69.3922L17.1991 68.1387Z" fill="#63230B"/>
<path d="M17.674 69.3621L20.939 70.4972L52.9787 81.6325C52.9996 81.4863 53.0182 81.3516 53.0391 81.21L18.029 69.0371C17.9896 69.1485 17.8828 69.2623 17.674 69.3644V69.3621Z" fill="#C87D4B"/>
<path d="M72.7859 89.3596L89.8164 82.7253L87.3729 81.0331C77.3597 75.91 73.0064 86.5624 73.0064 86.5624C72.9205 87.4608 72.8463 88.3939 72.7859 89.3573V89.3596Z" fill="#F3B11D"/>
<path d="M76.0287 85.407V85.4023L87.3762 81.036C87.7126 79.0536 87.9424 77.4078 88.1744 75.8873C87.1209 75.5461 88.3508 74.7731 88.3508 74.7731C88.5504 73.5126 88.7662 72.3102 89.0586 71.0288C89.2651 70.0794 89.5203 69.0928 89.8359 68.0088C85.898 69.5594 81.2685 71.377 75.8593 73.4987C75.3418 75.235 74.6805 76.9156 74.0841 79.4946C74.0029 79.8567 73.924 80.2374 73.8427 80.6344C73.5225 82.2291 73.2301 84.1511 73.0097 86.5653L76.0287 85.407Z" fill="#924425"/>
<path d="M14.3325 59.0391L15.3698 68.1107L15.4208 68.5773L16.6345 79.195L17.1821 83.9931C17.1821 83.9931 17.203 83.9931 17.2076 83.9885C17.8388 83.9792 18.3053 83.8329 18.5072 83.7586C18.542 83.7447 19.3008 83.4128 19.3008 83.4128L18.8854 79.8008L17.6764 69.3642C17.8876 69.2644 17.992 69.1483 18.0314 69.0369C18.166 68.6562 17.5557 68.2593 17.5557 68.2593L17.5511 68.2639L16.5672 59.7471L14.3348 59.0391H14.3325Z" fill="#D06E00"/>
<path d="M87.7559 75.5756C87.6515 75.2135 88.3477 74.7725 88.3477 74.7725L74.0809 79.494C74.0415 79.6843 73.9951 79.8793 73.9556 80.0813C73.9162 80.2623 73.8814 80.4481 73.8396 80.6338L88.1713 75.8867C87.9114 75.8054 87.7907 75.6917 87.7559 75.5756Z" fill="#63230B"/>
<g opacity="0.35">
<path d="M1.81343 47.1816C1.97355 47.7898 2.13367 48.3957 2.28915 48.9992L67.3386 70.7777L68.0557 70.4922L104.226 56.1999C105.008 54.5796 105.5 53.7068 105.5 53.7068L105.495 53.6929C105.073 53.8391 100.81 55.5291 68.3783 68.2614L1.81343 47.1863V47.1816Z" fill="#B64300"/>
</g>
<path d="M27.6686 75.5039V86.0728L30.126 86.3746L31.5717 86.5556L35.6002 87.0524L40.1647 89.8333L41.6104 90.7108L43.6269 91.9411L45.5391 93.1064V78.9139L42.8055 79.9422C42.5688 80.0328 42.3181 80.0769 42.0582 80.0769C41.9074 80.0769 41.7612 80.063 41.6127 80.0258C41.5477 80.0165 41.4874 79.9956 41.4224 79.9747L40.1693 79.5685L31.5764 76.7737L30.1306 76.3024L29.1723 75.9914L27.6732 75.5039H27.6686Z" fill="url(#paint0_linear_1274_7091)"/>
<path d="M45.5367 78.9114V93.1039L46.4766 92.1846V78.5771L45.5367 78.9114Z" fill="url(#paint1_linear_1274_7091)"/>
<g opacity="0.5">
<path d="M27.6686 75.5037V79.422C27.6686 79.422 28.6525 79.6588 30.126 80.144C30.5669 80.2948 31.0542 80.4597 31.5717 80.6546C34.2009 81.6389 37.6307 83.229 40.1647 85.5062C40.6915 85.9774 41.1788 86.4858 41.6104 87.0173C42.7637 88.438 43.5318 90.0745 43.6269 91.9362L45.5391 93.1015V78.909L42.8055 79.9374C42.5688 80.0279 42.3181 80.072 42.0582 80.072C41.9074 80.072 41.7612 80.0581 41.6127 80.0209C41.5477 80.0116 41.4874 79.9908 41.4224 79.9699L40.1693 79.5636L31.5764 76.7688L30.1306 76.2976L29.1723 75.9865L27.6732 75.499L27.6686 75.5037Z" fill="url(#paint2_linear_1274_7091)"/>
</g>
<path d="M30.1246 76.3018V86.3739L31.5703 86.555V76.7753L30.1246 76.3018Z" fill="#F3B022"/>
<path d="M30.1246 76.2998V80.1439C30.5655 80.2948 31.0528 80.4596 31.5703 80.6546V76.771L30.1246 76.2998Z" fill="#ED8E13"/>
<path d="M40.1637 79.5703V89.8328L41.6094 90.7103V80.0276C41.5444 80.0183 41.4841 79.9974 41.4191 79.9765L40.166 79.5703H40.1637Z" fill="#F3B022"/>
<path d="M40.1637 79.5684V85.5109C40.6904 85.9821 41.1778 86.4905 41.6094 87.0221V80.0257C41.5444 80.0164 41.4841 79.9955 41.4191 79.9746L40.166 79.5684H40.1637Z" fill="#ED8E13"/>
<path d="M89.4455 82.4217C89.6242 81.3515 92.1977 66.3211 93.2141 66.6832C93.4531 66.7621 93.0679 65.5504 90.2299 82.7954C90.0906 83.645 51.4002 97.2153 89.4432 82.4217H89.4455Z" fill="#F8CE39"/>
<path d="M46.7797 69.3177L50.1445 70.3832C48.7012 73.7305 48.0143 77.7743 47.7381 79.81C47.6267 80.6248 47.0768 81.3096 46.3087 81.5998L42.8023 82.9206C42.6956 69.6683 46.7797 69.3154 46.7797 69.3154V69.3177Z" fill="#D06E00"/>
<path d="M23.5561 58.0781L23.8113 62.0429L24.714 76.1448C24.7697 76.9991 25.3359 77.7257 26.1435 77.9926L29.1695 78.9768L41.4196 82.9602C42.6495 83.3618 43.9374 82.554 44.1231 81.2749C44.2089 80.6621 44.2994 80.0655 44.3946 79.4945C45.1209 74.9424 46.0097 71.616 46.7731 69.3179C47.757 66.3675 48.5391 65.1024 48.5391 65.1024L23.5561 58.0828V58.0781Z" fill="#F2A61B"/>
<path d="M44.3973 78.1732C44.5249 77.312 46.0426 68.7905 46.8664 69.0528C58.0119 72.6346 58.1187 73.1337 46.9592 69.6587C45.3928 74.3059 43.1001 87.101 44.3973 78.1709V78.1732Z" fill="#FFFFAF"/>
<path d="M31.1114 76.4002L31.4664 76.5232L34.8544 77.6978C35.0493 77.7651 35.2396 77.6003 35.228 77.3751L35.1793 76.565L34.8359 71.0008C34.8266 70.8592 34.9055 70.7339 35.0285 70.6851C36.0797 70.2673 36.8153 69.1508 36.7758 67.8601C36.7341 66.4186 35.7362 65.251 34.4646 65.0536C34.3184 65.0304 34.1629 65.0188 34.0074 65.0235C32.52 65.0722 31.3574 66.4232 31.4038 68.0342C31.4316 68.9813 31.8702 69.8123 32.5269 70.3207C32.6383 70.4066 32.6847 70.5528 32.6406 70.6898L30.9234 75.994C30.8654 76.1657 30.9536 76.3491 31.1067 76.4002H31.1114Z" fill="#9C2C00"/>
<path d="M30.953 76.2561C30.9855 76.3281 31.0412 76.3745 31.1178 76.3977L31.4682 76.5254L31.9021 76.6762L34.8562 77.6976C35.0488 77.7673 35.2437 77.6048 35.2298 77.3842L35.1764 76.5695L32.2015 75.5968C32.1249 75.569 32.0738 75.504 32.0622 75.432C32.046 75.3902 32.0506 75.3438 32.0622 75.302L33.5056 70.4528C33.5543 70.3159 33.5033 70.1743 33.3873 70.0907C32.7305 69.58 32.2943 68.7513 32.2641 67.8019C32.2293 66.5832 32.886 65.5177 33.8444 65.0488C32.4405 65.1835 31.3637 66.4904 31.4078 68.0433C31.4334 68.9881 31.8743 69.8168 32.5379 70.3275C32.6424 70.4157 32.6934 70.5573 32.6516 70.6942L30.9298 75.9984C30.9043 76.089 30.9089 76.1888 30.9553 76.2607L30.953 76.2561Z" fill="#BD5700"/>
<path d="M30.953 76.2567C30.9855 76.3286 31.0412 76.3751 31.1178 76.3983L31.4682 76.526L31.9021 76.6768L34.8562 77.6982C35.0488 77.7679 35.2437 77.6054 35.2298 77.3848L35.1764 76.5701L32.2015 75.5974C32.1249 75.5696 32.0738 75.5046 32.0622 75.4326L30.9484 76.259L30.953 76.2567Z" fill="#CB7600"/>
<path d="M44.3945 79.4893C39.8184 79.234 34.6714 79.032 29.1694 78.9717L41.4196 82.955C42.6495 83.3566 43.9374 82.5488 44.123 81.2698C44.2089 80.657 44.2994 80.0604 44.3945 79.4893Z" fill="#FADE4B"/>
<path d="M8.5094 79.4527C8.56045 79.773 8.5999 80.0493 8.63471 80.286C8.71593 80.8478 9.10114 81.319 9.63254 81.5163C9.63254 81.5163 15.5824 83.7193 15.5871 83.7193C16.1185 83.9143 16.6151 83.9862 17.042 83.9955H17.1836L16.6359 79.1974L16.6267 79.0859C13.958 79.1602 11.243 79.2809 8.5094 79.4527Z" fill="#FADE4B"/>
<path d="M73.8402 80.6343L88.1719 75.8872C87.912 75.806 87.7913 75.6922 87.7565 75.5762L73.9562 80.0818C73.9168 80.2629 73.882 80.4486 73.8402 80.6343Z" fill="#AD5E36"/>
<path d="M53.9083 97.9072L63.4388 101.436C63.4945 101.457 63.5548 101.475 63.6152 101.496H63.6198L65.6805 100.619L79.1953 94.7735C79.0097 94.2976 68.4141 98.4318 65.098 99.7364C64.6223 99.9268 64.0955 99.5855 64.0746 99.0748C64.0654 98.8543 64.0607 98.6338 64.0538 98.4133C63.8031 90.5951 64.6548 83.3735 66.0146 75.9825C66.1956 75.0145 66.2745 74.4179 66.2699 74.151C66.2444 72.345 62.5477 85.6113 62.9747 99.1306C62.9886 99.6412 62.5083 100.02 62.0163 99.8734C56.3983 98.2276 52.9268 97.3594 53.9037 97.9119L53.9083 97.9072Z" fill="#FFFFB7"/>
<path d="M1.81525 47.1817L12.3273 50.9167L14.1629 43.0242L21.4169 40.248L37.793 33.9874C37.6677 33.3096 37.54 32.6434 37.4217 31.9888C36.5236 27.2835 35.607 23.2467 34.6881 19.7996C34.4096 18.7712 34.1335 17.7963 33.8596 16.8724C33.2261 14.767 32.5903 12.9216 31.9545 11.3268C31.4509 10.0571 30.9474 8.94052 30.4438 7.97021L33.9223 4.61128L35.1452 3.42974L32.277 2.90513L32.219 2.89352L27.571 2.03696H27.5547L27.4874 2.02071L26.8122 1.89536H26.8029C26.5987 1.92089 26.0255 2.01142 25.3548 2.28766L24.538 1.47984L24.1667 1.4102L19.405 0.539715C17.8525 0.351689 16.3001 0.955229 15.2814 2.14142C14.2418 3.35314 13.2555 5.00126 12.3227 6.95812C12.202 7.21579 12.0767 7.4781 11.956 7.74969C11.956 7.74969 11.6822 8.36948 11.6358 8.4693C11.6033 8.55286 11.3156 9.23533 11.2831 9.31889C11.1113 9.73441 10.9118 10.2219 10.7006 10.7674C10.2272 11.9954 9.66797 13.5228 9.13888 15.2057C8.9718 15.7466 8.8024 16.3037 8.64461 16.8747C7.55859 20.4681 6.59324 24.2774 5.74393 27.9358C5.58613 28.5904 5.44458 29.2357 5.29839 29.8764C3.75058 36.8333 2.6692 42.9476 2.1262 45.5057C1.97536 46.2044 1.87558 46.7801 1.83149 47.0424C1.81525 47.1376 1.81061 47.1887 1.81061 47.1887L1.81525 47.1817Z" fill="#F6C22F"/>
<path d="M1.83381 47.038C7.91363 44.2827 14.5156 42.0449 21.4192 40.2482L37.793 33.9853C37.6677 33.3075 37.5423 32.6413 37.4217 31.989C36.5236 27.2861 35.6117 23.247 34.6881 19.7998C34.4119 18.7715 34.1358 17.7966 33.8596 16.875C24.0878 19.8904 14.497 23.5696 5.74625 27.936C5.59077 28.5883 5.44457 29.236 5.3007 29.879C3.75521 36.8336 2.67152 42.9502 2.13083 45.506C1.98 46.2024 1.88021 46.7804 1.83381 47.0404V47.038Z" fill="#FBE75C"/>
<path d="M12.3282 6.95348V6.96277C18.5542 3.88936 31.902 4.83181 31.902 4.83181L33.9255 4.61128L35.1484 3.42974L32.2802 2.90513L32.2222 2.89352L27.5742 2.03696H27.5579L27.4906 2.02071L26.8154 1.89536H26.8061C26.6019 1.92089 26.0287 2.01142 25.3581 2.28766L24.5412 1.47984L24.1699 1.4102L19.4082 0.539715C17.8557 0.351689 16.3033 0.955229 15.2846 2.14142C14.245 3.35314 13.2587 5.00126 12.3259 6.95812L12.3282 6.95348Z" fill="#FFFF99"/>
<path d="M12.3363 50.7908C26.8629 42.072 19.5602 45.4727 44.4062 35.7975C41.7724 21.4263 42.1832 13.0208 39.7652 8.35733C30.7266 -9.07568 19.0241 21.2684 14.3204 39.5858C11.9372 48.8664 12.7239 50.4008 12.334 50.7908H12.3363Z" fill="#D06E00"/>
<path d="M12.3265 50.7958C12.3265 50.7958 12.3312 50.8052 12.3359 50.791L12.3265 50.7958Z" fill="#5E5E87"/>
<path d="M8.76398 49.9647C8.76398 49.9647 8.76871 49.9742 8.77344 49.96L8.76398 49.9647Z" fill="#5E5E87"/>
<path d="M15.673 45.6079L64.98 61.1584L65.9221 57.5812L69.0525 45.6776L69.3588 44.5285L71.5703 36.1231L71.8256 35.1551L74.0533 26.6986L74.3086 25.7306L76.0234 19.2124L62.2835 16.3131L50.0125 13.7225C49.5971 13.8037 49.2304 13.9686 48.9148 14.1751C48.3185 14.0103 47.8961 13.2722 47.8961 13.2722L37.6416 11.1087C37.6416 11.1087 36.8132 10.9532 36.0265 10.8069C36.0219 10.8023 36.0126 10.8023 36.0056 10.8023H35.9848C33.6828 10.4866 31.3135 12.2369 29.0811 14.9969C29.0811 14.9969 30.0488 15.8558 28.4035 15.8697C26.9393 17.8219 25.5446 20.1641 24.2706 22.5945C24.2706 22.5945 25.0527 23.4488 23.8042 23.5068C22.4908 26.0858 21.3212 28.7158 20.3582 31.0348C20.3582 31.0348 21.2215 31.8681 19.9776 31.968C19.5669 32.9824 19.2003 33.9248 18.8847 34.7535C18.5134 35.7261 18.2071 36.5502 17.982 37.1723C17.8219 37.6343 17.7012 37.9848 17.6269 38.196C17.6223 38.2215 17.613 38.2401 17.606 38.261C16.7776 41.1626 15.9306 44.2221 15.6707 45.6079H15.673Z" fill="#AD5E36"/>
<path d="M15.6728 45.6056L64.9797 61.156L65.9219 57.5789L61.5917 24.6303C61.5917 24.6303 58.7166 29.8695 52.4627 33.955C53.2447 21.8912 57.2245 15.2476 57.2245 15.2476L55.3239 14.846L46.6962 36.8659C40.7416 39.0781 32.8866 39.7466 22.9338 36.325C27.9694 13.6877 37.646 11.1087 37.646 11.1087C37.646 11.1087 36.8176 10.9532 36.0309 10.8069C36.0263 10.8023 36.017 10.8023 36.0101 10.8023H35.9892C33.6872 10.4866 31.3179 12.2369 29.0855 14.9969C29.0855 14.9969 30.0532 15.8558 28.408 15.8697C26.9437 17.8219 25.549 20.1664 24.2751 22.5945C24.2751 22.5945 25.0571 23.4488 23.8086 23.5068C22.4952 26.0858 21.3256 28.7158 20.3626 31.0348C20.3626 31.0348 21.2259 31.8681 19.9821 31.968C19.5713 32.9824 19.2047 33.9248 18.8891 34.7535C18.6895 35.2851 18.5039 35.7726 18.3414 36.2043C18.2811 36.3691 18.2254 36.5247 18.172 36.6709C18.1071 36.8357 18.0514 36.9913 18.0003 37.1375C18.0003 37.1514 17.9957 37.163 17.991 37.1723H17.9864C17.8263 37.6343 17.7056 37.9848 17.6313 38.196C17.6267 38.2215 17.6174 38.2401 17.6105 38.261C16.782 41.1603 15.935 44.2221 15.6751 45.6079L15.6728 45.6056Z" fill="#924425"/>
<path d="M14.2268 40.0044L63.4688 56.2001V51.7038L17.5475 38.4375L14.2268 40.0044Z" fill="#FCE85D"/>
<path d="M6.49769 48.6113L68.382 68.2565C68.3866 68.2426 68.3866 68.2217 68.3912 68.1961L81.6508 34.3585L82.9805 30.9717L86.3314 22.42L89.7031 13.8149L71.6238 10.4885C70.1131 10.2981 68.614 10.8436 67.5744 11.9532C66.1101 13.5178 64.8362 15.788 63.7107 18.5063C62.3323 21.8443 61.1767 25.8486 60.1649 30.0524C59.8029 31.559 59.4571 33.0887 59.1276 34.6231C58.9722 35.3497 58.8167 36.0832 58.6658 36.8167V36.8214L59.1833 41.0206L57.9233 40.5146C57.8792 40.7212 57.8374 40.9301 57.798 41.1367L57.6564 41.8447L57.4406 42.938L56.3824 48.2561L56.3221 48.5532C55.9903 50.148 55.6654 51.6452 55.3382 53.0102L17.9797 41.1831L14.2321 39.9992L11.2664 43.3001L6.49536 48.609L6.49769 48.6113Z" fill="#F6C22F"/>
<path d="M59.1253 34.6257C66.8156 34.1846 74.4107 34.1173 81.6485 34.3587L82.9759 30.9696L86.3314 22.4179L88.4175 17.0929L89.0116 15.5817L89.7031 13.8129L71.6191 10.4864C70.1131 10.2961 68.6094 10.8439 67.5744 11.9512C66.992 12.5756 66.4373 13.3091 65.9129 14.1402C65.4093 14.9364 64.9313 15.8138 64.4765 16.7702C64.2143 17.325 63.9567 17.903 63.7107 18.5019C62.33 21.8399 61.1767 25.8465 60.1603 30.0504C59.8029 31.5523 59.4525 33.0843 59.123 34.621L59.1253 34.6257Z" fill="#FBE75C"/>
<path d="M64.4788 16.7745C72.4406 12.0413 86.9394 14.9964 86.9394 14.9964C87.6587 15.2122 88.3502 15.4095 89.0116 15.5836L89.7031 13.8148L71.6191 10.4884C70.1131 10.298 68.6094 10.8459 67.5744 11.9531C66.992 12.5776 66.4373 13.3111 65.9129 14.1421C65.4093 14.9383 64.9313 15.8158 64.4765 16.7721L64.4788 16.7745Z" fill="#FFFF99"/>
<path d="M68.3759 68.257C71.3045 53.5724 88.8594 -37.1582 105.5 53.7047L68.3783 68.257H68.3759Z" fill="#D06E00"/>
<path d="M77.534 54.0738L98.3516 45.9144C95.5924 30.8399 92.6082 25.5612 89.7934 25.545C88.9603 25.5403 88.1435 25.9976 87.3499 26.7892C83.1056 31.0488 79.5389 45.1112 78.1489 51.207C77.7521 52.9735 77.5316 54.0715 77.5316 54.0715L77.534 54.0738Z" fill="#F3B11D"/>
<path d="M86.9484 34.2406L95.7479 44.3081L98.3516 45.9144C95.5924 30.8399 92.6082 25.5612 89.7934 25.545C88.9603 25.5403 88.1435 25.9976 87.3499 26.7892L86.9484 34.2406Z" fill="#C15200"/>
<path d="M84.5325 48.7093V48.7046L95.75 44.3081C95.2743 41.7128 94.7916 39.4055 94.3043 37.3674C93.1997 37.0609 94.063 36.3878 94.063 36.3878C93.7358 35.0739 93.4063 33.8831 93.0744 32.8037C92.7681 31.8055 92.4571 30.9072 92.1508 30.0947C90.9279 29.8788 91.7795 29.1569 91.7795 29.1569C91.1228 27.5668 90.4545 26.376 89.7932 25.5449C87.8462 25.5357 85.9759 28.038 84.3097 31.5664C84.1194 31.968 83.9338 32.3789 83.7528 32.806C82.7039 35.2201 81.7455 37.9895 80.9124 40.7193C80.7918 41.1116 80.6757 41.5016 80.562 41.8893C79.5039 45.4919 78.6708 48.9135 78.1487 51.207L84.5302 48.7069L84.5325 48.7093Z" fill="#924425"/>
<path d="M97.5734 45.7726C95.6567 44.4657 95.6195 44.0803 97.7893 45.1551C95.4084 32.1767 92.4543 26.5336 94.3989 30.3963C96.4503 34.6071 97.9935 41.5408 98.8242 46.1742C67.3785 58.4608 73.9039 54.8628 97.5758 45.7726H97.5734Z" fill="#F8CE39"/>
<path d="M28.4113 15.8693L61.8062 23.7919C61.8457 23.6712 61.8805 23.5505 61.9223 23.4298C61.9872 23.2301 62.0522 23.0282 62.1172 22.8332L29.0889 14.9941C29.0889 14.9941 29.5251 15.3795 29.314 15.6418H29.3093C29.2095 15.7671 28.9543 15.8623 28.4113 15.867V15.8693Z" fill="#803110"/>
<path d="M54.8008 21.0992L54.5084 22.0602L52.9745 21.6981L53.3388 20.751L54.8008 21.0992Z" fill="#63230B"/>
<path d="M91.6302 29.9037C91.2497 29.6066 91.7811 29.1562 91.7811 29.1562L84.3112 31.5658C84.1998 31.7909 84.0954 32.0231 83.9956 32.2575C83.9098 32.4386 83.8355 32.6196 83.7543 32.8053L92.1523 30.0964C91.8971 30.0523 91.73 29.9803 91.6302 29.906V29.9037Z" fill="#63230B"/>
<path d="M23.8121 23.5064L59.4951 32.9309C59.5253 32.8009 59.5508 32.6755 59.581 32.5548C59.6204 32.3645 59.6668 32.1741 59.7109 31.9768L24.2785 22.5918C24.2785 22.5918 24.6289 22.9771 24.4851 23.2441C24.4155 23.3787 24.2252 23.4855 23.8121 23.5041V23.5064Z" fill="#803110"/>
<path d="M52.832 30.1568L52.7137 31.141L50.1448 30.4632C50.1448 30.4632 50.0543 29.8898 50.4419 29.5254L52.832 30.1591V30.1568Z" fill="#63230B"/>
<path d="M93.8568 37.1464C93.5111 36.8191 94.0634 36.3896 94.0634 36.3896L80.9151 40.7212C80.8455 40.9464 80.7806 41.1739 80.7156 41.3944C80.6645 41.5592 80.6158 41.7263 80.5647 41.8911L94.3047 37.3692C94.0842 37.3089 93.9427 37.2346 93.8591 37.1487L93.8568 37.1464Z" fill="#63230B"/>
<path d="M19.9818 31.9677L57.5004 42.6063C57.5213 42.4855 57.5445 42.3648 57.57 42.2441C57.6095 42.0445 57.6559 41.8425 57.6953 41.6313L20.3624 31.0322C20.3624 31.0322 20.7476 31.4036 20.6293 31.6845C20.5736 31.8191 20.3926 31.9352 19.9818 31.9654V31.9677Z" fill="#803110"/>
<path d="M55.3251 31.8333L59.4974 32.9174C59.5671 32.5854 59.6344 32.3022 59.7109 31.9772L56.2417 31.0371C55.9517 31.3087 55.6453 31.5733 55.3228 31.8356L55.3251 31.8333Z" fill="#63230B"/>
<path d="M41.8994 38.1907L57.5004 42.6058C57.5607 42.2785 57.6303 41.9628 57.6953 41.6309L43.9507 37.7334C43.2894 37.9098 42.6071 38.0607 41.8994 38.1907Z" fill="#63230B"/>
<path d="M68.2565 68.5148C94.1074 58.4543 113.305 50.3947 95.5369 57.0081C71.2918 66.0914 69.3309 67.707 69.7719 65.4089C72.5449 51.0702 81.1124 19.4981 74.3526 39.8119C67.3933 62.8276 69.2613 67.6954 65.9406 66.6299C-73.5079 22.2999 66.2075 69.325 68.2589 68.5171L68.2565 68.5148Z" fill="#FFFFAF"/>
<path d="M75.5422 40.1712H75.5469V40.1572L75.5422 40.1712Z" fill="#FFFFAF"/>
<path d="M11.2656 43.303C13.4585 42.5393 15.7001 41.8383 17.9766 41.186L12.5488 39.3545L11.2632 43.303H11.2656Z" fill="#F9DA44"/>
<path d="M81.636 20.391C83.6688 28.1163 83.6688 27.3921 79.9907 20.9807C79.9907 20.9807 80.6173 19.8989 81.636 20.391Z" fill="#FBE75C"/>
<path d="M47.2634 15.3378C47.2588 16.0713 47.7948 14.9014 48.918 14.1725C48.3216 14.0077 47.8992 13.2695 47.8992 13.2695C47.5326 13.6363 47.2681 14.2932 47.2611 15.3378H47.2634Z" fill="#C87D4B"/>
<path d="M28.4109 15.8691L61.8058 23.7917C61.8453 23.671 61.8801 23.5503 61.9219 23.4296L29.3136 15.6416H29.3089C29.2092 15.767 28.9539 15.8621 28.4109 15.8668V15.8691Z" fill="#C87D4B"/>
<path d="M23.8132 23.5071L59.4962 32.9316C59.5263 32.8016 59.5519 32.6762 59.582 32.5555L24.4861 23.2471C24.4165 23.3817 24.2262 23.4885 23.8132 23.5071Z" fill="#C87D4B"/>
<path d="M19.9821 31.9674L57.5007 42.6059C57.5216 42.4852 57.5448 42.3645 57.5703 42.2438L20.6296 31.6865C20.5739 31.8212 20.3929 31.9372 19.9821 31.9674Z" fill="#C87D4B"/>
<path d="M31.4836 3.70635C31.5787 3.66689 23.1899 7.55275 14.6828 39.7609C34.5304 46.2002 33.941 46.4602 14.1143 40.3598C13.2278 40.0742 22.5054 6.82154 31.4836 3.70635Z" fill="#FFFFAF"/>
<path d="M80.5647 41.8889L94.3047 37.367C94.0842 37.3067 93.9427 37.2324 93.8591 37.1465H93.8545L80.7156 41.3922C80.6645 41.557 80.6158 41.7241 80.5647 41.8889Z" fill="#AD5E36"/>
<path d="M83.7543 32.8056L92.1523 30.0966C91.8971 30.0525 91.73 29.9805 91.6302 29.9062L83.9631 32.332C83.8773 32.5131 83.8332 32.6222 83.7543 32.8079V32.8056Z" fill="#AD5E36"/>
<path d="M22.772 4.25559C22.7673 4.34613 22.888 4.38094 22.9367 4.2997C23.5842 3.22029 24.5472 2.61907 25.3594 2.28248L24.5472 1.47467L24.3314 1.25879C24.2757 1.30986 24.2269 1.35861 24.1759 1.40503C23.0226 2.51926 22.8021 3.6892 22.772 4.25559Z" fill="#F2A61B"/>
<path d="M48.7122 50.9147C48.7122 50.9147 50.1091 66.8481 47.5844 50.5572C47.5844 50.5572 48.6077 49.6728 48.7122 50.9147Z" fill="#FCE85D"/>
<path d="M62.3915 41.6409L58.6647 36.8242L59.1822 41.0235L62.0063 42.1516C62.3219 42.277 62.6027 41.9056 62.3915 41.6386V41.6409Z" fill="#D06E00"/>
<path d="M57.9137 40.5172H57.9184C57.9833 40.1899 58.0483 39.8603 58.1133 39.5283L57.9137 40.5172Z" fill="#D06E00"/>
<path d="M28.6009 41.6311L46.4737 46.7937C49.4533 26.4103 56.6562 15.1241 56.6562 15.1241L56.22 13.9008C55.192 14.1004 54.9205 14.4417 54.9599 14.769L41.6911 11.9648C34.6273 20.7255 28.5985 41.6311 28.5985 41.6311H28.6009Z" fill="url(#paint3_linear_1274_7091)"/>
<path d="M40.3114 11.9931C40.8544 11.2293 41.7896 10.8533 42.7062 11.046L43.0172 11.111L44.5766 11.4429L51.1182 12.8218L52.6474 13.1491L56.2188 13.9012C56.2188 13.9012 48.5192 26.1902 45.5326 46.5735L41.6156 45.4384L40.1606 45.0229L31.5676 42.5391L30.1219 42.1236L27.6644 41.411C27.6644 41.411 33.619 21.4199 40.3091 11.9931H40.3114Z" fill="url(#paint4_linear_1274_7091)"/>
<path d="M30.1258 42.1214L31.5715 42.5369C35.3981 27.1652 42.8586 14.289 44.5781 11.4384L43.0187 11.1064C40.8606 14.7439 33.8294 27.2743 30.1258 42.1191V42.1214Z" fill="#F7C52C"/>
<path d="M40.1655 45.0228L41.6205 45.4383C44.3634 29.8113 50.9816 16.3593 52.6523 13.1466L51.1231 12.8193C49.1669 16.6588 42.862 29.8159 40.1678 45.0205L40.1655 45.0228Z" fill="#F7C52C"/>
<path d="M62.9967 72.4375C67.61 67.8227 69.1485 67.8227 73.7617 72.4375C69.1485 67.8227 69.1485 66.2837 73.7617 61.6689C69.1485 66.2837 67.61 66.2837 62.9967 61.6689C67.61 66.2837 67.61 67.8227 62.9967 72.4375Z" fill="#FFFFAF"/>
<path d="M0.500616 33.1474C5.11386 28.5327 6.65238 28.5327 11.2656 33.1474C6.65238 28.5327 6.65238 26.9937 11.2656 22.3789C6.65238 26.9937 5.11386 26.9937 0.500616 22.3789C5.11386 26.9937 5.11386 28.5327 0.500616 33.1474Z" fill="#FFFFAF"/>
</g>
<defs>
<linearGradient id="paint0_linear_1274_7091" x1="26.7173" y1="84.3051" x2="47.3358" y2="84.3051" gradientUnits="userSpaceOnUse">
<stop stop-color="#3256D5"/>
<stop offset="1" stop-color="#8AA4FF"/>
</linearGradient>
<linearGradient id="paint1_linear_1274_7091" x1="45.4867" y1="85.8405" x2="46.5711" y2="85.8405" gradientUnits="userSpaceOnUse">
<stop stop-color="#3256D5"/>
<stop offset="1" stop-color="#8AA4FF"/>
</linearGradient>
<linearGradient id="paint2_linear_1274_7091" x1="26.7173" y1="84.3003" x2="47.3358" y2="84.3003" gradientUnits="userSpaceOnUse">
<stop stop-color="#3256D5"/>
<stop offset="1" stop-color="#8AA4FF"/>
</linearGradient>
<linearGradient id="paint3_linear_1274_7091" x1="27.1051" y1="29.3793" x2="59.4772" y2="29.3793" gradientUnits="userSpaceOnUse">
<stop stop-color="#3256D5"/>
<stop offset="1" stop-color="#8AA4FF"/>
</linearGradient>
<linearGradient id="paint4_linear_1274_7091" x1="26.1445" y1="28.7848" x2="59.0896" y2="28.7848" gradientUnits="userSpaceOnUse">
<stop stop-color="#3256D5"/>
<stop offset="1" stop-color="#8AA4FF"/>
</linearGradient>
<clipPath id="clip0_1274_7091">
<rect width="105" height="101" fill="white" transform="matrix(-1 0 0 1 105.5 0.5)"/>
</clipPath>
</defs>
</svg>
