<svg width="1080" height="1080" viewBox="0 0 1080 1080" fill="none" xmlns="http://www.w3.org/2000/svg">
<path d="M97.25 604.59L165.15 594.59L166.93 606.77L129.53 636.77L174 654.71L175.79 666.89L107.89 676.89L106.17 665.17L154.17 658.17L115 642.26L114 635.66L147 609.36L99 616.36L97.25 604.59Z" fill="#FCB415"/>
<path d="M93.8 697.8L104.26 697.68C104.088 699.775 104.35 701.882 105.03 703.87C106.623 708.624 111.707 711.09 120.28 711.27L161.66 676.07L165.46 687.48L136.34 711.26L173.85 712.63L177.59 723.86L122.59 722.3C114.51 722.02 108.323 720.747 104.03 718.48C101.905 717.357 100.024 715.823 98.4962 713.968C96.9685 712.112 95.8243 709.971 95.13 707.67C94.0397 704.5 93.5877 701.146 93.8 697.8Z" fill="#FCB415"/>
<path d="M153.66 791.31L148.36 781.45L199.52 753.94L195.07 745.66L204.34 740.66L214.09 758.79L153.66 791.31Z" fill="#FCB415"/>
<path d="M202.18 786.31L198.18 779.93L221.18 770.93L226.5 779.47L202.18 786.31Z" fill="#FCB415"/>
<path d="M189.77 820.63C189.413 823.344 189.676 826.103 190.54 828.7C191.389 831.583 192.744 834.291 194.54 836.7C195.901 838.706 197.749 840.333 199.91 841.43C200.685 841.828 201.558 841.997 202.425 841.917C203.293 841.838 204.12 841.513 204.81 840.98C206.06 840.04 206.42 838.43 205.89 836.17C205.234 833.538 204.316 830.979 203.15 828.53C201.83 825.648 200.655 822.7 199.63 819.7C198.596 816.726 198.368 813.531 198.97 810.44C199.396 808.628 200.186 806.922 201.291 805.424C202.395 803.926 203.793 802.668 205.398 801.726C207.003 800.783 208.783 800.177 210.629 799.942C212.475 799.707 214.35 799.849 216.14 800.36C220.527 801.614 224.51 804.614 228.09 809.36C233.617 816.727 235.553 824.06 233.9 831.36L224.43 830C224.917 827.551 224.719 825.015 223.86 822.67C223.034 820.157 221.808 817.793 220.23 815.67C218.964 813.824 217.264 812.317 215.28 811.28C214.616 810.893 213.855 810.704 213.087 810.738C212.319 810.772 211.577 811.026 210.95 811.47C209.85 812.304 209.59 813.834 210.17 816.06C210.895 818.678 211.845 821.227 213.01 823.68C214.348 826.574 215.52 829.543 216.52 832.57C217.537 835.567 217.741 838.779 217.11 841.88C216.425 845.121 214.534 847.981 211.82 849.88C207.507 853.12 203.043 853.987 198.43 852.48C193.817 850.974 189.717 847.84 186.13 843.08C183.532 839.598 181.553 835.694 180.28 831.54C178.96 827.504 178.637 823.208 179.34 819.02L189.77 820.63Z" fill="#FCB415"/>
<path d="M244.06 831.29L249.06 836.56L262.37 826L268.75 832.77L256.45 844.38L264.77 853.2L257.52 860.04L249.2 851.22L233.82 865.73C231.26 868.143 229.86 870.54 229.62 872.92C229.521 874.164 229.703 875.414 230.151 876.579C230.599 877.744 231.303 878.793 232.21 879.65C233.099 880.572 234.133 881.342 235.27 881.93L230 890.86C227.471 889.67 225.196 888.003 223.3 885.95C221.54 884.219 220.15 882.149 219.215 879.864C218.279 877.579 217.819 875.128 217.86 872.66C217.98 867.76 220.707 862.797 226.04 857.77L241.56 843.12L236.85 838.12L244.06 831.29Z" fill="#FCB415"/>
<path d="M297.21 946.42L261.21 919.8L302.05 864.65L311.64 871.75L277.85 917.38L304.22 936.91L297.21 946.42Z" fill="#FCB415"/>
<path d="M334.15 916.76C337.246 915.604 340.554 915.129 343.85 915.367C347.146 915.606 350.352 916.551 353.25 918.14C356.574 919.89 359.344 922.532 361.25 925.77C363.12 928.8 364.091 932.299 364.05 935.86L369.25 927.55L378.25 932.39L353.82 978L344.82 973.16L348.82 964.32C345.887 966.272 342.462 967.356 338.94 967.45C335.19 967.638 331.46 966.79 328.16 965C325.228 963.462 322.66 961.313 320.629 958.698C318.599 956.082 317.153 953.062 316.39 949.84C314.686 943.115 315.564 935.995 318.852 929.886C322.14 923.776 327.598 919.122 334.15 916.84V916.76ZM327.66 947C328.194 948.967 329.13 950.802 330.408 952.389C331.687 953.976 333.281 955.28 335.09 956.22C338.727 958.169 342.99 958.594 346.941 957.4C350.891 956.206 354.206 953.492 356.155 949.855C358.104 946.217 358.529 941.954 357.335 938.004C356.141 934.054 353.427 930.739 349.79 928.79C348.01 927.795 346.044 927.18 344.015 926.982C341.986 926.784 339.938 927.008 338 927.64C336.031 928.216 334.2 929.187 332.618 930.494C331.037 931.8 329.738 933.415 328.8 935.24C327.816 937.018 327.208 938.979 327.012 941.002C326.816 943.024 327.036 945.066 327.66 947Z" fill="#FCB415"/>
<path d="M370.88 985.3L388.11 936.56L397.77 939.98L395.6 948.08C397.881 946.058 400.631 944.638 403.6 943.95C406.774 943.235 410.087 943.468 413.13 944.62C419.037 946.713 423.037 950.453 425.13 955.84C427.223 961.226 426.847 967.996 424 976.15L415.19 1001L404.64 997.27L413.42 972.46C415.087 967.733 415.25 963.786 413.91 960.62C413.241 959.106 412.27 957.745 411.056 956.62C409.843 955.495 408.412 954.63 406.851 954.078C405.291 953.527 403.634 953.3 401.983 953.412C400.332 953.524 398.721 953.972 397.25 954.73C394.223 956.35 391.873 959.523 390.2 964.25L381.42 989L370.88 985.3Z" fill="#FCB415"/>
<path d="M444.92 962.63C447.527 960.602 450.541 959.159 453.755 958.4C456.97 957.641 460.311 957.583 463.55 958.23C467.238 958.906 470.663 960.6 473.44 963.12C476.132 965.449 478.109 968.493 479.14 971.9L481.61 962.42L491.67 964.33L483.55 1007.18C481.75 1016.66 477.82 1023.42 471.76 1027.47C465.7 1031.52 458.42 1032.74 449.92 1031.13C445.66 1030.33 441.628 1028.6 438.11 1026.07C434.709 1023.7 431.941 1020.53 430.05 1016.84L439.5 1011.93C442.293 1016.67 446.626 1019.6 452.5 1020.71C456.811 1021.68 461.329 1020.96 465.13 1018.71C468.796 1016.47 471.16 1012.58 472.22 1007.04L472.83 1003.81C470.637 1006.48 467.737 1008.49 464.46 1009.59C461.012 1010.84 457.289 1011.13 453.69 1010.42C450.432 1009.83 447.338 1008.55 444.618 1006.66C441.897 1004.77 439.613 1002.33 437.92 999.48C434.263 993.578 432.953 986.519 434.249 979.698C435.545 972.876 439.353 966.79 444.92 962.64V962.63ZM445.39 981.86C444.98 983.855 444.981 985.912 445.391 987.906C445.802 989.9 446.615 991.79 447.78 993.46C448.889 995.166 450.338 996.624 452.036 997.744C453.734 998.865 455.645 999.622 457.65 999.97C459.676 1000.4 461.766 1000.42 463.799 1000.02C465.832 999.633 467.766 998.84 469.488 997.691C471.211 996.543 472.687 995.063 473.83 993.337C474.973 991.611 475.761 989.674 476.146 987.64C476.531 985.606 476.507 983.516 476.074 981.491C475.641 979.467 474.808 977.549 473.625 975.851C472.442 974.152 470.932 972.706 469.183 971.599C467.434 970.491 465.481 969.744 463.44 969.4C461.448 968.992 459.393 968.998 457.404 969.42C455.415 969.841 453.535 970.669 451.88 971.85C450.176 972.991 448.722 974.467 447.606 976.188C446.49 977.909 445.736 979.839 445.39 981.86Z" fill="#FCB415"/>
<path d="M501.41 965.3L512.59 965.71L511.59 992.01C511.41 997.016 512.43 1000.83 514.65 1003.46C515.742 1004.7 517.075 1005.71 518.569 1006.42C520.064 1007.13 521.687 1007.53 523.34 1007.59C524.993 1007.65 526.641 1007.37 528.184 1006.77C529.726 1006.18 531.13 1005.27 532.31 1004.11C534.717 1001.66 536.013 997.926 536.2 992.92L537.2 966.61L548.38 967.03L546.48 1018.69L536.24 1018.31L535.89 1009.93C534.295 1012.56 532.063 1014.74 529.4 1016.28C526.622 1017.88 523.442 1018.64 520.24 1018.48C513.92 1018.25 508.96 1015.88 505.36 1011.39C501.76 1006.9 500.12 1000.3 500.44 991.6L501.41 965.3Z" fill="#FCB415"/>
<path d="M564.38 973.31C566.272 970.602 568.725 968.332 571.572 966.657C574.419 964.981 577.594 963.939 580.88 963.6C584.599 963.157 588.368 963.763 591.76 965.35C595.007 966.787 597.781 969.113 599.76 972.06L599.32 962.27L609.5 961.12L615.3 1012.49L605.12 1013.64L603.38 1004.1C602.073 1007.37 599.868 1010.21 597.02 1012.29C594.048 1014.56 590.509 1015.97 586.79 1016.37C583.505 1016.77 580.172 1016.47 577.017 1015.47C573.861 1014.47 570.957 1012.81 568.5 1010.59C563.259 1006.03 559.923 999.666 559.153 992.761C558.382 985.856 560.234 978.914 564.34 973.31H564.38ZM576.21 1001.87C577.766 1003.19 579.579 1004.16 581.533 1004.74C583.487 1005.32 585.539 1005.48 587.56 1005.22C589.614 1005.02 591.607 1004.41 593.424 1003.44C595.242 1002.46 596.846 1001.13 598.145 999.526C599.443 997.922 600.41 996.076 600.988 994.095C601.567 992.115 601.746 990.039 601.514 987.988C601.283 985.938 600.646 983.954 599.64 982.152C598.635 980.35 597.281 978.766 595.658 977.492C594.034 976.218 592.174 975.28 590.185 974.732C588.195 974.184 586.117 974.037 584.07 974.3C582.046 974.499 580.085 975.113 578.31 976.104C576.534 977.096 574.982 978.442 573.75 980.06C572.459 981.653 571.504 983.493 570.946 985.466C570.387 987.44 570.235 989.506 570.5 991.54C570.696 993.561 571.303 995.52 572.285 997.296C573.268 999.073 574.603 1000.63 576.21 1001.87Z" fill="#FCB415"/>
<path d="M626.23 964.7C627.671 961.726 629.737 959.098 632.286 956.995C634.835 954.891 637.807 953.362 641 952.51C644.595 951.489 648.404 951.489 652 952.51C655.447 953.408 658.568 955.267 661 957.87L659 948.28L668.88 945.54L680.52 987.54C683.093 996.84 682.553 1004.65 678.9 1010.96C675.247 1017.27 669.247 1021.58 660.9 1023.89C656.721 1025.06 652.337 1025.28 648.06 1024.56C643.963 1023.94 640.082 1022.32 636.76 1019.84L643.07 1011.27C647.67 1014.29 652.84 1015 658.58 1013.41C662.875 1012.37 666.61 1009.73 669.02 1006.03C671.327 1002.4 671.73 997.863 670.23 992.43L669.35 989.26C668.571 992.628 666.855 995.706 664.4 998.14C661.856 1000.79 658.642 1002.69 655.1 1003.65C651.914 1004.56 648.568 1004.78 645.29 1004.29C642.012 1003.8 638.878 1002.61 636.1 1000.8C630.203 997.126 625.903 991.371 624.051 984.675C622.198 977.979 622.93 970.832 626.1 964.65L626.23 964.7ZM635.14 981.7C635.654 983.67 636.563 985.516 637.813 987.123C639.063 988.73 640.627 990.067 642.41 991.05C644.158 992.09 646.102 992.758 648.121 993.012C650.139 993.267 652.188 993.103 654.14 992.53C656.11 991.984 657.953 991.056 659.564 989.798C661.175 988.54 662.522 986.977 663.529 985.199C664.537 983.42 665.183 981.46 665.433 979.432C665.683 977.403 665.531 975.345 664.985 973.375C664.439 971.405 663.511 969.562 662.253 967.951C660.995 966.34 659.432 964.992 657.653 963.985C655.875 962.978 653.915 962.332 651.886 962.082C649.858 961.832 647.8 961.984 645.83 962.53C643.862 963.045 642.022 963.96 640.423 965.217C638.825 966.475 637.503 968.049 636.54 969.84C635.509 971.624 634.852 973.599 634.612 975.646C634.371 977.692 634.551 979.766 635.14 981.74V981.7Z" fill="#FCB415"/>
<path d="M686.33 946.28C687.54 943.028 689.381 940.048 691.749 937.512C694.117 934.976 696.963 932.934 700.125 931.504C703.286 930.074 706.699 929.284 710.167 929.181C713.635 929.077 717.089 929.661 720.33 930.9C723.59 932.124 726.569 933.995 729.087 936.401C731.605 938.808 733.609 941.699 734.98 944.9C735.06 945.067 735.63 946.563 736.69 949.39L699.93 965.97C701.93 968.67 704.864 970.527 708.16 971.18C711.728 971.959 715.453 971.529 718.75 969.96C723.83 967.66 727.14 964.103 728.68 959.29L739.14 960.76C738.153 964.849 736.167 968.628 733.36 971.76C730.508 975.043 726.972 977.661 723 979.43C719.732 981.011 716.178 981.914 712.552 982.086C708.926 982.258 705.303 981.695 701.9 980.43C698.589 979.263 695.555 977.423 692.991 975.026C690.426 972.628 688.386 969.725 687 966.5C685.526 963.35 684.706 959.934 684.591 956.459C684.476 952.983 685.067 949.52 686.33 946.28ZM696.22 957.7L722.7 945.76C721.888 944.33 720.796 943.079 719.488 942.082C718.18 941.085 716.684 940.364 715.09 939.96C711.542 939 707.767 939.355 704.46 940.96C701.134 942.354 698.441 944.93 696.9 948.19C696.159 949.65 695.718 951.243 695.601 952.876C695.484 954.509 695.695 956.149 696.22 957.7Z" fill="#FCB415"/>
<path d="M764.21 874.8C769.91 870.6 775.77 868.907 781.79 869.72C784.677 870.149 787.451 871.144 789.952 872.648C792.452 874.153 794.631 876.136 796.363 878.486C798.094 880.835 799.344 883.504 800.04 886.338C800.737 889.172 800.866 892.116 800.42 895C799.427 901 796.093 906.097 790.42 910.29L778.92 918.77L793.48 938.51L783.88 945.6L743.14 890.38L764.21 874.8ZM783.31 901C785.908 899.265 787.727 896.585 788.38 893.53C788.649 892.167 788.631 890.763 788.327 889.408C788.023 888.052 787.439 886.775 786.614 885.657C785.789 884.539 784.74 883.606 783.534 882.916C782.328 882.226 780.992 881.795 779.61 881.65C776.501 881.371 773.405 882.315 770.98 884.28L759.64 892.65L772 909.38L783.31 901Z" fill="#FCB415"/>
<path d="M841.79 899.18L833.52 906.72L784.15 852.51L792.42 844.98L841.79 899.18Z" fill="#FCB415"/>
<path d="M823.79 855.099C823.382 851.821 823.686 848.493 824.68 845.342C825.674 842.191 827.335 839.291 829.55 836.84C832.016 834.014 835.224 831.936 838.81 830.84C842.188 829.715 845.816 829.577 849.27 830.44L842.39 823.44L849.19 815.77L887.88 850.06L881.09 857.729L873.4 851.799C874.629 855.104 874.892 858.691 874.16 862.14C873.48 865.817 871.798 869.236 869.3 872.02C867.133 874.529 864.451 876.543 861.437 877.923C858.422 879.303 855.146 880.019 851.83 880.02C844.892 880.128 838.165 877.628 832.98 873.016C827.796 868.403 824.531 862.013 823.83 855.109L823.79 855.099ZM851.7 868.4C853.737 868.332 855.738 867.843 857.576 866.964C859.414 866.084 861.05 864.833 862.38 863.289C863.786 861.769 864.874 859.982 865.58 858.035C866.287 856.089 866.597 854.02 866.494 851.952C866.391 849.883 865.875 847.856 864.979 845.99C864.082 844.123 862.821 842.454 861.271 841.081C859.72 839.707 857.912 838.657 855.95 837.992C853.989 837.327 851.914 837.06 849.848 837.207C847.783 837.354 845.767 837.912 843.92 838.849C842.072 839.785 840.43 841.08 839.09 842.659C837.718 844.159 836.67 845.927 836.013 847.851C835.355 849.774 835.103 851.813 835.27 853.84C835.378 855.888 835.901 857.894 836.807 859.735C837.713 861.576 838.983 863.214 840.54 864.549C842.039 865.919 843.802 866.967 845.722 867.629C847.641 868.292 849.676 868.554 851.7 868.4Z" fill="#FCB415"/>
<path d="M852.92 810.2L857 804.2L843.88 793.42L849.13 785.73L863.13 795.28L869.97 785.28L878.2 790.9L871.36 800.9L888.83 812.83C891.72 814.83 894.37 815.66 896.75 815.4C897.986 815.225 899.166 814.775 900.205 814.082C901.243 813.39 902.113 812.473 902.75 811.4C903.464 810.338 903.997 809.166 904.33 807.93L914.15 811.22C913.521 813.945 912.377 816.525 910.78 818.82C909.466 820.917 907.738 822.724 905.703 824.13C903.667 825.537 901.366 826.513 898.94 827C894.127 827.927 888.693 826.324 882.64 822.19L865.02 810.19L861.15 815.86L852.92 810.2Z" fill="#FCB415"/>
<path d="M873.91 779.13L877.1 773.38L875.71 772.6C869.236 769.007 865.333 764.807 864 760C862.666 755.193 863.373 750.337 866.12 745.43C867.403 743.104 869.074 741.014 871.06 739.25L878.36 746.63C877.556 747.607 876.808 748.629 876.12 749.69C874.69 752.26 874.33 754.63 875.04 756.77C875.75 758.91 877.77 760.92 881.11 762.77L882.51 763.54L888.71 752.37L897.43 757.2L891.22 768.38L927.72 788.63L922.21 798.36L885.8 778.16L882.6 783.91L873.91 779.13Z" fill="#FCB415"/>
<path d="M901.21 743.24C898.823 737.565 898.479 731.237 900.234 725.336C901.99 719.435 905.738 714.325 910.839 710.878C915.94 707.43 922.078 705.858 928.208 706.429C934.339 707.001 940.081 709.68 944.457 714.011C948.833 718.341 951.572 724.056 952.207 730.179C952.843 736.303 951.334 742.458 947.94 747.595C944.546 752.731 939.476 756.532 933.593 758.349C927.711 760.166 921.38 759.887 915.68 757.56C912.416 756.291 909.448 754.365 906.959 751.901C904.47 749.438 902.513 746.49 901.21 743.24ZM920 747C921.85 747.772 923.836 748.168 925.841 748.165C927.846 748.162 929.83 747.76 931.678 746.981C933.526 746.203 935.2 745.065 936.603 743.633C938.006 742.201 939.11 740.503 939.85 738.64C940.632 736.802 941.028 734.823 941.012 732.826C940.997 730.828 940.571 728.855 939.76 727.03C939 725.18 937.873 723.504 936.446 722.103C935.02 720.702 933.323 719.606 931.46 718.88C929.62 718.125 927.649 717.74 925.66 717.749C923.671 717.757 921.704 718.159 919.87 718.93C918.037 719.701 916.374 720.827 914.977 722.243C913.58 723.659 912.477 725.336 911.73 727.18C910.959 729.023 910.561 731 910.56 732.998C910.558 734.996 910.954 736.974 911.723 738.818C912.493 740.662 913.62 742.335 915.041 743.739C916.462 745.144 918.148 746.252 920 747Z" fill="#FCB415"/>
<path d="M913.61 690.64L916.27 680.75L924.09 682.07C919.65 677.57 918.35 671.903 920.19 665.07L920.31 664.62C920.675 663.218 921.139 661.845 921.7 660.51L931.47 665.51C931.244 666.063 931.057 666.631 930.91 667.21C929.668 671.263 930.085 675.644 932.07 679.39C934.07 683.043 938.203 685.71 944.47 687.39L966.47 693.29L963.57 704.09L913.61 690.64Z" fill="#FCB415"/>
<path d="M975.78 659.65L924.37 654.17L925.45 644L933.37 644.19C930.941 642.667 928.986 640.496 927.724 637.922C926.463 635.348 925.945 632.472 926.23 629.62C926.455 626.356 927.683 623.241 929.747 620.702C931.812 618.163 934.61 616.325 937.76 615.44C935.017 613.943 932.751 611.704 931.22 608.98C929.65 606.228 929.009 603.044 929.39 599.9C930.023 593.98 932.567 589.506 937.02 586.48C941.473 583.453 947.967 582.396 956.5 583.31L983.6 586.2L982.42 597.32L955.31 594.44C950.45 593.92 946.783 594.473 944.31 596.1C943.132 596.839 942.142 597.842 941.417 599.029C940.691 600.215 940.251 601.554 940.13 602.94C939.97 604.318 940.125 605.715 940.584 607.025C941.043 608.335 941.794 609.523 942.78 610.5C944.853 612.666 948.317 614 953.17 614.5L980.28 617.39L979.09 628.51L952 625.64C947.08 625.113 943.413 625.666 941 627.3C939.831 628.043 938.849 629.046 938.131 630.23C937.413 631.415 936.978 632.749 936.86 634.13C936.707 635.539 936.901 636.964 937.423 638.281C937.946 639.599 938.783 640.769 939.86 641.69C942.18 643.856 945.847 645.19 950.86 645.69L977 648.53L975.78 659.65Z" fill="#FCB415"/>
<path d="M152.158 273.108L161 263.796L168.997 271.353C173.783 275.857 178.667 277.999 183.649 277.779C188.631 277.56 193.434 274.985 198.06 270.055L204.813 262.817L195.616 254.131C188.637 247.535 185.062 240.635 184.893 233.43C184.723 226.225 187.891 219.181 194.396 212.298L205.274 200.784L229.346 223.524C233.774 227.706 237.625 228.063 240.9 224.594L242.782 222.587L252.091 231.35L250.159 233.348C245.836 237.941 241.023 240.156 235.721 239.993C230.418 239.83 225.333 237.458 220.465 232.877L205.616 218.743L203.684 220.741C199.663 225.003 197.706 229.073 197.814 232.952C197.922 236.83 200.082 240.758 204.296 244.734L222.854 262.262L207.296 278.731C200.038 286.42 192.17 290.382 183.693 290.616C175.216 290.849 167.34 287.52 160.063 280.628L152.158 273.108Z" fill="#138944"/>
<path d="M242.834 222.655L244.273 221.154C248.254 218.035 248.252 213.936 244.267 208.857L205.106 159.004L215.237 151.068L254.348 200.913C258.459 206.167 260.314 211.576 259.914 217.14C259.513 222.704 256.92 227.39 252.136 231.198L249.72 233.093L242.834 222.655Z" fill="#138944"/>
<path d="M259.712 170.069C260.481 166.528 261.967 163.182 264.078 160.237C266.188 157.292 268.88 154.81 271.986 152.944C278.888 148.635 285.982 147.469 293.268 149.444C300.554 151.42 306.507 156.113 311.126 163.524L322.993 182.564C327.337 189.525 328.842 196.577 327.509 203.721C326.175 210.864 321.934 216.682 314.786 221.172C310.885 223.612 306.501 225.174 301.937 225.75C297.565 226.381 293.105 225.885 288.979 224.308L292.14 212.441C294.696 213.335 297.434 213.584 300.11 213.166C302.892 212.795 305.564 211.836 307.947 210.352C311.214 208.5 313.637 205.454 314.706 201.853C315.679 198.554 315.326 195.005 313.723 191.961L302.146 199.187C295.186 203.537 287.99 204.917 280.557 203.327C276.995 202.523 273.627 201.021 270.648 198.909C267.669 196.796 265.137 194.115 263.199 191.02C261.261 187.924 259.955 184.476 259.357 180.873C258.758 177.271 258.878 173.585 259.711 170.029L259.712 170.069ZM283.576 190.835C285.608 191.23 287.699 191.22 289.728 190.806C291.756 190.392 293.684 189.583 295.399 188.424L306.935 181.16L299.603 169.407C297.523 165.78 294.126 163.092 290.117 161.901C288.194 161.365 286.176 161.255 284.206 161.577C282.235 161.9 280.358 162.647 278.705 163.768C277.058 164.785 275.629 166.119 274.5 167.692C273.372 169.264 272.566 171.046 272.13 172.932C271.694 174.818 271.636 176.772 271.959 178.681C272.283 180.589 272.982 182.415 274.015 184.052C275.024 185.807 276.401 187.321 278.051 188.492C279.702 189.663 281.587 190.463 283.576 190.835Z" fill="#138944"/>
<path d="M304.03 113.229L308.17 111.435C306.465 110.611 305.12 109.191 304.39 107.443C303.912 106.391 303.663 105.25 303.657 104.095C303.652 102.94 303.89 101.797 304.357 100.74C304.813 99.6337 305.485 98.6291 306.334 97.7853C307.182 96.9415 308.191 96.2754 309.3 95.8261C310.612 95.2629 312.031 94.9929 313.459 95.0351C314.886 95.0772 316.287 95.4304 317.563 96.0699L315.788 100.554C315.108 100.253 314.374 100.094 313.63 100.087C312.886 100.08 312.149 100.225 311.464 100.514C310.946 100.728 310.476 101.043 310.083 101.442C309.689 101.84 309.38 102.314 309.173 102.835C308.949 103.343 308.835 103.892 308.838 104.448C308.842 105.003 308.963 105.551 309.194 106.056C309.42 106.601 309.751 107.097 310.169 107.514C310.587 107.93 311.084 108.26 311.63 108.483C312.147 108.717 312.708 108.839 313.275 108.84C313.843 108.841 314.404 108.722 314.922 108.489L322.69 105.108L324.799 109.948L306.139 118.069L304.03 113.229ZM328.763 162.832L310.508 120.869L322.338 115.736L340.524 157.731L328.763 162.832ZM352.241 158.616C359.371 155.514 361.092 149.727 357.403 141.257L333.758 86.9834L345.459 81.8949L368.976 135.963C372.282 143.566 372.855 150.47 370.695 156.675C368.535 162.881 364.025 167.476 357.165 170.463L330.388 181.987L325.369 170.264L352.241 158.616Z" fill="#138944"/>
<path d="M406.39 152.447L394.125 156.265L368.562 74.3511L380.846 70.5232L406.39 152.447Z" fill="#138944"/>
<path d="M450.742 92.5374L452.001 103.482C452.75 110.042 455.104 114.829 459.066 117.844C463.027 120.858 468.359 121.953 475.062 121.13L484.892 120.008L483.456 107.441C482.361 97.8965 484.076 90.3166 488.6 84.7017C493.125 79.0868 500.087 75.7463 509.487 74.6804L525.227 72.8727L528.987 105.766C529.685 111.815 531.984 115.958 536.72 115.42L539.745 115.739L541.317 126.394L536.971 127.927C530.703 128.645 527.219 126.016 523.3 122.478C519.38 118.94 517.012 113.866 516.193 107.257L513.853 86.8203L511.127 87.1344C505.296 87.7988 501.17 89.6531 498.748 92.6972C496.337 95.7474 495.45 100.149 496.115 105.879L499.011 131.231L476.495 133.807C466.008 135.011 457.455 132.984 450.834 127.725C444.213 122.466 440.339 114.852 439.212 104.882L437.953 93.9373L450.742 92.5374ZM465.163 150.777C465.044 149.836 465.115 148.88 465.371 147.966C465.628 147.053 466.065 146.2 466.656 145.458C467.239 144.69 467.975 144.051 468.818 143.583C469.661 143.115 470.592 142.827 471.552 142.739C473.461 142.542 475.372 143.1 476.874 144.294C478.377 145.489 479.352 147.224 479.59 149.128C479.824 151.048 479.289 152.982 478.1 154.508C477.516 155.277 476.78 155.92 475.939 156.396C475.098 156.872 474.168 157.171 473.207 157.276C472.257 157.394 471.292 157.313 470.375 157.037C469.458 156.761 468.609 156.296 467.882 155.673C467.123 155.081 466.492 154.342 466.025 153.501C465.557 152.66 465.264 151.734 465.163 150.777ZM486.658 143.224C487.215 142.452 487.93 141.806 488.754 141.33C489.578 140.854 490.494 140.558 491.441 140.462C492.404 140.333 493.382 140.403 494.317 140.667C495.251 140.931 496.121 141.385 496.873 141.999C497.633 142.578 498.265 143.307 498.732 144.141C499.199 144.974 499.491 145.894 499.589 146.844C499.705 147.798 499.628 148.766 499.362 149.689C499.095 150.612 498.645 151.472 498.039 152.217C497.455 152.999 496.716 153.65 495.866 154.128C495.017 154.607 494.077 154.903 493.107 154.998C492.155 155.118 491.188 155.037 490.269 154.761C489.35 154.485 488.499 154.02 487.771 153.395C487.012 152.803 486.381 152.065 485.914 151.224C485.447 150.383 485.154 149.456 485.052 148.5C484.925 147.55 485.002 146.585 485.278 145.668C485.555 144.751 486.025 143.904 486.656 143.184L486.658 143.224Z" fill="#138944"/>
<path d="M536.849 115.252L544.755 115.608C545.858 115.73 546.975 115.584 548.009 115.181C549.044 114.779 549.966 114.133 550.697 113.297C552.218 111.283 553.028 108.821 553.001 106.297L554.482 73.7692L567.23 74.3553L565.749 106.873C565.489 109.384 566.071 111.911 567.403 114.056C568.038 114.947 568.879 115.67 569.854 116.165C570.829 116.659 571.91 116.91 573.003 116.896L581.04 117.264L580.464 130.012L572.427 129.643C566.351 129.34 561.77 126.784 558.682 121.974C555.181 126.512 550.35 128.639 544.189 128.355L536.273 127.999L536.849 115.252ZM546.951 55.4781C547.637 54.8339 548.448 54.3365 549.333 54.0164C550.218 53.6962 551.159 53.5599 552.099 53.6159C553.064 53.6501 554.012 53.8784 554.887 54.2871C555.761 54.6958 556.545 55.2765 557.19 55.9946C557.863 56.6786 558.385 57.4954 558.724 58.3928C559.062 59.2902 559.21 60.2484 559.157 61.206C559.119 62.1544 558.88 63.0838 558.456 63.9331C558.032 64.7823 557.433 65.5319 556.698 66.1324C556.004 66.8045 555.178 67.3256 554.272 67.6628C553.366 68 552.401 68.146 551.436 68.0917C550.488 68.0605 549.555 67.8398 548.693 67.4425C547.831 67.0453 547.058 66.4795 546.418 65.7786C545.755 65.0797 545.243 64.2514 544.914 63.3454C544.585 62.4395 544.447 61.4754 544.509 60.5137C544.552 59.5524 544.791 58.6101 545.211 57.7443C545.631 56.8785 546.223 56.1074 546.951 55.4781ZM563.971 61.4676C564 60.5188 564.22 59.5855 564.617 58.7234C565.015 57.8613 565.581 57.0881 566.284 56.4498C567.719 55.1447 569.612 54.4615 571.55 54.5497C573.487 54.6379 575.311 55.4904 576.621 56.9204C577.261 57.6215 577.755 58.4432 578.073 59.3375C578.392 60.2317 578.529 61.1805 578.477 62.1284C578.433 63.0809 578.203 64.0155 577.798 64.8788C577.394 65.7422 576.823 66.5174 576.119 67.1602C575.415 67.803 574.591 68.3009 573.694 68.6253C572.798 68.9497 571.846 69.0943 570.894 69.0509C569.941 69.0075 569.006 68.777 568.143 68.3724C567.28 67.9678 566.505 67.3971 565.862 66.693C565.219 65.9888 564.721 65.1649 564.397 64.2683C564.072 63.3718 563.928 62.4201 563.971 61.4676Z" fill="#138944"/>
<path d="M578.306 116.766L600.932 120.856L589.948 95.6194L593.381 76.5691L634.847 84.0945C641.268 85.2513 646.182 87.4438 649.589 90.6719C652.995 93.8999 654.222 98.144 653.269 103.404C652.853 105.637 652.049 107.781 650.895 109.738C649.502 112.049 647.787 114.149 645.8 115.975C643.604 118.11 641.663 119.81 640.002 121.182C638.341 122.554 636 124.428 632.969 126.674L656.142 130.861L653.982 143.433L575.998 129.367L578.306 116.766ZM604.961 97.8827L615.871 123.554L618.686 124.056C619.359 123.585 620.433 122.789 621.909 121.679L625.072 119.295C625.724 118.815 626.652 118.088 627.877 117.122C629.101 116.157 630.007 115.401 630.627 114.883L632.942 112.891C633.698 112.257 634.403 111.565 635.051 110.82C635.527 110.231 636.03 109.6 636.559 108.907C637.045 108.309 637.446 107.647 637.754 106.941C638.015 106.328 638.208 105.688 638.33 105.033C638.832 102.218 638.238 100.16 636.535 98.8398C634.833 97.5196 631.998 96.5179 628.028 95.8048L606.06 91.8358L604.961 97.8827ZM618.227 67.7524C618.555 66.0524 619.461 64.5182 620.791 63.4101C622.121 62.3019 623.793 61.6881 625.525 61.6727C627.256 61.6573 628.939 62.2414 630.289 63.3257C631.638 64.4101 632.571 65.9279 632.929 67.6218C633.287 69.3157 633.048 71.0812 632.253 72.6189C631.457 74.1565 630.154 75.3716 628.564 76.0579C626.975 76.7442 625.197 76.8595 623.532 76.3843C621.868 75.909 620.419 74.8724 619.431 73.4504C618.851 72.6336 618.445 71.7064 618.238 70.7263C618.031 69.7462 618.027 68.734 618.227 67.7524Z" fill="#138944"/>
<path d="M654.031 130.408L656.97 131.313C661.809 132.806 665.181 130.472 667.089 124.313L685.81 63.781L698.144 67.6479L679.412 128.171C677.445 134.554 674.049 139.169 669.225 142.017C664.4 144.865 659.058 145.38 653.198 143.562L650.259 142.656L654.031 130.408Z" fill="#138944"/>
<path d="M748.523 125.824C751.903 124.574 755.503 124.029 759.102 124.222C762.701 124.416 766.222 125.344 769.449 126.949L793.233 138.398L779.117 167.785C776.294 173.602 777.209 177.623 781.861 179.848L784.832 181.276L779.297 192.82L776.326 191.391C769.783 188.233 766.608 183.245 766.803 176.427C760.067 180.107 753 180.165 745.603 176.602C740.694 174.247 736.596 170.485 733.829 165.795C731.063 161.105 729.753 155.699 730.066 150.263C730.38 144.827 732.302 139.606 735.59 135.266C738.877 130.925 743.381 127.659 748.528 125.884L748.523 125.824ZM744.336 145.41C743.474 147.139 742.973 149.026 742.864 150.956C742.755 152.885 743.04 154.816 743.701 156.632C744.297 158.462 745.263 160.149 746.54 161.589C747.817 163.029 749.377 164.189 751.123 164.999C752.733 165.829 754.502 166.306 756.311 166.397C758.12 166.489 759.928 166.193 761.613 165.529C765.255 164.054 768.166 161.2 769.712 157.589L776.104 144.301L763.902 138.484C762.177 137.621 760.291 137.125 758.364 137.026C756.437 136.927 754.511 137.227 752.705 137.907C750.876 138.528 749.191 139.512 747.753 140.802C746.314 142.091 745.152 143.659 744.336 145.41ZM761.23 108.864C762.073 107.138 763.563 105.814 765.376 105.178C767.188 104.543 769.179 104.648 770.915 105.47C771.798 105.876 772.588 106.457 773.239 107.179C773.889 107.9 774.385 108.747 774.697 109.667C775.019 110.569 775.158 111.525 775.107 112.481C775.056 113.436 774.816 114.372 774.401 115.235C773.986 116.097 773.403 116.868 772.688 117.503C771.972 118.139 771.137 118.626 770.232 118.936C769.317 119.249 768.349 119.377 767.384 119.31C766.419 119.244 765.478 118.985 764.614 118.549C763.755 118.148 762.985 117.578 762.35 116.872C761.716 116.167 761.229 115.341 760.921 114.444C760.577 113.545 760.427 112.583 760.481 111.621C760.534 110.66 760.789 109.72 761.23 108.864ZM778.861 117.314C779.262 116.453 779.831 115.682 780.537 115.045C781.242 114.409 782.067 113.921 782.965 113.61C783.866 113.294 784.82 113.159 785.774 113.212C786.727 113.265 787.661 113.505 788.521 113.919C789.382 114.332 790.153 114.912 790.789 115.623C791.426 116.335 791.917 117.165 792.233 118.066C792.549 118.967 792.684 119.921 792.631 120.875C792.578 121.828 792.338 122.762 791.924 123.622C791.511 124.483 790.931 125.254 790.22 125.89C789.508 126.527 788.678 127.018 787.777 127.334C786.419 127.82 784.947 127.89 783.549 127.535C782.152 127.179 780.892 126.414 779.932 125.338C778.971 124.261 778.355 122.923 778.16 121.493C777.966 120.064 778.203 118.61 778.841 117.316L778.861 117.314Z" fill="#138944"/>
<path d="M775.614 190.401L784.312 181.081L790.607 184.851L815.14 150.508L825.528 157.915L817.033 169.826C830.189 167.254 840.6 168.694 848.268 174.148C854.663 178.698 858.308 184.608 859.205 191.877C860.102 199.145 858.064 206.241 853.093 213.162L850.865 216.295C847.198 221.425 846.945 225.527 850.823 228.297L853.085 231.105L846.285 240.313L842.713 238.567C837.706 235.002 836.507 230.248 836.995 224.374C834.224 225.39 831.239 225.686 828.322 225.235C825.405 224.783 822.65 223.598 820.316 221.792L775.614 190.401ZM800.994 192.258L827.758 211.361C828.712 212.082 829.809 212.59 830.976 212.852C832.143 213.114 833.352 213.123 834.522 212.879C836.941 212.387 839.138 210.769 841.113 208.027L842.646 205.881C845.547 201.824 846.754 197.799 846.266 193.807C845.779 189.815 843.596 186.434 839.718 183.664C833.4 179.14 822.929 178.602 808.306 182.05L800.994 192.258Z" fill="#138944"/>
<path d="M853.304 231.086C854.059 231.876 854.994 232.471 856.029 232.82C857.064 233.169 858.169 233.262 859.248 233.09C861.713 232.544 863.926 231.192 865.538 229.249L887.736 205.408L897.065 214.105L874.859 237.957C873.022 239.698 871.817 242 871.433 244.501C871.35 245.611 871.538 246.725 871.98 247.746C872.422 248.768 873.105 249.667 873.97 250.367L876.304 252.536L867.607 261.865L865.273 259.696C860.77 255.49 858.909 250.548 859.688 244.868C854.084 246.043 849.051 244.559 844.587 240.417L842.176 238.174L850.94 228.809L853.304 231.086ZM901.143 192.632C902.92 192.557 904.669 193.102 906.09 194.173C907.51 195.244 908.515 196.775 908.933 198.504C909.35 200.234 909.154 202.055 908.378 203.656C907.601 205.257 906.293 206.539 904.677 207.282C903.061 208.026 901.236 208.186 899.516 207.733C897.795 207.281 896.284 206.246 895.242 204.804C894.2 203.362 893.691 201.603 893.802 199.827C893.913 198.051 894.637 196.369 895.85 195.068C896.522 194.328 897.339 193.734 898.25 193.322C899.161 192.91 900.147 192.689 901.146 192.672L901.143 192.632Z" fill="#138944"/>
<path d="M883.893 261.31C883.624 258.472 884.062 255.612 885.169 252.986C886.276 250.359 888.017 248.048 890.236 246.259C894.349 242.679 899.432 240.401 904.841 239.714C910.249 239.026 915.741 239.96 920.618 242.398C925.495 244.835 929.539 248.665 932.236 253.404C934.934 258.142 936.164 263.575 935.77 269.013C935.376 274.451 933.376 279.649 930.024 283.95C926.672 288.25 922.118 291.458 916.941 293.167C911.763 294.876 906.195 295.009 900.941 293.549C895.688 292.089 890.987 289.103 887.433 284.967L864.823 258.723L874.484 250.391L883.893 261.31ZM893.688 265.938C893.512 267.86 893.722 269.797 894.308 271.635C894.894 273.473 895.843 275.175 897.099 276.639C898.354 278.104 899.891 279.301 901.619 280.161C903.346 281.02 905.228 281.524 907.154 281.642C911.04 281.922 914.879 280.651 917.832 278.108C920.784 275.565 922.609 271.957 922.908 268.072C923.07 266.156 922.848 264.226 922.256 262.396C921.665 260.566 920.714 258.873 919.461 257.414C918.208 255.955 916.677 254.76 914.958 253.899C913.238 253.038 911.364 252.528 909.446 252.398C907.52 252.235 905.581 252.464 903.746 253.071C901.911 253.679 900.218 254.652 898.77 255.931C897.283 257.163 896.065 258.686 895.191 260.408C894.317 262.129 893.805 264.011 893.688 265.938Z" fill="#138944"/>
<path d="M497.38 682.6C499.186 682.456 501.003 682.691 502.713 683.29C504.423 683.889 505.989 684.84 507.31 686.08C520.1 698.26 532.31 711.08 544.98 723.37C550.55 728.77 556.8 733.48 564.44 739.89C569.107 737.35 573.747 734.633 578.36 731.74C588.85 725.08 600.53 719.49 607.56 708.35C602.71 708.35 598.79 711.44 593.64 711.51C587.944 711.69 582.272 710.692 576.979 708.579C571.686 706.466 566.886 703.283 562.88 699.23C552.18 688.93 541.73 678.35 531.2 667.93" fill="#EEC31A"/>
<path d="M565 740.35C548.75 746.1 533.29 753.3 517 756.9C498.492 761.018 479.617 763.262 460.66 763.6C418.88 764.2 380.28 752.67 344.49 730.74C307.407 708.183 277.757 675.243 259.21 636C241.15 598.73 235.37 559.19 239.21 518.42C241.443 493.883 248.047 469.942 258.71 447.73C268.52 427.08 279.99 407.92 295.43 391.35C312.63 372.78 339.21 374.04 354.73 393.46C366.55 408.24 364.99 429.31 352.41 443.46C330.643 467.498 317.738 498.248 315.83 530.62C312.95 572.94 326.55 609.62 354.66 640.56C371.839 659.263 393.75 672.98 418.08 680.26C443.814 688.249 471.243 689.051 497.4 682.58C499.197 682.432 501.005 682.66 502.71 683.249C504.414 683.838 505.977 684.775 507.3 686C520.09 698.19 532.3 711 544.97 723.29C550.68 728.91 557.09 733.71 565 740.35Z" fill="#FCB415"/>
<path d="M591.61 616.55C611.22 596.8 628.91 578.87 646.71 561.07C688.5 519.3 730.28 477.74 771.92 435.9C783.85 423.9 797.85 419.03 813.82 424.07C843.6 433.49 851.4 468.76 829.09 491.15C801.59 518.77 773.92 546.15 746.34 573.74C705.56 614.46 664.26 654.74 624.2 696.17C604.28 716.8 577.2 713.76 560.41 696.17C527.29 661.64 493.1 628.17 459.23 594.3C442.59 577.66 441.84 552.97 457.72 537.1C473.6 521.23 498.16 521.1 514.99 537.72C538.323 560.767 561.533 583.974 584.62 607.34C587.127 610.272 589.461 613.347 591.61 616.55Z" fill="#138944"/>
<path d="M456.77 316.38C501.85 316.7 539.01 326.28 573.25 346.22C598.16 360.7 600.74 392.95 578.85 411.22C566.52 421.52 549.85 423.22 534.3 414.56C508.12 399.664 477.99 393.184 448 396C440.27 396.67 432.61 398.32 424.93 399.83C404.04 403.73 383.93 391.64 378.99 371.98C373.52 350.28 384.61 329.98 405.99 323.65C413.186 321.497 420.548 319.941 428 319C439.37 317.49 450.81 316.86 456.77 316.38Z" fill="#FCB415"/>
<path d="M670.07 464.28C670.102 474.806 665.972 484.917 658.581 492.41C651.189 499.903 641.135 504.17 630.61 504.28C607.93 504.47 588.82 484.95 588.94 461.58C588.969 450.933 593.225 440.733 600.773 433.222C608.321 425.712 618.542 421.506 629.19 421.53C651.17 421.61 670.07 441.38 670.07 464.28Z" fill="#FCB415"/>
<path d="M540 1062.1C828.348 1062.1 1062.1 828.348 1062.1 540C1062.1 251.652 828.348 17.9004 540 17.9004C251.652 17.9004 17.8999 251.652 17.8999 540C17.8999 828.348 251.652 1062.1 540 1062.1Z" stroke="#FCB415" stroke-width="7" stroke-miterlimit="10"/>
</svg>
