<svg width="1045" height="218" viewBox="0 0 1045 218" fill="none" xmlns="http://www.w3.org/2000/svg">
<path d="M127.959 171.527C128.736 171.465 129.517 171.567 130.252 171.826C130.987 172.085 131.66 172.496 132.228 173.032C137.723 178.3 142.959 183.839 148.414 189.157C150.808 191.495 153.491 193.532 156.772 196.301C158.766 195.204 160.761 194.03 162.756 192.779C167.263 189.899 172.28 187.481 175.302 182.665C173.217 182.665 171.532 183.999 169.318 184.03C166.871 184.108 164.434 183.677 162.16 182.763C159.886 181.85 157.824 180.474 156.103 178.722C151.506 174.267 147.018 169.691 142.49 165.186" fill="#EEC31A"/>
<path d="M157.013 196.502C150.032 198.99 143.389 202.101 136.388 203.656C128.437 205.438 120.328 206.409 112.184 206.555C94.2321 206.816 77.6468 201.83 62.2683 192.348C46.3367 182.588 33.6005 168.34 25.6371 151.37C17.8781 135.255 15.3948 118.158 17.0304 100.528C17.9908 89.9199 20.8279 79.5696 25.4078 69.9655C29.6264 61.0354 34.5531 52.7474 41.1853 45.5831C48.5753 37.5561 59.9944 38.098 66.6666 46.4963C71.7428 52.8879 71.0745 61.9985 65.6692 68.099C56.3156 78.493 50.7702 91.789 49.9516 105.786C48.7148 124.088 54.5591 139.961 66.6366 153.326C74.0157 161.414 83.4296 167.345 93.8831 170.494C104.939 173.949 116.723 174.296 127.961 171.498C128.738 171.435 129.518 171.536 130.254 171.796C130.989 172.055 131.662 172.466 132.23 173.003C137.725 178.27 142.961 183.809 148.416 189.127C150.869 191.555 153.622 193.632 157.013 196.502Z" fill="#FCB415"/>
<path d="M168.452 142.971C176.88 134.433 184.479 126.677 192.128 118.98C210.08 100.92 228.031 82.9492 245.923 64.8583C251.049 59.6708 257.063 57.5637 263.924 59.741C276.72 63.8148 280.071 79.0662 270.488 88.7487C258.668 100.689 246.781 112.549 234.933 124.459C217.41 142.068 199.668 159.477 182.455 177.397C173.898 186.317 162.259 185.003 155.049 177.397C140.817 162.467 126.126 147.978 111.576 133.349C104.425 126.155 104.106 115.479 110.928 108.616C117.749 101.753 128.301 101.712 135.531 108.887C145.558 118.853 155.531 128.887 165.45 138.988C166.527 140.256 167.53 141.586 168.452 142.971Z" fill="#138944"/>
<path d="M110.518 13.1741C129.886 13.3145 145.853 17.4585 160.563 26.0776C171.264 32.3386 172.371 46.2856 162.967 54.1721C157.671 58.6272 150.51 59.3797 143.828 55.6171C132.574 49.1718 119.621 46.369 106.729 47.59C103.407 47.8809 100.116 48.5933 96.8154 49.2455C87.8394 50.9312 79.2128 45.7036 77.0785 37.2051C74.7248 27.8234 79.4919 19.0438 88.6672 16.3046C91.7711 15.3714 94.9469 14.7002 98.1615 14.2979C103.038 13.6557 107.955 13.3848 110.518 13.1741Z" fill="#FCB415"/>
<path d="M202.161 77.1297C202.172 81.6773 200.396 86.045 197.221 89.2813C194.045 92.5177 189.727 94.3603 185.207 94.4079C175.463 94.4882 167.256 86.0497 167.305 75.9457C167.311 73.6662 167.762 71.41 168.634 69.3059C169.506 67.2019 170.781 65.2912 172.387 63.6831C173.993 62.0749 175.898 60.8009 177.993 59.9333C180.088 59.0659 182.333 58.6222 184.599 58.6272C194.043 58.6774 202.161 67.2263 202.161 77.1297Z" fill="#FCB415"/>
<path d="M349.063 145.672L351.277 175.141C351.435 175.951 351.29 176.791 350.869 177.499C350.194 177.972 349.369 178.176 348.554 178.071H347.557C346.724 178.168 345.882 177.966 345.183 177.499C344.68 176.819 344.424 175.987 344.455 175.141L342.46 145.732C342.476 144.787 342.271 143.853 341.863 143.003C341.675 142.757 341.428 142.563 341.144 142.44C340.862 142.317 340.553 142.269 340.247 142.3C339.956 142.277 339.665 142.333 339.404 142.462C339.142 142.591 338.919 142.788 338.761 143.033C338.34 143.874 338.093 144.792 338.033 145.732L334.612 171.318C334.283 173.907 333.615 175.683 332.616 176.636C331.62 177.589 329.944 178.071 327.629 178.071C325.866 178.206 324.115 177.661 322.733 176.546C321.657 175.542 320.949 173.787 320.61 171.318L317.149 145.732C317.087 144.798 316.829 143.889 316.39 143.063C316.225 142.814 316 142.613 315.733 142.479C315.469 142.345 315.171 142.284 314.876 142.3C313.606 142.3 312.887 143.444 312.72 145.732L310.727 175.141C310.779 175.976 310.533 176.803 310.028 177.469C309.32 177.951 308.465 178.165 307.614 178.071H306.668C305.854 178.176 305.034 177.972 304.364 177.499C303.932 176.795 303.784 175.951 303.954 175.141L306.108 145.672C306.361 142.361 307.168 139.973 308.533 138.508C309.895 137.043 311.972 136.313 314.765 136.32C317.389 136.32 319.353 137.033 320.65 138.478C321.946 139.922 322.823 142.321 323.251 145.672L326.245 170.245C326.289 170.891 326.441 171.525 326.693 172.121C326.803 172.278 326.955 172.401 327.131 172.474C327.308 172.547 327.502 172.567 327.691 172.532C327.861 172.546 328.033 172.516 328.187 172.443C328.344 172.371 328.478 172.26 328.578 172.121C328.831 171.525 328.981 170.891 329.027 170.245L332.019 145.672C332.438 142.361 333.311 139.973 334.642 138.508C335.405 137.745 336.325 137.155 337.334 136.777C338.344 136.4 339.422 136.244 340.496 136.32C343.318 136.32 345.403 137.033 346.759 138.478C348.115 139.922 348.794 142.321 349.063 145.672Z" fill="#FCB415"/>
<path d="M362.776 149.364L367.763 169.863C367.908 170.78 368.305 171.638 368.909 172.342C369.564 172.824 370.373 173.049 371.182 172.974C371.528 172.993 371.874 172.941 372.201 172.822C372.525 172.703 372.825 172.519 373.078 172.281C373.651 171.59 374.024 170.754 374.154 169.863L378.903 149.364C379.013 148.507 379.39 147.706 379.979 147.077C380.717 146.622 381.581 146.422 382.441 146.505H383.27C384.448 146.505 385.184 146.695 385.484 147.077C385.784 147.458 385.784 148.22 385.484 149.364L378.652 178.071C377.596 182.526 375.98 185.871 373.806 188.105C371.473 190.43 368.385 191.833 365.108 192.058C364.46 192.173 363.792 192.033 363.243 191.667C362.69 191.135 362.337 190.425 362.247 189.66L362.046 188.827C361.936 188.537 361.885 188.227 361.896 187.917C361.909 187.606 361.984 187.301 362.117 187.021C362.566 186.56 363.179 186.297 363.823 186.289C365.759 186.121 367.582 185.309 369.008 183.981C370.47 182.328 371.497 180.335 372 178.181C371.074 178.548 370.08 178.702 369.088 178.633C368.193 178.705 367.293 178.586 366.449 178.283C365.602 177.981 364.831 177.501 364.182 176.877C363.104 175.713 362.187 173.582 361.429 170.485L356.114 149.414C355.827 148.271 355.827 147.508 356.114 147.127C356.4 146.745 357.136 146.555 358.327 146.555H359.156C360.016 146.472 360.88 146.672 361.618 147.127C362.218 147.74 362.619 148.519 362.776 149.364Z" fill="#FCB415"/>
<path d="M405.231 148.09L404.662 147.518C404.056 147.072 403.639 146.412 403.496 145.672C403.593 144.909 403.943 144.202 404.492 143.665L407.484 140.043C409.677 137.454 412.125 136.16 414.823 136.16C417.231 136.16 418.992 136.829 420.11 138.166C421.228 139.531 421.785 141.668 421.785 144.598V175.141C421.889 175.972 421.684 176.812 421.208 177.499C420.524 177.97 419.695 178.173 418.873 178.071H418.055C417.231 178.173 416.397 177.969 415.712 177.499C415.244 176.808 415.041 175.97 415.143 175.141V146.856C415.191 145.592 415.13 144.326 414.953 143.073C414.823 142.622 414.466 142.401 413.877 142.401C413.289 142.401 412.48 143.103 411.344 144.508L408.771 147.859C408.101 148.702 407.523 149.143 407.065 149.163C406.344 149.043 405.691 148.661 405.231 148.09Z" fill="#FCB415"/>
<path d="M429.846 147.137L429.645 147.076C429.374 146.985 429.142 146.8 428.992 146.554C428.842 146.308 428.785 146.017 428.827 145.732C428.827 144.036 428.887 142.341 429.017 140.645C429.436 134.156 430.913 130.909 433.446 130.902C433.84 130.883 434.233 130.957 434.594 131.117C434.956 131.277 435.276 131.519 435.529 131.825C436.063 132.525 436.332 133.393 436.288 134.273C436.111 136.291 435.509 138.248 434.522 140.013C433.58 142.178 432.502 144.279 431.29 146.304C430.842 147.036 430.344 147.307 429.846 147.137Z" fill="#FCB415"/>
<path d="M439.389 174.569V173.746C439.292 172.997 439.469 172.238 439.888 171.609C440.227 171.288 440.884 171.258 441.881 171.509C444.892 172.329 447.999 172.737 451.116 172.723C452.657 172.815 454.2 172.61 455.664 172.121C456.081 171.951 456.433 171.652 456.672 171.268C456.91 170.885 457.022 170.435 456.991 169.984C457.011 169.609 456.947 169.235 456.806 168.888C456.665 168.541 456.449 168.23 456.173 167.977C455.192 167.211 454.108 166.589 452.952 166.131L446.109 163.121C444.24 162.398 442.577 161.219 441.272 159.689C440.247 158.148 439.747 156.313 439.848 154.461C439.848 151.451 440.844 149.314 442.76 147.909C444.674 146.505 447.745 145.812 451.934 145.812C454.414 145.791 456.883 146.112 459.275 146.765C460.098 146.929 460.865 147.306 461.5 147.859C461.875 148.489 462.04 149.225 461.967 149.956V150.719C462.075 151.475 461.881 152.243 461.429 152.856C461.081 153.167 460.43 153.187 459.383 152.856C456.932 152.157 454.392 151.819 451.846 151.853C450.386 151.76 448.922 151.968 447.547 152.465C447.154 152.626 446.823 152.906 446.596 153.265C446.369 153.625 446.259 154.046 446.279 154.471C446.261 154.802 446.308 155.133 446.416 155.444C446.526 155.756 446.696 156.043 446.918 156.287C447.604 156.907 448.4 157.393 449.262 157.722L456.592 160.903C458.607 161.617 460.404 162.845 461.808 164.465C462.913 166.046 463.46 167.953 463.363 169.883C463.363 172.893 462.366 175.181 460.303 176.626C458.237 178.071 455.016 178.793 450.589 178.793C447.666 178.802 444.753 178.438 441.923 177.71C441.155 177.568 440.443 177.221 439.857 176.706C439.473 176.064 439.31 175.314 439.389 174.569Z" fill="#FCB415"/>
<path d="M467.033 150.378V149.746C466.967 149.096 467.126 148.444 467.483 147.899C467.957 147.469 468.555 147.202 469.19 147.137L472.538 146.505L473.308 140.484C473.323 139.809 473.566 139.158 473.996 138.638C474.56 138.283 475.228 138.127 475.889 138.197H476.718C477.362 138.12 478.013 138.277 478.553 138.638C478.912 139.182 479.069 139.836 478.991 140.484V146.505H487.847C488.593 146.422 489.342 146.599 489.973 147.006C490.416 147.635 490.608 148.409 490.511 149.174V149.936C490.608 150.701 490.416 151.475 489.973 152.103C489.344 152.516 488.593 152.693 487.847 152.605H478.991V167.054C478.991 170.756 480.638 172.593 483.978 172.593C485.705 172.612 487.426 172.42 489.104 172.021C490.162 171.81 490.85 171.85 491.19 172.151C491.613 172.762 491.787 173.512 491.677 174.248V175.011C491.75 175.792 491.571 176.576 491.17 177.248C490.594 177.785 489.865 178.119 489.084 178.201C487.393 178.515 485.678 178.683 483.958 178.703C476.366 178.703 472.569 174.8 472.569 166.994V152.605H469.278C468.971 152.699 468.643 152.707 468.332 152.628C468.019 152.55 467.735 152.388 467.507 152.159C467.28 151.93 467.119 151.644 467.04 151.33C466.963 151.016 466.972 150.687 467.064 150.378H467.033Z" fill="#FCB415"/>
<path d="M513.091 170.816V139.621C512.991 138.795 513.192 137.961 513.659 137.273C514.345 136.804 515.178 136.601 516.003 136.701H516.821C517.645 136.599 518.479 136.803 519.164 137.273C519.63 137.961 519.832 138.795 519.733 139.621V169.351C519.689 169.685 519.724 170.025 519.835 170.343C519.945 170.661 520.128 170.948 520.368 171.183C520.608 171.418 520.899 171.593 521.219 171.695C521.537 171.797 521.876 171.822 522.207 171.77H535.679C536.076 171.64 536.502 171.623 536.907 171.72C537.313 171.817 537.686 172.024 537.981 172.319C538.279 172.615 538.488 172.986 538.589 173.394C538.689 173.801 538.678 174.229 538.552 174.629V175.201C538.673 175.599 538.682 176.022 538.583 176.426C538.484 176.829 538.276 177.198 537.985 177.492C537.692 177.787 537.328 177.996 536.927 178.098C536.526 178.2 536.105 178.19 535.71 178.071H520.302C517.769 178.071 515.943 177.499 514.806 176.355C513.668 175.211 513.091 173.365 513.091 170.816Z" fill="#FCB415"/>
<path d="M568.26 156.237V168.589C568.26 172.114 567.184 174.69 565.03 176.315C562.876 177.941 559.461 178.76 554.787 178.773C546.224 178.773 541.941 175.506 541.941 168.97C541.941 165.626 543.005 163.194 545.133 161.676C547.26 160.157 550.499 159.385 554.847 159.358H561.829V156.237C561.904 155.511 561.78 154.778 561.474 154.117C561.165 153.456 560.684 152.891 560.083 152.485C558.925 151.762 557.018 151.401 554.357 151.401C552.13 151.374 549.906 151.566 547.717 151.973C546.789 152.144 546.169 152.094 545.852 151.813C545.532 151.532 545.382 150.919 545.382 149.936V149.043C545.309 148.362 545.477 147.678 545.852 147.107C546.354 146.655 546.985 146.374 547.655 146.304C549.749 145.982 551.861 145.814 553.978 145.802C558.793 145.802 562.38 146.628 564.739 148.281C567.073 149.936 568.26 152.585 568.26 156.237ZM561.809 168.278V164.325H554.827C553.153 164.191 551.476 164.539 549.99 165.328C549.454 165.723 549.031 166.25 548.757 166.858C548.486 167.467 548.374 168.135 548.433 168.8C548.374 169.447 548.484 170.098 548.751 170.689C549.02 171.281 549.436 171.791 549.959 172.171C551.392 172.948 553.014 173.296 554.637 173.175C557.21 173.175 559.044 172.813 560.142 172.091C561.24 171.368 561.793 170.094 561.809 168.268V168.278Z" fill="#FCB415"/>
<path d="M580.976 158.144V175.201C581.095 175.6 581.104 176.023 581.002 176.426C580.901 176.829 580.691 177.197 580.4 177.491C580.107 177.785 579.741 177.994 579.342 178.096C578.941 178.198 578.52 178.189 578.125 178.071H577.307C576.91 178.193 576.487 178.204 576.086 178.103C575.685 178.002 575.317 177.793 575.023 177.498C574.73 177.204 574.523 176.834 574.421 176.429C574.322 176.025 574.333 175.6 574.455 175.201V158.144C574.455 149.949 579.051 145.852 588.247 145.852C592.973 145.852 596.435 146.856 598.659 148.862C600.884 150.869 601.979 153.99 601.979 158.184V175.241C602.099 175.64 602.105 176.063 602.004 176.466C601.902 176.869 601.695 177.237 601.404 177.531C601.111 177.825 600.745 178.034 600.346 178.136C599.945 178.238 599.523 178.229 599.127 178.111H598.311C597.914 178.233 597.491 178.244 597.09 178.143C596.686 178.043 596.32 177.834 596.027 177.539C595.734 177.244 595.526 176.874 595.425 176.469C595.326 176.065 595.337 175.64 595.458 175.241V158.184C595.458 155.896 594.931 154.284 593.882 153.348C592.824 152.415 590.89 151.953 588.247 151.953C585.603 151.953 583.61 152.415 582.552 153.348C581.496 154.281 580.976 155.886 580.976 158.144Z" fill="#FCB415"/>
<path d="M635.569 157.07V157.642C635.569 165.275 631.034 169.094 621.967 169.101C619.996 169.012 618.025 169.14 616.083 169.482C615.699 169.548 615.355 169.751 615.11 170.053C614.866 170.356 614.74 170.738 614.755 171.128C614.755 171.85 615.225 172.342 616.142 172.593C618.065 172.925 620.018 173.052 621.967 172.974C627.412 172.974 631.184 173.643 633.285 174.98C635.36 176.305 636.396 178.653 636.396 182.004C636.396 185.616 635.34 188.165 633.226 189.65C631.112 191.135 627.359 191.877 621.967 191.877C616.402 191.877 612.564 191.175 610.456 189.77C608.362 188.446 607.365 186.259 607.365 183.288C607.288 182.011 607.559 180.737 608.15 179.603C608.741 178.47 609.63 177.52 610.716 176.857C609.947 176.41 609.314 175.757 608.889 174.971C608.466 174.184 608.265 173.295 608.313 172.402C608.313 169.566 609.976 167.743 613.3 166.933C609.877 165.275 608.166 162.177 608.172 157.642V157.07C608.089 155.495 608.373 153.922 609.006 152.478C609.638 151.035 610.6 149.762 611.814 148.762C614.233 146.755 617.617 145.769 621.967 145.802C624.006 145.766 626.034 146.106 627.95 146.806L631.55 143.685C632.02 143.153 632.657 142.799 633.356 142.682C634.039 142.785 634.659 143.143 635.091 143.685L635.669 144.257C636.184 144.699 636.537 145.304 636.667 145.973C636.625 146.312 636.515 146.639 636.343 146.934C636.171 147.229 635.942 147.486 635.669 147.689L633.076 150.498C633.923 151.36 634.579 152.389 635.009 153.521C635.439 154.652 635.629 155.861 635.569 157.07ZM621.967 178.583C620.044 178.627 618.122 178.54 616.213 178.322C614.643 178.991 613.863 180.349 613.869 182.396C613.788 183.037 613.902 183.687 614.195 184.262C614.491 184.836 614.949 185.308 615.514 185.616C616.612 186.138 618.755 186.409 621.967 186.409C625.177 186.409 627.132 186.128 628.23 185.576C629.326 185.024 629.875 183.931 629.875 182.275C629.875 180.62 629.346 179.636 628.299 179.265C627.251 178.894 625.177 178.583 621.967 178.583ZM629.057 157.642V157.07C629.114 156.289 628.993 155.504 628.704 154.777C628.413 154.05 627.961 153.4 627.381 152.876C626.264 151.963 624.449 151.501 621.967 151.501C617.119 151.501 614.691 153.371 614.685 157.11V157.682C614.614 158.491 614.727 159.306 615.013 160.066C615.3 160.825 615.754 161.509 616.341 162.067C617.458 162.97 619.332 163.432 621.936 163.432C624.54 163.432 626.334 162.97 627.412 162.067C627.996 161.5 628.448 160.808 628.733 160.042C629.017 159.277 629.127 158.456 629.057 157.642Z" fill="#FCB415"/>
<path d="M647.717 149.364V166.362C647.717 168.649 648.246 170.261 649.302 171.198C650.36 172.134 652.254 172.599 654.988 172.592C657.693 172.592 659.571 172.128 660.621 171.198C661.672 170.268 662.204 168.656 662.217 166.362V149.364C662.118 148.557 662.321 147.741 662.786 147.076C663.449 146.612 664.258 146.408 665.061 146.505H665.877C666.684 146.406 667.495 146.61 668.161 147.076C668.624 147.743 668.827 148.557 668.73 149.364V166.362C668.73 170.556 667.614 173.673 665.378 175.713C663.134 177.72 659.684 178.723 654.997 178.723C645.801 178.723 641.207 174.586 641.213 166.311V149.364C641.114 148.557 641.317 147.741 641.782 147.076C642.446 146.612 643.255 146.408 644.057 146.505H644.875C645.68 146.406 646.493 146.61 647.159 147.076C647.618 147.744 647.816 148.558 647.717 149.364Z" fill="#FCB415"/>
<path d="M700.163 156.237V168.589C700.163 172.114 699.087 174.69 696.933 176.315C694.779 177.941 691.362 178.76 686.68 178.773C678.123 178.773 673.844 175.506 673.844 168.97C673.844 165.626 674.909 163.194 677.037 161.676C679.164 160.157 682.403 159.385 686.75 159.358H693.732V156.237C693.807 155.511 693.686 154.778 693.377 154.117C693.071 153.456 692.588 152.891 691.986 152.485C690.829 151.762 688.922 151.401 686.261 151.401C684.034 151.374 681.81 151.565 679.62 151.973C678.692 152.144 678.073 152.094 677.755 151.813C677.436 151.532 677.277 150.919 677.277 149.936V149.043C677.206 148.361 677.376 147.677 677.755 147.107C678.256 146.657 678.882 146.376 679.55 146.304C681.646 145.983 683.763 145.815 685.884 145.802C690.69 145.802 694.277 146.628 696.645 148.281C698.977 149.936 700.163 152.585 700.163 156.237ZM693.712 168.278V164.325H686.73C685.053 164.196 683.373 164.543 681.885 165.328C681.353 165.725 680.932 166.253 680.661 166.861C680.39 167.469 680.28 168.136 680.337 168.8C680.277 169.447 680.388 170.098 680.657 170.689C680.923 171.281 681.34 171.791 681.863 172.171C683.296 172.948 684.918 173.296 686.541 173.175C689.114 173.175 690.95 172.813 692.046 172.091C693.144 171.368 693.699 170.094 693.712 168.268V168.278Z" fill="#FCB415"/>
<path d="M733.125 157.07V157.642C733.125 165.274 728.59 169.094 719.522 169.101C717.553 169.012 715.58 169.14 713.638 169.482C713.257 169.547 712.91 169.751 712.666 170.053C712.423 170.356 712.295 170.738 712.311 171.128C712.311 171.85 712.78 172.342 713.698 172.592C715.62 172.925 717.573 173.052 719.522 172.974C724.954 172.974 728.727 173.643 730.841 174.98C732.915 176.305 733.954 178.653 733.954 182.004C733.954 185.616 732.887 188.165 730.781 189.65C728.678 191.135 724.917 191.877 719.522 191.877C713.958 191.877 710.122 191.175 708.014 189.77C705.906 188.366 704.868 186.181 704.901 183.218C704.819 181.939 705.088 180.661 705.681 179.526C706.274 178.392 707.167 177.443 708.263 176.787C707.492 176.34 706.859 175.687 706.435 174.901C706.012 174.114 705.812 173.225 705.858 172.332C705.858 169.495 707.52 167.673 710.845 166.863C707.428 165.204 705.719 162.107 705.719 157.572V157C705.633 155.425 705.92 153.851 706.552 152.408C707.185 150.965 708.146 149.691 709.359 148.692C711.786 146.685 715.17 145.698 719.511 145.732C721.55 145.695 723.579 146.035 725.497 146.735L729.097 143.615C729.567 143.082 730.204 142.728 730.9 142.611C731.584 142.715 732.203 143.073 732.635 143.615L733.215 144.187C733.731 144.629 734.082 145.234 734.212 145.903C734.17 146.242 734.06 146.569 733.89 146.864C733.718 147.159 733.489 147.415 733.215 147.618L730.623 150.428C731.478 151.297 732.144 152.337 732.574 153.482C733.006 154.626 733.193 155.848 733.125 157.07ZM719.522 178.583C717.6 178.627 715.677 178.54 713.768 178.322C712.198 178.991 711.418 180.349 711.425 182.396C711.345 183.038 711.46 183.689 711.755 184.264C712.051 184.838 712.514 185.31 713.08 185.616C714.176 186.138 716.321 186.409 719.531 186.409C722.743 186.409 724.699 186.128 725.794 185.576C726.892 185.024 727.441 183.931 727.441 182.275C727.441 180.62 726.912 179.636 725.865 179.265C724.818 178.894 722.723 178.583 719.522 178.583ZM726.612 157.642V157.07C726.667 156.289 726.546 155.505 726.255 154.779C725.966 154.052 725.514 153.401 724.937 152.876C723.821 151.963 722.005 151.501 719.522 151.501C714.674 151.501 712.249 153.371 712.242 157.11V157.682C712.17 158.499 712.282 159.322 712.573 160.089C712.862 160.856 713.323 161.546 713.918 162.107C715.034 163.01 716.91 163.472 719.522 163.472C722.135 163.472 723.92 163.01 724.996 162.107C725.583 161.533 726.03 160.833 726.31 160.06C726.59 159.287 726.694 158.461 726.612 157.642Z" fill="#FCB415"/>
<path d="M765.767 158.977C765.767 159.147 765.767 160.08 765.639 161.776C765.637 162.632 765.348 163.463 764.821 164.134C764.107 164.594 763.26 164.795 762.416 164.706H744.825V166.101C744.825 168.442 745.532 170.114 746.948 171.117C748.365 172.121 750.667 172.613 753.879 172.613C756.648 172.615 759.408 172.278 762.098 171.609C763.095 171.348 763.793 171.388 764.153 171.699C764.6 172.315 764.792 173.081 764.691 173.837V174.659C764.775 175.405 764.609 176.156 764.221 176.797C763.613 177.312 762.881 177.658 762.098 177.8C759.417 178.511 756.65 178.848 753.879 178.803C748.526 178.803 744.595 177.71 742.082 175.522C739.569 173.335 738.312 169.877 738.312 165.147V159.609C738.312 150.438 742.993 145.852 752.354 145.852C756.741 145.852 760.065 146.966 762.327 149.194C764.587 151.421 765.734 154.682 765.767 158.977ZM744.825 157.762V159.358H759.633V157.762C759.633 153.568 757.146 151.468 752.175 151.461C747.201 151.454 744.75 153.555 744.825 157.762Z" fill="#FCB415"/>
<path d="M793.005 141.839H803.406C808.453 141.839 812.163 143.03 814.536 145.411C816.91 147.792 818.094 151.371 818.087 156.147C818.087 165.679 813.193 170.445 803.406 170.445H792.436V182.556C792.54 183.436 792.324 184.323 791.828 185.055C791.1 185.55 790.218 185.764 789.345 185.657H788.477C787.604 185.764 786.722 185.55 785.994 185.055C785.503 184.321 785.291 183.434 785.395 182.556V149.445C785.395 146.755 785.994 144.789 787.2 143.585C788.406 142.381 790.322 141.839 793.005 141.839ZM803.406 148.521H795.02C793.274 148.521 792.405 149.374 792.405 151.08V163.733H803.376C806.189 163.733 808.173 163.141 809.311 161.977C810.448 160.813 811.017 158.846 811.017 156.107C811.017 153.368 810.437 151.401 809.271 150.227C808.105 149.053 806.169 148.481 803.406 148.481V148.521Z" fill="#FCB415"/>
<path d="M824.19 176.215V141.458C824.088 140.602 824.302 139.738 824.789 139.029C825.495 138.535 826.357 138.317 827.212 138.417H828.081C828.932 138.317 829.789 138.535 830.493 139.029C830.989 139.735 831.207 140.6 831.101 141.458V174.86C830.991 176.143 831.249 177.431 831.84 178.573C832.118 178.945 832.484 179.241 832.907 179.43C833.328 179.62 833.793 179.698 834.254 179.656C834.992 179.553 835.742 179.72 836.368 180.128C836.743 180.806 836.893 181.586 836.796 182.355V183.028C836.884 183.798 836.692 184.574 836.258 185.215C835.625 185.732 834.856 186.05 834.044 186.128C833.738 186.188 833.427 186.211 833.116 186.198C831.904 186.27 830.689 186.082 829.556 185.646C828.42 185.21 827.391 184.537 826.533 183.67C824.972 181.984 824.19 179.499 824.19 176.215Z" fill="#FCB415"/>
<path d="M867.454 162.519V175.562C867.454 179.295 866.316 182.034 864.032 183.76C861.748 185.486 858.139 186.359 853.172 186.359C844.095 186.359 839.556 182.894 839.549 175.964C839.549 172.465 840.678 169.89 842.94 168.238C845.2 166.585 848.635 165.766 853.242 165.779H860.613V162.519C860.69 161.744 860.56 160.963 860.236 160.257C859.911 159.551 859.404 158.946 858.767 158.505C857.539 157.752 855.515 157.361 852.702 157.361C850.341 157.33 847.982 157.535 845.663 157.973C845.337 158.084 844.991 158.126 844.647 158.096C844.305 158.067 843.97 157.967 843.668 157.803C843.456 157.518 843.302 157.195 843.214 156.85C843.128 156.506 843.108 156.148 843.158 155.796V154.883C843.094 154.175 843.273 153.466 843.668 152.876C844.199 152.394 844.869 152.095 845.581 152.023C847.799 151.674 850.039 151.493 852.283 151.481C857.383 151.481 861.184 152.361 863.684 154.12C866.184 155.879 867.44 158.679 867.454 162.519ZM860.613 175.261V171.077H853.242C851.459 170.946 849.675 171.332 848.106 172.191C847.541 172.612 847.094 173.172 846.805 173.816C846.518 174.461 846.399 175.169 846.459 175.874C846.399 176.559 846.516 177.248 846.796 177.876C847.078 178.503 847.515 179.047 848.066 179.456C849.594 180.28 851.322 180.652 853.053 180.529C855.784 180.529 857.729 180.148 858.886 179.385C860.033 178.613 860.613 177.248 860.613 175.261Z" fill="#FCB415"/>
<path d="M871.343 156.308V155.635C871.265 154.932 871.431 154.223 871.812 153.629C872.333 153.195 872.974 152.933 873.647 152.876L877.198 152.194L878.005 145.852C878.016 145.118 878.276 144.41 878.744 143.846C879.339 143.471 880.04 143.306 880.737 143.374H881.625C882.309 143.292 882.999 143.459 883.57 143.846C883.964 144.435 884.132 145.148 884.039 145.852V152.194H893.433C894.22 152.107 895.014 152.299 895.678 152.735C896.147 153.403 896.35 154.223 896.246 155.033V155.836C896.352 156.647 896.147 157.467 895.678 158.134C895.016 158.574 894.222 158.766 893.433 158.676H884.019V173.947C884.019 177.86 885.763 179.817 889.255 179.817C891.085 179.839 892.911 179.633 894.69 179.205C895.797 178.984 896.535 179.024 896.894 179.345C897.254 179.666 897.432 180.349 897.432 181.573V182.375C897.51 183.202 897.32 184.032 896.894 184.743C896.288 185.31 895.514 185.662 894.69 185.747C892.895 186.074 891.079 186.252 889.255 186.279C881.211 186.279 877.185 182.141 877.176 173.867V158.666H873.647C872.985 158.744 872.319 158.577 871.773 158.194C871.407 157.639 871.252 156.968 871.343 156.308Z" fill="#FCB415"/>
<path d="M899.716 156.308V155.635C899.639 154.932 899.804 154.223 900.186 153.629C900.695 153.181 901.328 152.901 902 152.826L905.552 152.144V148.23C905.552 144.146 906.548 141.207 908.544 139.33C910.537 137.454 913.531 136.561 917.638 136.561C919.075 136.561 920.508 136.672 921.926 136.892C922.77 136.981 923.573 137.308 924.241 137.835C924.695 138.509 924.895 139.324 924.809 140.133V140.946C924.809 142.12 924.609 142.852 924.21 143.173C923.789 143.358 923.335 143.451 922.874 143.444L920.72 143.304C919.853 143.187 918.98 143.12 918.107 143.103C914.307 143.103 912.402 144.638 912.402 147.688V152.144H921.328C922.126 152.049 922.931 152.241 923.601 152.685C924.055 153.359 924.245 154.177 924.141 154.983V155.786C924.247 156.592 924.055 157.41 923.601 158.083C922.933 158.533 922.126 158.725 921.328 158.625H912.402V182.626C912.523 183.044 912.53 183.487 912.424 183.908C912.316 184.33 912.098 184.714 911.791 185.022C911.487 185.329 911.103 185.549 910.684 185.657C910.265 185.765 909.827 185.758 909.41 185.636H908.552C908.138 185.758 907.697 185.765 907.278 185.657C906.859 185.549 906.478 185.329 906.171 185.022C905.865 184.714 905.647 184.33 905.541 183.908C905.433 183.487 905.44 183.044 905.561 182.626V158.665H902.071C901.409 158.744 900.741 158.576 900.195 158.194C899.811 157.645 899.641 156.974 899.716 156.308Z" fill="#FCB415"/>
<path d="M943.456 186.399C938.181 186.399 934.283 185.205 931.789 182.827C929.296 180.449 928.028 176.807 928.028 171.79V166.02C928.028 156.308 933.172 151.448 943.456 151.441C948.697 151.441 952.553 152.645 955.026 155.053C957.5 157.461 958.739 161.117 958.746 166.02V171.83C958.746 176.599 957.46 180.221 954.887 182.697C952.315 185.165 948.494 186.399 943.456 186.399ZM951.845 171.83V166.02C951.845 163.05 951.226 160.96 949.989 159.749C948.754 158.525 946.578 157.893 943.456 157.893C940.337 157.893 938.062 158.495 936.816 159.719C935.568 160.943 934.94 163.02 934.94 165.99V171.8C934.94 174.719 935.559 176.817 936.816 178.001C938.073 179.185 940.275 179.827 943.456 179.827C946.64 179.827 948.823 179.225 950.031 178.031C951.237 176.837 951.834 174.79 951.834 171.83H951.845Z" fill="#FCB415"/>
<path d="M972.22 163.913V182.677C972.324 183.534 972.106 184.399 971.612 185.105C970.906 185.595 970.049 185.809 969.198 185.707H968.331C967.48 185.809 966.623 185.595 965.917 185.105C965.424 184.399 965.207 183.534 965.309 182.677V163.391C965.309 155.425 969.535 151.441 977.986 151.441C978.435 151.423 978.885 151.447 979.33 151.512C980.146 151.533 980.933 151.818 981.575 152.324C982.035 153.018 982.236 153.853 982.144 154.682V155.685C982.144 156.809 981.974 157.522 981.606 157.843C980.902 158.203 980.087 158.275 979.33 158.043C978.885 157.973 978.435 157.95 977.986 157.973C975.838 157.973 974.341 158.425 973.497 159.328C972.639 160.171 972.22 161.706 972.22 163.913Z" fill="#FCB415"/>
<path d="M993.952 164.535V182.596C994.053 183.452 993.839 184.315 993.354 185.024C992.644 185.513 991.784 185.727 990.931 185.626H990.063C989.212 185.729 988.354 185.514 987.648 185.024C987.155 184.318 986.939 183.453 987.042 182.596V164.535C987.042 155.806 991.579 151.441 1000.65 151.441C1005.58 151.441 1008.94 153.083 1010.73 156.368C1012.5 153.087 1015.86 151.441 1020.78 151.441C1025.39 151.441 1028.8 152.521 1031.01 154.682C1033.23 156.843 1034.33 160.127 1034.33 164.535V182.596C1034.46 183.014 1034.46 183.457 1034.35 183.878C1034.25 184.3 1034.03 184.684 1033.72 184.992C1033.42 185.3 1033.04 185.519 1032.62 185.627C1032.2 185.735 1031.76 185.728 1031.34 185.606H1030.47C1030.06 185.728 1029.62 185.735 1029.2 185.627C1028.78 185.519 1028.4 185.3 1028.09 184.992C1027.79 184.684 1027.57 184.3 1027.46 183.878C1027.35 183.457 1027.36 183.014 1027.48 182.596V164.535C1027.48 162.107 1027 160.398 1026.04 159.408C1025.04 158.404 1023.34 157.923 1020.84 157.923C1018.34 157.923 1016.64 158.435 1015.61 159.448C1014.59 160.462 1014.07 162.157 1014.07 164.535V182.596C1014.19 183.014 1014.2 183.457 1014.09 183.878C1013.98 184.3 1013.76 184.684 1013.46 184.992C1013.15 185.3 1012.77 185.519 1012.35 185.627C1011.93 185.735 1011.49 185.728 1011.08 185.606H1010.28C1009.86 185.728 1009.42 185.735 1009 185.627C1008.59 185.519 1008.2 185.3 1007.9 184.992C1007.59 184.684 1007.37 184.3 1007.27 183.878C1007.16 183.457 1007.17 183.014 1007.29 182.596V164.535C1007.29 162.107 1006.81 160.398 1005.85 159.408C1004.85 158.404 1003.16 157.923 1000.64 157.923C998.132 157.923 996.405 158.425 995.418 159.408C994.432 160.391 993.952 162.107 993.952 164.535Z" fill="#FCB415"/>
<path d="M321.836 80.5695V73.0844H327.343V80.5695C327.343 91.7941 332.969 97.4064 344.226 97.4064H351.964V86.1083C351.964 72.4624 358.796 65.6394 372.461 65.6394H380.279V89.1484C380.279 94.6871 382.386 97.4564 386.601 97.4564H388.418V103.076H386.562C382.693 103.076 379.741 101.838 377.706 99.3629C375.671 96.8878 374.654 93.4831 374.654 89.1484V71.0876H372.461C367.3 71.0876 363.517 72.275 361.111 74.6496C358.704 77.0243 357.505 80.8538 357.511 86.1385V103.055H344.226C336.986 103.055 331.443 101.095 327.601 97.1756C323.758 93.2556 321.836 87.7204 321.836 80.5695Z" fill="#168944"/>
<path d="M416.688 103.025H386.93V97.4064H416.688V103.025Z" fill="#168944"/>
<path d="M415.205 97.4063H417.14C421.508 97.4063 423.688 94.56 423.681 88.8676V44.6387H429.308V88.8676C429.308 93.2089 428.238 96.6539 426.104 99.2023C423.97 101.751 420.996 103.025 417.18 103.025H415.244L415.205 97.4063Z" fill="#168944"/>
<path d="M439.896 84.0815C439.901 79.0988 441.87 74.3213 445.373 70.7989C448.874 67.2768 453.625 65.2981 458.576 65.2981C461.107 65.2089 463.627 65.6702 465.964 66.6503C468.301 67.6305 470.402 69.1063 472.119 70.9773C475.579 74.7835 477.314 79.6498 477.327 85.5765V101.069C477.457 106.019 475.669 110.827 472.34 114.474C469.015 118.066 464.586 119.862 459.055 119.862C456.015 119.864 453.01 119.2 450.249 117.915C447.553 116.709 445.192 114.86 443.369 112.527L447.357 108.785C448.649 110.531 450.366 111.913 452.344 112.798C454.418 113.768 456.678 114.265 458.967 114.253C462.243 114.395 465.446 113.243 467.891 111.042C470.144 108.963 471.507 106.085 471.692 103.015H459.723C453.966 103.015 449.229 101.229 445.512 97.6572C443.677 95.9209 442.229 93.8136 441.261 91.4739C440.293 89.1341 439.828 86.6147 439.896 84.0815ZM445.401 84.0815C445.333 85.8863 445.655 87.6847 446.345 89.3527C447.033 91.0208 448.071 92.5188 449.392 93.744C452.229 96.2547 455.92 97.5667 459.694 97.4064H471.74V85.2052C471.903 81.4191 470.598 77.7173 468.1 74.8804C466.895 73.5605 465.42 72.5185 463.775 71.8258C462.13 71.133 460.358 70.806 458.576 70.867C456.85 70.8564 455.139 71.1894 453.541 71.8467C451.943 72.504 450.49 73.4726 449.266 74.6972C448.04 75.9215 447.07 77.3775 446.407 78.981C445.743 80.5847 445.401 82.3045 445.401 84.0412V84.0815Z" fill="#168944"/>
<path d="M505.291 97.4064C510.749 97.4064 513.479 94.0886 513.479 87.4528V44.6385H519.065V87.3725C519.065 92.2691 517.828 96.092 515.383 98.8712C514.129 100.259 512.584 101.351 510.86 102.069C509.136 102.787 507.275 103.113 505.412 103.025H484.468V97.4064H505.291ZM486.551 53.4684H489.823C489.294 52.9718 488.873 52.3707 488.584 51.7024C488.295 51.0343 488.147 50.3136 488.147 49.5854C488.136 48.7995 488.291 48.0202 488.599 47.2977C488.906 46.5752 489.36 45.9258 489.933 45.3912C490.502 44.8314 491.177 44.3912 491.915 44.0966C492.656 43.802 493.445 43.6588 494.241 43.6754C495.163 43.6679 496.073 43.8654 496.911 44.254C497.746 44.6425 498.487 45.2126 499.078 45.923L497.153 47.709C496.812 47.2924 496.377 46.9616 495.886 46.7423C495.394 46.5228 494.858 46.4211 494.32 46.4446C493.401 46.4169 492.506 46.7516 491.827 47.3778C491.498 47.6885 491.238 48.0671 491.066 48.4876C490.894 48.9085 490.813 49.3614 490.83 49.8161C490.819 50.761 491.177 51.6729 491.827 52.3546C492.133 52.7076 492.51 52.9906 492.934 53.1843C493.357 53.3781 493.815 53.4785 494.281 53.4783H499.786V56.1775H486.551V53.4684ZM489.605 93.443V59.3282H495.178V93.443H489.605Z" fill="#168944"/>
<path d="M537.813 103.025H532.308V44.6387H537.813V103.025Z" fill="#168944"/>
<path d="M568.76 73.0844H574.265V80.5695C574.265 91.7941 579.893 97.4064 591.15 97.4064H598.849V86.1083C598.849 72.4624 605.681 65.6394 619.343 65.6394H627.163V89.1484C627.163 94.6871 629.271 97.4564 633.486 97.4564H635.34V103.076H633.486C629.617 103.076 626.665 101.838 624.63 99.3629C622.595 96.8878 621.579 93.4831 621.579 89.1484V71.0876H619.425C614.27 71.0876 610.487 72.275 608.075 74.6496C605.661 77.0243 604.462 80.8538 604.475 86.1385V103.055H591.15C583.91 103.055 578.368 101.095 574.525 97.1756C570.682 93.2556 568.76 87.7303 568.76 80.5997V73.0844ZM585.495 111.103C585.815 110.745 586.205 110.46 586.642 110.266C587.078 110.072 587.552 109.974 588.029 109.979C588.514 109.976 588.994 110.071 589.442 110.259C589.887 110.447 590.293 110.724 590.632 111.072C590.987 111.4 591.269 111.798 591.463 112.242C591.655 112.687 591.752 113.166 591.748 113.651C591.748 114.141 591.649 114.625 591.457 115.075C591.265 115.525 590.985 115.932 590.632 116.27C589.929 116.934 588.994 117.294 588.029 117.273C587.067 117.26 586.148 116.871 585.465 116.187C584.783 115.503 584.393 114.579 584.378 113.611C584.38 113.137 584.479 112.669 584.673 112.237C584.865 111.805 585.145 111.419 585.495 111.103ZM597.703 111.103C598.02 110.746 598.408 110.461 598.845 110.267C599.279 110.073 599.751 109.975 600.227 109.979C600.712 109.975 601.195 110.07 601.642 110.258C602.092 110.446 602.498 110.723 602.839 111.072C603.194 111.4 603.476 111.798 603.67 112.242C603.862 112.687 603.959 113.166 603.955 113.651C603.955 114.141 603.856 114.625 603.664 115.075C603.472 115.525 603.19 115.932 602.839 116.27C602.132 116.936 601.195 117.297 600.227 117.273C599.263 117.263 598.344 116.874 597.663 116.189C596.984 115.504 596.596 114.579 596.585 113.611C596.585 113.137 596.684 112.668 596.876 112.236C597.068 111.803 597.35 111.417 597.703 111.103Z" fill="#168944"/>
<path d="M663.612 103.025H633.854V97.4064H663.612V103.025Z" fill="#168944"/>
<path d="M691.889 103.025H662.129V97.4064H691.889V103.025Z" fill="#168944"/>
<path d="M690.401 103.025V97.4063H694.791C699.098 97.4063 701.255 94.56 701.261 88.8676V65.6393H706.848V88.9178C706.848 94.6036 709.028 97.4497 713.389 97.4565H717.699V103.075H713.389C709.068 103.075 705.97 101.276 704.094 97.6772C703.232 99.3888 701.892 100.81 700.24 101.769C698.589 102.728 696.693 103.182 694.791 103.075L690.401 103.025ZM694.59 57.4417C694.575 56.9543 694.654 56.4684 694.826 56.0121C694.996 55.5558 695.256 55.1381 695.589 54.7827C695.919 54.4262 696.325 54.1446 696.773 53.9561C697.222 53.7676 697.705 53.6766 698.19 53.689C698.671 53.6839 699.147 53.7784 699.59 53.9664C700.033 54.1547 700.432 54.4326 700.763 54.7827C701.114 55.1284 701.391 55.5426 701.576 56C701.762 56.4574 701.852 56.948 701.841 57.4417C701.837 58.169 701.618 58.8787 701.215 59.4814C700.809 60.0841 700.238 60.5531 699.568 60.8288C698.9 61.1047 698.166 61.175 697.456 61.0312C696.748 60.8874 696.098 60.5355 695.589 60.0204C694.929 59.3275 694.57 58.4002 694.59 57.4417ZM706.497 57.4417C706.488 56.9473 706.581 56.4562 706.768 55.9991C706.956 55.5417 707.234 55.1278 707.586 54.7827C707.913 54.4313 708.312 54.1525 708.753 53.9642C709.193 53.776 709.67 53.6821 710.148 53.689C710.633 53.6863 711.114 53.7817 711.561 53.9695C712.007 54.1573 712.412 54.4339 712.752 54.7827C713.111 55.1234 713.396 55.5358 713.59 55.9936C713.781 56.4514 713.876 56.9447 713.867 57.4417C713.872 57.9204 713.775 58.3942 713.581 58.832C713.389 59.2698 713.107 59.6611 712.752 59.9801C712.417 60.3362 712.013 60.6196 711.566 60.8129C711.118 61.0063 710.635 61.1054 710.148 61.1041C709.665 61.1151 709.185 61.0243 708.737 60.8378C708.292 60.6511 707.888 60.3728 707.555 60.0204C707.209 59.6875 706.934 59.2872 706.749 58.8437C706.561 58.4004 706.466 57.9232 706.469 57.4417H706.497Z" fill="#168944"/>
<path d="M716.222 97.4064H735.411L722.166 77.4992V65.6394H749.552C759.711 65.6394 764.795 69.1846 764.801 76.2751C764.77 77.9097 764.433 79.5235 763.805 81.031C763.007 82.9058 761.966 84.6668 760.712 86.2688C759.296 88.135 758.04 89.7103 756.922 90.9846C755.806 92.2589 754.25 93.9948 752.274 96.112C751.677 96.7039 751.278 97.1153 750.998 97.4564H770.714V103.075H716.222V97.4064ZM728.568 71.2081V77.0476L742.032 97.4064H744.457C745.008 96.8043 746.298 95.4197 748.326 93.2523C750.354 91.085 751.73 89.5632 752.455 88.6868C753.172 87.8106 754.17 86.5764 755.447 84.9843C756.468 83.736 757.327 82.3642 758.009 80.9007C758.465 79.8739 758.705 78.7641 758.716 77.6397C758.716 75.1045 757.837 73.3989 756.075 72.5224C754.314 71.6463 751.573 71.2081 747.856 71.2081H728.568ZM739.36 57.2911C739.355 56.8035 739.446 56.3198 739.631 55.8683C739.814 55.4169 740.085 55.0069 740.427 54.6623C740.766 54.3018 741.176 54.0158 741.63 53.8224C742.087 53.6291 742.576 53.5324 743.07 53.5386C743.562 53.5399 744.049 53.6401 744.503 53.833C744.957 54.0259 745.367 54.3078 745.713 54.6623C746.077 54.9955 746.368 55.4015 746.567 55.854C746.765 56.3068 746.869 56.7961 746.869 57.2911C746.873 57.7958 746.772 58.2956 746.573 58.7587C746.375 59.2218 746.082 59.6378 745.713 59.9802C745.37 60.3365 744.959 60.6196 744.505 60.8128C744.051 61.0059 743.562 61.1047 743.07 61.1041C742.576 61.1127 742.085 61.0171 741.63 60.8236C741.174 60.63 740.764 60.3426 740.427 59.9802C740.081 59.6261 739.807 59.2057 739.624 58.744C739.441 58.2822 739.351 57.7883 739.36 57.2911Z" fill="#168944"/>
<path d="M769.27 97.4063H771.203C775.56 97.4063 777.74 94.56 777.747 88.8676V44.6387H783.351V88.8676C783.351 93.2089 782.282 96.6539 780.139 99.2023C779.043 100.484 777.67 101.495 776.124 102.158C774.579 102.821 772.901 103.118 771.223 103.025H769.29L769.27 97.4063Z" fill="#168944"/>
<path d="M321.836 80.5695V73.0844H327.343V80.5695C327.343 91.7941 332.969 97.4064 344.226 97.4064H351.964V86.1083C351.964 72.4624 358.796 65.6394 372.461 65.6394H380.279V89.1484C380.279 94.6871 382.386 97.4564 386.601 97.4564H388.418V103.076H386.562C382.693 103.076 379.741 101.838 377.706 99.3629C375.671 96.8878 374.654 93.4831 374.654 89.1484V71.0876H372.461C367.3 71.0876 363.517 72.275 361.111 74.6496C358.704 77.0243 357.505 80.8538 357.511 86.1385V103.055H344.226C336.986 103.055 331.443 101.095 327.601 97.1756C323.758 93.2556 321.836 87.7204 321.836 80.5695Z" fill="#010101"/>
<path d="M416.688 103.025H386.93V97.4064H416.688V103.025Z" fill="#010101"/>
<path d="M415.205 97.4063H417.14C421.508 97.4063 423.688 94.56 423.681 88.8676V44.6387H429.308V88.8676C429.308 93.2089 428.238 96.6539 426.104 99.2023C423.97 101.751 420.996 103.025 417.18 103.025H415.244L415.205 97.4063Z" fill="#010101"/>
<path d="M439.896 84.0815C439.901 79.0988 441.87 74.3213 445.373 70.7989C448.874 67.2768 453.625 65.2981 458.576 65.2981C461.107 65.2089 463.627 65.6702 465.964 66.6503C468.301 67.6305 470.402 69.1063 472.119 70.9773C475.579 74.7835 477.314 79.6498 477.327 85.5765V101.069C477.457 106.019 475.669 110.827 472.34 114.474C469.015 118.066 464.586 119.862 459.055 119.862C456.015 119.864 453.01 119.2 450.249 117.915C447.553 116.709 445.192 114.86 443.369 112.527L447.357 108.785C448.649 110.531 450.366 111.913 452.344 112.798C454.418 113.768 456.678 114.265 458.967 114.253C462.243 114.395 465.446 113.243 467.891 111.042C470.144 108.963 471.507 106.085 471.692 103.015H459.723C453.966 103.015 449.229 101.229 445.512 97.6572C443.677 95.9209 442.229 93.8136 441.261 91.4739C440.293 89.1341 439.828 86.6147 439.896 84.0815ZM445.401 84.0815C445.333 85.8863 445.655 87.6847 446.345 89.3527C447.033 91.0208 448.071 92.5188 449.392 93.744C452.229 96.2547 455.92 97.5667 459.694 97.4064H471.74V85.2052C471.903 81.4191 470.598 77.7173 468.1 74.8804C466.895 73.5605 465.42 72.5185 463.775 71.8258C462.13 71.133 460.358 70.806 458.576 70.867C456.85 70.8564 455.139 71.1894 453.541 71.8467C451.943 72.504 450.49 73.4726 449.266 74.6972C448.04 75.9215 447.07 77.3775 446.407 78.981C445.743 80.5847 445.401 82.3045 445.401 84.0412V84.0815Z" fill="#010101"/>
<path d="M505.291 97.4064C510.749 97.4064 513.479 94.0886 513.479 87.4528V44.6385H519.065V87.3725C519.065 92.2691 517.828 96.092 515.383 98.8712C514.129 100.259 512.584 101.351 510.86 102.069C509.136 102.787 507.275 103.113 505.412 103.025H484.468V97.4064H505.291ZM486.551 53.4684H489.823C489.294 52.9718 488.873 52.3707 488.584 51.7024C488.295 51.0343 488.147 50.3136 488.147 49.5854C488.136 48.7995 488.291 48.0202 488.599 47.2977C488.906 46.5752 489.36 45.9258 489.933 45.3912C490.502 44.8314 491.177 44.3912 491.915 44.0966C492.656 43.802 493.445 43.6588 494.241 43.6754C495.163 43.6679 496.073 43.8654 496.911 44.254C497.746 44.6425 498.487 45.2126 499.078 45.923L497.153 47.709C496.812 47.2924 496.377 46.9616 495.886 46.7423C495.394 46.5228 494.858 46.4211 494.32 46.4446C493.401 46.4169 492.506 46.7516 491.827 47.3778C491.498 47.6885 491.238 48.0671 491.066 48.4876C490.894 48.9085 490.813 49.3614 490.83 49.8161C490.819 50.761 491.177 51.6729 491.827 52.3546C492.133 52.7076 492.51 52.9906 492.934 53.1843C493.357 53.3781 493.815 53.4785 494.281 53.4783H499.786V56.1775H486.551V53.4684ZM489.605 93.443V59.3282H495.178V93.443H489.605Z" fill="#010101"/>
<path d="M537.813 103.025H532.308V44.6387H537.813V103.025Z" fill="#010101"/>
<path d="M568.76 73.0844H574.265V80.5695C574.265 91.7941 579.893 97.4064 591.15 97.4064H598.849V86.1083C598.849 72.4624 605.681 65.6394 619.343 65.6394H627.163V89.1484C627.163 94.6871 629.271 97.4564 633.486 97.4564H635.34V103.076H633.486C629.617 103.076 626.665 101.838 624.63 99.3629C622.595 96.8878 621.579 93.4831 621.579 89.1484V71.0876H619.425C614.27 71.0876 610.487 72.275 608.075 74.6496C605.661 77.0243 604.462 80.8538 604.475 86.1385V103.055H591.15C583.91 103.055 578.368 101.095 574.525 97.1756C570.682 93.2556 568.76 87.7303 568.76 80.5997V73.0844ZM585.495 111.103C585.815 110.745 586.205 110.46 586.642 110.266C587.078 110.072 587.552 109.974 588.029 109.979C588.514 109.976 588.994 110.071 589.442 110.259C589.887 110.447 590.293 110.724 590.632 111.072C590.987 111.4 591.269 111.798 591.463 112.242C591.655 112.687 591.752 113.166 591.748 113.651C591.748 114.141 591.649 114.625 591.457 115.075C591.265 115.525 590.985 115.932 590.632 116.27C589.929 116.934 588.994 117.294 588.029 117.273C587.067 117.26 586.148 116.871 585.465 116.187C584.783 115.503 584.393 114.579 584.378 113.611C584.38 113.137 584.479 112.669 584.673 112.237C584.865 111.805 585.145 111.419 585.495 111.103ZM597.703 111.103C598.02 110.746 598.408 110.461 598.845 110.267C599.279 110.073 599.751 109.975 600.227 109.979C600.712 109.975 601.195 110.07 601.642 110.258C602.092 110.446 602.498 110.723 602.839 111.072C603.194 111.4 603.476 111.798 603.67 112.242C603.862 112.687 603.959 113.166 603.955 113.651C603.955 114.141 603.856 114.625 603.664 115.075C603.472 115.525 603.19 115.932 602.839 116.27C602.132 116.936 601.195 117.297 600.227 117.273C599.263 117.263 598.344 116.874 597.663 116.189C596.984 115.504 596.596 114.579 596.585 113.611C596.585 113.137 596.684 112.668 596.876 112.236C597.068 111.803 597.35 111.417 597.703 111.103Z" fill="#010101"/>
<path d="M663.612 103.025H633.854V97.4064H663.612V103.025Z" fill="#010101"/>
<path d="M691.889 103.025H662.129V97.4064H691.889V103.025Z" fill="#010101"/>
<path d="M690.401 103.025V97.4063H694.791C699.098 97.4063 701.255 94.56 701.261 88.8676V65.6393H706.848V88.9178C706.848 94.6036 709.028 97.4497 713.389 97.4565H717.699V103.075H713.389C709.068 103.075 705.97 101.276 704.094 97.6772C703.232 99.3888 701.892 100.81 700.24 101.769C698.589 102.728 696.693 103.182 694.791 103.075L690.401 103.025ZM694.59 57.4417C694.575 56.9543 694.654 56.4684 694.826 56.0121C694.996 55.5558 695.256 55.1381 695.589 54.7827C695.919 54.4262 696.325 54.1446 696.773 53.9561C697.222 53.7676 697.705 53.6766 698.19 53.689C698.671 53.6839 699.147 53.7784 699.59 53.9664C700.033 54.1547 700.432 54.4326 700.763 54.7827C701.114 55.1284 701.391 55.5426 701.576 56C701.762 56.4574 701.852 56.948 701.841 57.4417C701.837 58.169 701.618 58.8787 701.215 59.4814C700.809 60.0841 700.238 60.5531 699.568 60.8288C698.9 61.1047 698.166 61.175 697.456 61.0312C696.748 60.8874 696.098 60.5355 695.589 60.0204C694.929 59.3275 694.57 58.4002 694.59 57.4417ZM706.497 57.4417C706.488 56.9473 706.581 56.4562 706.768 55.9991C706.956 55.5417 707.234 55.1278 707.586 54.7827C707.913 54.4313 708.312 54.1525 708.753 53.9642C709.193 53.776 709.67 53.6821 710.148 53.689C710.633 53.6863 711.114 53.7817 711.561 53.9695C712.007 54.1573 712.412 54.4339 712.752 54.7827C713.111 55.1234 713.396 55.5358 713.59 55.9936C713.781 56.4514 713.876 56.9447 713.867 57.4417C713.872 57.9204 713.775 58.3942 713.581 58.832C713.389 59.2698 713.107 59.6611 712.752 59.9801C712.417 60.3362 712.013 60.6196 711.566 60.8129C711.118 61.0063 710.635 61.1054 710.148 61.1041C709.665 61.1151 709.185 61.0243 708.737 60.8378C708.292 60.6511 707.888 60.3728 707.555 60.0204C707.209 59.6875 706.934 59.2872 706.749 58.8437C706.561 58.4004 706.466 57.9232 706.469 57.4417H706.497Z" fill="#010101"/>
<path d="M716.222 97.4064H735.411L722.166 77.4992V65.6394H749.552C759.711 65.6394 764.795 69.1846 764.801 76.2751C764.77 77.9097 764.433 79.5235 763.805 81.031C763.007 82.9058 761.966 84.6668 760.712 86.2688C759.296 88.135 758.04 89.7103 756.922 90.9846C755.806 92.2589 754.25 93.9948 752.274 96.112C751.677 96.7039 751.278 97.1153 750.998 97.4564H770.714V103.075H716.222V97.4064ZM728.568 71.2081V77.0476L742.032 97.4064H744.457C745.008 96.8043 746.298 95.4197 748.326 93.2523C750.354 91.085 751.73 89.5632 752.455 88.6868C753.172 87.8106 754.17 86.5764 755.447 84.9843C756.468 83.736 757.327 82.3642 758.009 80.9007C758.465 79.8739 758.705 78.7641 758.716 77.6397C758.716 75.1045 757.837 73.3989 756.075 72.5224C754.314 71.6463 751.573 71.2081 747.856 71.2081H728.568ZM739.36 57.2911C739.355 56.8035 739.446 56.3198 739.631 55.8683C739.814 55.4169 740.085 55.0069 740.427 54.6623C740.766 54.3018 741.176 54.0158 741.63 53.8224C742.087 53.6291 742.576 53.5324 743.07 53.5386C743.562 53.5399 744.049 53.6401 744.503 53.833C744.957 54.0259 745.367 54.3078 745.713 54.6623C746.077 54.9955 746.368 55.4015 746.567 55.854C746.765 56.3068 746.869 56.7961 746.869 57.2911C746.873 57.7958 746.772 58.2956 746.573 58.7587C746.375 59.2218 746.082 59.6378 745.713 59.9802C745.37 60.3365 744.959 60.6196 744.505 60.8128C744.051 61.0059 743.562 61.1047 743.07 61.1041C742.576 61.1127 742.085 61.0171 741.63 60.8236C741.174 60.63 740.764 60.3426 740.427 59.9802C740.081 59.6261 739.807 59.2057 739.624 58.744C739.441 58.2822 739.351 57.7883 739.36 57.2911Z" fill="#010101"/>
<path d="M769.27 97.4063H771.203C775.56 97.4063 777.74 94.56 777.747 88.8676V44.6387H783.351V88.8676C783.351 93.2089 782.282 96.6539 780.139 99.2023C779.043 100.484 777.67 101.495 776.124 102.158C774.579 102.821 772.901 103.118 771.223 103.025H769.29L769.27 97.4063Z" fill="#010101"/>
<path d="M829.227 73.3654C831.198 71.314 833.566 69.6911 836.185 68.5969C838.807 67.5027 841.62 66.9606 844.457 67.004H864.83V94.0952C864.83 100.711 867.341 104.019 872.361 104.019H874.784V110.551H872.361C866.25 110.551 862.359 107.557 860.683 101.57C859.065 104.363 856.715 106.654 853.891 108.193C851.007 109.767 847.775 110.578 844.497 110.551C840.206 110.566 836.009 109.297 832.44 106.904C828.87 104.512 826.09 101.104 824.452 97.1157C822.814 93.1272 822.395 88.7386 823.244 84.5089C824.095 80.2793 826.178 76.4 829.227 73.3654ZM829.227 88.7672C829.245 92.8178 830.859 96.6958 833.714 99.5523C836.567 102.409 840.429 104.011 844.457 104.009C846.296 104.05 848.123 103.703 849.823 102.991C851.521 102.279 853.053 101.218 854.318 99.8746C856.979 97.1188 858.309 93.4163 858.309 88.7672V73.536H844.497C840.464 73.5226 836.593 75.1189 833.731 77.9744C830.868 80.83 829.247 84.7115 829.227 88.7672ZM835.55 54.3915C835.93 53.9964 836.386 53.684 836.891 53.4734C837.393 53.2627 837.936 53.1586 838.482 53.1674C839.04 53.1685 839.591 53.2808 840.105 53.4977C840.617 53.7148 841.084 54.0321 841.474 54.4315C841.891 54.827 842.219 55.3049 842.444 55.8351C842.667 56.3654 842.777 56.9363 842.77 57.5119C842.782 58.0779 842.671 58.6398 842.449 59.1591C842.224 59.6785 841.893 60.1434 841.474 60.5221C841.086 60.9288 840.623 61.2536 840.109 61.4778C839.596 61.7017 839.042 61.8202 838.482 61.8266C837.362 61.811 836.293 61.3549 835.502 60.556C834.713 59.7573 834.263 58.679 834.254 57.552C834.245 56.9608 834.36 56.3739 834.589 55.8298C834.821 55.2855 835.16 54.7955 835.59 54.3915H835.55ZM848.176 57.5119C848.165 56.9394 848.271 56.3711 848.489 55.8413C848.705 55.3117 849.025 54.8319 849.433 54.4315C849.83 54.0303 850.302 53.7117 850.82 53.4944C851.34 53.277 851.898 53.1652 852.46 53.1652C853.022 53.1652 853.58 53.277 854.098 53.4944C854.618 53.7117 855.09 54.0303 855.487 54.4315C855.895 54.8305 856.217 55.3099 856.435 55.84C856.651 56.37 856.755 56.9392 856.744 57.5119C856.75 58.0739 856.644 58.6312 856.428 59.1491C856.212 59.6673 855.89 60.1348 855.487 60.5221C855.09 60.9235 854.618 61.242 854.098 61.4593C853.58 61.6766 853.022 61.7885 852.46 61.7885C851.898 61.7885 851.34 61.6766 850.82 61.4593C850.302 61.242 849.83 60.9235 849.433 60.5221C849.029 60.1332 848.71 59.6655 848.494 59.1478C848.278 58.6301 848.17 58.0735 848.176 57.5119Z" fill="#010101"/>
<path d="M873.049 110.541V104.009H882.134V67.004H888.627V81.804C896.606 71.9374 904.584 67.004 912.563 67.004C915.334 66.9071 918.094 67.427 920.643 68.5265C923.194 69.6262 925.471 71.2783 927.312 73.3654C931.088 77.5997 932.98 83.0547 932.987 89.7306V94.1655C932.987 100.728 935.436 104.009 940.337 104.009H942.581V110.541H940.337C935.092 110.541 931.459 108.22 929.437 103.577C928.313 105.768 926.589 107.589 924.468 108.823C922.345 110.058 919.918 110.654 917.468 110.541H873.049ZM888.627 104.009H917.55C918.773 104.046 919.99 103.812 921.112 103.323C922.237 102.834 923.24 102.102 924.051 101.179C925.72 99.2929 926.553 96.5201 926.553 92.8612V89.8511C926.553 84.9143 925.255 80.9677 922.656 78.0112C920.054 75.0546 916.538 73.5728 912.104 73.5662C905.063 73.5662 897.247 79.0781 888.656 90.1019L888.627 104.009Z" fill="#010101"/>
<path d="M940.926 110.541V104.009H943.34C948.366 104.009 950.875 100.701 950.868 94.0852V66.994H957.361V94.0852C957.361 100.701 959.87 104.009 964.89 104.009H967.315V110.541H964.861C959.894 110.541 956.318 108.45 954.129 104.27C951.876 108.444 948.269 110.534 943.309 110.541H940.926ZM949.751 57.4317C949.74 56.85 949.846 56.2719 950.062 55.7322C950.278 55.1925 950.599 54.7023 951.007 54.2912C951.4 53.8711 951.874 53.5381 952.403 53.3135C952.93 53.0889 953.496 52.9775 954.07 52.9867C955.24 52.9894 956.362 53.4586 957.191 54.2917C958.018 55.1247 958.486 56.2537 958.488 57.4317C958.494 57.997 958.382 58.5574 958.159 59.0762C957.937 59.5948 957.606 60.0603 957.191 60.4419C956.786 60.8607 956.301 61.1923 955.765 61.4165C955.227 61.6407 954.652 61.753 954.07 61.7462C953.501 61.7503 952.936 61.6402 952.41 61.4227C951.885 61.2051 951.406 60.8845 951.003 60.4791C950.602 60.0739 950.284 59.5921 950.07 59.0621C949.854 58.5319 949.746 57.9642 949.751 57.3917V57.4317Z" fill="#010101"/>
<path d="M965.549 104.009H980.089C977.571 102.441 975.507 100.233 974.105 97.6072C972.633 94.8983 971.87 91.8556 971.892 88.7674C971.885 84.4526 973.153 80.2329 975.532 76.6427C977.91 73.0525 981.295 70.2533 985.256 68.5994C989.218 66.9454 993.577 66.511 997.783 67.3513C1001.99 68.1918 1005.85 70.2689 1008.89 73.3198C1011.92 76.371 1013.99 80.2588 1014.82 84.4911C1015.66 88.7234 1015.22 93.1098 1013.58 97.0951C1011.93 101.08 1009.15 104.485 1005.59 106.879C1002.02 109.272 997.823 110.547 993.533 110.541H965.609L965.549 104.009ZM978.274 88.7674C978.257 92.3131 979.46 95.7556 981.685 98.5072C983.907 101.259 987.011 103.148 990.464 103.854C993.918 104.56 997.508 104.038 1000.62 102.376C1003.74 100.715 1006.18 98.0186 1007.54 94.7464C1008.89 91.474 1009.08 87.8292 1008.07 84.4339C1007.05 81.0386 1004.89 78.1035 1001.97 76.1294C999.038 74.1553 995.521 73.2648 992.011 73.6098C988.504 73.9549 985.226 75.5139 982.732 78.0212C981.301 79.4117 980.166 81.0824 979.399 82.9306C978.631 84.7787 978.25 86.7649 978.274 88.7674Z" fill="#010101"/>
</svg>
