<svg width="32" height="33" viewBox="0 0 32 33" fill="none" xmlns="http://www.w3.org/2000/svg">
<path d="M23.4928 13.3268H16.4928C15.9461 13.3268 15.4928 12.8735 15.4928 12.3268C15.4928 11.7802 15.9461 11.3268 16.4928 11.3268H23.4928C23.758 11.3268 24.0123 11.4322 24.1999 11.6197C24.3874 11.8073 24.4928 12.0616 24.4928 12.3268C24.4928 12.5921 24.3874 12.8464 24.1999 13.0339C24.0123 13.2215 23.758 13.3268 23.4928 13.3268ZM9.49276 14.3402C9.23943 14.3402 8.98609 14.2468 8.78609 14.0468L7.78609 13.0468C7.39943 12.6602 7.39943 12.0202 7.78609 11.6335C8.17276 11.2468 8.81276 11.2468 9.19943 11.6335L9.49276 11.9268L11.7861 9.63351C12.1728 9.24684 12.8128 9.24684 13.1994 9.63351C13.5861 10.0202 13.5861 10.6602 13.1994 11.0468L10.1994 14.0468C10.0121 14.2344 9.75789 14.3399 9.49276 14.3402ZM23.4928 22.6602H16.4928C15.9461 22.6602 15.4928 22.2068 15.4928 21.6602C15.4928 21.1135 15.9461 20.6602 16.4928 20.6602H23.4928C23.758 20.6602 24.0123 20.7655 24.1999 20.9531C24.3874 21.1406 24.4928 21.395 24.4928 21.6602C24.4928 21.9254 24.3874 22.1797 24.1999 22.3673C24.0123 22.5548 23.758 22.6602 23.4928 22.6602ZM9.49276 23.6735C9.23943 23.6735 8.98609 23.5802 8.78609 23.3802L7.78609 22.3802C7.39943 21.9935 7.39943 21.3535 7.78609 20.9668C8.17276 20.5802 8.81276 20.5802 9.19943 20.9668L9.49276 21.2602L11.7861 18.9668C12.1728 18.5802 12.8128 18.5802 13.1994 18.9668C13.5861 19.3535 13.5861 19.9935 13.1994 20.3802L10.1994 23.3802C10.0121 23.5678 9.75789 23.6733 9.49276 23.6735Z" fill="black"/>
<path d="M20.0013 30.8334H12.0013C4.7613 30.8334 1.66797 27.7401 1.66797 20.5001V12.5001C1.66797 5.26008 4.7613 2.16675 12.0013 2.16675H20.0013C27.2413 2.16675 30.3346 5.26008 30.3346 12.5001V20.5001C30.3346 27.7401 27.2413 30.8334 20.0013 30.8334ZM12.0013 4.16675C5.85464 4.16675 3.66797 6.35341 3.66797 12.5001V20.5001C3.66797 26.6467 5.85464 28.8334 12.0013 28.8334H20.0013C26.148 28.8334 28.3346 26.6467 28.3346 20.5001V12.5001C28.3346 6.35341 26.148 4.16675 20.0013 4.16675H12.0013Z" fill="black"/>
</svg>
