<svg width="24" height="24" viewBox="0 0 24 24" fill="none" xmlns="http://www.w3.org/2000/svg">
<path d="M15.4913 3.44673C12.9118 3.39287 10.2502 4.8725 9.52174 8.20308C6.55115 7.19115 3.86968 9.1895 4.14746 12.384C3.3642 12.7003 2.69351 13.2437 2.2217 13.9444C1.74988 14.645 1.49854 15.4708 1.50001 16.3155C1.50001 18.6653 3.39348 20.556 5.7433 20.556H10.8965L10.8908 15.7203L9.68331 16.1596C8.8046 16.5366 8.15833 15.4311 8.90948 14.7423L11.1969 12.5229C11.7185 12.0014 12.3421 12.0609 12.8041 12.5229L15.0916 14.7452C15.8427 15.4311 15.1936 16.5366 14.3178 16.1596L13.1103 15.7203V20.556H18.2549C20.6048 20.556 22.4954 18.6653 22.4954 16.3155C22.4954 14.5864 21.4693 13.1068 19.9925 12.4464C22.8554 6.86234 19.2612 3.52043 15.4913 3.44673Z" fill="url(#paint0_linear_1066_6372)"/>
<path d="M15.4932 3.44434C15.3514 3.44434 15.1927 3.44717 15.0482 3.45284C11.7544 8.64571 16.8452 12.444 19.9972 12.444C22.8601 6.85995 19.2631 3.52087 15.4932 3.44434Z" fill="url(#paint1_linear_1066_6372)"/>
<defs>
<linearGradient id="paint0_linear_1066_6372" x1="11.9977" y1="20.5558" x2="11.9977" y2="3.44531" gradientUnits="userSpaceOnUse">
<stop stop-color="#1E4396"/>
<stop offset="1" stop-color="#5984E5"/>
</linearGradient>
<linearGradient id="paint1_linear_1066_6372" x1="17.506" y1="12.4439" x2="17.506" y2="3.44434" gradientUnits="userSpaceOnUse">
<stop stop-color="#1E4396"/>
<stop offset="1" stop-color="#5984E5"/>
</linearGradient>
</defs>
</svg>
