<svg width="32" height="33" viewBox="0 0 32 33" fill="none" xmlns="http://www.w3.org/2000/svg">
<path fill-rule="evenodd" clip-rule="evenodd" d="M23.1027 5.5C22.0689 5.5 21.0774 5.91068 20.3464 6.6417C19.6153 7.37271 19.2047 8.36419 19.2047 9.398C19.2047 10.4318 19.6153 11.4233 20.3464 12.1543C21.0774 12.8853 22.0689 13.296 23.1027 13.296C24.1365 13.296 25.128 12.8853 25.859 12.1543C26.59 11.4233 27.0007 10.4318 27.0007 9.398C27.0007 8.36419 26.59 7.37271 25.859 6.6417C25.128 5.91068 24.1365 5.5 23.1027 5.5ZM17.2053 9.39867C17.2053 7.83442 17.8267 6.33424 18.9328 5.22815C20.0389 4.12206 21.5391 3.50067 23.1033 3.50067C24.6676 3.50067 26.1678 4.12206 27.2738 5.22815C28.3799 6.33424 29.0013 7.83442 29.0013 9.39867C29.0013 10.9629 28.3799 12.4631 27.2738 13.5692C26.1678 14.6753 24.6676 15.2967 23.1033 15.2967C21.5391 15.2967 20.0389 14.6753 18.9328 13.5692C17.8267 12.4631 17.2053 10.9629 17.2053 9.39867ZM8.89733 5.5C7.86334 5.50035 6.87184 5.91144 6.14095 6.64284C5.41006 7.37423 4.99965 8.36601 5 9.4C5.00035 10.434 5.41144 11.4255 6.14284 12.1564C6.87423 12.8873 7.86601 13.2977 8.9 13.2973C9.41198 13.2972 9.91891 13.1961 10.3919 13.0001C10.8648 12.804 11.2945 12.5166 11.6564 12.1545C12.0183 11.7923 12.3053 11.3625 12.5011 10.8894C12.6968 10.4163 12.7975 9.90931 12.7973 9.39733C12.7972 8.88535 12.6961 8.37842 12.5001 7.90548C12.304 7.43254 12.0166 7.00285 11.6545 6.64095C11.2923 6.27905 10.8625 5.99202 10.3894 5.79626C9.91632 5.60049 9.40931 5.49982 8.89733 5.5ZM3 9.39867C3 7.83424 3.62146 6.33389 4.72768 5.22768C5.83389 4.12146 7.33424 3.5 8.89867 3.5C10.4631 3.5 11.9634 4.12146 13.0697 5.22768C14.1759 6.33389 14.7973 7.83424 14.7973 9.39867C14.7973 10.9631 14.1759 12.4634 13.0697 13.5697C11.9634 14.6759 10.4631 15.2973 8.89867 15.2973C7.33424 15.2973 5.83389 14.6759 4.72768 13.5697C3.62146 12.4634 3 10.9631 3 9.39867ZM23.1027 19.6173C22.5847 19.6078 22.07 19.7015 21.5887 19.8931C21.1074 20.0847 20.6691 20.3703 20.2994 20.7332C19.9297 21.0961 19.6361 21.529 19.4356 22.0067C19.2352 22.4844 19.1319 22.9973 19.1319 23.5153C19.1319 24.0334 19.2352 24.5462 19.4356 25.0239C19.6361 25.5016 19.9297 25.9346 20.2994 26.2975C20.6691 26.6604 21.1074 26.946 21.5887 27.1376C22.07 27.3292 22.5847 27.4229 23.1027 27.4133C24.124 27.3944 25.0971 26.9755 25.8127 26.2465C26.5283 25.5175 26.9292 24.5368 26.9292 23.5153C26.9292 22.4938 26.5283 21.5131 25.8127 20.7842C25.0971 20.0552 24.124 19.6362 23.1027 19.6173ZM17.2053 23.516C17.1936 22.734 17.3374 21.9575 17.6286 21.2316C17.9197 20.5057 18.3523 19.845 18.9011 19.2878C19.45 18.7306 20.1041 18.2882 20.8255 17.9862C21.547 17.6842 22.3212 17.5287 23.1033 17.5287C23.8854 17.5287 24.6597 17.6842 25.3811 17.9862C26.1025 18.2882 26.7567 18.7306 27.3056 19.2878C27.8544 19.845 28.287 20.5057 28.5781 21.2316C28.8692 21.9575 29.0131 22.734 29.0013 23.516C28.978 25.0649 28.3464 26.5425 27.2428 27.6295C26.1393 28.7166 24.6524 29.326 23.1033 29.326C21.5543 29.326 20.0674 28.7166 18.9638 27.6295C17.8603 26.5425 17.2286 25.0649 17.2053 23.516ZM8.89733 19.6173C7.86334 19.6177 6.87184 20.0288 6.14095 20.7602C5.41006 21.4916 4.99965 22.4833 5 23.5173C5.00035 24.5513 5.41144 25.5428 6.14284 26.2737C6.87423 27.0046 7.86601 27.415 8.9 27.4147C9.93399 27.4143 10.9255 27.0032 11.6564 26.2718C12.3873 25.5404 12.7977 24.5487 12.7973 23.5147C12.797 22.4807 12.3859 21.4892 11.6545 20.7583C10.9231 20.0274 9.93132 19.617 8.89733 19.6173ZM3 23.516C3 21.9516 3.62146 20.4512 4.72768 19.345C5.83389 18.2388 7.33424 17.6173 8.89867 17.6173C10.4631 17.6173 11.9634 18.2388 13.0697 19.345C14.1759 20.4512 14.7973 21.9516 14.7973 23.516C14.7973 25.0804 14.1759 26.5808 13.0697 27.687C11.9634 28.7932 10.4631 29.4147 8.89867 29.4147C7.33424 29.4147 5.83389 28.7932 4.72768 27.687C3.62146 26.5808 3 25.0804 3 23.516Z" fill="#1C274B"/>
</svg>
