<svg width="374" height="139" viewBox="0 0 374 139" fill="none" xmlns="http://www.w3.org/2000/svg">
<g clip-path="url(#clip0_13_2)">
<mask id="mask0_13_2" style="mask-type:luminance" maskUnits="userSpaceOnUse" x="0" y="0" width="374" height="139">
<path d="M374 0H0V138.5H374V0Z" fill="white"/>
</mask>
<g mask="url(#mask0_13_2)">
<path d="M374 0H0V138.5H374V0Z" fill="white"/>
<path d="M374 0H0V138H374V0Z" fill="url(#paint0_linear_13_2)"/>
<mask id="mask1_13_2" style="mask-type:luminance" maskUnits="userSpaceOnUse" x="0" y="0" width="374" height="139">
<path d="M373.799 0H0V138.5H373.799V0Z" fill="white"/>
</mask>
<g mask="url(#mask1_13_2)">
<g style="mix-blend-mode:exclusion">
<g opacity="0.2">
<path fill-rule="evenodd" clip-rule="evenodd" d="M-14 85.1649C-13.7146 85.1489 -13.4303 85.1289 -13.1439 85.1079L-14 84.2559V85.1649ZM-11.8486 84.9889L-14 82.8469V81.4389L-10.5834 84.8359C-11.0041 84.8919 -11.4258 84.9429 -11.8486 84.9889ZM-9.35744 84.6509L-14 80.0309V78.6229L-8.15559 84.4379C-8.5542 84.5146 -8.95481 84.5856 -9.35744 84.6509ZM-6.98289 84.1979C-6.59768 84.1132 -6.21515 84.0246 -5.8353 83.9319L-14 75.8059V77.2139L-6.98289 84.1979ZM-4.71385 83.6389C-4.34673 83.5382 -3.98095 83.4329 -3.61651 83.3229L-14 72.9899V74.3979L-4.71385 83.6389ZM-2.54228 82.9829C-2.1899 82.8669 -1.83953 82.7462 -1.49116 82.6209L-14 70.1739V71.5829L-2.54429 82.9829H-2.54228ZM-0.462158 82.2379C-0.123845 82.1046 0.211118 81.9712 0.542732 81.8379L-14 67.3569V68.7649L-0.462158 82.2379ZM1.53456 81.4089C1.86014 81.2642 2.18305 81.1159 2.50327 80.9639L-14 64.5409V65.9489L1.53456 81.4089ZM3.45289 80.5009C3.76508 80.3442 4.07492 80.1836 4.38241 80.0189L-14 61.7249V63.1329L3.45289 80.5009ZM5.29586 79.5179C5.59599 79.3492 5.8941 79.1766 6.19021 78.9999L-14 58.9079V60.3169L5.29385 79.5169L5.29586 79.5179ZM7.06648 78.4649L-14 57.5009V56.0929L7.92566 77.9109C7.64161 78.0989 7.35521 78.2836 7.06648 78.4649ZM8.76775 77.3419L-14 54.6829V53.2749L9.59478 76.7549C9.32145 76.9549 9.04611 77.1506 8.76876 77.3419H8.76775ZM10.4027 76.1529L-14 51.8649V50.4559L11.1966 75.5329C10.934 75.7429 10.6693 75.9496 10.4027 76.1529ZM11.9734 74.8979L-14 49.0499V47.6429L12.73 74.2429C12.4795 74.4636 12.2262 74.6806 11.9703 74.8939L11.9734 74.8979ZM13.4807 73.5799L-14 46.2349V44.8259L14.2072 72.8959C13.9667 73.1259 13.7235 73.3536 13.4777 73.5789L13.4807 73.5799ZM14.9227 72.1989L-14 43.4179V42.0099L15.6161 71.4829C15.3863 71.7236 15.1542 71.9619 14.9197 72.1979L14.9227 72.1989ZM16.3004 70.7539L-14 40.6019V39.1949L16.9626 70.0069C16.7429 70.2576 16.5211 70.5062 16.2974 70.7529L16.3004 70.7539ZM17.6158 69.2459L-14 37.7859V36.3769L18.2449 68.4649C18.0372 68.7262 17.8262 68.9856 17.6118 69.2429L17.6158 69.2459ZM18.8599 67.6719L-14 34.9649V33.5649L19.4628 66.8649C19.2658 67.1376 19.0649 67.4076 18.8599 67.6749V67.6719ZM20.0446 66.0349L-14 32.1529V30.7449L20.6154 65.1919C20.4298 65.4752 20.2406 65.7562 20.0476 66.0349H20.0446ZM21.1711 64.3329L-14 29.3329V27.9249L21.6997 63.4549C21.5248 63.7489 21.347 64.0412 21.1661 64.3319L21.1711 64.3329ZM22.2162 62.5649L-14 26.5199V25.1119L22.7136 61.6479C22.5508 61.9546 22.3833 62.2586 22.2112 62.5599L22.2162 62.5649ZM23.1939 60.7209L-14 23.7039V22.2949L23.6552 59.7649C23.5051 60.0829 23.351 60.3992 23.1929 60.7139L23.1939 60.7209ZM24.0983 58.8039C24.2437 58.4766 24.3847 58.1472 24.5214 57.8159L-14 19.4789V20.8879L24.0963 58.7989L24.0983 58.8039ZM24.9224 56.8039C25.0563 56.4626 25.1836 56.1196 25.3042 55.7749L-14 16.6649V18.0709L24.9214 56.8029L24.9224 56.8039ZM25.663 54.7239C25.7802 54.3679 25.8924 54.0102 25.9996 53.6509L-14 13.8469V15.2549L25.661 54.7229L25.663 54.7239ZM26.3131 52.5549C26.4136 52.1819 26.5141 51.8099 26.6015 51.4339L-14 11.0299V12.4379L26.3111 52.5539L26.3131 52.5549ZM26.8638 50.2869C26.9482 49.8969 27.0246 49.5049 27.0979 49.1109L-14 8.21387V9.62187L26.8618 50.2859L26.8638 50.2869ZM27.3039 47.9079C27.3683 47.4979 27.4265 47.0869 27.4798 46.6739L-14 5.39787V6.80587L27.3009 47.9059L27.3039 47.9079ZM27.6245 45.4079C27.6667 44.9759 27.7049 44.5439 27.735 44.1079L-14 2.58187V3.98887L27.6215 45.4089L27.6245 45.4079ZM27.8044 42.7709C27.8215 42.3119 27.8305 41.8529 27.8335 41.3919L-14 -0.235133V1.17287L27.8034 42.7729L27.8044 42.7709ZM27.8225 39.9709C27.8225 39.8929 27.8225 39.8149 27.8225 39.7369C27.8104 39.3282 27.7927 38.9182 27.7692 38.5069L-13.8885 -2.94013L-14 -2.93513V-1.64313L27.8195 39.9729L27.8225 39.9709ZM27.6496 36.9819C27.6088 36.5559 27.5625 36.1322 27.511 35.7109C27.511 35.6199 27.511 35.5279 27.511 35.4349L-11.2728 -3.15413L-12.5791 -3.04713L27.6466 36.9839L27.6496 36.9819ZM27.5491 34.0609C27.5702 33.6359 27.6004 33.1959 27.6446 32.7469L-8.65804 -3.36813L-9.96439 -3.26113L27.5411 34.0649L27.5491 34.0609ZM27.7973 31.4909C27.8546 31.0909 27.924 30.6909 28.0044 30.2909L-6.04231 -3.58113L-7.34867 -3.47413L27.7893 31.4929L27.7973 31.4909ZM28.2676 29.1439C28.3621 28.7792 28.4676 28.4149 28.5842 28.0509L-3.42658 -3.79513L-4.73294 -3.68813L28.2606 29.1459L28.2676 29.1439ZM28.955 27.0119C29.0849 26.6786 29.2266 26.3499 29.38 26.0259L-0.810854 -4.00813L-2.11721 -3.90113L28.9479 27.0139L28.955 27.0119ZM29.8594 25.0939C30.0262 24.7939 30.2031 24.5029 30.392 24.2159L1.80387 -4.22213L0.497512 -4.11513L29.8503 25.0959L29.8594 25.0939ZM30.9808 23.3939C31.1818 23.1319 31.3969 22.8762 31.626 22.6269L4.4196 -4.43513L3.11324 -4.32913L30.9718 23.3959L30.9808 23.3939ZM32.3254 21.9159L5.736 -4.54413L7.04236 -4.65113L33.077 21.2649C32.8091 21.4749 32.5555 21.6922 32.3163 21.9169L32.3254 21.9159ZM33.9 20.6659L8.34268 -4.75513L9.64904 -4.86313L34.7612 20.1269C34.4698 20.2939 34.1784 20.4729 33.89 20.6679L33.9 20.6659ZM35.7008 19.6409L10.9594 -4.97013L12.2658 -5.07713L36.6846 19.2229C36.352 19.3449 36.0194 19.4829 35.6877 19.6389L35.7008 19.6409ZM37.7679 18.8809L13.5741 -5.18313L14.8805 -5.29013L38.9114 18.6229C38.5289 18.6896 38.1444 18.7762 37.7578 18.8829L37.7679 18.8809ZM40.1695 18.4559L16.1889 -5.39713L17.4952 -5.50413L41.5211 18.4029C41.076 18.4029 40.6167 18.4179 40.1605 18.4579L40.1695 18.4559ZM43.0254 18.4809L18.8046 -5.61113L20.1109 -5.71813L44.6855 18.7329C44.1559 18.6279 43.5992 18.5409 43.0194 18.4829L43.0254 18.4809ZM46.5888 19.2109L21.4203 -5.82413L22.7267 -5.93113L48.8538 20.0739C48.1132 19.7391 47.352 19.4516 46.5747 19.2129L46.5888 19.2109ZM51.8705 21.6649L24.035 -6.03513L25.3414 -6.14213L54.4621 22.8319C53.5811 22.4752 52.7173 22.0849 51.8705 21.6609V21.6649ZM56.701 23.6559L26.6548 -6.24413L27.9611 -6.35113L58.7148 24.2479C58.0368 24.0686 57.3669 23.8686 56.705 23.6479L56.701 23.6559ZM60.5688 24.6879L29.2675 -6.46413L30.5739 -6.57113L62.2982 24.9979C61.7167 24.9079 61.1399 24.8036 60.5678 24.6849L60.5688 24.6879ZM63.9312 25.2169C64.445 25.2729 64.9615 25.3176 65.4807 25.3509L33.1906 -6.78513L31.8842 -6.67813L63.9302 25.2129L63.9312 25.2169ZM66.9599 25.4169C67.4289 25.4276 67.9018 25.4276 68.3788 25.4169L35.8063 -6.99913L34.5 -6.89213L66.9579 25.4079L66.9599 25.4169ZM69.7465 25.3729C70.0734 25.3556 70.4003 25.3332 70.7272 25.3059C70.8398 25.2969 70.9503 25.2849 71.0629 25.2739L38.421 -7.21313L37.1147 -7.10614L69.7455 25.3649L69.7465 25.3729ZM72.3391 25.1369C72.7538 25.0842 73.1661 25.0246 73.5761 24.9579L41.0368 -7.42613L39.7304 -7.31913L72.3391 25.1319V25.1369ZM74.7739 24.7429C75.1638 24.6649 75.5527 24.5839 75.9386 24.4929L43.6525 -7.63513L42.3461 -7.52813L74.7729 24.7379L74.7739 24.7429ZM77.0701 24.2109C77.4386 24.1122 77.805 24.0079 78.1694 23.8979L46.2682 -7.85313L44.9619 -7.74613L77.0691 24.2059L77.0701 24.2109ZM79.2417 23.5549C79.592 23.4376 79.9404 23.3149 80.2868 23.1869L48.8829 -8.06713L47.5766 -7.96013L79.2417 23.5499V23.5549ZM81.3017 22.7889C81.6367 22.6556 81.9669 22.5149 82.2925 22.3669L51.4997 -8.28013L50.1933 -8.17313L81.3007 22.7839L81.3017 22.7889ZM83.2602 21.9209C83.5778 21.7689 83.8923 21.6129 84.2038 21.4529L54.1144 -8.49413L52.808 -8.38713L83.2562 21.9129L83.2602 21.9209ZM85.1233 20.9589C85.4241 20.7909 85.7229 20.6186 86.0196 20.4419L56.7291 -8.70813L55.4228 -8.60113L85.1213 20.9539L85.1233 20.9589ZM86.8939 19.9049C87.1813 19.7219 87.4667 19.5369 87.7481 19.3469L59.3449 -8.92113L58.0385 -8.81413L86.8909 19.9009L86.8939 19.9049ZM88.5821 18.7679C88.8554 18.5679 89.1248 18.3679 89.3931 18.1679L61.9596 -9.13213L60.6532 -9.02613L88.5801 18.7649L88.5821 18.7679ZM90.1839 17.5449L63.2679 -9.24213L64.5743 -9.34913L90.9506 16.8989C90.6974 17.1169 90.4405 17.3309 90.1799 17.5409L90.1839 17.5449ZM91.7063 16.2449L65.8887 -9.45513L67.1951 -9.56213L92.4359 15.5649C92.1957 15.7949 91.9515 16.0209 91.7043 16.2439L91.7063 16.2449ZM93.1493 14.8649L68.5014 -9.66913L69.8078 -9.77613L93.8387 14.1379C93.6116 14.3812 93.3811 14.6216 93.1473 14.8589L93.1493 14.8649ZM94.511 13.4039L71.1141 -9.88213L72.4205 -9.98913L95.1601 12.6389C94.9464 12.8949 94.7287 13.1479 94.5069 13.3979L94.511 13.4039ZM95.7952 11.8659L73.7268 -10.0961L75.0332 -10.2031L96.4062 11.0649C96.2052 11.3316 96.0009 11.5982 95.7932 11.8649L95.7952 11.8659ZM97.0011 10.2459L76.3506 -10.3041L77.657 -10.4111L97.5698 9.40387C97.3836 9.6872 97.194 9.96787 97.0011 10.2459ZM98.1195 8.54587L78.9663 -10.5141L80.2727 -10.6211L98.6481 7.65487C98.4759 7.95153 98.2997 8.24587 98.1195 8.53787V8.54587ZM99.1536 6.75887L81.576 -10.7351L82.8824 -10.8421L99.6279 5.82187C99.4711 6.13387 99.3123 6.44487 99.1465 6.75087L99.1536 6.75887ZM100.094 4.87787L84.1928 -10.9501L85.4991 -11.0561L100.524 3.89487C100.384 4.22287 100.238 4.54687 100.088 4.86987L100.094 4.87787ZM100.94 2.90387L86.8115 -11.1561L88.1179 -11.2631L101.318 1.86487C101.195 2.20953 101.068 2.55187 100.935 2.89187L100.94 2.90387ZM101.68 0.822865C101.794 0.464865 101.906 0.10487 102.008 -0.25713L90.7306 -11.4841L89.4242 -11.3771L101.676 0.81487L101.68 0.822865ZM102.306 -1.37014C102.401 -1.7488 102.49 -2.1298 102.572 -2.51313L93.3503 -11.6891L92.044 -11.5821L102.306 -1.36913V-1.37014ZM102.808 -3.68813C102.881 -4.08813 102.944 -4.49713 103.002 -4.90413L95.9681 -11.9041L94.6617 -11.7971L102.809 -3.68913L102.808 -3.68813ZM103.16 -6.15513C103.206 -6.58513 103.243 -7.01847 103.273 -7.45513L98.5778 -12.1251L97.2714 -12.0181L103.155 -6.16313L103.16 -6.15513ZM103.341 -8.79013C103.356 -9.25313 103.358 -9.71813 103.356 -10.1841L101.192 -12.3351L99.8861 -12.2281L103.336 -8.79513L103.341 -8.79013ZM103.316 -11.6321L102.512 -12.4321L103.268 -12.4941C103.282 -12.2134 103.296 -11.9291 103.31 -11.6411L103.316 -11.6321Z" fill="#6D6D6D"/>
<path fill-rule="evenodd" clip-rule="evenodd" d="M-14 69.9909C-13.2142 70.0356 -12.4217 70.0579 -11.6225 70.0579C-0.732444 70.0577 9.74234 65.8992 17.642 58.4398C25.5417 50.9805 30.264 40.789 30.8351 29.9669C30.8733 29.2336 30.8924 28.4952 30.8924 27.7519C30.8924 27.2009 30.8783 26.6519 30.8572 26.1039C31.1587 22.0749 32.4651 15.9039 37.3961 12.6949C45.1026 7.6679 53.3517 13.3879 53.3517 13.3879C58.4249 16.934 64.3757 19.0328 70.5606 19.4573C76.7456 19.8819 82.9296 18.6161 88.4441 15.7968C93.9585 12.9775 98.5938 8.71193 101.849 3.46115C105.104 -1.78962 106.855 -7.82587 106.912 -13.9951H-14V69.9909Z" fill="#676767"/>
<path fill-rule="evenodd" clip-rule="evenodd" d="M-14 31.889C-6.68302 32.1205 0.597832 30.7755 7.34382 27.946C18.9923 23.0873 28.4014 14.0805 33.7322 2.68602C34.3543 1.35602 34.927 -0.032986 35.5008 -1.42199C37.5056 -6.27499 39.5144 -11.141 43.9128 -14H42.3693C38.4884 -10.974 36.5811 -6.35998 34.6808 -1.75698C34.1161 -0.386985 33.5493 0.982018 32.9263 2.31702C27.6905 13.5129 18.4467 22.363 7.00216 27.137C0.364219 29.9207 -6.80055 31.2416 -14 31.009V31.889ZM60.1819 -13.999C62.2824 -12.7095 64.1339 -11.0561 65.6485 -9.11699L65.6726 -9.08698C69.7332 -3.44809 75.1786 1.06082 81.4888 4.0092C87.799 6.95757 94.7634 8.24698 101.717 7.75431C108.671 7.26163 115.381 5.00332 121.208 1.19501C127.035 -2.61331 131.783 -7.84447 135 -13.999H134.002C130.806 -8.0405 126.135 -2.99239 120.431 0.667347C114.726 4.32708 108.178 6.4773 101.405 6.9144C94.6319 7.3515 87.859 6.06101 81.7274 3.16512C75.5958 0.269243 70.3084 -4.13618 66.366 -9.63398C66.358 -9.64598 66.3489 -9.65698 66.3399 -9.66798C65.0395 -11.326 63.5017 -12.7851 61.7757 -13.999H60.1819Z" fill="#6D6D6D"/>
</g>
</g>
<g style="mix-blend-mode:exclusion">
<g opacity="0.2">
<path fill-rule="evenodd" clip-rule="evenodd" d="M387 53C386.715 53.0161 386.43 53.0362 386.144 53.0574L387 53.9151V53ZM384.849 53.1772L387 55.3337V56.7512L383.583 53.3312C384.004 53.2748 384.426 53.2235 384.849 53.1772ZM382.357 53.5175L387 58.1687V59.5862L381.156 53.7319C381.554 53.6547 381.955 53.5832 382.357 53.5175ZM379.983 53.9735C379.598 54.0588 379.215 54.148 378.835 54.2413L387 62.4222V61.0047L379.983 53.9735ZM377.714 54.5363C377.347 54.6377 376.981 54.7437 376.616 54.8544L387 65.2573V63.8397L377.715 54.5363H377.714ZM375.542 55.1967C375.19 55.3135 374.839 55.435 374.491 55.5612L387 68.0923V66.6738L375.544 55.1967H375.542ZM373.462 55.9468C373.124 56.081 372.789 56.2152 372.457 56.3495L387 70.9283V69.5108L373.462 55.9468ZM371.465 56.7814C371.14 56.927 370.817 57.0764 370.497 57.2294L387 73.7633V72.3458L371.465 56.7814ZM369.547 57.6955C369.235 57.8532 368.925 58.015 368.618 58.1808L387 76.5984V75.1809L369.547 57.6955ZM367.704 58.6852C367.404 58.855 367.106 59.0288 366.81 59.2067L387 79.4344V78.0159L367.706 58.6862L367.704 58.6852ZM365.933 59.7453L387 80.8509V82.2684L365.074 60.303C365.358 60.1137 365.645 59.9278 365.933 59.7453ZM364.232 60.8759L387 83.6879V85.1055L363.405 61.4668C363.679 61.2655 363.954 61.0685 364.231 60.8759H364.232ZM362.597 62.0729L387 86.525V87.9435L361.803 62.6971C362.066 62.4857 362.331 62.2776 362.597 62.0729ZM361.027 63.3364L387 89.359V90.7755L360.27 63.9958C360.52 63.7736 360.774 63.5552 361.03 63.3404L361.027 63.3364ZM359.519 64.6633L387 92.193V93.6115L358.793 65.3519C359.033 65.1203 359.276 64.8911 359.522 64.6643L359.519 64.6633ZM358.077 66.0536L387 95.0291V96.4466L357.384 66.7744C357.614 66.5321 357.846 66.2922 358.08 66.0546L358.077 66.0536ZM356.7 67.5084L387 97.8641V99.2806L356.037 68.2604C356.257 68.0081 356.479 67.7577 356.703 67.5094L356.7 67.5084ZM355.384 69.0266L387 100.699V102.118L354.755 69.8128C354.963 69.5497 355.174 69.2886 355.388 69.0296L355.384 69.0266ZM354.14 70.6112L387 103.539V104.949L353.537 71.4236C353.734 71.1491 353.935 70.8773 354.14 70.6082V70.6112ZM352.955 72.2592L387 106.37V107.788L352.385 73.1079C352.57 72.8227 352.759 72.5398 352.952 72.2592H352.955ZM351.829 73.9728L387 109.209V110.627L351.3 74.8567C351.475 74.5607 351.653 74.2664 351.834 73.9738L351.829 73.9728ZM350.784 75.7527L387 112.041V113.459L350.286 76.6759C350.449 76.3672 350.617 76.0611 350.789 75.7577L350.784 75.7527ZM349.806 77.6092L387 114.876V116.295L349.345 78.5716C349.495 78.2515 349.649 77.933 349.807 77.6162L349.806 77.6092ZM348.902 79.5391C348.756 79.8687 348.615 80.2002 348.479 80.5338L387 119.13V117.711L348.904 79.5441L348.902 79.5391ZM348.078 81.5526C347.944 81.8963 347.816 82.2416 347.696 82.5886L387 121.963V120.547L348.079 81.5536L348.078 81.5526ZM347.337 83.6467C347.22 84.0051 347.108 84.3652 347 84.7269L387 124.8V123.382L347.339 83.6477L347.337 83.6467ZM346.687 85.8303C346.586 86.2058 346.486 86.5804 346.398 86.9589L387 127.636V126.218L346.689 85.8313L346.687 85.8303ZM346.136 88.1136C346.052 88.5063 345.975 88.9009 345.902 89.2976L387 130.471V129.053L346.138 88.1147L346.136 88.1136ZM345.696 90.5087C345.632 90.9215 345.573 91.3353 345.52 91.7511L387 133.306V131.888L345.699 90.5107L345.696 90.5087ZM345.375 93.0256C345.333 93.4605 345.295 93.8955 345.265 94.3344L387 136.141V134.724L345.378 93.0246L345.375 93.0256ZM345.196 95.6804C345.179 96.1425 345.169 96.6046 345.166 97.0687L387 138.977V137.559L345.197 95.6784L345.196 95.6804ZM345.177 98.4994C345.177 98.5779 345.177 98.6564 345.177 98.7349C345.19 99.1464 345.207 99.5591 345.231 99.9732L386.888 141.7L387 141.695V140.395L345.181 98.4973L345.177 98.4994ZM345.35 101.509C345.391 101.937 345.437 102.364 345.489 102.788C345.489 102.88 345.489 102.972 345.489 103.066L384.273 141.916L385.579 141.808L345.353 101.507L345.35 101.509ZM345.451 104.449C345.43 104.877 345.4 105.32 345.355 105.772L381.658 142.131L382.964 142.023L345.459 104.445L345.451 104.449ZM345.203 107.037C345.145 107.439 345.076 107.842 344.996 108.245L379.042 142.346L380.349 142.238L345.211 107.035L345.203 107.037ZM344.732 109.4C344.638 109.767 344.532 110.133 344.416 110.5L376.427 142.561L377.733 142.453L344.739 109.397L344.732 109.4ZM344.045 111.546C343.915 111.881 343.773 112.212 343.62 112.539L373.811 142.775L375.117 142.668L344.052 111.544L344.045 111.546ZM343.141 113.477C342.974 113.779 342.797 114.072 342.608 114.361L371.196 142.991L372.502 142.883L343.15 113.475L343.141 113.477ZM342.019 115.188C341.818 115.452 341.603 115.71 341.374 115.961L368.58 143.205L369.887 143.099L342.028 115.186L342.019 115.188ZM340.675 116.676L367.264 143.315L365.958 143.423L339.923 117.332C340.191 117.12 340.444 116.902 340.684 116.675L340.675 116.676ZM339.1 117.935L364.657 143.528L363.351 143.636L338.239 118.477C338.53 118.309 338.822 118.129 339.11 117.933L339.1 117.935ZM337.299 118.967L362.041 143.744L360.734 143.852L336.315 119.388C336.648 119.265 336.981 119.126 337.312 118.969L337.299 118.967ZM335.232 119.732L359.426 143.958L358.119 144.066L334.089 119.992C334.471 119.924 334.856 119.837 335.242 119.73L335.232 119.732ZM332.83 120.16L356.811 144.174L355.505 144.282L331.479 120.213C331.924 120.213 332.383 120.198 332.839 120.158L332.83 120.16ZM329.975 120.135L354.195 144.389L352.889 144.497L328.314 119.881C328.844 119.987 329.401 120.074 329.981 120.133L329.975 120.135ZM326.411 119.4L351.58 144.604L350.273 144.711L324.146 118.531C324.887 118.868 325.648 119.157 326.425 119.398L326.411 119.4ZM321.129 116.929L348.965 144.816L347.659 144.924L318.538 115.754C319.419 116.113 320.283 116.506 321.129 116.933V116.929ZM316.299 114.925L346.345 145.027L345.039 145.134L314.285 114.329C314.963 114.509 315.633 114.71 316.295 114.933L316.299 114.925ZM312.431 113.886L343.732 145.248L342.426 145.356L310.702 113.574C311.283 113.664 311.86 113.769 312.432 113.889L312.431 113.886ZM309.069 113.353C308.555 113.297 308.038 113.252 307.519 113.218L339.809 145.571L341.116 145.464L309.07 113.357L309.069 113.353ZM306.04 113.152C305.571 113.141 305.098 113.141 304.621 113.152L337.194 145.787L338.5 145.679L306.042 113.161L306.04 113.152ZM303.254 113.196C302.927 113.213 302.6 113.236 302.273 113.263C302.16 113.272 302.05 113.285 301.937 113.296L334.579 146.002L335.885 145.894L303.255 113.204L303.254 113.196ZM300.661 113.434C300.246 113.487 299.834 113.547 299.424 113.614L331.963 146.217L333.27 146.109L300.661 113.439V113.434ZM298.226 113.83C297.836 113.909 297.447 113.99 297.061 114.082L329.347 146.427L330.654 146.319L298.227 113.835L298.226 113.83ZM295.93 114.366C295.561 114.465 295.195 114.57 294.831 114.681L326.732 146.646L328.038 146.539L295.931 114.371L295.93 114.366ZM293.758 115.026C293.408 115.144 293.06 115.268 292.713 115.397L324.117 146.862L325.423 146.754L293.758 115.031V115.026ZM291.698 115.797C291.363 115.932 291.033 116.073 290.707 116.222L321.5 147.076L322.807 146.969L291.699 115.802L291.698 115.797ZM289.74 116.671C289.422 116.824 289.108 116.981 288.796 117.142L318.886 147.292L320.192 147.184L289.744 116.679L289.74 116.671ZM287.877 117.64C287.576 117.809 287.277 117.982 286.98 118.16L316.271 147.507L317.577 147.4L287.879 117.645L287.877 117.64ZM286.106 118.701C285.819 118.885 285.533 119.071 285.252 119.263L313.655 147.722L314.961 147.614L286.109 118.705L286.106 118.701ZM284.418 119.846C284.145 120.047 283.875 120.248 283.607 120.45L311.04 147.934L312.347 147.827L284.42 119.849L284.418 119.846ZM282.816 121.077L309.732 148.045L308.426 148.153L282.049 121.727C282.303 121.508 282.559 121.292 282.82 121.081L282.816 121.077ZM281.294 122.386L307.111 148.259L305.805 148.367L280.564 123.07C280.804 122.839 281.048 122.611 281.296 122.387L281.294 122.386ZM279.851 123.775L304.499 148.475L303.192 148.582L279.161 124.507C279.388 124.262 279.619 124.02 279.853 123.781L279.851 123.775ZM278.489 125.246L301.886 148.689L300.579 148.797L277.84 126.016C278.054 125.758 278.271 125.504 278.493 125.252L278.489 125.246ZM277.205 126.794L299.273 148.905L297.967 149.012L276.594 127.601C276.795 127.332 276.999 127.064 277.207 126.795L277.205 126.794ZM275.999 128.425L296.649 149.114L295.343 149.222L275.43 129.273C275.616 128.988 275.806 128.705 275.999 128.425ZM274.88 130.137L294.034 149.325L292.727 149.433L274.352 131.034C274.524 130.735 274.7 130.439 274.88 130.145V130.137ZM273.846 131.936L291.424 149.548L290.118 149.656L273.372 132.879C273.529 132.565 273.688 132.252 273.853 131.944L273.846 131.936ZM272.906 133.829L288.807 149.764L287.501 149.871L272.476 134.819C272.616 134.489 272.762 134.163 272.912 133.838L272.906 133.829ZM272.06 135.817L286.188 149.972L284.882 150.08L271.682 136.863C271.804 136.516 271.932 136.171 272.065 135.829L272.06 135.817ZM271.32 137.912C271.206 138.272 271.094 138.635 270.992 138.999L282.269 150.302L283.576 150.194L271.324 137.92L271.32 137.912ZM270.694 140.12C270.599 140.501 270.51 140.884 270.428 141.27L279.65 150.508L280.956 150.401L270.694 140.12ZM270.192 142.453C270.119 142.856 270.056 143.268 269.998 143.678L277.032 150.725L278.338 150.617L270.191 142.454L270.192 142.453ZM269.84 144.937C269.794 145.37 269.757 145.806 269.727 146.246L274.422 150.947L275.729 150.84L269.845 144.945L269.84 144.937ZM269.659 147.59C269.644 148.056 269.642 148.524 269.644 148.993L271.807 151.159L273.114 151.051L269.664 147.595L269.659 147.59ZM269.684 150.451L270.488 151.256L269.732 151.319C269.718 151.036 269.704 150.75 269.69 150.46L269.684 150.451Z" fill="#6D6D6D"/>
<path fill-rule="evenodd" clip-rule="evenodd" d="M387 68.2764C386.214 68.2315 385.422 68.209 384.622 68.209C373.732 68.2092 363.258 72.3958 355.358 79.9055C347.458 87.4153 342.736 97.6756 342.165 108.571C342.127 109.309 342.108 110.053 342.108 110.801C342.108 111.356 342.122 111.908 342.143 112.46C341.841 116.516 340.535 122.729 335.604 125.96C327.897 131.021 319.648 125.262 319.648 125.262C314.575 121.692 308.624 119.579 302.439 119.152C296.254 118.724 290.07 119.998 284.556 122.837C279.041 125.675 274.406 129.97 271.151 135.256C267.896 140.542 266.145 146.619 266.088 152.83H387V68.2764Z" fill="#676767"/>
<path fill-rule="evenodd" clip-rule="evenodd" d="M387 106.636C379.683 106.403 372.402 107.757 365.656 110.606C354.008 115.497 344.599 124.565 339.268 136.036C338.646 137.375 338.073 138.774 337.499 140.172C335.494 145.058 333.486 149.957 329.087 152.835H330.631C334.512 149.789 336.419 145.143 338.319 140.509C338.884 139.13 339.451 137.752 340.074 136.408C345.31 125.136 354.553 116.226 365.998 111.42C372.636 108.618 379.801 107.288 387 107.522V106.636ZM312.818 152.834C310.718 151.536 308.866 149.871 307.351 147.919L307.327 147.889C303.267 142.212 297.821 137.672 291.511 134.704C285.201 131.736 278.237 130.438 271.283 130.934C264.329 131.43 257.619 133.703 251.792 137.537C245.965 141.371 241.217 146.638 238 152.834H238.998C242.194 146.835 246.865 141.753 252.569 138.069C258.274 134.384 264.822 132.219 271.595 131.779C278.368 131.339 285.141 132.638 291.273 135.554C297.404 138.469 302.692 142.905 306.634 148.439C306.642 148.452 306.651 148.463 306.66 148.474C307.961 150.143 309.498 151.612 311.224 152.834H312.818Z" fill="#6D6D6D"/>
</g>
</g>
<g filter="url(#filter0_d_13_2)">
<path d="M187 112C205.778 112 221 96.7777 221 78C221 59.2223 205.778 44 187 44C168.222 44 153 59.2223 153 78C153 96.7777 168.222 112 187 112Z" fill="#223F99"/>
<path d="M187 114C206.882 114 223 97.8823 223 78C223 58.1177 206.882 42 187 42C167.118 42 151 58.1177 151 78C151 97.8823 167.118 114 187 114Z" stroke="#FFCB57" stroke-width="4"/>
</g>
</g>
<path d="M178.422 95V63H200.266V69.2812H186.156V75.8437H198.875V82.1406H186.156V95H178.422Z" fill="#FFCB57"/>
<path d="M178.422 95H177.922V95.5H178.422V95ZM178.422 63V62.5H177.922V63H178.422ZM200.266 63H200.766V62.5H200.266V63ZM200.266 69.2812V69.7812H200.766V69.2812H200.266ZM186.156 69.2812V68.7812H185.656V69.2812H186.156ZM186.156 75.8437H185.656V76.3437H186.156V75.8437ZM198.875 75.8437H199.375V75.3437H198.875V75.8437ZM198.875 82.1406V82.6406H199.375V82.1406H198.875ZM186.156 82.1406V81.6406H185.656V82.1406H186.156ZM186.156 95V95.5H186.656V95H186.156ZM178.922 95V63H177.922V95H178.922ZM178.422 63.5H200.266V62.5H178.422V63.5ZM199.766 63V69.2812H200.766V63H199.766ZM200.266 68.7812H186.156V69.7812H200.266V68.7812ZM185.656 69.2812V75.8437H186.656V69.2812H185.656ZM186.156 76.3437H198.875V75.3437H186.156V76.3437ZM198.375 75.8437V82.1406H199.375V75.8437H198.375ZM198.875 81.6406H186.156V82.6406H198.875V81.6406ZM185.656 82.1406V95H186.656V82.1406H185.656ZM186.156 94.5H178.422V95.5H186.156V94.5Z" fill="white"/>
</g>
<path d="M205.562 23.496C205.562 23.22 205.586 22.896 205.634 22.524C205.682 22.152 205.772 21.732 205.904 21.264C206.036 20.784 206.234 20.25 206.498 19.662L208.712 20.436C208.58 20.808 208.466 21.15 208.37 21.462C208.274 21.762 208.202 22.044 208.154 22.308C208.106 22.56 208.082 22.812 208.082 23.064C208.082 23.46 208.166 23.814 208.334 24.126C208.514 24.45 208.772 24.72 209.108 24.936C209.444 25.164 209.852 25.338 210.332 25.458C210.824 25.578 211.388 25.638 212.024 25.638C212.684 25.638 213.272 25.608 213.788 25.548C214.316 25.488 214.76 25.398 215.12 25.278C215.492 25.158 215.774 25.002 215.966 24.81C216.158 24.63 216.254 24.42 216.254 24.18C216.254 24.072 216.212 23.97 216.128 23.874C216.056 23.778 215.93 23.676 215.75 23.568C215.582 23.46 215.354 23.346 215.066 23.226C214.79 23.106 214.454 22.974 214.058 22.83L214.652 20.292C215.168 20.508 215.654 20.7 216.11 20.868C216.578 21.024 217.022 21.156 217.442 21.264C217.862 21.36 218.258 21.438 218.63 21.498C219.002 21.546 219.35 21.57 219.674 21.57C220.13 21.57 220.454 21.69 220.646 21.93C220.838 22.158 220.934 22.446 220.934 22.794C220.934 23.166 220.808 23.478 220.556 23.73C220.304 23.97 219.95 24.09 219.494 24.09C219.398 24.09 219.302 24.09 219.206 24.09C219.122 24.09 219.032 24.09 218.936 24.09C218.852 24.09 218.762 24.09 218.666 24.09C218.69 24.21 218.702 24.312 218.702 24.396C218.702 24.492 218.702 24.582 218.702 24.666C218.702 25.062 218.564 25.464 218.288 25.872C218.024 26.28 217.61 26.658 217.046 27.006C216.482 27.354 215.762 27.63 214.886 27.834C214.022 28.05 212.99 28.158 211.79 28.158C210.494 28.158 209.378 27.99 208.442 27.654C207.518 27.33 206.804 26.82 206.3 26.124C205.808 25.44 205.562 24.564 205.562 23.496ZM213.554 32.334C213.206 32.334 212.906 32.208 212.654 31.956C212.414 31.716 212.294 31.428 212.294 31.092C212.294 30.744 212.414 30.444 212.654 30.192C212.906 29.94 213.206 29.814 213.554 29.814C213.89 29.814 214.178 29.94 214.418 30.192C214.658 30.444 214.778 30.744 214.778 31.092C214.778 31.428 214.658 31.716 214.418 31.956C214.178 32.208 213.89 32.334 213.554 32.334ZM210.44 32.334C210.092 32.334 209.792 32.208 209.54 31.956C209.3 31.716 209.18 31.428 209.18 31.092C209.18 30.744 209.3 30.444 209.54 30.192C209.792 29.94 210.092 29.814 210.44 29.814C210.776 29.814 211.064 29.94 211.304 30.192C211.544 30.444 211.664 30.744 211.664 31.092C211.664 31.428 211.544 31.716 211.304 31.956C211.064 32.208 210.776 32.334 210.44 32.334ZM219.49 24.09L219.67 21.57C220.066 21.57 220.39 21.54 220.642 21.48C220.894 21.408 221.098 21.258 221.254 21.03C221.422 20.79 221.566 20.436 221.686 19.968C221.818 19.488 221.962 18.84 222.118 18.024L224.458 18.456C224.41 18.72 224.344 19.05 224.26 19.446C224.188 19.842 224.152 20.184 224.152 20.472C224.152 20.7 224.194 20.898 224.278 21.066C224.374 21.222 224.53 21.348 224.746 21.444C224.974 21.528 225.286 21.57 225.682 21.57C225.994 21.57 226.258 21.54 226.474 21.48C226.702 21.408 226.894 21.258 227.05 21.03C227.218 20.79 227.362 20.424 227.482 19.932C227.614 19.428 227.74 18.75 227.86 17.898L230.236 18.276C230.188 18.552 230.14 18.846 230.092 19.158C230.044 19.47 230.002 19.758 229.966 20.022C229.93 20.286 229.912 20.502 229.912 20.67C229.912 20.826 229.954 20.976 230.038 21.12C230.134 21.252 230.302 21.36 230.542 21.444C230.794 21.528 231.142 21.57 231.586 21.57C232.126 21.57 232.522 21.456 232.774 21.228C233.038 20.988 233.17 20.628 233.17 20.148C233.17 19.872 233.164 19.578 233.152 19.266C233.14 18.942 233.116 18.582 233.08 18.186C233.056 17.778 233.008 17.316 232.936 16.8L235.258 16.62C235.342 17.652 235.438 18.492 235.546 19.14C235.654 19.788 235.798 20.292 235.978 20.652C236.17 21 236.422 21.24 236.734 21.372C237.058 21.504 237.478 21.57 237.994 21.57C238.45 21.57 238.774 21.69 238.966 21.93C239.17 22.158 239.272 22.446 239.272 22.794C239.272 23.166 239.146 23.478 238.894 23.73C238.654 23.97 238.294 24.09 237.814 24.09C237.49 24.09 237.154 24.06 236.806 24C236.458 23.952 236.122 23.85 235.798 23.694C235.474 23.526 235.186 23.286 234.934 22.974C234.682 22.662 234.484 22.248 234.34 21.732L234.664 21.84C234.496 22.44 234.268 22.902 233.98 23.226C233.692 23.55 233.338 23.778 232.918 23.91C232.498 24.03 231.994 24.09 231.406 24.09C230.866 24.09 230.386 24.018 229.966 23.874C229.546 23.73 229.21 23.496 228.958 23.172C228.718 22.836 228.592 22.386 228.58 21.822H229.192C228.952 22.494 228.676 22.992 228.364 23.316C228.052 23.64 227.674 23.85 227.23 23.946C226.786 24.042 226.228 24.09 225.556 24.09C225.148 24.09 224.746 24.048 224.35 23.964C223.954 23.868 223.6 23.658 223.288 23.334C222.976 22.998 222.748 22.47 222.604 21.75L223.576 21.714C223.324 22.422 222.994 22.944 222.586 23.28C222.19 23.616 221.734 23.838 221.218 23.946C220.702 24.042 220.126 24.09 219.49 24.09ZM237.824 24.09L238.004 21.57C238.436 21.57 238.808 21.528 239.12 21.444C239.432 21.36 239.696 21.192 239.912 20.94C240.128 20.676 240.308 20.292 240.452 19.788C240.608 19.284 240.746 18.612 240.866 17.772L243.224 18.168C243.2 18.348 243.164 18.558 243.116 18.798C243.08 19.038 243.044 19.284 243.008 19.536C242.984 19.776 242.972 20.004 242.972 20.22C242.972 20.436 243.014 20.628 243.098 20.796C243.182 20.964 243.314 21.108 243.494 21.228C243.686 21.336 243.932 21.42 244.232 21.48C244.544 21.54 244.922 21.57 245.366 21.57C245.822 21.57 246.146 21.69 246.338 21.93C246.53 22.158 246.626 22.446 246.626 22.794C246.626 23.166 246.5 23.478 246.248 23.73C246.008 23.97 245.654 24.09 245.186 24.09C244.646 24.09 244.154 24.048 243.71 23.964C243.278 23.88 242.9 23.742 242.576 23.55C242.264 23.346 242.006 23.082 241.802 22.758C241.61 22.422 241.49 22.014 241.442 21.534H242.306C242.09 22.11 241.814 22.572 241.478 22.92C241.154 23.256 240.788 23.508 240.38 23.676C239.972 23.844 239.546 23.952 239.102 24C238.67 24.06 238.244 24.09 237.824 24.09ZM242.846 28.266C242.498 28.266 242.198 28.14 241.946 27.888C241.706 27.648 241.586 27.36 241.586 27.024C241.586 26.676 241.706 26.376 241.946 26.124C242.198 25.872 242.498 25.746 242.846 25.746C243.182 25.746 243.47 25.872 243.71 26.124C243.95 26.376 244.07 26.676 244.07 27.024C244.07 27.36 243.95 27.648 243.71 27.888C243.47 28.14 243.182 28.266 242.846 28.266ZM239.732 28.266C239.384 28.266 239.084 28.14 238.832 27.888C238.592 27.648 238.472 27.36 238.472 27.024C238.472 26.676 238.592 26.376 238.832 26.124C239.084 25.872 239.384 25.746 239.732 25.746C240.068 25.746 240.356 25.872 240.596 26.124C240.836 26.376 240.956 26.676 240.956 27.024C240.956 27.36 240.836 27.648 240.596 27.888C240.356 28.14 240.068 28.266 239.732 28.266ZM245.189 24.09L245.369 21.57C245.765 21.57 246.089 21.54 246.341 21.48C246.593 21.408 246.797 21.258 246.953 21.03C247.121 20.79 247.265 20.436 247.385 19.968C247.517 19.488 247.661 18.84 247.817 18.024L250.157 18.456C250.121 18.636 250.079 18.846 250.031 19.086C249.983 19.326 249.941 19.572 249.905 19.824C249.869 20.064 249.851 20.28 249.851 20.472C249.851 20.808 249.959 21.078 250.175 21.282C250.391 21.474 250.799 21.57 251.399 21.57C251.699 21.57 251.957 21.54 252.173 21.48C252.401 21.408 252.593 21.258 252.749 21.03C252.917 20.79 253.061 20.424 253.181 19.932C253.313 19.428 253.439 18.75 253.559 17.898L255.935 18.276C255.887 18.552 255.839 18.846 255.791 19.158C255.743 19.47 255.701 19.758 255.665 20.022C255.629 20.286 255.611 20.502 255.611 20.67C255.611 20.826 255.653 20.976 255.737 21.12C255.833 21.252 256.001 21.36 256.241 21.444C256.493 21.528 256.847 21.57 257.303 21.57C257.627 21.57 257.903 21.528 258.131 21.444C258.371 21.36 258.551 21.222 258.671 21.03C258.803 20.838 258.869 20.586 258.869 20.274C258.869 19.83 258.767 19.248 258.563 18.528C258.359 17.808 258.119 17.052 257.843 16.26L260.381 15.504C260.573 16.02 260.741 16.572 260.885 17.16C261.041 17.736 261.161 18.3 261.245 18.852C261.341 19.392 261.389 19.866 261.389 20.274C261.389 20.886 261.293 21.432 261.101 21.912C260.909 22.38 260.639 22.776 260.291 23.1C259.943 23.424 259.529 23.67 259.049 23.838C258.569 24.006 258.041 24.09 257.465 24.09C256.769 24.09 256.199 24.024 255.755 23.892C255.311 23.748 254.969 23.514 254.729 23.19C254.501 22.854 254.351 22.398 254.279 21.822H254.891C254.639 22.53 254.357 23.046 254.045 23.37C253.733 23.682 253.361 23.88 252.929 23.964C252.509 24.048 251.981 24.09 251.345 24.09C250.949 24.09 250.541 24.048 250.121 23.964C249.713 23.868 249.347 23.652 249.023 23.316C248.699 22.98 248.459 22.458 248.303 21.75L249.275 21.714C249.023 22.422 248.693 22.944 248.285 23.28C247.889 23.616 247.433 23.838 246.917 23.946C246.401 24.042 245.825 24.09 245.189 24.09ZM267.963 24.09C266.847 24.09 265.983 23.976 265.371 23.748C264.771 23.52 264.351 23.166 264.111 22.686C263.871 22.194 263.733 21.576 263.697 20.832L263.355 12.084H265.875L266.217 19.626C266.241 20.178 266.301 20.592 266.397 20.868C266.493 21.144 266.673 21.33 266.937 21.426C267.213 21.522 267.615 21.57 268.143 21.57C268.599 21.57 268.923 21.69 269.115 21.93C269.319 22.158 269.421 22.446 269.421 22.794C269.421 23.166 269.295 23.478 269.043 23.73C268.791 23.97 268.431 24.09 267.963 24.09ZM262.833 10.932L262.527 9.672C262.947 9.6 263.259 9.54 263.463 9.492C263.679 9.444 263.907 9.39 264.147 9.33L263.967 9.78C263.655 9.672 263.355 9.462 263.067 9.15C262.791 8.826 262.653 8.46 262.653 8.052C262.653 7.62 262.749 7.272 262.941 7.008C263.133 6.744 263.379 6.552 263.679 6.432C263.979 6.312 264.291 6.252 264.615 6.252C264.795 6.252 264.963 6.264 265.119 6.288C265.287 6.312 265.437 6.348 265.569 6.396L265.425 7.692C265.305 7.668 265.185 7.644 265.065 7.62C264.945 7.596 264.813 7.584 264.669 7.584C264.513 7.584 264.369 7.638 264.237 7.746C264.117 7.842 264.057 7.962 264.057 8.106C264.057 8.31 264.129 8.49 264.273 8.646C264.417 8.802 264.585 8.928 264.777 9.024C264.981 9.108 265.149 9.156 265.281 9.168L264.291 9.276C264.615 9.192 264.921 9.108 265.209 9.024C265.497 8.928 265.767 8.832 266.019 8.736L266.379 9.942C266.079 10.05 265.725 10.17 265.317 10.302C264.921 10.422 264.507 10.536 264.075 10.644C263.655 10.752 263.241 10.848 262.833 10.932ZM267.988 24.09L268.168 21.57C268.6 21.57 268.972 21.528 269.284 21.444C269.596 21.36 269.86 21.192 270.076 20.94C270.292 20.676 270.472 20.292 270.616 19.788C270.772 19.284 270.91 18.612 271.03 17.772L273.388 18.168C273.364 18.348 273.328 18.558 273.28 18.798C273.244 19.038 273.208 19.284 273.172 19.536C273.148 19.776 273.136 20.004 273.136 20.22C273.136 20.436 273.178 20.628 273.262 20.796C273.346 20.964 273.478 21.108 273.658 21.228C273.85 21.336 274.096 21.42 274.396 21.48C274.708 21.54 275.086 21.57 275.53 21.57C275.986 21.57 276.31 21.69 276.502 21.93C276.694 22.158 276.79 22.446 276.79 22.794C276.79 23.166 276.664 23.478 276.412 23.73C276.172 23.97 275.818 24.09 275.35 24.09C274.81 24.09 274.318 24.048 273.874 23.964C273.442 23.88 273.064 23.742 272.74 23.55C272.428 23.346 272.17 23.082 271.966 22.758C271.774 22.422 271.654 22.014 271.606 21.534H272.47C272.254 22.11 271.978 22.572 271.642 22.92C271.318 23.256 270.952 23.508 270.544 23.676C270.136 23.844 269.71 23.952 269.266 24C268.834 24.06 268.408 24.09 267.988 24.09ZM273.766 16.152C273.418 16.152 273.118 16.032 272.866 15.792C272.626 15.54 272.506 15.246 272.506 14.91C272.506 14.562 272.626 14.262 272.866 14.01C273.118 13.758 273.418 13.632 273.766 13.632C274.102 13.632 274.39 13.758 274.63 14.01C274.87 14.262 274.99 14.562 274.99 14.91C274.99 15.246 274.87 15.54 274.63 15.792C274.39 16.032 274.102 16.152 273.766 16.152ZM270.652 16.134C270.304 16.134 270.004 16.014 269.752 15.774C269.512 15.522 269.392 15.228 269.392 14.892C269.392 14.544 269.512 14.244 269.752 13.992C270.004 13.74 270.304 13.614 270.652 13.614C270.988 13.614 271.276 13.74 271.516 13.992C271.756 14.244 271.876 14.544 271.876 14.892C271.876 15.228 271.756 15.522 271.516 15.774C271.276 16.014 270.988 16.134 270.652 16.134ZM275.354 24.09L275.534 21.57C276.086 21.57 276.482 21.516 276.722 21.408C276.962 21.288 277.106 21.072 277.154 20.76C277.202 20.436 277.214 19.968 277.19 19.356L276.866 10.824H279.404L279.764 19.536C279.788 20.232 279.758 20.862 279.674 21.426C279.602 21.978 279.416 22.452 279.116 22.848C278.828 23.244 278.378 23.55 277.766 23.766C277.166 23.982 276.362 24.09 275.354 24.09ZM282.137 24L281.759 10.824H284.279L284.657 24H282.137ZM289.954 23.496C289.954 23.22 289.978 22.896 290.026 22.524C290.074 22.152 290.164 21.732 290.296 21.264C290.428 20.784 290.626 20.25 290.89 19.662L293.104 20.436C292.972 20.808 292.858 21.15 292.762 21.462C292.666 21.762 292.594 22.044 292.546 22.308C292.498 22.56 292.474 22.812 292.474 23.064C292.474 23.424 292.552 23.76 292.708 24.072C292.864 24.384 293.098 24.654 293.41 24.882C293.722 25.122 294.106 25.308 294.562 25.44C295.03 25.572 295.57 25.638 296.182 25.638C296.878 25.638 297.49 25.572 298.018 25.44C298.558 25.32 299.008 25.158 299.368 24.954C299.74 24.762 300.022 24.558 300.214 24.342C300.406 24.126 300.502 23.928 300.502 23.748C300.502 23.604 300.4 23.478 300.196 23.37C300.004 23.262 299.746 23.154 299.422 23.046C299.11 22.926 298.774 22.794 298.414 22.65C298.066 22.506 297.73 22.326 297.406 22.11C297.094 21.894 296.836 21.63 296.632 21.318C296.44 21.006 296.344 20.628 296.344 20.184C296.344 19.728 296.464 19.23 296.704 18.69C296.944 18.138 297.286 17.616 297.73 17.124C298.174 16.62 298.702 16.212 299.314 15.9C299.938 15.576 300.622 15.414 301.366 15.414C301.894 15.414 302.374 15.498 302.806 15.666C303.25 15.834 303.622 16.026 303.922 16.242L302.986 18.348C302.734 18.18 302.464 18.054 302.176 17.97C301.888 17.874 301.612 17.826 301.348 17.826C301.012 17.826 300.688 17.892 300.376 18.024C300.076 18.156 299.806 18.33 299.566 18.546C299.338 18.75 299.158 18.972 299.026 19.212C298.894 19.452 298.828 19.68 298.828 19.896C298.828 20.112 298.93 20.304 299.134 20.472C299.35 20.628 299.626 20.778 299.962 20.922C300.298 21.054 300.652 21.192 301.024 21.336C301.396 21.48 301.75 21.642 302.086 21.822C302.422 22.002 302.692 22.218 302.896 22.47C303.112 22.722 303.22 23.028 303.22 23.388C303.22 23.904 303.058 24.438 302.734 24.99C302.422 25.554 301.954 26.076 301.33 26.556C300.706 27.036 299.938 27.42 299.026 27.708C298.126 28.008 297.082 28.158 295.894 28.158C295.03 28.158 294.238 28.056 293.518 27.852C292.798 27.66 292.168 27.366 291.628 26.97C291.1 26.586 290.686 26.1 290.386 25.512C290.098 24.936 289.954 24.264 289.954 23.496ZM305.296 28.14L304.774 25.62C305.626 25.512 306.37 25.38 307.006 25.224C307.642 25.08 308.176 24.876 308.608 24.612C309.04 24.348 309.364 23.988 309.58 23.532C309.796 23.064 309.904 22.464 309.904 21.732C309.904 21.024 309.796 20.46 309.58 20.04C309.364 19.62 309.076 19.41 308.716 19.41C308.464 19.41 308.254 19.5 308.086 19.68C307.918 19.848 307.792 20.052 307.708 20.292C307.636 20.52 307.6 20.724 307.6 20.904C307.6 21.012 307.63 21.126 307.69 21.246C307.75 21.366 307.882 21.468 308.086 21.552C308.29 21.636 308.608 21.684 309.04 21.696C309.484 21.708 310.084 21.666 310.84 21.57H313.864C314.32 21.57 314.644 21.69 314.836 21.93C315.04 22.158 315.142 22.446 315.142 22.794C315.142 23.166 315.016 23.478 314.764 23.73C314.512 23.97 314.152 24.09 313.684 24.09H308.734C307.978 24.09 307.33 24 306.79 23.82C306.25 23.64 305.836 23.352 305.548 22.956C305.26 22.548 305.116 22.008 305.116 21.336C305.116 20.796 305.206 20.256 305.386 19.716C305.578 19.176 305.842 18.684 306.178 18.24C306.514 17.784 306.904 17.424 307.348 17.16C307.804 16.884 308.296 16.746 308.824 16.746C309.544 16.746 310.174 16.968 310.714 17.412C311.254 17.856 311.674 18.444 311.974 19.176C312.286 19.908 312.442 20.706 312.442 21.57C312.442 22.926 312.154 24.078 311.578 25.026C311.002 25.974 310.18 26.706 309.112 27.222C308.044 27.75 306.772 28.056 305.296 28.14ZM313.709 24.09L313.889 21.57C314.321 21.57 314.693 21.528 315.005 21.444C315.317 21.36 315.581 21.192 315.797 20.94C316.013 20.676 316.193 20.292 316.337 19.788C316.493 19.284 316.631 18.612 316.751 17.772L319.109 18.168C319.085 18.348 319.049 18.558 319.001 18.798C318.965 19.038 318.929 19.284 318.893 19.536C318.869 19.776 318.857 20.004 318.857 20.22C318.857 20.436 318.899 20.628 318.983 20.796C319.067 20.964 319.199 21.108 319.379 21.228C319.571 21.336 319.817 21.42 320.117 21.48C320.429 21.54 320.807 21.57 321.251 21.57C321.707 21.57 322.031 21.69 322.223 21.93C322.415 22.158 322.511 22.446 322.511 22.794C322.511 23.166 322.385 23.478 322.133 23.73C321.893 23.97 321.539 24.09 321.071 24.09C320.531 24.09 320.039 24.048 319.595 23.964C319.163 23.88 318.785 23.742 318.461 23.55C318.149 23.346 317.891 23.082 317.687 22.758C317.495 22.422 317.375 22.014 317.327 21.534H318.191C317.975 22.11 317.699 22.572 317.363 22.92C317.039 23.256 316.673 23.508 316.265 23.676C315.857 23.844 315.431 23.952 314.987 24C314.555 24.06 314.129 24.09 313.709 24.09ZM319.487 16.152C319.139 16.152 318.839 16.032 318.587 15.792C318.347 15.54 318.227 15.246 318.227 14.91C318.227 14.562 318.347 14.262 318.587 14.01C318.839 13.758 319.139 13.632 319.487 13.632C319.823 13.632 320.111 13.758 320.351 14.01C320.591 14.262 320.711 14.562 320.711 14.91C320.711 15.246 320.591 15.54 320.351 15.792C320.111 16.032 319.823 16.152 319.487 16.152ZM316.373 16.134C316.025 16.134 315.725 16.014 315.473 15.774C315.233 15.522 315.113 15.228 315.113 14.892C315.113 14.544 315.233 14.244 315.473 13.992C315.725 13.74 316.025 13.614 316.373 13.614C316.709 13.614 316.997 13.74 317.237 13.992C317.477 14.244 317.597 14.544 317.597 14.892C317.597 15.228 317.477 15.522 317.237 15.774C316.997 16.014 316.709 16.134 316.373 16.134ZM321.074 24.09L321.254 21.57C321.65 21.57 321.974 21.54 322.226 21.48C322.478 21.408 322.682 21.258 322.838 21.03C323.006 20.79 323.15 20.436 323.27 19.968C323.402 19.488 323.546 18.84 323.702 18.024L326.042 18.456C325.994 18.72 325.928 19.05 325.844 19.446C325.772 19.842 325.736 20.184 325.736 20.472C325.736 20.7 325.778 20.898 325.862 21.066C325.958 21.222 326.114 21.348 326.33 21.444C326.558 21.528 326.87 21.57 327.266 21.57C327.578 21.57 327.842 21.54 328.058 21.48C328.286 21.408 328.478 21.258 328.634 21.03C328.802 20.79 328.946 20.424 329.066 19.932C329.198 19.428 329.324 18.75 329.444 17.898L331.82 18.276C331.772 18.552 331.724 18.846 331.676 19.158C331.628 19.47 331.586 19.758 331.55 20.022C331.514 20.286 331.496 20.502 331.496 20.67C331.496 20.826 331.538 20.976 331.622 21.12C331.718 21.252 331.886 21.36 332.126 21.444C332.378 21.528 332.726 21.57 333.17 21.57C333.71 21.57 334.106 21.456 334.358 21.228C334.622 20.988 334.754 20.628 334.754 20.148C334.754 19.872 334.748 19.578 334.736 19.266C334.724 18.942 334.7 18.582 334.664 18.186C334.64 17.778 334.592 17.316 334.52 16.8L336.842 16.62C336.926 17.652 337.022 18.492 337.13 19.14C337.238 19.788 337.382 20.292 337.562 20.652C337.754 21 338.006 21.24 338.318 21.372C338.642 21.504 339.062 21.57 339.578 21.57C340.034 21.57 340.358 21.69 340.55 21.93C340.754 22.158 340.856 22.446 340.856 22.794C340.856 23.166 340.73 23.478 340.478 23.73C340.238 23.97 339.878 24.09 339.398 24.09C339.074 24.09 338.738 24.06 338.39 24C338.042 23.952 337.706 23.85 337.382 23.694C337.058 23.526 336.77 23.286 336.518 22.974C336.266 22.662 336.068 22.248 335.924 21.732L336.248 21.84C336.08 22.44 335.852 22.902 335.564 23.226C335.276 23.55 334.922 23.778 334.502 23.91C334.082 24.03 333.578 24.09 332.99 24.09C332.45 24.09 331.97 24.018 331.55 23.874C331.13 23.73 330.794 23.496 330.542 23.172C330.302 22.836 330.176 22.386 330.164 21.822H330.776C330.536 22.494 330.26 22.992 329.948 23.316C329.636 23.64 329.258 23.85 328.814 23.946C328.37 24.042 327.812 24.09 327.14 24.09C326.732 24.09 326.33 24.048 325.934 23.964C325.538 23.868 325.184 23.658 324.872 23.334C324.56 22.998 324.332 22.47 324.188 21.75L325.16 21.714C324.908 22.422 324.578 22.944 324.17 23.28C323.774 23.616 323.318 23.838 322.802 23.946C322.286 24.042 321.71 24.09 321.074 24.09ZM339.408 24.09L339.588 21.57C339.888 21.57 340.116 21.51 340.272 21.39C340.428 21.27 340.584 21.06 340.74 20.76C340.896 20.46 341.112 20.052 341.388 19.536C341.688 18.96 342 18.48 342.324 18.096C342.648 17.7 342.972 17.388 343.296 17.16C343.632 16.92 343.962 16.752 344.286 16.656C344.622 16.548 344.952 16.494 345.276 16.494C345.72 16.494 346.134 16.59 346.518 16.782C346.914 16.962 347.292 17.28 347.652 17.736C348.012 18.18 348.354 18.792 348.678 19.572C348.906 20.112 349.134 20.526 349.362 20.814C349.59 21.102 349.824 21.3 350.064 21.408C350.316 21.516 350.568 21.57 350.82 21.57C351.276 21.57 351.6 21.69 351.792 21.93C351.984 22.158 352.08 22.446 352.08 22.794C352.08 23.166 351.954 23.478 351.702 23.73C351.45 23.97 351.096 24.09 350.64 24.09C350.052 24.09 349.518 23.994 349.038 23.802C348.558 23.61 348.18 23.322 347.904 22.938L348.426 22.542C348.318 22.794 348.156 23.058 347.94 23.334C347.736 23.61 347.466 23.844 347.13 24.036C346.806 24.228 346.416 24.324 345.96 24.324C345.66 24.324 345.306 24.264 344.898 24.144C344.502 24.036 344.088 23.85 343.656 23.586C343.236 23.31 342.846 22.938 342.486 22.47C342.258 22.89 342.006 23.22 341.73 23.46C341.454 23.688 341.13 23.85 340.758 23.946C340.386 24.042 339.936 24.09 339.408 24.09ZM343.53 20.346C343.65 20.526 343.794 20.706 343.962 20.886C344.13 21.066 344.316 21.228 344.52 21.372C344.724 21.504 344.94 21.612 345.168 21.696C345.408 21.78 345.642 21.822 345.87 21.822C346.11 21.822 346.308 21.732 346.464 21.552C346.62 21.36 346.626 21.078 346.482 20.706C346.422 20.55 346.338 20.376 346.23 20.184C346.134 19.98 346.02 19.788 345.888 19.608C345.768 19.428 345.63 19.278 345.474 19.158C345.33 19.038 345.18 18.978 345.024 18.978C344.868 18.978 344.706 19.026 344.538 19.122C344.37 19.218 344.202 19.368 344.034 19.572C343.866 19.764 343.698 20.022 343.53 20.346ZM350.641 24.09L350.821 21.57C351.373 21.57 351.769 21.516 352.009 21.408C352.249 21.288 352.393 21.072 352.441 20.76C352.489 20.436 352.501 19.968 352.477 19.356L352.153 10.824H354.691L355.051 19.536C355.075 20.232 355.045 20.862 354.961 21.426C354.889 21.978 354.703 22.452 354.403 22.848C354.115 23.244 353.665 23.55 353.053 23.766C352.453 23.982 351.649 24.09 350.641 24.09ZM357.424 24L357.046 10.824H359.566L359.944 24H357.424Z" fill="#223F99"/>
<path d="M13.19 125V111.909H22.1261V114.479H16.354V117.163H21.5572V119.739H16.354V125H13.19ZM27.5817 125.185C26.5504 125.185 25.6641 124.974 24.9226 124.553C24.1854 124.126 23.6165 123.534 23.2159 122.776C22.8196 122.013 22.6214 121.129 22.6214 120.123C22.6214 119.113 22.8196 118.229 23.2159 117.47C23.6165 116.707 24.1854 116.115 24.9226 115.693C25.6641 115.267 26.5504 115.054 27.5817 115.054C28.6129 115.054 29.4972 115.267 30.2344 115.693C30.9759 116.115 31.5447 116.707 31.9411 117.47C32.3416 118.229 32.5419 119.113 32.5419 120.123C32.5419 121.129 32.3416 122.013 31.9411 122.776C31.5447 123.534 30.9759 124.126 30.2344 124.553C29.4972 124.974 28.6129 125.185 27.5817 125.185ZM27.6009 122.827C27.9759 122.827 28.2933 122.712 28.5533 122.482C28.8132 122.251 29.0114 121.932 29.1477 121.523C29.2884 121.114 29.3587 120.641 29.3587 120.104C29.3587 119.558 29.2884 119.081 29.1477 118.672C29.0114 118.263 28.8132 117.943 28.5533 117.713C28.2933 117.483 27.9759 117.368 27.6009 117.368C27.2131 117.368 26.8849 117.483 26.6165 117.713C26.3523 117.943 26.1499 118.263 26.0092 118.672C25.8729 119.081 25.8047 119.558 25.8047 120.104C25.8047 120.641 25.8729 121.114 26.0092 121.523C26.1499 121.932 26.3523 122.251 26.6165 122.482C26.8849 122.712 27.2131 122.827 27.6009 122.827ZM40.4776 120.762V115.182H43.5969V125H40.6183V123.172H40.516C40.2987 123.773 39.9279 124.25 39.4038 124.604C38.8839 124.953 38.2553 125.128 37.5181 125.128C36.8491 125.128 36.261 124.974 35.7539 124.668C35.2468 124.361 34.8526 123.933 34.5714 123.383C34.2901 122.829 34.1474 122.181 34.1431 121.44V115.182H37.2688V120.826C37.2731 121.359 37.4137 121.778 37.6907 122.085C37.9677 122.392 38.3448 122.545 38.8221 122.545C39.1332 122.545 39.4123 122.477 39.6594 122.341C39.9109 122.2 40.109 121.998 40.2539 121.734C40.4031 121.465 40.4776 121.141 40.4776 120.762ZM48.7122 119.401V125H45.5865V115.182H48.5588V116.984H48.6674C48.8848 116.384 49.2555 115.913 49.7797 115.572C50.3038 115.227 50.9281 115.054 51.6525 115.054C52.3429 115.054 52.9416 115.21 53.4487 115.521C53.9601 115.827 54.3564 116.258 54.6376 116.812C54.9231 117.362 55.0637 118.005 55.0595 118.742V125H51.9338V119.356C51.938 118.81 51.7995 118.384 51.5183 118.077C51.2413 117.771 50.8556 117.617 50.3613 117.617C50.0332 117.617 49.7434 117.69 49.492 117.835C49.2449 117.975 49.0531 118.178 48.9167 118.442C48.7846 118.706 48.7164 119.026 48.7122 119.401ZM60.5806 125.141C59.8562 125.141 59.1978 124.953 58.6055 124.578C58.0131 124.203 57.5401 123.641 57.1864 122.891C56.8327 122.141 56.6559 121.21 56.6559 120.097C56.6559 118.942 56.8391 117.992 57.2056 117.246C57.5721 116.501 58.0515 115.949 58.6438 115.591C59.2404 115.233 59.8817 115.054 60.5678 115.054C61.0835 115.054 61.5245 115.143 61.891 115.322C62.2575 115.497 62.56 115.723 62.7987 116C63.0373 116.277 63.2184 116.565 63.342 116.863H63.4059V111.909H66.5316V125H63.4379V123.408H63.342C63.2099 123.711 63.0224 123.994 62.7795 124.259C62.5366 124.523 62.2319 124.736 61.8654 124.898C61.5032 125.06 61.0749 125.141 60.5806 125.141ZM61.6673 122.705C62.0465 122.705 62.3704 122.599 62.6388 122.386C62.9073 122.168 63.114 121.864 63.2589 121.472C63.4038 121.08 63.4762 120.619 63.4762 120.091C63.4762 119.554 63.4038 119.092 63.2589 118.704C63.1183 118.316 62.9116 118.018 62.6388 117.809C62.3704 117.6 62.0465 117.496 61.6673 117.496C61.2795 117.496 60.9513 117.602 60.6829 117.815C60.4144 118.028 60.2099 118.329 60.0692 118.717C59.9329 119.104 59.8647 119.562 59.8647 120.091C59.8647 120.619 59.935 121.08 60.0756 121.472C60.2163 121.864 60.4187 122.168 60.6829 122.386C60.9513 122.599 61.2795 122.705 61.6673 122.705ZM71.2761 125.166C70.6497 125.166 70.0936 125.062 69.6078 124.853C69.1262 124.64 68.7449 124.32 68.4636 123.894C68.1866 123.464 68.0481 122.925 68.0481 122.277C68.0481 121.732 68.144 121.271 68.3358 120.896C68.5275 120.521 68.7917 120.217 69.1284 119.982C69.465 119.748 69.8528 119.571 70.2917 119.452C70.7306 119.328 71.1994 119.245 71.698 119.202C72.2562 119.151 72.7058 119.098 73.0467 119.043C73.3876 118.983 73.6348 118.9 73.7882 118.793C73.9458 118.683 74.0247 118.527 74.0247 118.327V118.295C74.0247 117.967 73.9118 117.713 73.6859 117.534C73.46 117.355 73.1554 117.266 72.7718 117.266C72.3585 117.266 72.0261 117.355 71.7747 117.534C71.5233 117.713 71.3635 117.96 71.2953 118.276L68.4125 118.173C68.4977 117.577 68.7172 117.044 69.0708 116.575C69.4288 116.102 69.9189 115.732 70.541 115.463C71.1674 115.19 71.9196 115.054 72.7974 115.054C73.4238 115.054 74.0012 115.129 74.5297 115.278C75.0581 115.423 75.5183 115.636 75.9103 115.917C76.3024 116.194 76.6049 116.535 76.818 116.94C77.0353 117.344 77.144 117.807 77.144 118.327V125H74.2037V123.632H74.127C73.9522 123.964 73.7285 124.246 73.4558 124.476C73.1873 124.706 72.8699 124.879 72.5034 124.994C72.1412 125.109 71.7321 125.166 71.2761 125.166ZM72.2413 123.121C72.5779 123.121 72.8805 123.053 73.149 122.916C73.4217 122.78 73.639 122.592 73.801 122.354C73.9629 122.111 74.0439 121.83 74.0439 121.51V120.577C73.9544 120.624 73.8457 120.666 73.7179 120.705C73.5943 120.743 73.4579 120.779 73.3088 120.813C73.1596 120.847 73.0062 120.877 72.8485 120.903C72.6909 120.928 72.5396 120.952 72.3947 120.973C72.1007 121.02 71.8493 121.092 71.6404 121.19C71.4359 121.288 71.2782 121.416 71.1674 121.574C71.0609 121.727 71.0076 121.911 71.0076 122.124C71.0076 122.447 71.1227 122.695 71.3528 122.865C71.5872 123.036 71.8833 123.121 72.2413 123.121ZM84.5971 115.182V117.483H78.4032V115.182H84.5971ZM79.7008 112.83H82.8265V121.913C82.8265 122.104 82.8564 122.26 82.916 122.379C82.9799 122.494 83.0716 122.577 83.1909 122.629C83.3102 122.675 83.4529 122.699 83.6191 122.699C83.7385 122.699 83.8642 122.688 83.9963 122.667C84.1326 122.641 84.2349 122.62 84.3031 122.603L84.7761 124.859C84.627 124.902 84.416 124.955 84.1433 125.019C83.8748 125.083 83.5531 125.124 83.1781 125.141C82.4451 125.175 81.8166 125.089 81.2924 124.885C80.7725 124.676 80.3741 124.352 80.0971 123.913C79.8244 123.474 79.6923 122.923 79.7008 122.258V112.83ZM86.1919 125V115.182H89.3176V125H86.1919ZM87.758 114.038C87.3191 114.038 86.9419 113.893 86.6266 113.603C86.3113 113.309 86.1536 112.955 86.1536 112.542C86.1536 112.133 86.3113 111.783 86.6266 111.494C86.9419 111.2 87.3191 111.053 87.758 111.053C88.2012 111.053 88.5783 111.2 88.8894 111.494C89.2047 111.783 89.3624 112.133 89.3624 112.542C89.3624 112.955 89.2047 113.309 88.8894 113.603C88.5783 113.893 88.2012 114.038 87.758 114.038ZM95.8903 125.185C94.859 125.185 93.9727 124.974 93.2312 124.553C92.494 124.126 91.9251 123.534 91.5245 122.776C91.1282 122.013 90.93 121.129 90.93 120.123C90.93 119.113 91.1282 118.229 91.5245 117.47C91.9251 116.707 92.494 116.115 93.2312 115.693C93.9727 115.267 94.859 115.054 95.8903 115.054C96.9215 115.054 97.8058 115.267 98.543 115.693C99.2844 116.115 99.8533 116.707 100.25 117.47C100.65 118.229 100.85 119.113 100.85 120.123C100.85 121.129 100.65 122.013 100.25 122.776C99.8533 123.534 99.2844 124.126 98.543 124.553C97.8058 124.974 96.9215 125.185 95.8903 125.185ZM95.9094 122.827C96.2844 122.827 96.6019 122.712 96.8619 122.482C97.1218 122.251 97.32 121.932 97.4563 121.523C97.5969 121.114 97.6673 120.641 97.6673 120.104C97.6673 119.558 97.5969 119.081 97.4563 118.672C97.32 118.263 97.1218 117.943 96.8619 117.713C96.6019 117.483 96.2844 117.368 95.9094 117.368C95.5217 117.368 95.1935 117.483 94.9251 117.713C94.6609 117.943 94.4585 118.263 94.3178 118.672C94.1815 119.081 94.1133 119.558 94.1133 120.104C94.1133 120.641 94.1815 121.114 94.3178 121.523C94.4585 121.932 94.6609 122.251 94.9251 122.482C95.1935 122.712 95.5217 122.827 95.9094 122.827ZM105.577 119.401V125H102.452V115.182H105.424V116.984H105.533C105.75 116.384 106.121 115.913 106.645 115.572C107.169 115.227 107.793 115.054 108.518 115.054C109.208 115.054 109.807 115.21 110.314 115.521C110.825 115.827 111.222 116.258 111.503 116.812C111.788 117.362 111.929 118.005 111.925 118.742V125H108.799V119.356C108.803 118.81 108.665 118.384 108.384 118.077C108.107 117.771 107.721 117.617 107.227 117.617C106.898 117.617 106.609 117.69 106.357 117.835C106.11 117.975 105.918 118.178 105.782 118.442C105.65 118.706 105.582 119.026 105.577 119.401ZM120.853 111.909V125H117.727V111.909H120.853ZM127.432 125.185C126.405 125.185 125.518 124.983 124.773 124.578C124.031 124.169 123.46 123.587 123.06 122.833C122.663 122.075 122.465 121.173 122.465 120.129C122.465 119.115 122.665 118.229 123.066 117.47C123.467 116.707 124.031 116.115 124.76 115.693C125.489 115.267 126.347 115.054 127.336 115.054C128.035 115.054 128.674 115.163 129.254 115.38C129.833 115.597 130.334 115.919 130.756 116.345C131.178 116.771 131.506 117.298 131.74 117.924C131.974 118.546 132.092 119.26 132.092 120.065V120.845H123.558V119.03H129.183C129.179 118.697 129.1 118.401 128.947 118.141C128.793 117.881 128.582 117.679 128.314 117.534C128.05 117.385 127.745 117.31 127.4 117.31C127.05 117.31 126.737 117.389 126.46 117.547C126.183 117.7 125.964 117.911 125.802 118.18C125.64 118.444 125.555 118.744 125.546 119.081V120.928C125.546 121.329 125.625 121.68 125.783 121.983C125.94 122.281 126.164 122.513 126.454 122.68C126.744 122.846 127.089 122.929 127.489 122.929C127.766 122.929 128.018 122.891 128.244 122.814C128.469 122.737 128.663 122.624 128.825 122.475C128.987 122.326 129.109 122.143 129.19 121.925L132.06 122.009C131.94 122.652 131.678 123.212 131.273 123.69C130.873 124.163 130.347 124.531 129.695 124.795C129.043 125.055 128.288 125.185 127.432 125.185ZM142.949 115.182L139.58 125H136L132.638 115.182H135.93L137.739 121.945H137.841L139.657 115.182H142.949ZM148.42 125.185C147.393 125.185 146.507 124.983 145.761 124.578C145.02 124.169 144.449 123.587 144.048 122.833C143.652 122.075 143.453 121.173 143.453 120.129C143.453 119.115 143.654 118.229 144.054 117.47C144.455 116.707 145.02 116.115 145.748 115.693C146.477 115.267 147.336 115.054 148.324 115.054C149.023 115.054 149.662 115.163 150.242 115.38C150.821 115.597 151.322 115.919 151.744 116.345C152.166 116.771 152.494 117.298 152.728 117.924C152.963 118.546 153.08 119.26 153.08 120.065V120.845H144.547V119.03H150.172C150.167 118.697 150.088 118.401 149.935 118.141C149.782 117.881 149.571 117.679 149.302 117.534C149.038 117.385 148.733 117.31 148.388 117.31C148.039 117.31 147.725 117.389 147.449 117.547C147.172 117.7 146.952 117.911 146.79 118.18C146.628 118.444 146.543 118.744 146.534 119.081V120.928C146.534 121.329 146.613 121.68 146.771 121.983C146.929 122.281 147.152 122.513 147.442 122.68C147.732 122.846 148.077 122.929 148.478 122.929C148.755 122.929 149.006 122.891 149.232 122.814C149.458 122.737 149.652 122.624 149.814 122.475C149.975 122.326 150.097 122.143 150.178 121.925L153.048 122.009C152.929 122.652 152.667 123.212 152.262 123.69C151.861 124.163 151.335 124.531 150.683 124.795C150.031 125.055 149.277 125.185 148.42 125.185ZM157.802 111.909V125H154.676V111.909H157.802Z" fill="#223F99"/>
</g>
<defs>
<filter id="filter0_d_13_2" x="145" y="40" width="84" height="84" filterUnits="userSpaceOnUse" color-interpolation-filters="sRGB">
<feFlood flood-opacity="0" result="BackgroundImageFix"/>
<feColorMatrix in="SourceAlpha" type="matrix" values="0 0 0 0 0 0 0 0 0 0 0 0 0 0 0 0 0 0 127 0" result="hardAlpha"/>
<feOffset dy="4"/>
<feGaussianBlur stdDeviation="2"/>
<feComposite in2="hardAlpha" operator="out"/>
<feColorMatrix type="matrix" values="0 0 0 0 0 0 0 0 0 0 0 0 0 0 0 0 0 0 0.25 0"/>
<feBlend mode="normal" in2="BackgroundImageFix" result="effect1_dropShadow_13_2"/>
<feBlend mode="normal" in="SourceGraphic" in2="effect1_dropShadow_13_2" result="shape"/>
</filter>
<linearGradient id="paint0_linear_13_2" x1="39" y1="-127.5" x2="320" y2="185" gradientUnits="userSpaceOnUse">
<stop stop-color="#E6E6E6"/>
<stop offset="1" stop-color="#D9D9D9" stop-opacity="0"/>
</linearGradient>
<clipPath id="clip0_13_2">
<rect width="374" height="139" fill="white"/>
</clipPath>
</defs>
</svg>
