<svg width="374" height="139" viewBox="0 0 374 139" fill="none" xmlns="http://www.w3.org/2000/svg">
<g clip-path="url(#clip0_8_427)">
<rect width="374" height="138.5" fill="white"/>
<rect width="374" height="138" fill="url(#paint0_linear_8_427)"/>
<g clip-path="url(#clip1_8_427)">
<g style="mix-blend-mode:exclusion">
<g opacity="0.2">
<path fill-rule="evenodd" clip-rule="evenodd" d="M-14 85.165C-13.7146 85.149 -13.4303 85.129 -13.1439 85.108L-14 84.256V85.165ZM-11.8486 84.989L-14 82.847V81.439L-10.5834 84.836C-11.0041 84.892 -11.4258 84.943 -11.8486 84.989ZM-9.35744 84.651L-14 80.031V78.623L-8.15559 84.438C-8.5542 84.5147 -8.95481 84.5857 -9.35744 84.651ZM-6.98289 84.198C-6.59768 84.1133 -6.21515 84.0247 -5.8353 83.932L-14 75.806V77.214L-6.98289 84.198ZM-4.71385 83.639C-4.34673 83.5383 -3.98095 83.433 -3.61651 83.323L-14 72.99V74.398L-4.71485 83.639H-4.71385ZM-2.54228 82.983C-2.1899 82.867 -1.83953 82.7463 -1.49116 82.621L-14 70.174V71.583L-2.54429 82.983H-2.54228ZM-0.462158 82.238C-0.123845 82.1047 0.211118 81.9713 0.542732 81.838L-14 67.357V68.765L-0.462158 82.238ZM1.53456 81.409C1.86014 81.2643 2.18305 81.116 2.50327 80.964L-14 64.541V65.949L1.53456 81.409V81.409ZM3.45289 80.501C3.76508 80.3443 4.07492 80.1837 4.38241 80.019L-14 61.725V63.133L3.45289 80.501V80.501ZM5.29586 79.518C5.59599 79.3493 5.8941 79.1767 6.19021 79L-14 58.908V60.317L5.29385 79.517L5.29586 79.518ZM7.06648 78.465L-14 57.501V56.093L7.92566 77.911C7.64161 78.099 7.35521 78.2837 7.06648 78.465V78.465ZM8.76775 77.342L-14 54.683V53.275L9.59478 76.755C9.32145 76.955 9.04611 77.1507 8.76876 77.342H8.76775ZM10.4027 76.153L-14 51.865V50.456L11.1966 75.533C10.934 75.743 10.6693 75.9497 10.4027 76.153V76.153ZM11.9734 74.898L-14 49.05V47.643L12.73 74.243C12.4795 74.4637 12.2262 74.6807 11.9703 74.894L11.9734 74.898ZM13.4807 73.58L-14 46.235V44.826L14.2072 72.896C13.9667 73.126 13.7235 73.3537 13.4777 73.579L13.4807 73.58ZM14.9227 72.199L-14 43.418V42.01L15.6161 71.483C15.3863 71.7237 15.1542 71.962 14.9197 72.198L14.9227 72.199ZM16.3004 70.754L-14 40.602V39.195L16.9626 70.007C16.7429 70.2577 16.5211 70.5063 16.2974 70.753L16.3004 70.754ZM17.6158 69.246L-14 37.786V36.377L18.2449 68.465C18.0372 68.7263 17.8262 68.9857 17.6118 69.243L17.6158 69.246ZM18.8599 67.672L-14 34.965L-14 33.565L19.4628 66.865C19.2658 67.1377 19.0649 67.4077 18.8599 67.675V67.672ZM20.0446 66.035L-14 32.153V30.745L20.6154 65.192C20.4298 65.4753 20.2406 65.7563 20.0476 66.035H20.0446ZM21.1711 64.333L-14 29.333V27.925L21.6997 63.455C21.5248 63.749 21.347 64.0413 21.1661 64.332L21.1711 64.333ZM22.2162 62.565L-14 26.52V25.112L22.7136 61.648C22.5508 61.9547 22.3833 62.2587 22.2112 62.56L22.2162 62.565ZM23.1939 60.721L-14 23.704V22.295L23.6552 59.765C23.5051 60.083 23.351 60.3993 23.1929 60.714L23.1939 60.721ZM24.0983 58.804C24.2437 58.4767 24.3847 58.1473 24.5214 57.816L-14 19.479L-14 20.888L24.0963 58.799L24.0983 58.804ZM24.9224 56.804C25.0563 56.4627 25.1836 56.1197 25.3042 55.775L-14 16.665V18.071L24.9214 56.803L24.9224 56.804ZM25.663 54.724C25.7802 54.368 25.8924 54.0103 25.9996 53.651L-14 13.847V15.255L25.661 54.723L25.663 54.724ZM26.3131 52.555C26.4136 52.182 26.5141 51.81 26.6015 51.434L-14 11.03V12.438L26.3111 52.554L26.3131 52.555ZM26.8638 50.287C26.9482 49.897 27.0246 49.505 27.0979 49.111L-14 8.21401V9.62201L26.8618 50.286L26.8638 50.287ZM27.3039 47.908C27.3683 47.498 27.4265 47.087 27.4798 46.674L-14 5.39801L-14 6.80601L27.3009 47.906L27.3039 47.908ZM27.6245 45.408C27.6667 44.976 27.7049 44.544 27.735 44.108L-14 2.58201V3.98901L27.6215 45.409L27.6245 45.408ZM27.8044 42.771C27.8215 42.312 27.8305 41.853 27.8335 41.392L-14 -0.234993V1.17301L27.8034 42.773L27.8044 42.771ZM27.8225 39.971C27.8225 39.893 27.8225 39.815 27.8225 39.737C27.8104 39.3283 27.7927 38.9183 27.7692 38.507L-13.8885 -2.93999L-14 -2.93499V-1.64299L27.8195 39.973L27.8225 39.971ZM27.6496 36.982C27.6088 36.556 27.5625 36.1323 27.511 35.711C27.511 35.62 27.511 35.528 27.511 35.435L-11.2728 -3.15399L-12.5791 -3.04699L27.6466 36.984L27.6496 36.982ZM27.5491 34.061C27.5702 33.636 27.6004 33.196 27.6446 32.747L-8.65804 -3.36799L-9.96439 -3.26099L27.5411 34.065L27.5491 34.061ZM27.7973 31.491C27.8546 31.091 27.924 30.691 28.0044 30.291L-6.04231 -3.58099L-7.34867 -3.47399L27.7893 31.493L27.7973 31.491ZM28.2676 29.144C28.3621 28.7793 28.4676 28.415 28.5842 28.051L-3.42658 -3.79499L-4.73294 -3.68799L28.2606 29.146L28.2676 29.144ZM28.955 27.012C29.0849 26.6787 29.2266 26.35 29.38 26.026L-0.810854 -4.00799L-2.11721 -3.90099L28.9479 27.014L28.955 27.012ZM29.8594 25.094C30.0262 24.794 30.2031 24.503 30.392 24.216L1.80387 -4.22199L0.497512 -4.11499L29.8503 25.096L29.8594 25.094ZM30.9808 23.394C31.1818 23.132 31.3969 22.8763 31.626 22.627L4.4196 -4.43499L3.11324 -4.32899L30.9718 23.396L30.9808 23.394ZM32.3254 21.916L5.736 -4.54399L7.04236 -4.65099L33.077 21.265C32.8091 21.475 32.5555 21.6923 32.3163 21.917L32.3254 21.916ZM33.9 20.666L8.34268 -4.75499L9.64904 -4.86299L34.7612 20.127C34.4698 20.294 34.1784 20.473 33.89 20.668L33.9 20.666ZM35.7008 19.641L10.9594 -4.96999L12.2658 -5.07699L36.6846 19.223C36.352 19.345 36.0194 19.483 35.6877 19.639L35.7008 19.641ZM37.7679 18.881L13.5741 -5.18299L14.8805 -5.28999L38.9114 18.623C38.5289 18.6897 38.1444 18.7763 37.7578 18.883L37.7679 18.881ZM40.1695 18.456L16.1889 -5.39699L17.4952 -5.50399L41.5211 18.403C41.076 18.403 40.6167 18.418 40.1605 18.458L40.1695 18.456ZM43.0254 18.481L18.8046 -5.61099L20.1109 -5.71799L44.6855 18.733C44.1559 18.628 43.5992 18.541 43.0194 18.483L43.0254 18.481ZM46.5888 19.211L21.4203 -5.82399L22.7267 -5.93099L48.8538 20.074C48.1132 19.7392 47.352 19.4517 46.5747 19.213L46.5888 19.211ZM51.8705 21.665L24.035 -6.03499L25.3414 -6.14199L54.4621 22.832C53.5811 22.4753 52.7173 22.085 51.8705 21.661V21.665ZM56.701 23.656L26.6548 -6.24399L27.9611 -6.35099L58.7148 24.248C58.0368 24.0687 57.3669 23.8687 56.705 23.648L56.701 23.656ZM60.5688 24.688L29.2675 -6.46399L30.5739 -6.57099L62.2982 24.998C61.7167 24.908 61.1399 24.8037 60.5678 24.685L60.5688 24.688ZM63.9312 25.217C64.445 25.273 64.9615 25.3177 65.4807 25.351L33.1906 -6.78499L31.8842 -6.67799L63.9302 25.213L63.9312 25.217ZM66.9599 25.417C67.4289 25.4277 67.9018 25.4277 68.3788 25.417L35.8063 -6.99899L34.5 -6.89199L66.9579 25.408L66.9599 25.417ZM69.7465 25.373C70.0734 25.3557 70.4003 25.3333 70.7272 25.306C70.8398 25.297 70.9503 25.285 71.0629 25.274L38.421 -7.21299L37.1147 -7.106L69.7455 25.365L69.7465 25.373ZM72.3391 25.137C72.7538 25.0843 73.1661 25.0247 73.5761 24.958L41.0368 -7.42599L39.7304 -7.31899L72.3391 25.132V25.137ZM74.7739 24.743C75.1638 24.665 75.5527 24.584 75.9386 24.493L43.6525 -7.63499L42.3461 -7.52799L74.7729 24.738L74.7739 24.743ZM77.0701 24.211C77.4386 24.1123 77.805 24.008 78.1694 23.898L46.2682 -7.85299L44.9619 -7.74599L77.0691 24.206L77.0701 24.211ZM79.2417 23.555C79.592 23.4377 79.9404 23.315 80.2868 23.187L48.8829 -8.06699L47.5766 -7.95999L79.2417 23.55V23.555ZM81.3017 22.789C81.6367 22.6557 81.9669 22.515 82.2925 22.367L51.4997 -8.27999L50.1933 -8.17299L81.3007 22.784L81.3017 22.789ZM83.2602 21.921C83.5778 21.769 83.8923 21.613 84.2038 21.453L54.1144 -8.49399L52.808 -8.38699L83.2562 21.913L83.2602 21.921ZM85.1233 20.959C85.4241 20.791 85.7229 20.6187 86.0196 20.442L56.7291 -8.70799L55.4228 -8.60099L85.1213 20.954L85.1233 20.959ZM86.8939 19.905C87.1813 19.722 87.4667 19.537 87.7481 19.347L59.3449 -8.92099L58.0385 -8.81399L86.8909 19.901L86.8939 19.905ZM88.5821 18.768C88.8554 18.568 89.1248 18.368 89.3931 18.168L61.9596 -9.13199L60.6532 -9.02599L88.5801 18.765L88.5821 18.768ZM90.1839 17.545L63.2679 -9.24199L64.5743 -9.34899L90.9506 16.899C90.6974 17.117 90.4405 17.331 90.1799 17.541L90.1839 17.545ZM91.7063 16.245L65.8887 -9.45499L67.1951 -9.56199L92.4359 15.565C92.1957 15.795 91.9515 16.021 91.7043 16.244L91.7063 16.245ZM93.1493 14.865L68.5014 -9.66899L69.8078 -9.77599L93.8387 14.138C93.6116 14.3813 93.3811 14.6217 93.1473 14.859L93.1493 14.865ZM94.511 13.404L71.1141 -9.88199L72.4205 -9.98899L95.1601 12.639C94.9464 12.895 94.7287 13.148 94.5069 13.398L94.511 13.404ZM95.7952 11.866L73.7268 -10.096L75.0332 -10.203L96.4062 11.065C96.2052 11.3317 96.0009 11.5983 95.7932 11.865L95.7952 11.866ZM97.0011 10.246L76.3506 -10.304L77.657 -10.411L97.5698 9.40401C97.3836 9.68734 97.194 9.96801 97.0011 10.246ZM98.1195 8.54601L78.9663 -10.514L80.2727 -10.621L98.6481 7.65501C98.4759 7.95167 98.2997 8.24601 98.1195 8.53801V8.54601ZM99.1536 6.75901L81.576 -10.735L82.8824 -10.842L99.6279 5.82201C99.4711 6.13401 99.3123 6.44501 99.1465 6.75101L99.1536 6.75901ZM100.094 4.87801L84.1928 -10.95L85.4991 -11.056L100.524 3.89501C100.384 4.22301 100.238 4.54701 100.088 4.87001L100.094 4.87801ZM100.94 2.90401L86.8115 -11.156L88.1179 -11.263L101.318 1.86501C101.195 2.20967 101.068 2.55201 100.935 2.89201L100.94 2.90401ZM101.68 0.823006C101.794 0.465006 101.906 0.105011 102.008 -0.256989L90.7306 -11.484L89.4242 -11.377L101.676 0.81501L101.68 0.823006ZM102.306 -1.37C102.401 -1.74866 102.49 -2.12966 102.572 -2.51299L93.3503 -11.689L92.044 -11.582L102.306 -1.36899V-1.37ZM102.808 -3.68799C102.881 -4.08799 102.944 -4.49699 103.002 -4.90399L95.9681 -11.904L94.6617 -11.797L102.809 -3.68899L102.808 -3.68799ZM103.16 -6.15499C103.206 -6.58499 103.243 -7.01833 103.273 -7.45499L98.5778 -12.125L97.2714 -12.018L103.155 -6.16299L103.16 -6.15499ZM103.341 -8.78999C103.356 -9.25299 103.358 -9.71799 103.356 -10.184L101.192 -12.335L99.8861 -12.228L103.336 -8.79499L103.341 -8.78999ZM103.316 -11.632L102.512 -12.432L103.268 -12.494C103.282 -12.2133 103.296 -11.929 103.31 -11.641L103.316 -11.632Z" fill="#6D6D6D"/>
<path fill-rule="evenodd" clip-rule="evenodd" d="M-14 69.991C-13.2142 70.0357 -12.4217 70.058 -11.6225 70.058C-0.732443 70.0578 9.74234 65.8993 17.642 58.4399C25.5417 50.9806 30.264 40.7891 30.8351 29.967V29.967C30.8733 29.2337 30.8924 28.4953 30.8924 27.752C30.8924 27.201 30.8783 26.652 30.8572 26.104C31.1587 22.075 32.4651 15.904 37.3961 12.695C45.1026 7.66802 53.3517 13.388 53.3517 13.388C58.4249 16.9341 64.3757 19.0329 70.5606 19.4574C76.7456 19.882 82.9296 18.6162 88.4441 15.7969C93.9585 12.9776 98.5938 8.71205 101.849 3.46127C105.104 -1.7895 106.855 -7.82575 106.912 -13.995L-14 -13.995L-14 69.991Z" fill="#676767"/>
<path fill-rule="evenodd" clip-rule="evenodd" d="M-14 31.889C-6.68302 32.1205 0.597831 30.7755 7.34382 27.946C18.9923 23.0873 28.4014 14.0805 33.7322 2.68602C34.3543 1.35602 34.927 -0.0329856 35.5008 -1.42199C37.5056 -6.27499 39.5144 -11.141 43.9128 -14H42.3693C38.4884 -10.974 36.5811 -6.35998 34.6808 -1.75698C34.1161 -0.386985 33.5493 0.982018 32.9263 2.31702C27.6905 13.5129 18.4467 22.363 7.00216 27.137C0.36422 29.9207 -6.80055 31.2416 -14 31.009L-14 31.889ZM60.1819 -13.999C62.2824 -12.7095 64.1339 -11.0561 65.6485 -9.11699L65.6726 -9.08698C69.7332 -3.44809 75.1786 1.06082 81.4888 4.0092C87.799 6.95757 94.7634 8.24698 101.717 7.75431C108.671 7.26163 115.381 5.00332 121.208 1.19501C127.035 -2.61331 131.783 -7.84447 135 -13.999H134.002C130.806 -8.0405 126.135 -2.99239 120.431 0.667347C114.726 4.32708 108.178 6.4773 101.405 6.9144C94.6319 7.3515 87.859 6.06101 81.7274 3.16512C75.5958 0.269244 70.3084 -4.13618 66.366 -9.63398V-9.63398C66.358 -9.64598 66.3489 -9.65698 66.3399 -9.66798C65.0395 -11.326 63.5017 -12.7851 61.7757 -13.999H60.1819Z" fill="#6D6D6D"/>
</g>
</g>
<g style="mix-blend-mode:exclusion">
<g opacity="0.2">
<path fill-rule="evenodd" clip-rule="evenodd" d="M387 53C386.715 53.0161 386.43 53.0362 386.144 53.0574L387 53.9151V53ZM384.849 53.1772L387 55.3337V56.7512L383.583 53.3312C384.004 53.2748 384.426 53.2235 384.849 53.1772ZM382.357 53.5175L387 58.1687V59.5862L381.156 53.7319C381.554 53.6547 381.955 53.5832 382.357 53.5175ZM379.983 53.9735C379.598 54.0588 379.215 54.148 378.835 54.2413L387 62.4222V61.0047L379.983 53.9735ZM377.714 54.5363C377.347 54.6377 376.981 54.7437 376.616 54.8544L387 65.2573V63.8397L377.715 54.5363H377.714ZM375.542 55.1967C375.19 55.3135 374.839 55.435 374.491 55.5612L387 68.0923V66.6738L375.544 55.1967H375.542ZM373.462 55.9468C373.124 56.081 372.789 56.2152 372.457 56.3495L387 70.9283V69.5108L373.462 55.9468ZM371.465 56.7814C371.14 56.927 370.817 57.0764 370.497 57.2294L387 73.7633V72.3458L371.465 56.7814V56.7814ZM369.547 57.6955C369.235 57.8532 368.925 58.015 368.618 58.1808L387 76.5984V75.1809L369.547 57.6955V57.6955ZM367.704 58.6852C367.404 58.855 367.106 59.0288 366.81 59.2067L387 79.4344V78.0159L367.706 58.6862L367.704 58.6852ZM365.933 59.7453L387 80.8509V82.2684L365.074 60.303C365.358 60.1137 365.645 59.9278 365.933 59.7453V59.7453ZM364.232 60.8759L387 83.6879V85.1055L363.405 61.4668C363.679 61.2655 363.954 61.0685 364.231 60.8759H364.232ZM362.597 62.0729L387 86.525V87.9435L361.803 62.6971C362.066 62.4857 362.331 62.2776 362.597 62.0729V62.0729ZM361.027 63.3364L387 89.359V90.7755L360.27 63.9958C360.52 63.7736 360.774 63.5552 361.03 63.3404L361.027 63.3364ZM359.519 64.6633L387 92.193V93.6115L358.793 65.3519C359.033 65.1203 359.276 64.8911 359.522 64.6643L359.519 64.6633ZM358.077 66.0536L387 95.0291V96.4466L357.384 66.7744C357.614 66.5321 357.846 66.2922 358.08 66.0546L358.077 66.0536ZM356.7 67.5084L387 97.8641V99.2806L356.037 68.2604C356.257 68.0081 356.479 67.7577 356.703 67.5094L356.7 67.5084ZM355.384 69.0266L387 100.699V102.118L354.755 69.8128C354.963 69.5497 355.174 69.2886 355.388 69.0296L355.384 69.0266ZM354.14 70.6112L387 103.539V104.949L353.537 71.4236C353.734 71.1491 353.935 70.8773 354.14 70.6082V70.6112ZM352.955 72.2592L387 106.37V107.788L352.385 73.1079C352.57 72.8227 352.759 72.5398 352.952 72.2592H352.955ZM351.829 73.9728L387 109.209V110.627L351.3 74.8567C351.475 74.5607 351.653 74.2664 351.834 73.9738L351.829 73.9728ZM350.784 75.7527L387 112.041V113.459L350.286 76.6759C350.449 76.3672 350.617 76.0611 350.789 75.7577L350.784 75.7527ZM349.806 77.6092L387 114.876V116.295L349.345 78.5716C349.495 78.2515 349.649 77.933 349.807 77.6162L349.806 77.6092ZM348.902 79.5391C348.756 79.8687 348.615 80.2002 348.479 80.5338L387 119.13V117.711L348.904 79.5441L348.902 79.5391ZM348.078 81.5526C347.944 81.8963 347.816 82.2416 347.696 82.5886L387 121.963V120.547L348.079 81.5536L348.078 81.5526ZM347.337 83.6467C347.22 84.0051 347.108 84.3652 347 84.7269L387 124.8V123.382L347.339 83.6477L347.337 83.6467ZM346.687 85.8303C346.586 86.2058 346.486 86.5804 346.398 86.9589L387 127.636V126.218L346.689 85.8313L346.687 85.8303ZM346.136 88.1136C346.052 88.5063 345.975 88.9009 345.902 89.2976L387 130.471V129.053L346.138 88.1147L346.136 88.1136ZM345.696 90.5087C345.632 90.9215 345.573 91.3353 345.52 91.7511L387 133.306V131.888L345.699 90.5107L345.696 90.5087ZM345.375 93.0256C345.333 93.4605 345.295 93.8955 345.265 94.3344L387 136.141V134.724L345.378 93.0246L345.375 93.0256ZM345.196 95.6804C345.179 96.1425 345.169 96.6046 345.166 97.0687L387 138.977V137.559L345.197 95.6784L345.196 95.6804ZM345.177 98.4994C345.177 98.5779 345.177 98.6564 345.177 98.7349C345.19 99.1464 345.207 99.5591 345.231 99.9732L386.888 141.7L387 141.695V140.395L345.181 98.4973L345.177 98.4994ZM345.35 101.509C345.391 101.937 345.437 102.364 345.489 102.788C345.489 102.88 345.489 102.972 345.489 103.066L384.273 141.916L385.579 141.808L345.353 101.507L345.35 101.509ZM345.451 104.449C345.43 104.877 345.4 105.32 345.355 105.772L381.658 142.131L382.964 142.023L345.459 104.445L345.451 104.449ZM345.203 107.037C345.145 107.439 345.076 107.842 344.996 108.245L379.042 142.346L380.349 142.238L345.211 107.035L345.203 107.037ZM344.732 109.4C344.638 109.767 344.532 110.133 344.416 110.5L376.427 142.561L377.733 142.453L344.739 109.397L344.732 109.4ZM344.045 111.546C343.915 111.881 343.773 112.212 343.62 112.539L373.811 142.775L375.117 142.668L344.052 111.544L344.045 111.546ZM343.141 113.477C342.974 113.779 342.797 114.072 342.608 114.361L371.196 142.991L372.502 142.883L343.15 113.475L343.141 113.477ZM342.019 115.188C341.818 115.452 341.603 115.71 341.374 115.961L368.58 143.205L369.887 143.099L342.028 115.186L342.019 115.188ZM340.675 116.676L367.264 143.315L365.958 143.423L339.923 117.332C340.191 117.12 340.444 116.902 340.684 116.675L340.675 116.676ZM339.1 117.935L364.657 143.528L363.351 143.636L338.239 118.477C338.53 118.309 338.822 118.129 339.11 117.933L339.1 117.935ZM337.299 118.967L362.041 143.744L360.734 143.852L336.315 119.388C336.648 119.265 336.981 119.126 337.312 118.969L337.299 118.967ZM335.232 119.732L359.426 143.958L358.119 144.066L334.089 119.992C334.471 119.924 334.856 119.837 335.242 119.73L335.232 119.732ZM332.83 120.16L356.811 144.174L355.505 144.282L331.479 120.213C331.924 120.213 332.383 120.198 332.839 120.158L332.83 120.16ZM329.975 120.135L354.195 144.389L352.889 144.497L328.314 119.881C328.844 119.987 329.401 120.074 329.981 120.133L329.975 120.135ZM326.411 119.4L351.58 144.604L350.273 144.711L324.146 118.531C324.887 118.868 325.648 119.157 326.425 119.398L326.411 119.4ZM321.129 116.929L348.965 144.816L347.659 144.924L318.538 115.754C319.419 116.113 320.283 116.506 321.129 116.933V116.929ZM316.299 114.925L346.345 145.027L345.039 145.134L314.285 114.329C314.963 114.509 315.633 114.71 316.295 114.933L316.299 114.925ZM312.431 113.886L343.732 145.248L342.426 145.356L310.702 113.574C311.283 113.664 311.86 113.769 312.432 113.889L312.431 113.886ZM309.069 113.353C308.555 113.297 308.038 113.252 307.519 113.218L339.809 145.571L341.116 145.464L309.07 113.357L309.069 113.353ZM306.04 113.152C305.571 113.141 305.098 113.141 304.621 113.152L337.194 145.787L338.5 145.679L306.042 113.161L306.04 113.152ZM303.254 113.196C302.927 113.213 302.6 113.236 302.273 113.263C302.16 113.272 302.05 113.285 301.937 113.296L334.579 146.002L335.885 145.894L303.255 113.204L303.254 113.196ZM300.661 113.434C300.246 113.487 299.834 113.547 299.424 113.614L331.963 146.217L333.27 146.109L300.661 113.439V113.434ZM298.226 113.83C297.836 113.909 297.447 113.99 297.061 114.082L329.347 146.427L330.654 146.319L298.227 113.835L298.226 113.83ZM295.93 114.366C295.561 114.465 295.195 114.57 294.831 114.681L326.732 146.646L328.038 146.539L295.931 114.371L295.93 114.366ZM293.758 115.026C293.408 115.144 293.06 115.268 292.713 115.397L324.117 146.862L325.423 146.754L293.758 115.031V115.026ZM291.698 115.797C291.363 115.932 291.033 116.073 290.707 116.222L321.5 147.076L322.807 146.969L291.699 115.802L291.698 115.797ZM289.74 116.671C289.422 116.824 289.108 116.981 288.796 117.142L318.886 147.292L320.192 147.184L289.744 116.679L289.74 116.671ZM287.877 117.64C287.576 117.809 287.277 117.982 286.98 118.16L316.271 147.507L317.577 147.4L287.879 117.645L287.877 117.64ZM286.106 118.701C285.819 118.885 285.533 119.071 285.252 119.263L313.655 147.722L314.961 147.614L286.109 118.705L286.106 118.701ZM284.418 119.846C284.145 120.047 283.875 120.248 283.607 120.45L311.04 147.934L312.347 147.827L284.42 119.849L284.418 119.846ZM282.816 121.077L309.732 148.045L308.426 148.153L282.049 121.727C282.303 121.508 282.559 121.292 282.82 121.081L282.816 121.077ZM281.294 122.386L307.111 148.259L305.805 148.367L280.564 123.07C280.804 122.839 281.048 122.611 281.296 122.387L281.294 122.386ZM279.851 123.775L304.499 148.475L303.192 148.582L279.161 124.507C279.388 124.262 279.619 124.02 279.853 123.781L279.851 123.775ZM278.489 125.246L301.886 148.689L300.579 148.797L277.84 126.016C278.054 125.758 278.271 125.504 278.493 125.252L278.489 125.246ZM277.205 126.794L299.273 148.905L297.967 149.012L276.594 127.601C276.795 127.332 276.999 127.064 277.207 126.795L277.205 126.794ZM275.999 128.425L296.649 149.114L295.343 149.222L275.43 129.273C275.616 128.988 275.806 128.705 275.999 128.425ZM274.88 130.137L294.034 149.325L292.727 149.433L274.352 131.034C274.524 130.735 274.7 130.439 274.88 130.145V130.137ZM273.846 131.936L291.424 149.548L290.118 149.656L273.372 132.879C273.529 132.565 273.688 132.252 273.853 131.944L273.846 131.936ZM272.906 133.829L288.807 149.764L287.501 149.871L272.476 134.819C272.616 134.489 272.762 134.163 272.912 133.838L272.906 133.829ZM272.06 135.817L286.188 149.972L284.882 150.08L271.682 136.863C271.804 136.516 271.932 136.171 272.065 135.829L272.06 135.817ZM271.32 137.912C271.206 138.272 271.094 138.635 270.992 138.999L282.269 150.302L283.576 150.194L271.324 137.92L271.32 137.912ZM270.694 140.12C270.599 140.501 270.51 140.884 270.428 141.27L279.65 150.508L280.956 150.401L270.694 140.119V140.12ZM270.192 142.453C270.119 142.856 270.056 143.268 269.998 143.678L277.032 150.725L278.338 150.617L270.191 142.454L270.192 142.453ZM269.84 144.937C269.794 145.37 269.757 145.806 269.727 146.246L274.422 150.947L275.729 150.84L269.845 144.945L269.84 144.937ZM269.659 147.59C269.644 148.056 269.642 148.524 269.644 148.993L271.807 151.159L273.114 151.051L269.664 147.595L269.659 147.59ZM269.684 150.451L270.488 151.256L269.732 151.319C269.718 151.036 269.704 150.75 269.69 150.46L269.684 150.451Z" fill="#6D6D6D"/>
<path fill-rule="evenodd" clip-rule="evenodd" d="M387 68.2765C386.214 68.2316 385.422 68.2091 384.622 68.2091C373.732 68.2093 363.258 72.3959 355.358 79.9056C347.458 87.4154 342.736 97.6757 342.165 108.571V108.571C342.127 109.309 342.108 110.053 342.108 110.801C342.108 111.356 342.122 111.908 342.143 112.46C341.841 116.516 340.535 122.729 335.604 125.96C327.897 131.021 319.648 125.262 319.648 125.262C314.575 121.692 308.624 119.579 302.439 119.152C296.254 118.724 290.07 119.998 284.556 122.837C279.041 125.675 274.406 129.97 271.151 135.256C267.896 140.542 266.145 146.619 266.088 152.83H387V68.2765Z" fill="#676767"/>
<path fill-rule="evenodd" clip-rule="evenodd" d="M387 106.636C379.683 106.403 372.402 107.757 365.656 110.606C354.008 115.497 344.599 124.565 339.268 136.036C338.646 137.375 338.073 138.774 337.499 140.172C335.494 145.058 333.486 149.957 329.087 152.835H330.631C334.512 149.789 336.419 145.143 338.319 140.509C338.884 139.13 339.451 137.752 340.074 136.408C345.31 125.136 354.553 116.226 365.998 111.42C372.636 108.618 379.801 107.288 387 107.522V106.636ZM312.818 152.834C310.718 151.536 308.866 149.871 307.351 147.919L307.327 147.889C303.267 142.212 297.821 137.672 291.511 134.704C285.201 131.736 278.237 130.438 271.283 130.934C264.329 131.43 257.619 133.703 251.792 137.537C245.965 141.371 241.217 146.638 238 152.834H238.998C242.194 146.835 246.865 141.753 252.569 138.069C258.274 134.384 264.822 132.219 271.595 131.779C278.368 131.339 285.141 132.638 291.273 135.554C297.404 138.469 302.692 142.905 306.634 148.44V148.44C306.642 148.452 306.651 148.463 306.66 148.474C307.961 150.143 309.498 151.612 311.224 152.834H312.818Z" fill="#6D6D6D"/>
</g>
</g>
<g opacity="0.9">
<g filter="url(#filter0_d_8_427)">
<circle cx="175" cy="83" r="34" fill="#223F99"/>
<circle cx="175" cy="83" r="36" stroke="#FFCB57" stroke-width="4"/>
</g>
<path d="M162.387 61.795V84.95H168.327C169.372 81.98 171.847 79.945 175.532 79.945C180.757 79.945 183.342 82.915 183.342 88.14C183.342 93.09 180.922 96.775 175.532 96.775C171.297 96.775 168.437 94.575 167.612 91.165H161.507C162.442 97.435 167.227 102 175.477 102C184.772 102 189.337 95.95 189.337 87.975C189.337 81.925 186.312 74.61 176.467 74.61C172.892 74.61 169.647 76.26 168.162 78.24V67.295H186.587V61.795H162.387Z" fill="#FFCB57"/>
<path d="M162.387 61.795V60.795H161.387V61.795H162.387ZM162.387 84.95H161.387V85.95H162.387V84.95ZM168.327 84.95V85.95H169.035L169.27 85.2819L168.327 84.95ZM167.612 91.165L168.583 90.9298L168.398 90.165H167.612V91.165ZM161.507 91.165V90.165H160.346L160.517 91.3125L161.507 91.165ZM168.162 78.24H167.162V81.24L168.962 78.84L168.162 78.24ZM168.162 67.295V66.295H167.162V67.295H168.162ZM186.587 67.295V68.295H187.587V67.295H186.587ZM186.587 61.795H187.587V60.795H186.587V61.795ZM161.387 61.795V84.95H163.387V61.795H161.387ZM162.387 85.95H168.327V83.95H162.387V85.95ZM169.27 85.2819C170.181 82.6927 172.291 80.945 175.532 80.945V78.945C171.402 78.945 168.562 81.2673 167.383 84.6181L169.27 85.2819ZM175.532 80.945C177.955 80.945 179.607 81.6292 180.664 82.7645C181.733 83.9123 182.342 85.679 182.342 88.14H184.342C184.342 85.376 183.658 83.0452 182.128 81.4017C180.586 79.7458 178.333 78.945 175.532 78.945V80.945ZM182.342 88.14C182.342 90.4676 181.771 92.371 180.688 93.6749C179.63 94.9496 177.98 95.775 175.532 95.775V97.775C178.473 97.775 180.728 96.7579 182.227 94.9526C183.702 93.1765 184.342 90.7624 184.342 88.14H182.342ZM175.532 95.775C171.689 95.775 169.284 93.8272 168.583 90.9298L166.64 91.4002C167.589 95.3228 170.904 97.775 175.532 97.775V95.775ZM167.612 90.165H161.507V92.165H167.612V90.165ZM160.517 91.3125C161.017 94.6644 162.557 97.607 165.114 99.7066C167.669 101.805 171.165 103 175.477 103V101C171.538 101 168.517 99.9128 166.383 98.1609C164.251 96.4105 162.931 93.9356 162.496 91.0175L160.517 91.3125ZM175.477 103C180.352 103 184.104 101.406 186.629 98.6543C189.142 95.9167 190.337 92.1463 190.337 87.975H188.337C188.337 91.7787 187.249 95.0208 185.155 97.3019C183.075 99.5692 179.896 101 175.477 101V103ZM190.337 87.975C190.337 84.8057 189.547 81.2261 187.386 78.4143C185.192 75.5598 181.669 73.61 176.467 73.61V75.61C181.109 75.61 184.021 77.3177 185.801 79.6332C187.613 81.9914 188.337 85.0943 188.337 87.975H190.337ZM176.467 73.61C172.631 73.61 169.065 75.3681 167.362 77.64L168.962 78.84C170.228 77.1519 173.152 75.61 176.467 75.61V73.61ZM169.162 78.24V67.295H167.162V78.24H169.162ZM168.162 68.295H186.587V66.295H168.162V68.295ZM187.587 67.295V61.795H185.587V67.295H187.587ZM186.587 60.795H162.387V62.795H186.587V60.795Z" fill="white"/>
</g>
<path d="M217.497 37.524C216.561 37.524 215.716 37.4135 214.962 37.1925C214.208 36.9845 213.558 36.666 213.012 36.237C212.466 35.808 212.043 35.275 211.744 34.638C211.458 34.014 211.315 33.286 211.315 32.454C211.315 32.155 211.341 31.804 211.393 31.401C211.445 30.998 211.543 30.543 211.686 30.036C211.829 29.516 212.043 28.9375 212.329 28.3005L214.728 29.139C214.585 29.542 214.461 29.9125 214.357 30.2505C214.253 30.5755 214.175 30.881 214.123 31.167C214.071 31.44 214.045 31.713 214.045 31.986C214.045 32.493 214.162 32.961 214.396 33.39C214.63 33.819 215.007 34.157 215.527 34.404C216.047 34.664 216.73 34.794 217.575 34.794C218.355 34.794 219.005 34.703 219.525 34.521C220.045 34.352 220.454 34.1115 220.753 33.7995C221.052 33.5005 221.267 33.1495 221.397 32.7465C221.527 32.3435 221.592 31.908 221.592 31.44C221.592 31.076 221.546 30.6665 221.455 30.2115C221.377 29.7565 221.26 29.2625 221.104 28.7295C220.948 28.1835 220.773 27.6115 220.578 27.0135L223.308 26.3115C223.49 27.0655 223.633 27.6505 223.737 28.0665C223.854 28.4825 223.945 28.7945 224.01 29.0025C224.14 29.3925 224.296 29.6915 224.478 29.8995C224.673 30.0945 224.887 30.2245 225.121 30.2895C225.368 30.3545 225.641 30.387 225.94 30.387C226.187 30.387 226.415 30.348 226.623 30.27C226.831 30.192 227.019 30.0295 227.188 29.7825C227.37 29.5225 227.533 29.126 227.676 28.593C227.819 28.06 227.949 27.3255 228.066 26.3895L230.64 26.799C230.588 27.098 230.536 27.4165 230.484 27.7545C230.432 28.0925 230.386 28.411 230.347 28.71C230.308 28.996 230.289 29.23 230.289 29.412C230.289 29.581 230.334 29.737 230.425 29.88C230.529 30.023 230.711 30.14 230.971 30.231C231.231 30.322 231.602 30.3675 232.083 30.3675C232.681 30.3675 233.116 30.244 233.389 29.997C233.675 29.737 233.818 29.347 233.818 28.827C233.818 28.528 233.812 28.2095 233.799 27.8715C233.786 27.5205 233.76 27.1305 233.721 26.7015C233.695 26.2595 233.643 25.759 233.565 25.2L236.08 25.005C236.184 26.214 236.301 27.176 236.431 27.891C236.561 28.606 236.73 29.1455 236.938 29.5095C237.159 29.8605 237.439 30.0945 237.777 30.2115C238.115 30.3155 238.537 30.3675 239.044 30.3675C239.538 30.3675 239.889 30.4975 240.097 30.7575C240.318 31.0045 240.429 31.3165 240.429 31.6935C240.429 32.0965 240.292 32.4345 240.019 32.7075C239.746 32.9675 239.356 33.0975 238.849 33.0975C238.303 33.0975 237.777 33.026 237.27 32.883C236.763 32.74 236.314 32.4865 235.924 32.1225C235.547 31.7455 235.261 31.219 235.066 30.543L235.807 30.66C235.638 31.362 235.352 31.8885 234.949 32.2395C234.559 32.5905 234.117 32.8245 233.623 32.9415C233.129 33.0455 232.635 33.0975 232.141 33.0975C231.491 33.0975 230.913 33 230.406 32.805C229.912 32.61 229.522 32.3305 229.236 31.9665C228.963 31.6025 228.833 31.1605 228.846 30.6405H229.509C229.314 31.3555 229.047 31.8885 228.709 32.2395C228.371 32.5905 227.994 32.8245 227.578 32.9415C227.162 33.0455 226.74 33.0975 226.311 33.0975C225.973 33.0975 225.648 33.065 225.336 33C225.024 32.935 224.738 32.831 224.478 32.688C224.231 32.532 224.016 32.3305 223.834 32.0835C223.652 31.8235 223.529 31.5115 223.464 31.1475L224.185 31.9275C224.159 32.8115 223.984 33.598 223.659 34.287C223.334 34.976 222.879 35.561 222.294 36.042C221.722 36.523 221.026 36.887 220.207 37.134C219.401 37.394 218.498 37.524 217.497 37.524ZM238.877 33.0975L239.072 30.3675C239.371 30.3675 239.625 30.296 239.833 30.153C240.054 29.997 240.281 29.7435 240.515 29.3925C240.749 29.0285 241.022 28.541 241.334 27.93C241.724 27.15 242.127 26.539 242.543 26.097C242.972 25.655 243.408 25.343 243.85 25.161C244.305 24.966 244.76 24.8685 245.215 24.8685C245.787 24.8685 246.32 24.992 246.814 25.239C247.308 25.486 247.737 25.824 248.101 26.253C248.465 26.669 248.744 27.15 248.939 27.696C249.147 28.229 249.251 28.7815 249.251 29.3535C249.251 30.0425 249.102 30.6665 248.803 31.2255C248.517 31.7715 248.114 32.207 247.594 32.532C247.087 32.844 246.502 33 245.839 33C245.28 33 244.63 32.9025 243.889 32.7075C243.148 32.5125 242.368 32.103 241.549 31.479L242.543 29.1195C243.128 29.5225 243.674 29.815 244.181 29.997C244.701 30.179 245.13 30.27 245.468 30.27C245.728 30.27 245.943 30.244 246.112 30.192C246.281 30.14 246.404 30.0555 246.482 29.9385C246.56 29.8215 246.599 29.6655 246.599 29.4705C246.599 29.1975 246.534 28.918 246.404 28.632C246.274 28.346 246.099 28.1055 245.878 27.9105C245.67 27.7025 245.423 27.5985 245.137 27.5985C244.864 27.5985 244.63 27.7025 244.435 27.9105C244.253 28.1055 244.071 28.3915 243.889 28.7685C243.72 29.1325 243.512 29.5615 243.265 30.0555C242.966 30.6535 242.673 31.154 242.387 31.557C242.101 31.947 241.796 32.259 241.471 32.493C241.159 32.714 240.788 32.87 240.359 32.961C239.943 33.052 239.449 33.0975 238.877 33.0975ZM256.409 33.0975C255.2 33.0975 254.264 32.974 253.601 32.727C252.951 32.48 252.496 32.0965 252.236 31.5765C251.976 31.0435 251.826 30.374 251.787 29.568L251.378 18.726H254.108L254.517 28.2615C254.543 28.8595 254.608 29.308 254.712 29.607C254.816 29.906 255.011 30.1075 255.297 30.2115C255.596 30.3155 256.032 30.3675 256.604 30.3675C257.098 30.3675 257.449 30.4975 257.657 30.7575C257.878 31.0045 257.988 31.3165 257.988 31.6935C257.988 32.0965 257.852 32.4345 257.579 32.7075C257.306 32.9675 256.916 33.0975 256.409 33.0975ZM269.188 33.0975C268.59 33.0975 268.031 33.052 267.511 32.961C267.004 32.87 266.536 32.714 266.107 32.493C265.678 32.259 265.295 31.9405 264.957 31.5375C264.632 31.1345 264.359 30.6275 264.138 30.0165L265.678 28.788C265.912 29.204 266.198 29.529 266.536 29.763C266.874 29.984 267.277 30.14 267.745 30.231C268.213 30.322 268.759 30.3675 269.383 30.3675C269.877 30.3675 270.228 30.4975 270.436 30.7575C270.644 31.0045 270.748 31.3165 270.748 31.6935C270.748 32.0965 270.612 32.4345 270.339 32.7075C270.079 32.9675 269.695 33.0975 269.188 33.0975ZM256.435 33.0975L256.63 30.3675C257.332 30.3675 258.028 30.3285 258.717 30.2505C259.406 30.1725 260.075 30.0555 260.725 29.8995C261.375 29.7435 261.993 29.542 262.578 29.295C263.176 29.048 263.735 28.749 264.255 28.398C263.865 28.164 263.442 27.9625 262.987 27.7935C262.532 27.6245 262.045 27.501 261.525 27.423C261.018 27.332 260.478 27.2865 259.906 27.2865C259.698 27.2865 259.477 27.293 259.243 27.306C259.022 27.319 258.795 27.345 258.561 27.384C258.327 27.41 258.093 27.449 257.859 27.501L257.469 24.8295C257.846 24.7255 258.242 24.654 258.658 24.615C259.087 24.563 259.464 24.537 259.789 24.537C260.491 24.537 261.135 24.615 261.72 24.771C262.318 24.927 262.864 25.122 263.358 25.356C263.865 25.59 264.333 25.824 264.762 26.058C265.204 26.292 265.62 26.487 266.01 26.643C266.413 26.799 266.803 26.877 267.18 26.877H267.901L268.213 29.4705C267.654 29.4965 267.128 29.607 266.634 29.802C266.153 29.984 265.672 30.218 265.191 30.504C264.723 30.777 264.216 31.063 263.67 31.362C263.137 31.661 262.532 31.9405 261.856 32.2005C261.18 32.4605 260.4 32.675 259.516 32.844C258.632 33.013 257.605 33.0975 256.435 33.0975ZM259.789 22.5285C259.386 22.5285 259.042 22.392 258.756 22.119C258.483 21.846 258.346 21.508 258.346 21.105C258.346 20.702 258.483 20.3575 258.756 20.0715C259.042 19.7855 259.386 19.6425 259.789 19.6425C260.179 19.6425 260.511 19.7855 260.784 20.0715C261.07 20.3575 261.213 20.702 261.213 21.105C261.213 21.508 261.07 21.846 260.784 22.119C260.511 22.392 260.179 22.5285 259.789 22.5285ZM269.194 33.0975L269.389 30.3675C269.987 30.3675 270.416 30.309 270.676 30.192C270.936 30.062 271.092 29.828 271.144 29.49C271.196 29.139 271.209 28.632 271.183 27.969L270.832 18.726H273.581L273.971 28.164C273.997 28.918 273.965 29.6005 273.874 30.2115C273.796 30.8095 273.594 31.323 273.269 31.752C272.957 32.181 272.47 32.5125 271.807 32.7465C271.157 32.9805 270.286 33.0975 269.194 33.0975ZM276.543 33L276.133 18.726H278.863L279.273 33H276.543ZM284.135 32.454C284.135 32.155 284.161 31.804 284.213 31.401C284.265 30.998 284.363 30.543 284.506 30.036C284.649 29.516 284.863 28.9375 285.149 28.3005L287.548 29.139C287.405 29.542 287.281 29.9125 287.177 30.2505C287.073 30.5755 286.995 30.881 286.943 31.167C286.891 31.44 286.865 31.713 286.865 31.986C286.865 32.376 286.95 32.74 287.119 33.078C287.288 33.416 287.541 33.7085 287.879 33.9555C288.217 34.2155 288.633 34.417 289.127 34.56C289.634 34.703 290.219 34.7745 290.882 34.7745C291.636 34.7745 292.299 34.703 292.871 34.56C293.456 34.43 293.944 34.2545 294.334 34.0335C294.737 33.8255 295.042 33.6045 295.25 33.3705C295.458 33.1365 295.562 32.922 295.562 32.727C295.562 32.571 295.452 32.4345 295.231 32.3175C295.023 32.2005 294.743 32.0835 294.392 31.9665C294.054 31.8365 293.69 31.6935 293.3 31.5375C292.923 31.3815 292.559 31.1865 292.208 30.9525C291.87 30.7185 291.591 30.4325 291.37 30.0945C291.162 29.7565 291.058 29.347 291.058 28.866C291.058 28.372 291.188 27.8325 291.448 27.2475C291.708 26.6495 292.078 26.084 292.559 25.551C293.04 25.005 293.612 24.563 294.275 24.225C294.951 23.874 295.692 23.6985 296.498 23.6985C297.07 23.6985 297.59 23.7895 298.058 23.9715C298.539 24.1535 298.942 24.3615 299.267 24.5955L298.253 26.877C297.98 26.695 297.688 26.5585 297.376 26.4675C297.064 26.3635 296.765 26.3115 296.479 26.3115C296.115 26.3115 295.764 26.383 295.426 26.526C295.101 26.669 294.808 26.8575 294.548 27.0915C294.301 27.3125 294.106 27.553 293.963 27.813C293.82 28.073 293.749 28.32 293.749 28.554C293.749 28.788 293.859 28.996 294.08 29.178C294.314 29.347 294.613 29.5095 294.977 29.6655C295.341 29.8085 295.725 29.958 296.128 30.114C296.531 30.27 296.914 30.4455 297.278 30.6405C297.642 30.8355 297.935 31.0695 298.156 31.3425C298.39 31.6155 298.507 31.947 298.507 32.337C298.507 32.896 298.331 33.4745 297.98 34.0725C297.642 34.6835 297.135 35.249 296.459 35.769C295.783 36.289 294.951 36.705 293.963 37.017C292.988 37.342 291.857 37.5045 290.57 37.5045C289.634 37.5045 288.776 37.394 287.996 37.173C287.216 36.965 286.534 36.6465 285.949 36.2175C285.377 35.8015 284.928 35.275 284.603 34.638C284.291 34.014 284.135 33.286 284.135 32.454ZM300.755 37.485L300.19 34.755C301.113 34.638 301.919 34.495 302.608 34.326C303.297 34.17 303.875 33.949 304.343 33.663C304.811 33.377 305.162 32.987 305.396 32.493C305.63 31.986 305.747 31.336 305.747 30.543C305.747 29.776 305.63 29.165 305.396 28.71C305.162 28.255 304.85 28.0275 304.46 28.0275C304.187 28.0275 303.96 28.125 303.778 28.32C303.596 28.502 303.459 28.723 303.368 28.983C303.29 29.23 303.251 29.451 303.251 29.646C303.251 29.763 303.284 29.8865 303.349 30.0165C303.414 30.1465 303.557 30.257 303.778 30.348C303.999 30.439 304.343 30.491 304.811 30.504C305.292 30.517 305.942 30.4715 306.761 30.3675H310.037C310.531 30.3675 310.882 30.4975 311.09 30.7575C311.311 31.0045 311.422 31.3165 311.422 31.6935C311.422 32.0965 311.285 32.4345 311.012 32.7075C310.739 32.9675 310.349 33.0975 309.842 33.0975H304.48C303.661 33.0975 302.959 33 302.374 32.805C301.789 32.61 301.34 32.298 301.028 31.869C300.716 31.427 300.56 30.842 300.56 30.114C300.56 29.529 300.658 28.944 300.853 28.359C301.061 27.774 301.347 27.241 301.711 26.76C302.075 26.266 302.497 25.876 302.978 25.59C303.472 25.291 304.005 25.1415 304.577 25.1415C305.357 25.1415 306.04 25.382 306.625 25.863C307.21 26.344 307.665 26.981 307.99 27.774C308.328 28.567 308.497 29.4315 308.497 30.3675C308.497 31.8365 308.185 33.0845 307.561 34.1115C306.937 35.1385 306.046 35.9315 304.889 36.4905C303.732 37.0625 302.354 37.394 300.755 37.485ZM309.87 33.0975L310.065 30.3675C310.533 30.3675 310.936 30.322 311.274 30.231C311.612 30.14 311.898 29.958 312.132 29.685C312.366 29.399 312.561 28.983 312.717 28.437C312.886 27.891 313.035 27.163 313.165 26.253L315.72 26.682C315.694 26.877 315.655 27.1045 315.603 27.3645C315.564 27.6245 315.525 27.891 315.486 28.164C315.46 28.424 315.447 28.671 315.447 28.905C315.447 29.139 315.492 29.347 315.583 29.529C315.674 29.711 315.817 29.867 316.012 29.997C316.22 30.114 316.487 30.205 316.812 30.27C317.15 30.335 317.559 30.3675 318.04 30.3675C318.534 30.3675 318.885 30.4975 319.093 30.7575C319.301 31.0045 319.405 31.3165 319.405 31.6935C319.405 32.0965 319.269 32.4345 318.996 32.7075C318.736 32.9675 318.352 33.0975 317.845 33.0975C317.26 33.0975 316.727 33.052 316.246 32.961C315.778 32.87 315.369 32.7205 315.018 32.5125C314.68 32.2915 314.4 32.0055 314.179 31.6545C313.971 31.2905 313.841 30.8485 313.789 30.3285H314.725C314.491 30.9525 314.192 31.453 313.828 31.83C313.477 32.194 313.081 32.467 312.639 32.649C312.197 32.831 311.735 32.948 311.254 33C310.786 33.065 310.325 33.0975 309.87 33.0975ZM316.129 24.498C315.752 24.498 315.427 24.368 315.154 24.108C314.894 23.835 314.764 23.5165 314.764 23.1525C314.764 22.7755 314.894 22.4505 315.154 22.1775C315.427 21.9045 315.752 21.768 316.129 21.768C316.493 21.768 316.805 21.9045 317.065 22.1775C317.325 22.4505 317.455 22.7755 317.455 23.1525C317.455 23.5165 317.325 23.835 317.065 24.108C316.805 24.368 316.493 24.498 316.129 24.498ZM312.756 24.4785C312.379 24.4785 312.054 24.3485 311.781 24.0885C311.521 23.8155 311.391 23.497 311.391 23.133C311.391 22.756 311.521 22.431 311.781 22.158C312.054 21.885 312.379 21.7485 312.756 21.7485C313.12 21.7485 313.432 21.885 313.692 22.158C313.952 22.431 314.082 22.756 314.082 23.133C314.082 23.497 313.952 23.8155 313.692 24.0885C313.432 24.3485 313.12 24.4785 312.756 24.4785ZM317.849 33.0975L318.044 30.3675C318.473 30.3675 318.824 30.335 319.097 30.27C319.37 30.192 319.591 30.0295 319.76 29.7825C319.942 29.5225 320.098 29.139 320.228 28.632C320.371 28.112 320.527 27.41 320.696 26.526L323.231 26.994C323.179 27.28 323.107 27.6375 323.016 28.0665C322.938 28.4955 322.899 28.866 322.899 29.178C322.899 29.425 322.945 29.6395 323.036 29.8215C323.14 29.9905 323.309 30.127 323.543 30.231C323.79 30.322 324.128 30.3675 324.557 30.3675C324.895 30.3675 325.181 30.335 325.415 30.27C325.662 30.192 325.87 30.0295 326.039 29.7825C326.221 29.5225 326.377 29.126 326.507 28.593C326.65 28.047 326.786 27.3125 326.916 26.3895L329.49 26.799C329.438 27.098 329.386 27.4165 329.334 27.7545C329.282 28.0925 329.237 28.4045 329.198 28.6905C329.159 28.9765 329.139 29.2105 329.139 29.3925C329.139 29.5615 329.185 29.724 329.276 29.88C329.38 30.023 329.562 30.14 329.822 30.231C330.095 30.322 330.472 30.3675 330.953 30.3675C331.538 30.3675 331.967 30.244 332.24 29.997C332.526 29.737 332.669 29.347 332.669 28.827C332.669 28.528 332.662 28.2095 332.649 27.8715C332.636 27.5205 332.61 27.1305 332.571 26.7015C332.545 26.2595 332.493 25.759 332.415 25.2L334.931 25.005C335.022 26.123 335.126 27.033 335.243 27.735C335.36 28.437 335.516 28.983 335.711 29.373C335.919 29.75 336.192 30.01 336.53 30.153C336.881 30.296 337.336 30.3675 337.895 30.3675C338.389 30.3675 338.74 30.4975 338.948 30.7575C339.169 31.0045 339.279 31.3165 339.279 31.6935C339.279 32.0965 339.143 32.4345 338.87 32.7075C338.61 32.9675 338.22 33.0975 337.7 33.0975C337.349 33.0975 336.985 33.065 336.608 33C336.231 32.948 335.867 32.8375 335.516 32.6685C335.165 32.4865 334.853 32.2265 334.58 31.8885C334.307 31.5505 334.092 31.102 333.936 30.543L334.287 30.66C334.105 31.31 333.858 31.8105 333.546 32.1615C333.234 32.5125 332.851 32.7595 332.396 32.9025C331.941 33.0325 331.395 33.0975 330.758 33.0975C330.173 33.0975 329.653 33.0195 329.198 32.8635C328.743 32.7075 328.379 32.454 328.106 32.103C327.846 31.739 327.709 31.2515 327.696 30.6405H328.359C328.099 31.3685 327.8 31.908 327.462 32.259C327.124 32.61 326.715 32.8375 326.234 32.9415C325.753 33.0455 325.148 33.0975 324.42 33.0975C323.978 33.0975 323.543 33.052 323.114 32.961C322.685 32.857 322.301 32.6295 321.963 32.2785C321.625 31.9145 321.378 31.3425 321.222 30.5625L322.275 30.5235C322.002 31.2905 321.645 31.856 321.203 32.22C320.774 32.584 320.28 32.8245 319.721 32.9415C319.162 33.0455 318.538 33.0975 317.849 33.0975ZM337.71 33.0975L337.905 30.3675C338.23 30.3675 338.477 30.3025 338.646 30.1725C338.815 30.0425 338.984 29.815 339.153 29.49C339.322 29.165 339.556 28.723 339.855 28.164C340.18 27.54 340.518 27.02 340.869 26.604C341.22 26.175 341.571 25.837 341.922 25.59C342.286 25.33 342.644 25.148 342.995 25.044C343.359 24.927 343.716 24.8685 344.067 24.8685C344.548 24.8685 344.997 24.9725 345.413 25.1805C345.842 25.3755 346.251 25.72 346.641 26.214C347.031 26.695 347.402 27.358 347.753 28.203C348 28.788 348.247 29.2365 348.494 29.5485C348.741 29.8605 348.994 30.075 349.254 30.192C349.527 30.309 349.8 30.3675 350.073 30.3675C350.567 30.3675 350.918 30.4975 351.126 30.7575C351.334 31.0045 351.438 31.3165 351.438 31.6935C351.438 32.0965 351.302 32.4345 351.029 32.7075C350.756 32.9675 350.372 33.0975 349.878 33.0975C349.241 33.0975 348.663 32.9935 348.143 32.7855C347.623 32.5775 347.213 32.2655 346.914 31.8495L347.48 31.4205C347.363 31.6935 347.187 31.9795 346.953 32.2785C346.732 32.5775 346.44 32.831 346.076 33.039C345.725 33.247 345.302 33.351 344.808 33.351C344.483 33.351 344.1 33.286 343.658 33.156C343.229 33.039 342.78 32.8375 342.312 32.5515C341.857 32.2525 341.435 31.8495 341.045 31.3425C340.798 31.7975 340.525 32.155 340.226 32.415C339.927 32.662 339.576 32.8375 339.173 32.9415C338.77 33.0455 338.282 33.0975 337.71 33.0975ZM342.176 29.0415C342.306 29.2365 342.462 29.4315 342.644 29.6265C342.826 29.8215 343.027 29.997 343.248 30.153C343.469 30.296 343.703 30.413 343.95 30.504C344.21 30.595 344.464 30.6405 344.711 30.6405C344.971 30.6405 345.185 30.543 345.354 30.348C345.523 30.14 345.53 29.8345 345.374 29.4315C345.309 29.2625 345.218 29.074 345.101 28.866C344.997 28.645 344.873 28.437 344.73 28.242C344.6 28.047 344.451 27.8845 344.282 27.7545C344.126 27.6245 343.963 27.5595 343.794 27.5595C343.625 27.5595 343.45 27.6115 343.268 27.7155C343.086 27.8195 342.904 27.982 342.722 28.203C342.54 28.411 342.358 28.6905 342.176 29.0415ZM349.879 33.0975L350.074 30.3675C350.672 30.3675 351.101 30.309 351.361 30.192C351.621 30.062 351.777 29.828 351.829 29.49C351.881 29.139 351.894 28.632 351.868 27.969L351.517 18.726H354.266L354.656 28.164C354.682 28.918 354.65 29.6005 354.559 30.2115C354.481 30.8095 354.279 31.323 353.954 31.752C353.642 32.181 353.155 32.5125 352.492 32.7465C351.842 32.9805 350.971 33.0975 349.879 33.0975ZM357.228 33L356.818 18.726H359.548L359.958 33H357.228Z" fill="#223F99"/>
<path d="M18.68 102.9V106.02H13.04V108.5H17.2V111.48H13.04V117H9.12V102.9H18.68ZM22.3109 104.74C21.6176 104.74 21.0576 104.553 20.6309 104.18C20.2176 103.793 20.0109 103.313 20.0109 102.74C20.0109 102.153 20.2176 101.667 20.6309 101.28C21.0576 100.893 21.6176 100.7 22.3109 100.7C22.9909 100.7 23.5376 100.893 23.9509 101.28C24.3776 101.667 24.5909 102.153 24.5909 102.74C24.5909 103.313 24.3776 103.793 23.9509 104.18C23.5376 104.553 22.9909 104.74 22.3109 104.74ZM24.2509 105.78V117H20.3309V105.78H24.2509ZM32.5433 109.04H30.7833V117H26.8433V109.04H25.6233V105.78H26.8433V105.68C26.8433 104.24 27.2633 103.14 28.1033 102.38C28.9566 101.607 30.1766 101.22 31.7633 101.22C32.0833 101.22 32.3299 101.227 32.5033 101.24V104.58C32.3966 104.567 32.2499 104.56 32.0633 104.56C31.6366 104.56 31.3233 104.66 31.1233 104.86C30.9233 105.047 30.8099 105.353 30.7833 105.78H32.5433V109.04ZM40.5642 113.66V117H38.8642C35.9976 117 34.5642 115.58 34.5642 112.74V109.04H33.1842V105.78H34.5642V103.06H38.5042V105.78H40.5442V109.04H38.5042V112.8C38.5042 113.107 38.5709 113.327 38.7042 113.46C38.8509 113.593 39.0909 113.66 39.4242 113.66H40.5642ZM49.7422 105.68C51.0222 105.68 52.0355 106.113 52.7822 106.98C53.5422 107.833 53.9222 108.993 53.9222 110.46V117H50.0022V110.98C50.0022 110.34 49.8355 109.84 49.5022 109.48C49.1689 109.107 48.7222 108.92 48.1622 108.92C47.5755 108.92 47.1155 109.107 46.7822 109.48C46.4489 109.84 46.2822 110.34 46.2822 110.98V117H42.3622V102.2H46.2822V107.38C46.6289 106.873 47.0955 106.467 47.6822 106.16C48.2822 105.84 48.9689 105.68 49.7422 105.68ZM63.8213 114H68.2013V117H59.9013V102.9H63.8213V114ZM80.4455 111.26C80.4455 111.567 80.4255 111.873 80.3855 112.18H72.9655C73.0055 112.793 73.1721 113.253 73.4655 113.56C73.7721 113.853 74.1588 114 74.6255 114C75.2788 114 75.7455 113.707 76.0255 113.12H80.2055C80.0321 113.893 79.6921 114.587 79.1855 115.2C78.6921 115.8 78.0655 116.273 77.3055 116.62C76.5455 116.967 75.7055 117.14 74.7855 117.14C73.6788 117.14 72.6921 116.907 71.8255 116.44C70.9721 115.973 70.2988 115.307 69.8055 114.44C69.3255 113.573 69.0855 112.553 69.0855 111.38C69.0855 110.207 69.3255 109.193 69.8055 108.34C70.2855 107.473 70.9521 106.807 71.8055 106.34C72.6721 105.873 73.6655 105.64 74.7855 105.64C75.8921 105.64 76.8721 105.867 77.7255 106.32C78.5788 106.773 79.2455 107.427 79.7255 108.28C80.2055 109.12 80.4455 110.113 80.4455 111.26ZM76.4455 110.28C76.4455 109.8 76.2855 109.427 75.9655 109.16C75.6455 108.88 75.2455 108.74 74.7655 108.74C74.2855 108.74 73.8921 108.873 73.5855 109.14C73.2788 109.393 73.0788 109.773 72.9855 110.28H76.4455ZM87.4297 113.3L89.5297 105.78H93.7097L89.8497 117H84.9697L81.1097 105.78H85.2897L87.4297 113.3ZM105.758 111.26C105.758 111.567 105.738 111.873 105.698 112.18H98.278C98.318 112.793 98.4846 113.253 98.778 113.56C99.0846 113.853 99.4713 114 99.938 114C100.591 114 101.058 113.707 101.338 113.12H105.518C105.345 113.893 105.005 114.587 104.498 115.2C104.005 115.8 103.378 116.273 102.618 116.62C101.858 116.967 101.018 117.14 100.098 117.14C98.9913 117.14 98.0046 116.907 97.138 116.44C96.2846 115.973 95.6113 115.307 95.118 114.44C94.638 113.573 94.398 112.553 94.398 111.38C94.398 110.207 94.638 109.193 95.118 108.34C95.598 107.473 96.2646 106.807 97.118 106.34C97.9846 105.873 98.978 105.64 100.098 105.64C101.205 105.64 102.185 105.867 103.038 106.32C103.891 106.773 104.558 107.427 105.038 108.28C105.518 109.12 105.758 110.113 105.758 111.26ZM101.758 110.28C101.758 109.8 101.598 109.427 101.278 109.16C100.958 108.88 100.558 108.74 100.078 108.74C99.598 108.74 99.2046 108.873 98.898 109.14C98.5913 109.393 98.3913 109.773 98.298 110.28H101.758ZM111.282 102.2V117H107.362V102.2H111.282Z" fill="#223F99"/>
</g>
</g>
<defs>
<filter id="filter0_d_8_427" x="133" y="45" width="84" height="84" filterUnits="userSpaceOnUse" color-interpolation-filters="sRGB">
<feFlood flood-opacity="0" result="BackgroundImageFix"/>
<feColorMatrix in="SourceAlpha" type="matrix" values="0 0 0 0 0 0 0 0 0 0 0 0 0 0 0 0 0 0 127 0" result="hardAlpha"/>
<feOffset dy="4"/>
<feGaussianBlur stdDeviation="2"/>
<feComposite in2="hardAlpha" operator="out"/>
<feColorMatrix type="matrix" values="0 0 0 0 0 0 0 0 0 0 0 0 0 0 0 0 0 0 0.25 0"/>
<feBlend mode="normal" in2="BackgroundImageFix" result="effect1_dropShadow_8_427"/>
<feBlend mode="normal" in="SourceGraphic" in2="effect1_dropShadow_8_427" result="shape"/>
</filter>
<linearGradient id="paint0_linear_8_427" x1="39" y1="-127.5" x2="320" y2="185" gradientUnits="userSpaceOnUse">
<stop stop-color="#E6E6E6"/>
<stop offset="1" stop-color="#D9D9D9" stop-opacity="0"/>
</linearGradient>
<clipPath id="clip0_8_427">
<rect width="374" height="138.5" fill="white"/>
</clipPath>
<clipPath id="clip1_8_427">
<rect width="373.799" height="138.5" fill="white"/>
</clipPath>
</defs>
</svg>
