<svg width="374" height="139" viewBox="0 0 374 139" fill="none" xmlns="http://www.w3.org/2000/svg">
<g clip-path="url(#clip0_8_615)">
<rect width="374" height="138.5" fill="white"/>
<rect width="374" height="138" fill="url(#paint0_linear_8_615)"/>
<g clip-path="url(#clip1_8_615)">
<g style="mix-blend-mode:exclusion">
<g opacity="0.2">
<path fill-rule="evenodd" clip-rule="evenodd" d="M-14 85.165C-13.7146 85.149 -13.4303 85.129 -13.1439 85.108L-14 84.256V85.165ZM-11.8486 84.989L-14 82.847V81.439L-10.5834 84.836C-11.0041 84.892 -11.4258 84.943 -11.8486 84.989ZM-9.35744 84.651L-14 80.031V78.623L-8.15559 84.438C-8.5542 84.5146 -8.95481 84.5856 -9.35744 84.651ZM-6.98289 84.198C-6.59768 84.1133 -6.21515 84.0246 -5.8353 83.932L-14 75.806V77.214L-6.98289 84.198ZM-4.71385 83.639C-4.34673 83.5383 -3.98095 83.433 -3.61651 83.323L-14 72.99V74.398L-4.71485 83.639H-4.71385ZM-2.54228 82.983C-2.1899 82.867 -1.83953 82.7463 -1.49116 82.621L-14 70.174V71.583L-2.54429 82.983H-2.54228ZM-0.462158 82.238C-0.123845 82.1046 0.211118 81.9713 0.542732 81.838L-14 67.357V68.765L-0.462158 82.238ZM1.53456 81.409C1.86014 81.2643 2.18305 81.116 2.50327 80.964L-14 64.541V65.949L1.53456 81.409V81.409ZM3.45289 80.501C3.76508 80.3443 4.07492 80.1836 4.38241 80.019L-14 61.725V63.133L3.45289 80.501V80.501ZM5.29586 79.518C5.59599 79.3493 5.8941 79.1766 6.19021 79L-14 58.908V60.317L5.29385 79.517L5.29586 79.518ZM7.06648 78.465L-14 57.501V56.093L7.92566 77.911C7.64161 78.099 7.35521 78.2836 7.06648 78.465V78.465ZM8.76775 77.342L-14 54.683V53.275L9.59478 76.755C9.32145 76.955 9.04611 77.1506 8.76876 77.342H8.76775ZM10.4027 76.153L-14 51.865V50.456L11.1966 75.533C10.934 75.743 10.6693 75.9496 10.4027 76.153V76.153ZM11.9734 74.898L-14 49.05V47.643L12.73 74.243C12.4795 74.4636 12.2262 74.6806 11.9703 74.894L11.9734 74.898ZM13.4807 73.58L-14 46.235V44.826L14.2072 72.896C13.9667 73.126 13.7235 73.3536 13.4777 73.579L13.4807 73.58ZM14.9227 72.199L-14 43.418V42.01L15.6161 71.483C15.3863 71.7236 15.1542 71.962 14.9197 72.198L14.9227 72.199ZM16.3004 70.754L-14 40.602V39.195L16.9626 70.007C16.7429 70.2576 16.5211 70.5063 16.2974 70.753L16.3004 70.754ZM17.6158 69.246L-14 37.786V36.377L18.2449 68.465C18.0372 68.7263 17.8262 68.9856 17.6118 69.243L17.6158 69.246ZM18.8599 67.672L-14 34.965L-14 33.565L19.4628 66.865C19.2658 67.1376 19.0649 67.4076 18.8599 67.675V67.672ZM20.0446 66.035L-14 32.153V30.745L20.6154 65.192C20.4298 65.4753 20.2406 65.7563 20.0476 66.035H20.0446ZM21.1711 64.333L-14 29.333V27.925L21.6997 63.455C21.5248 63.749 21.347 64.0413 21.1661 64.332L21.1711 64.333ZM22.2162 62.565L-14 26.52V25.112L22.7136 61.648C22.5508 61.9546 22.3833 62.2586 22.2112 62.56L22.2162 62.565ZM23.1939 60.721L-14 23.704V22.295L23.6552 59.765C23.5051 60.083 23.351 60.3993 23.1929 60.714L23.1939 60.721ZM24.0983 58.804C24.2437 58.4766 24.3847 58.1473 24.5214 57.816L-14 19.479L-14 20.888L24.0963 58.799L24.0983 58.804ZM24.9224 56.804C25.0563 56.4626 25.1836 56.1196 25.3042 55.775L-14 16.665V18.071L24.9214 56.803L24.9224 56.804ZM25.663 54.724C25.7802 54.368 25.8924 54.0103 25.9996 53.651L-14 13.847V15.255L25.661 54.723L25.663 54.724ZM26.3131 52.555C26.4136 52.182 26.5141 51.81 26.6015 51.434L-14 11.03V12.438L26.3111 52.554L26.3131 52.555ZM26.8638 50.287C26.9482 49.897 27.0246 49.505 27.0979 49.111L-14 8.21398V9.62198L26.8618 50.286L26.8638 50.287ZM27.3039 47.908C27.3683 47.498 27.4265 47.087 27.4798 46.674L-14 5.39798L-14 6.80598L27.3009 47.906L27.3039 47.908ZM27.6245 45.408C27.6667 44.976 27.7049 44.544 27.735 44.108L-14 2.58198V3.98898L27.6215 45.409L27.6245 45.408ZM27.8044 42.771C27.8215 42.312 27.8305 41.853 27.8335 41.392L-14 -0.235023V1.17298L27.8034 42.773L27.8044 42.771ZM27.8225 39.971C27.8225 39.893 27.8225 39.815 27.8225 39.737C27.8104 39.3283 27.7927 38.9183 27.7692 38.507L-13.8885 -2.94003L-14 -2.93502V-1.64302L27.8195 39.973L27.8225 39.971ZM27.6496 36.982C27.6088 36.556 27.5625 36.1323 27.511 35.711C27.511 35.62 27.511 35.528 27.511 35.435L-11.2728 -3.15402L-12.5791 -3.04702L27.6466 36.984L27.6496 36.982ZM27.5491 34.061C27.5702 33.636 27.6004 33.196 27.6446 32.747L-8.65804 -3.36802L-9.96439 -3.26102L27.5411 34.065L27.5491 34.061ZM27.7973 31.491C27.8546 31.091 27.924 30.691 28.0044 30.291L-6.04231 -3.58102L-7.34867 -3.47402L27.7893 31.493L27.7973 31.491ZM28.2676 29.144C28.3621 28.7793 28.4676 28.415 28.5842 28.051L-3.42658 -3.79502L-4.73294 -3.68802L28.2606 29.146L28.2676 29.144ZM28.955 27.012C29.0849 26.6786 29.2266 26.35 29.38 26.026L-0.810854 -4.00802L-2.11721 -3.90102L28.9479 27.014L28.955 27.012ZM29.8594 25.094C30.0262 24.794 30.2031 24.503 30.392 24.216L1.80387 -4.22202L0.497512 -4.11502L29.8503 25.096L29.8594 25.094ZM30.9808 23.394C31.1818 23.132 31.3969 22.8763 31.626 22.627L4.4196 -4.43502L3.11324 -4.32903L30.9718 23.396L30.9808 23.394ZM32.3254 21.916L5.736 -4.54402L7.04236 -4.65102L33.077 21.265C32.8091 21.475 32.5555 21.6923 32.3163 21.917L32.3254 21.916ZM33.9 20.666L8.34268 -4.75502L9.64904 -4.86302L34.7612 20.127C34.4698 20.294 34.1784 20.473 33.89 20.668L33.9 20.666ZM35.7008 19.641L10.9594 -4.97002L12.2658 -5.07702L36.6846 19.223C36.352 19.345 36.0194 19.483 35.6877 19.639L35.7008 19.641ZM37.7679 18.881L13.5741 -5.18302L14.8805 -5.29002L38.9114 18.623C38.5289 18.6896 38.1444 18.7763 37.7578 18.883L37.7679 18.881ZM40.1695 18.456L16.1889 -5.39702L17.4952 -5.50402L41.5211 18.403C41.076 18.403 40.6167 18.418 40.1605 18.458L40.1695 18.456ZM43.0254 18.481L18.8046 -5.61102L20.1109 -5.71803L44.6855 18.733C44.1559 18.628 43.5992 18.541 43.0194 18.483L43.0254 18.481ZM46.5888 19.211L21.4203 -5.82402L22.7267 -5.93102L48.8538 20.074C48.1132 19.7392 47.352 19.4516 46.5747 19.213L46.5888 19.211ZM51.8705 21.665L24.035 -6.03502L25.3414 -6.14202L54.4621 22.832C53.5811 22.4753 52.7173 22.085 51.8705 21.661V21.665ZM56.701 23.656L26.6548 -6.24402L27.9611 -6.35102L58.7148 24.248C58.0368 24.0686 57.3669 23.8686 56.705 23.648L56.701 23.656ZM60.5688 24.688L29.2675 -6.46402L30.5739 -6.57102L62.2982 24.998C61.7167 24.908 61.1399 24.8036 60.5678 24.685L60.5688 24.688ZM63.9312 25.217C64.445 25.273 64.9615 25.3176 65.4807 25.351L33.1906 -6.78502L31.8842 -6.67802L63.9302 25.213L63.9312 25.217ZM66.9599 25.417C67.4289 25.4276 67.9018 25.4276 68.3788 25.417L35.8063 -6.99902L34.5 -6.89202L66.9579 25.408L66.9599 25.417ZM69.7465 25.373C70.0734 25.3556 70.4003 25.3333 70.7272 25.306C70.8398 25.297 70.9503 25.285 71.0629 25.274L38.421 -7.21302L37.1147 -7.10603L69.7455 25.365L69.7465 25.373ZM72.3391 25.137C72.7538 25.0843 73.1661 25.0246 73.5761 24.958L41.0368 -7.42603L39.7304 -7.31902L72.3391 25.132V25.137ZM74.7739 24.743C75.1638 24.665 75.5527 24.584 75.9386 24.493L43.6525 -7.63503L42.3461 -7.52802L74.7729 24.738L74.7739 24.743ZM77.0701 24.211C77.4386 24.1123 77.805 24.008 78.1694 23.898L46.2682 -7.85302L44.9619 -7.74603L77.0691 24.206L77.0701 24.211ZM79.2417 23.555C79.592 23.4376 79.9404 23.315 80.2868 23.187L48.8829 -8.06702L47.5766 -7.96002L79.2417 23.55V23.555ZM81.3017 22.789C81.6367 22.6556 81.9669 22.515 82.2925 22.367L51.4997 -8.28002L50.1933 -8.17302L81.3007 22.784L81.3017 22.789ZM83.2602 21.921C83.5778 21.769 83.8923 21.613 84.2038 21.453L54.1144 -8.49402L52.808 -8.38702L83.2562 21.913L83.2602 21.921ZM85.1233 20.959C85.4241 20.791 85.7229 20.6186 86.0196 20.442L56.7291 -8.70802L55.4228 -8.60102L85.1213 20.954L85.1233 20.959ZM86.8939 19.905C87.1813 19.722 87.4667 19.537 87.7481 19.347L59.3449 -8.92102L58.0385 -8.81402L86.8909 19.901L86.8939 19.905ZM88.5821 18.768C88.8554 18.568 89.1248 18.368 89.3931 18.168L61.9596 -9.13202L60.6532 -9.02602L88.5801 18.765L88.5821 18.768ZM90.1839 17.545L63.2679 -9.24202L64.5743 -9.34902L90.9506 16.899C90.6974 17.117 90.4405 17.331 90.1799 17.541L90.1839 17.545ZM91.7063 16.245L65.8887 -9.45502L67.1951 -9.56202L92.4359 15.565C92.1957 15.795 91.9515 16.021 91.7043 16.244L91.7063 16.245ZM93.1493 14.865L68.5014 -9.66902L69.8078 -9.77602L93.8387 14.138C93.6116 14.3813 93.3811 14.6216 93.1473 14.859L93.1493 14.865ZM94.511 13.404L71.1141 -9.88202L72.4205 -9.98902L95.1601 12.639C94.9464 12.895 94.7287 13.148 94.5069 13.398L94.511 13.404ZM95.7952 11.866L73.7268 -10.096L75.0332 -10.203L96.4062 11.065C96.2052 11.3316 96.0009 11.5983 95.7932 11.865L95.7952 11.866ZM97.0011 10.246L76.3506 -10.304L77.657 -10.411L97.5698 9.40398C97.3836 9.68731 97.194 9.96798 97.0011 10.246ZM98.1195 8.54597L78.9663 -10.514L80.2727 -10.621L98.6481 7.65498C98.4759 7.95164 98.2997 8.24598 98.1195 8.53798V8.54597ZM99.1536 6.75898L81.576 -10.735L82.8824 -10.842L99.6279 5.82198C99.4711 6.13398 99.3123 6.44498 99.1465 6.75098L99.1536 6.75898ZM100.094 4.87798L84.1928 -10.95L85.4991 -11.056L100.524 3.89498C100.384 4.22298 100.238 4.54698 100.088 4.86998L100.094 4.87798ZM100.94 2.90398L86.8115 -11.156L88.1179 -11.263L101.318 1.86497C101.195 2.20964 101.068 2.55198 100.935 2.89198L100.94 2.90398ZM101.68 0.822975C101.794 0.464975 101.906 0.104981 102.008 -0.257019L90.7306 -11.484L89.4242 -11.377L101.676 0.81498L101.68 0.822975ZM102.306 -1.37003C102.401 -1.74869 102.49 -2.12969 102.572 -2.51302L93.3503 -11.689L92.044 -11.582L102.306 -1.36902V-1.37003ZM102.808 -3.68802C102.881 -4.08802 102.944 -4.49702 103.002 -4.90402L95.9681 -11.904L94.6617 -11.797L102.809 -3.68902L102.808 -3.68802ZM103.16 -6.15502C103.206 -6.58502 103.243 -7.01836 103.273 -7.45502L98.5778 -12.125L97.2714 -12.018L103.155 -6.16302L103.16 -6.15502ZM103.341 -8.79002C103.356 -9.25302 103.358 -9.71802 103.356 -10.184L101.192 -12.335L99.8861 -12.228L103.336 -8.79502L103.341 -8.79002ZM103.316 -11.632L102.512 -12.432L103.268 -12.494C103.282 -12.2134 103.296 -11.929 103.31 -11.641L103.316 -11.632Z" fill="#6D6D6D"/>
<path fill-rule="evenodd" clip-rule="evenodd" d="M-14 69.991C-13.2142 70.0357 -12.4217 70.058 -11.6225 70.058C-0.732443 70.0578 9.74234 65.8993 17.642 58.4399C25.5417 50.9806 30.264 40.7891 30.8351 29.967V29.967C30.8733 29.2337 30.8924 28.4953 30.8924 27.752C30.8924 27.201 30.8783 26.652 30.8572 26.104C31.1587 22.075 32.4651 15.904 37.3961 12.695C45.1026 7.66798 53.3517 13.388 53.3517 13.388C58.4249 16.9341 64.3757 19.0328 70.5606 19.4574C76.7456 19.882 82.9296 18.6162 88.4441 15.7969C93.9585 12.9776 98.5938 8.71202 101.849 3.46124C105.104 -1.78953 106.855 -7.82578 106.912 -13.995L-14 -13.995L-14 69.991Z" fill="#676767"/>
<path fill-rule="evenodd" clip-rule="evenodd" d="M-14 31.889C-6.68302 32.1205 0.597831 30.7754 7.34382 27.946C18.9923 23.0873 28.4014 14.0805 33.7322 2.68596C34.3543 1.35596 34.927 -0.0330466 35.5008 -1.42205C37.5056 -6.27505 39.5144 -11.141 43.9128 -14H42.3693C38.4884 -10.974 36.5811 -6.36005 34.6808 -1.75705C34.1161 -0.387046 33.5493 0.981957 32.9263 2.31696C27.6905 13.5129 18.4467 22.363 7.00216 27.137C0.36422 29.9206 -6.80055 31.2416 -14 31.009L-14 31.889ZM60.1819 -13.999C62.2824 -12.7096 64.1339 -11.0562 65.6485 -9.11705L65.6726 -9.08704C69.7332 -3.44815 75.1786 1.06076 81.4888 4.00913C87.799 6.95751 94.7634 8.24692 101.717 7.75425C108.671 7.26157 115.381 5.00326 121.208 1.19495C127.035 -2.61337 131.783 -7.84453 135 -13.999H134.002C130.806 -8.04056 126.135 -2.99245 120.431 0.667286C114.726 4.32702 108.178 6.47724 101.405 6.91434C94.6319 7.35144 87.859 6.06094 81.7274 3.16506C75.5958 0.269183 70.3084 -4.13624 66.366 -9.63404V-9.63404C66.358 -9.64604 66.3489 -9.65705 66.3399 -9.66805C65.0395 -11.326 63.5017 -12.7852 61.7757 -13.999H60.1819Z" fill="#6D6D6D"/>
</g>
</g>
<g style="mix-blend-mode:exclusion">
<g opacity="0.2">
<path fill-rule="evenodd" clip-rule="evenodd" d="M387 52.9999C386.715 53.016 386.43 53.0362 386.144 53.0573L387 53.9151V52.9999ZM384.849 53.1771L387 55.3336V56.7511L383.583 53.3312C384.004 53.2748 384.426 53.2234 384.849 53.1771ZM382.357 53.5174L387 58.1686V59.5861L381.156 53.7319C381.554 53.6547 381.955 53.5832 382.357 53.5174ZM379.983 53.9735C379.598 54.0587 379.215 54.148 378.835 54.2413L387 62.4222V61.0047L379.983 53.9735ZM377.714 54.5362C377.347 54.6376 376.981 54.7436 376.616 54.8544L387 65.2572V63.8397L377.715 54.5362H377.714ZM375.542 55.1967C375.19 55.3135 374.839 55.4349 374.491 55.5611L387 68.0922V66.6737L375.544 55.1967H375.542ZM373.462 55.9467C373.124 56.0809 372.789 56.2152 372.457 56.3494L387 70.9283V69.5107L373.462 55.9467ZM371.465 56.7813C371.14 56.927 370.817 57.0763 370.497 57.2293L387 73.7633V72.3458L371.465 56.7813V56.7813ZM369.547 57.6955C369.235 57.8532 368.925 58.0149 368.618 58.1807L387 76.5983V75.1808L369.547 57.6955V57.6955ZM367.704 58.6851C367.404 58.8549 367.106 59.0287 366.81 59.2066L387 79.4343V78.0158L367.706 58.6861L367.704 58.6851ZM365.933 59.7452L387 80.8508V82.2684L365.074 60.303C365.358 60.1137 365.645 59.9278 365.933 59.7452V59.7452ZM364.232 60.8758L387 83.6879V85.1054L363.405 61.4668C363.679 61.2654 363.954 61.0684 364.231 60.8758H364.232ZM362.597 62.0728L387 86.5249V87.9434L361.803 62.697C362.066 62.4856 362.331 62.2775 362.597 62.0728V62.0728ZM361.027 63.3363L387 89.3589V90.7755L360.27 63.9957C360.52 63.7736 360.774 63.5551 361.03 63.3403L361.027 63.3363ZM359.519 64.6632L387 92.193V93.6115L358.793 65.3518C359.033 65.1203 359.276 64.8911 359.522 64.6642L359.519 64.6632ZM358.077 66.0535L387 95.029V96.4465L357.384 66.7744C357.614 66.5321 357.846 66.2921 358.08 66.0545L358.077 66.0535ZM356.7 67.5083L387 97.864V99.2805L356.037 68.2604C356.257 68.008 356.479 67.7576 356.703 67.5093L356.7 67.5083ZM355.384 69.0265L387 100.699V102.118L354.755 69.8128C354.963 69.5497 355.174 69.2886 355.388 69.0295L355.384 69.0265ZM354.14 70.6111L387 103.539V104.949L353.537 71.4236C353.734 71.1491 353.935 70.8772 354.14 70.6081V70.6111ZM352.955 72.2592L387 106.37V107.788L352.385 73.1079C352.57 72.8226 352.759 72.5397 352.952 72.2592H352.955ZM351.829 73.9727L387 109.209V110.627L351.3 74.8566C351.475 74.5606 351.653 74.2663 351.834 73.9737L351.829 73.9727ZM350.784 75.7526L387 112.041V113.459L350.286 76.6758C350.449 76.3671 350.617 76.061 350.789 75.7577L350.784 75.7526ZM349.806 77.6091L387 114.876V116.295L349.345 78.5716C349.495 78.2514 349.649 77.9329 349.807 77.6161L349.806 77.6091ZM348.902 79.539C348.756 79.8686 348.615 80.2001 348.479 80.5337L387 119.13V117.711L348.904 79.5441L348.902 79.539ZM348.078 81.5526C347.944 81.8962 347.816 82.2415 347.696 82.5885L387 121.963V120.547L348.079 81.5536L348.078 81.5526ZM347.337 83.6466C347.22 84.005 347.108 84.3651 347 84.7269L387 124.8V123.382L347.339 83.6476L347.337 83.6466ZM346.687 85.8303C346.586 86.2058 346.486 86.5803 346.398 86.9588L387 127.636V126.218L346.689 85.8313L346.687 85.8303ZM346.136 88.1136C346.052 88.5062 345.975 88.9009 345.902 89.2975L387 130.471V129.053L346.138 88.1146L346.136 88.1136ZM345.696 90.5087C345.632 90.9214 345.573 91.3352 345.52 91.751L387 133.306V131.888L345.699 90.5107L345.696 90.5087ZM345.375 93.0256C345.333 93.4605 345.295 93.8954 345.265 94.3343L387 136.141V134.724L345.378 93.0245L345.375 93.0256ZM345.196 95.6804C345.179 96.1425 345.169 96.6046 345.166 97.0687L387 138.977V137.559L345.197 95.6784L345.196 95.6804ZM345.177 98.4993C345.177 98.5778 345.177 98.6563 345.177 98.7349C345.19 99.1463 345.207 99.5591 345.231 99.9732L386.888 141.7L387 141.695V140.394L345.181 98.4973L345.177 98.4993ZM345.35 101.508C345.391 101.937 345.437 102.364 345.489 102.788C345.489 102.88 345.489 102.972 345.489 103.066L384.273 141.916L385.579 141.808L345.353 101.506L345.35 101.508ZM345.451 104.449C345.43 104.877 345.4 105.32 345.355 105.772L381.658 142.131L382.964 142.023L345.459 104.445L345.451 104.449ZM345.203 107.037C345.145 107.439 345.076 107.842 344.996 108.245L379.042 142.346L380.349 142.238L345.211 107.035L345.203 107.037ZM344.732 109.399C344.638 109.767 344.532 110.133 344.416 110.5L376.427 142.561L377.733 142.453L344.739 109.397L344.732 109.399ZM344.045 111.546C343.915 111.881 343.773 112.212 343.62 112.539L373.811 142.775L375.117 142.668L344.052 111.544L344.045 111.546ZM343.141 113.477C342.974 113.779 342.797 114.072 342.608 114.361L371.196 142.991L372.502 142.883L343.15 113.475L343.141 113.477ZM342.019 115.188C341.818 115.452 341.603 115.709 341.374 115.96L368.58 143.205L369.887 143.099L342.028 115.186L342.019 115.188ZM340.675 116.676L367.264 143.315L365.958 143.423L339.923 117.332C340.191 117.12 340.444 116.901 340.684 116.675L340.675 116.676ZM339.1 117.935L364.657 143.527L363.351 143.636L338.239 118.477C338.53 118.309 338.822 118.129 339.11 117.933L339.1 117.935ZM337.299 118.967L362.041 143.744L360.734 143.852L336.315 119.387C336.648 119.265 336.981 119.126 337.312 118.969L337.299 118.967ZM335.232 119.732L359.426 143.958L358.119 144.066L334.089 119.992C334.471 119.924 334.856 119.837 335.242 119.73L335.232 119.732ZM332.83 120.16L356.811 144.174L355.505 144.282L331.479 120.213C331.924 120.213 332.383 120.198 332.839 120.158L332.83 120.16ZM329.975 120.134L354.195 144.389L352.889 144.497L328.314 119.881C328.844 119.986 329.401 120.074 329.981 120.132L329.975 120.134ZM326.411 119.4L351.58 144.604L350.273 144.711L324.146 118.531C324.887 118.868 325.648 119.157 326.425 119.398L326.411 119.4ZM321.129 116.929L348.965 144.816L347.659 144.924L318.538 115.754C319.419 116.113 320.283 116.506 321.129 116.933V116.929ZM316.299 114.925L346.345 145.027L345.039 145.134L314.285 114.329C314.963 114.509 315.633 114.71 316.295 114.933L316.299 114.925ZM312.431 113.886L343.732 145.248L342.426 145.356L310.702 113.573C311.283 113.664 311.86 113.769 312.432 113.889L312.431 113.886ZM309.069 113.353C308.555 113.297 308.038 113.252 307.519 113.218L339.809 145.571L341.116 145.463L309.07 113.357L309.069 113.353ZM306.04 113.152C305.571 113.141 305.098 113.141 304.621 113.152L337.194 145.787L338.5 145.679L306.042 113.161L306.04 113.152ZM303.254 113.196C302.927 113.213 302.6 113.236 302.273 113.263C302.16 113.272 302.05 113.285 301.937 113.296L334.579 146.002L335.885 145.894L303.255 113.204L303.254 113.196ZM300.661 113.434C300.246 113.487 299.834 113.547 299.424 113.614L331.963 146.217L333.27 146.109L300.661 113.439V113.434ZM298.226 113.83C297.836 113.909 297.447 113.99 297.061 114.082L329.347 146.427L330.654 146.319L298.227 113.835L298.226 113.83ZM295.93 114.366C295.561 114.465 295.195 114.57 294.831 114.681L326.732 146.646L328.038 146.539L295.931 114.371L295.93 114.366ZM293.758 115.026C293.408 115.144 293.06 115.268 292.713 115.397L324.117 146.862L325.423 146.754L293.758 115.031V115.026ZM291.698 115.797C291.363 115.932 291.033 116.073 290.707 116.222L321.5 147.076L322.807 146.969L291.699 115.802L291.698 115.797ZM289.74 116.671C289.422 116.824 289.108 116.981 288.796 117.142L318.886 147.292L320.192 147.184L289.744 116.679L289.74 116.671ZM287.877 117.64C287.576 117.809 287.277 117.982 286.98 118.16L316.271 147.507L317.577 147.399L287.879 117.645L287.877 117.64ZM286.106 118.701C285.819 118.885 285.533 119.071 285.252 119.263L313.655 147.722L314.961 147.614L286.109 118.705L286.106 118.701ZM284.418 119.846C284.145 120.047 283.875 120.248 283.607 120.45L311.04 147.934L312.347 147.827L284.42 119.849L284.418 119.846ZM282.816 121.077L309.732 148.045L308.426 148.153L282.049 121.727C282.303 121.508 282.559 121.292 282.82 121.081L282.816 121.077ZM281.294 122.386L307.111 148.259L305.805 148.367L280.564 123.07C280.804 122.839 281.048 122.611 281.296 122.387L281.294 122.386ZM279.851 123.775L304.499 148.475L303.192 148.582L279.161 124.507C279.388 124.262 279.619 124.02 279.853 123.781L279.851 123.775ZM278.489 125.246L301.886 148.689L300.579 148.797L277.84 126.016C278.054 125.758 278.271 125.504 278.493 125.252L278.489 125.246ZM277.205 126.794L299.273 148.905L297.967 149.012L276.594 127.601C276.795 127.332 276.999 127.064 277.207 126.795L277.205 126.794ZM275.999 128.425L296.649 149.114L295.343 149.222L275.43 129.273C275.616 128.988 275.806 128.705 275.999 128.425ZM274.88 130.137L294.034 149.325L292.727 149.433L274.352 131.034C274.524 130.735 274.7 130.439 274.88 130.145V130.137ZM273.846 131.936L291.424 149.548L290.118 149.656L273.372 132.879C273.529 132.565 273.688 132.252 273.853 131.944L273.846 131.936ZM272.906 133.829L288.807 149.764L287.501 149.871L272.476 134.819C272.616 134.489 272.762 134.163 272.912 133.837L272.906 133.829ZM272.06 135.817L286.188 149.972L284.882 150.079L271.682 136.863C271.804 136.516 271.932 136.171 272.065 135.829L272.06 135.817ZM271.32 137.912C271.206 138.272 271.094 138.635 270.992 138.999L282.269 150.302L283.576 150.194L271.324 137.92L271.32 137.912ZM270.694 140.12C270.599 140.501 270.51 140.884 270.428 141.27L279.65 150.508L280.956 150.401L270.694 140.119V140.12ZM270.192 142.453C270.119 142.856 270.056 143.268 269.998 143.677L277.032 150.725L278.338 150.617L270.191 142.454L270.192 142.453ZM269.84 144.937C269.794 145.37 269.757 145.806 269.727 146.246L274.422 150.947L275.729 150.84L269.845 144.945L269.84 144.937ZM269.659 147.59C269.644 148.056 269.642 148.524 269.644 148.993L271.807 151.159L273.114 151.051L269.664 147.595L269.659 147.59ZM269.684 150.451L270.488 151.256L269.732 151.319C269.718 151.036 269.704 150.75 269.69 150.46L269.684 150.451Z" fill="#6D6D6D"/>
<path fill-rule="evenodd" clip-rule="evenodd" d="M387 68.2764C386.214 68.2315 385.422 68.209 384.622 68.209C373.732 68.2092 363.258 72.3958 355.358 79.9055C347.458 87.4153 342.736 97.6756 342.165 108.571V108.571C342.127 109.309 342.108 110.052 342.108 110.801C342.108 111.356 342.122 111.908 342.143 112.46C341.841 116.516 340.535 122.729 335.604 125.96C327.897 131.021 319.648 125.262 319.648 125.262C314.575 121.692 308.624 119.579 302.439 119.151C296.254 118.724 290.07 119.998 284.556 122.837C279.041 125.675 274.406 129.969 271.151 135.256C267.896 140.542 266.145 146.619 266.088 152.83H387V68.2764Z" fill="#676767"/>
<path fill-rule="evenodd" clip-rule="evenodd" d="M387 106.636C379.683 106.403 372.402 107.757 365.656 110.606C354.008 115.497 344.599 124.565 339.268 136.036C338.646 137.375 338.073 138.774 337.499 140.172C335.494 145.058 333.486 149.957 329.087 152.835H330.631C334.512 149.788 336.419 145.143 338.319 140.509C338.884 139.13 339.451 137.752 340.074 136.408C345.31 125.136 354.553 116.226 365.998 111.42C372.636 108.617 379.801 107.288 387 107.522V106.636ZM312.818 152.834C310.718 151.536 308.866 149.871 307.351 147.919L307.327 147.889C303.267 142.212 297.821 137.672 291.511 134.704C285.201 131.736 278.237 130.438 271.283 130.934C264.329 131.43 257.619 133.703 251.792 137.537C245.965 141.371 241.217 146.638 238 152.834H238.998C242.194 146.835 246.865 141.753 252.569 138.068C258.274 134.384 264.822 132.219 271.595 131.779C278.368 131.339 285.141 132.638 291.273 135.554C297.404 138.469 302.692 142.904 306.634 148.439V148.439C306.642 148.451 306.651 148.463 306.66 148.474C307.961 150.143 309.498 151.612 311.224 152.834H312.818Z" fill="#6D6D6D"/>
</g>
</g>
<g filter="url(#filter0_d_8_615)">
<circle cx="187" cy="83" r="34" fill="#223F99"/>
<circle cx="187" cy="83" r="36" stroke="#FFCB57" stroke-width="4"/>
</g>
<path d="M174.379 91.11C174.874 96.83 178.724 101.945 187.029 101.945C197.534 101.945 200.394 94.74 200.394 81.21C200.394 68.065 196.929 60.97 186.589 60.97C178.174 60.97 173.279 66.25 173.279 74.225C173.279 82.695 178.999 87.04 186.039 87.04C189.669 87.04 193.134 85.665 194.949 83.135C194.949 93.365 192.419 96.72 187.414 96.72C183.234 96.72 180.869 94.685 180.154 91.11H174.379ZM187.139 81.76C181.584 81.76 179.274 78.185 179.274 74.06C179.274 69.44 182.079 66.195 186.754 66.195C191.319 66.195 194.234 69.11 194.234 74.225C194.234 78.735 191.594 81.76 187.139 81.76Z" fill="#FFCB57"/>
<path d="M174.379 91.11V90.11H173.289L173.383 91.1962L174.379 91.11ZM194.949 83.135H195.949V80.0255L194.136 82.5521L194.949 83.135ZM180.154 91.11L181.135 90.9139L180.974 90.11H180.154V91.11ZM173.383 91.1962C173.647 94.248 174.812 97.199 177.08 99.3915C179.359 101.594 182.661 102.945 187.029 102.945V100.945C183.092 100.945 180.317 99.7385 178.47 97.9535C176.613 96.1585 175.606 93.692 175.375 91.0238L173.383 91.1962ZM187.029 102.945C189.766 102.945 192.08 102.476 194.002 101.499C195.935 100.517 197.414 99.0509 198.516 97.1534C200.687 93.4136 201.394 87.9937 201.394 81.21H199.394C199.394 87.9563 198.671 92.9039 196.786 96.1491C195.86 97.7441 194.654 98.9246 193.096 99.7163C191.527 100.513 189.544 100.945 187.029 100.945V102.945ZM201.394 81.21C201.394 74.5937 200.531 69.2928 198.214 65.6265C195.835 61.8599 192.025 59.97 186.589 59.97V61.97C191.493 61.97 194.586 63.6276 196.524 66.6947C198.525 69.8622 199.394 74.6813 199.394 81.21H201.394ZM186.589 59.97C182.168 59.97 178.564 61.3619 176.065 63.9061C173.569 66.4473 172.279 70.0327 172.279 74.225H174.279C174.279 70.4423 175.436 67.4002 177.492 65.3076C179.544 63.2181 182.595 61.97 186.589 61.97V59.97ZM172.279 74.225C172.279 78.6976 173.797 82.1814 176.338 84.5415C178.868 86.8903 182.318 88.04 186.039 88.04V86.04C182.72 86.04 179.79 85.0172 177.699 83.076C175.621 81.1461 174.279 78.2224 174.279 74.225H172.279ZM186.039 88.04C189.878 88.04 193.701 86.5901 195.761 83.7179L194.136 82.5521C192.567 84.7399 189.46 86.04 186.039 86.04V88.04ZM193.949 83.135C193.949 88.215 193.312 91.3794 192.199 93.253C191.657 94.1644 191.007 94.7626 190.253 95.143C189.488 95.5283 188.556 95.72 187.414 95.72V97.72C188.774 97.72 190.035 97.4923 191.153 96.9289C192.28 96.3605 193.201 95.4806 193.918 94.2745C195.321 91.9131 195.949 88.285 195.949 83.135H193.949ZM187.414 95.72C185.484 95.72 184.088 95.2518 183.107 94.4726C182.129 93.6965 181.457 92.5264 181.135 90.9139L179.173 91.3061C179.566 93.2686 180.433 94.9035 181.863 96.0387C183.288 97.1707 185.164 97.72 187.414 97.72V95.72ZM180.154 90.11H174.379V92.11H180.154V90.11ZM187.139 80.76C184.588 80.76 182.913 79.9474 181.866 78.7869C180.802 77.6081 180.274 75.9462 180.274 74.06H178.274C178.274 76.2988 178.901 78.4869 180.381 80.1268C181.877 81.7851 184.135 82.76 187.139 82.76V80.76ZM180.274 74.06C180.274 71.9499 180.912 70.2434 181.995 69.0743C183.068 67.9147 184.66 67.195 186.754 67.195V65.195C184.173 65.195 182.025 66.0978 180.527 67.7157C179.038 69.3241 178.274 71.5501 178.274 74.06H180.274ZM186.754 67.195C188.819 67.195 190.406 67.8487 191.481 68.9805C192.561 70.118 193.234 71.8545 193.234 74.225H195.234C195.234 71.4805 194.449 69.202 192.931 67.6032C191.407 65.9988 189.254 65.195 186.754 65.195V67.195ZM193.234 74.225C193.234 76.2886 192.632 77.9103 191.622 79.0059C190.621 80.0915 189.129 80.76 187.139 80.76V82.76C189.604 82.76 191.659 81.916 193.092 80.3616C194.516 78.8172 195.234 76.6714 195.234 74.225H193.234Z" fill="white"/>
<path d="M231.714 40.683C230.856 40.683 230.05 40.592 229.296 40.41C228.542 40.228 227.879 39.9485 227.307 39.5715C226.748 39.1945 226.306 38.707 225.981 38.109C225.669 37.511 225.513 36.8025 225.513 35.9835C225.513 35.1385 225.688 34.391 226.039 33.741C226.39 33.104 226.839 32.545 227.385 32.064C227.931 31.57 228.509 31.128 229.12 30.738C229.744 30.335 230.329 29.9515 230.875 29.5875C231.421 29.2235 231.87 28.853 232.221 28.476C232.572 28.086 232.747 27.657 232.747 27.189C232.747 27.02 232.702 26.864 232.611 26.721C232.533 26.565 232.396 26.4415 232.201 26.3505C232.019 26.2465 231.759 26.1945 231.421 26.1945C231.2 26.1945 230.973 26.2205 230.739 26.2725C230.505 26.3115 230.277 26.37 230.056 26.448C229.835 26.513 229.627 26.5975 229.432 26.7015C229.77 26.9745 230.102 27.28 230.427 27.618C230.765 27.943 231.07 28.2615 231.343 28.5735C231.629 28.8725 231.85 29.1325 232.006 29.3535C232.305 29.5095 232.63 29.6525 232.981 29.7825C233.332 29.8995 233.703 30.0035 234.093 30.0945C234.496 30.1855 234.912 30.257 235.341 30.309C235.77 30.348 236.212 30.3675 236.667 30.3675C237.161 30.3675 237.512 30.4975 237.72 30.7575C237.928 31.0045 238.032 31.3165 238.032 31.6935C238.032 32.0965 237.895 32.4345 237.622 32.7075C237.349 32.9675 236.966 33.0975 236.472 33.0975C235.393 33.0975 234.47 33.0195 233.703 32.8635C232.949 32.7075 232.266 32.4735 231.655 32.1615C231.057 31.8365 230.44 31.44 229.803 30.972C229.647 30.699 229.419 30.4 229.12 30.075C228.821 29.737 228.516 29.4185 228.204 29.1195C227.905 28.8205 227.651 28.5865 227.443 28.4175C227.404 28.3785 227.339 28.2485 227.248 28.0275C227.157 27.7935 227.073 27.5465 226.995 27.2865C226.93 27.0265 226.897 26.8445 226.897 26.7405C226.897 26.4805 227.021 26.188 227.268 25.863C227.515 25.525 227.859 25.2065 228.301 24.9075C228.756 24.5955 229.283 24.342 229.881 24.147C230.479 23.939 231.129 23.835 231.831 23.835C233.105 23.835 234.021 24.108 234.58 24.654C235.152 25.187 235.438 25.876 235.438 26.721C235.438 27.501 235.263 28.1965 234.912 28.8075C234.574 29.4185 234.132 29.9775 233.586 30.4845C233.04 30.9915 232.461 31.4595 231.85 31.8885C231.252 32.3175 230.68 32.7335 230.134 33.1365C229.588 33.5525 229.14 33.9685 228.789 34.3845C228.451 34.8135 228.282 35.275 228.282 35.769C228.282 36.185 228.386 36.5295 228.594 36.8025C228.815 37.0885 229.094 37.316 229.432 37.485C229.77 37.654 230.141 37.771 230.544 37.836C230.96 37.914 231.363 37.953 231.753 37.953C232.156 37.953 232.572 37.9205 233.001 37.8555C233.443 37.7905 233.898 37.6865 234.366 37.5435C234.847 37.4135 235.341 37.2445 235.848 37.0365L236.667 39.3765C236.173 39.6365 235.646 39.864 235.087 40.059C234.528 40.267 233.963 40.423 233.391 40.527C232.819 40.631 232.26 40.683 231.714 40.683ZM236.478 33.0975L236.673 30.3675C237.102 30.3675 237.453 30.335 237.726 30.27C237.999 30.192 238.22 30.0295 238.389 29.7825C238.571 29.5225 238.727 29.139 238.857 28.632C239 28.112 239.156 27.41 239.325 26.526L241.86 26.994C241.821 27.189 241.776 27.4165 241.724 27.6765C241.672 27.9365 241.626 28.203 241.587 28.476C241.548 28.736 241.529 28.97 241.529 29.178C241.529 29.542 241.646 29.8345 241.88 30.0555C242.114 30.2635 242.556 30.3675 243.206 30.3675C243.531 30.3675 243.81 30.335 244.044 30.27C244.291 30.192 244.499 30.0295 244.668 29.7825C244.85 29.5225 245.006 29.126 245.136 28.593C245.279 28.047 245.416 27.3125 245.546 26.3895L248.12 26.799C248.068 27.098 248.016 27.4165 247.964 27.7545C247.912 28.0925 247.866 28.4045 247.827 28.6905C247.788 28.9765 247.769 29.2105 247.769 29.3925C247.769 29.5615 247.814 29.724 247.905 29.88C248.009 30.023 248.191 30.14 248.451 30.231C248.724 30.322 249.108 30.3675 249.602 30.3675C249.953 30.3675 250.252 30.322 250.499 30.231C250.759 30.14 250.954 29.9905 251.084 29.7825C251.227 29.5745 251.298 29.3015 251.298 28.9635C251.298 28.4825 251.188 27.852 250.967 27.072C250.746 26.292 250.486 25.473 250.187 24.615L252.936 23.796C253.144 24.355 253.326 24.953 253.482 25.59C253.651 26.214 253.781 26.825 253.872 27.423C253.976 28.008 254.028 28.5215 254.028 28.9635C254.028 29.6265 253.924 30.218 253.716 30.738C253.508 31.245 253.216 31.674 252.839 32.025C252.462 32.376 252.013 32.6425 251.493 32.8245C250.973 33.0065 250.401 33.0975 249.777 33.0975C249.023 33.0975 248.406 33.026 247.925 32.883C247.444 32.727 247.073 32.4735 246.813 32.1225C246.566 31.7585 246.404 31.2645 246.326 30.6405H246.989C246.716 31.4075 246.41 31.9665 246.072 32.3175C245.734 32.6555 245.331 32.87 244.863 32.961C244.408 33.052 243.836 33.0975 243.147 33.0975C242.718 33.0975 242.276 33.052 241.821 32.961C241.379 32.857 240.983 32.623 240.632 32.259C240.281 31.895 240.021 31.3295 239.852 30.5625L240.905 30.5235C240.632 31.2905 240.274 31.856 239.832 32.22C239.403 32.584 238.909 32.8245 238.35 32.9415C237.791 33.0455 237.167 33.0975 236.478 33.0975ZM261.188 33.0975C259.979 33.0975 259.043 32.974 258.38 32.727C257.73 32.48 257.275 32.0965 257.015 31.5765C256.755 31.0435 256.606 30.374 256.567 29.568L256.157 18.726H258.887L259.297 28.2615C259.323 28.8595 259.388 29.308 259.492 29.607C259.596 29.906 259.791 30.1075 260.077 30.2115C260.376 30.3155 260.811 30.3675 261.383 30.3675C261.877 30.3675 262.228 30.4975 262.436 30.7575C262.657 31.0045 262.768 31.3165 262.768 31.6935C262.768 32.0965 262.631 32.4345 262.358 32.7075C262.085 32.9675 261.695 33.0975 261.188 33.0975ZM261.215 33.0975L261.41 30.3675C261.878 30.3675 262.281 30.322 262.619 30.231C262.957 30.14 263.243 29.958 263.477 29.685C263.711 29.399 263.906 28.983 264.062 28.437C264.231 27.891 264.38 27.163 264.51 26.253L267.065 26.682C267.039 26.877 267 27.1045 266.948 27.3645C266.909 27.6245 266.87 27.891 266.831 28.164C266.805 28.424 266.792 28.671 266.792 28.905C266.792 29.139 266.837 29.347 266.928 29.529C267.019 29.711 267.162 29.867 267.357 29.997C267.565 30.114 267.832 30.205 268.157 30.27C268.495 30.335 268.904 30.3675 269.385 30.3675C269.879 30.3675 270.23 30.4975 270.438 30.7575C270.646 31.0045 270.75 31.3165 270.75 31.6935C270.75 32.0965 270.614 32.4345 270.341 32.7075C270.081 32.9675 269.697 33.0975 269.19 33.0975C268.605 33.0975 268.072 33.052 267.591 32.961C267.123 32.87 266.714 32.7205 266.363 32.5125C266.025 32.2915 265.745 32.0055 265.524 31.6545C265.316 31.2905 265.186 30.8485 265.134 30.3285H266.07C265.836 30.9525 265.537 31.453 265.173 31.83C264.822 32.194 264.426 32.467 263.984 32.649C263.542 32.831 263.08 32.948 262.599 33C262.131 33.065 261.67 33.0975 261.215 33.0975ZM267.474 24.498C267.097 24.498 266.772 24.368 266.499 24.108C266.239 23.835 266.109 23.5165 266.109 23.1525C266.109 22.7755 266.239 22.4505 266.499 22.1775C266.772 21.9045 267.097 21.768 267.474 21.768C267.838 21.768 268.15 21.9045 268.41 22.1775C268.67 22.4505 268.8 22.7755 268.8 23.1525C268.8 23.5165 268.67 23.835 268.41 24.108C268.15 24.368 267.838 24.498 267.474 24.498ZM264.101 24.4785C263.724 24.4785 263.399 24.3485 263.126 24.0885C262.866 23.8155 262.736 23.497 262.736 23.133C262.736 22.756 262.866 22.431 263.126 22.158C263.399 21.885 263.724 21.7485 264.101 21.7485C264.465 21.7485 264.777 21.885 265.037 22.158C265.297 22.431 265.427 22.756 265.427 23.133C265.427 23.497 265.297 23.8155 265.037 24.0885C264.777 24.3485 264.465 24.4785 264.101 24.4785ZM269.194 33.0975L269.389 30.3675C269.987 30.3675 270.416 30.309 270.676 30.192C270.936 30.062 271.092 29.828 271.144 29.49C271.196 29.139 271.209 28.632 271.183 27.969L270.832 18.726H273.581L273.971 28.164C273.997 28.918 273.965 29.6005 273.874 30.2115C273.796 30.8095 273.594 31.323 273.269 31.752C272.957 32.181 272.47 32.5125 271.807 32.7465C271.157 32.9805 270.286 33.0975 269.194 33.0975ZM276.543 33L276.133 18.726H278.863L279.273 33H276.543ZM284.135 32.454C284.135 32.155 284.161 31.804 284.213 31.401C284.265 30.998 284.363 30.543 284.506 30.036C284.649 29.516 284.863 28.9375 285.149 28.3005L287.548 29.139C287.405 29.542 287.281 29.9125 287.177 30.2505C287.073 30.5755 286.995 30.881 286.943 31.167C286.891 31.44 286.865 31.713 286.865 31.986C286.865 32.376 286.95 32.74 287.119 33.078C287.288 33.416 287.541 33.7085 287.879 33.9555C288.217 34.2155 288.633 34.417 289.127 34.56C289.634 34.703 290.219 34.7745 290.882 34.7745C291.636 34.7745 292.299 34.703 292.871 34.56C293.456 34.43 293.944 34.2545 294.334 34.0335C294.737 33.8255 295.042 33.6045 295.25 33.3705C295.458 33.1365 295.562 32.922 295.562 32.727C295.562 32.571 295.452 32.4345 295.231 32.3175C295.023 32.2005 294.743 32.0835 294.392 31.9665C294.054 31.8365 293.69 31.6935 293.3 31.5375C292.923 31.3815 292.559 31.1865 292.208 30.9525C291.87 30.7185 291.591 30.4325 291.37 30.0945C291.162 29.7565 291.058 29.347 291.058 28.866C291.058 28.372 291.188 27.8325 291.448 27.2475C291.708 26.6495 292.078 26.084 292.559 25.551C293.04 25.005 293.612 24.563 294.275 24.225C294.951 23.874 295.692 23.6985 296.498 23.6985C297.07 23.6985 297.59 23.7895 298.058 23.9715C298.539 24.1535 298.942 24.3615 299.267 24.5955L298.253 26.877C297.98 26.695 297.688 26.5585 297.376 26.4675C297.064 26.3635 296.765 26.3115 296.479 26.3115C296.115 26.3115 295.764 26.383 295.426 26.526C295.101 26.669 294.808 26.8575 294.548 27.0915C294.301 27.3125 294.106 27.553 293.963 27.813C293.82 28.073 293.749 28.32 293.749 28.554C293.749 28.788 293.859 28.996 294.08 29.178C294.314 29.347 294.613 29.5095 294.977 29.6655C295.341 29.8085 295.725 29.958 296.128 30.114C296.531 30.27 296.914 30.4455 297.278 30.6405C297.642 30.8355 297.935 31.0695 298.156 31.3425C298.39 31.6155 298.507 31.947 298.507 32.337C298.507 32.896 298.331 33.4745 297.98 34.0725C297.642 34.6835 297.135 35.249 296.459 35.769C295.783 36.289 294.951 36.705 293.963 37.017C292.988 37.342 291.857 37.5045 290.57 37.5045C289.634 37.5045 288.776 37.394 287.996 37.173C287.216 36.965 286.534 36.6465 285.949 36.2175C285.377 35.8015 284.928 35.275 284.603 34.638C284.291 34.014 284.135 33.286 284.135 32.454ZM300.755 37.485L300.19 34.755C301.113 34.638 301.919 34.495 302.608 34.326C303.297 34.17 303.875 33.949 304.343 33.663C304.811 33.377 305.162 32.987 305.396 32.493C305.63 31.986 305.747 31.336 305.747 30.543C305.747 29.776 305.63 29.165 305.396 28.71C305.162 28.255 304.85 28.0275 304.46 28.0275C304.187 28.0275 303.96 28.125 303.778 28.32C303.596 28.502 303.459 28.723 303.368 28.983C303.29 29.23 303.251 29.451 303.251 29.646C303.251 29.763 303.284 29.8865 303.349 30.0165C303.414 30.1465 303.557 30.257 303.778 30.348C303.999 30.439 304.343 30.491 304.811 30.504C305.292 30.517 305.942 30.4715 306.761 30.3675H310.037C310.531 30.3675 310.882 30.4975 311.09 30.7575C311.311 31.0045 311.422 31.3165 311.422 31.6935C311.422 32.0965 311.285 32.4345 311.012 32.7075C310.739 32.9675 310.349 33.0975 309.842 33.0975H304.48C303.661 33.0975 302.959 33 302.374 32.805C301.789 32.61 301.34 32.298 301.028 31.869C300.716 31.427 300.56 30.842 300.56 30.114C300.56 29.529 300.658 28.944 300.853 28.359C301.061 27.774 301.347 27.241 301.711 26.76C302.075 26.266 302.497 25.876 302.978 25.59C303.472 25.291 304.005 25.1415 304.577 25.1415C305.357 25.1415 306.04 25.382 306.625 25.863C307.21 26.344 307.665 26.981 307.99 27.774C308.328 28.567 308.497 29.4315 308.497 30.3675C308.497 31.8365 308.185 33.0845 307.561 34.1115C306.937 35.1385 306.046 35.9315 304.889 36.4905C303.732 37.0625 302.354 37.394 300.755 37.485ZM309.87 33.0975L310.065 30.3675C310.533 30.3675 310.936 30.322 311.274 30.231C311.612 30.14 311.898 29.958 312.132 29.685C312.366 29.399 312.561 28.983 312.717 28.437C312.886 27.891 313.035 27.163 313.165 26.253L315.72 26.682C315.694 26.877 315.655 27.1045 315.603 27.3645C315.564 27.6245 315.525 27.891 315.486 28.164C315.46 28.424 315.447 28.671 315.447 28.905C315.447 29.139 315.492 29.347 315.583 29.529C315.674 29.711 315.817 29.867 316.012 29.997C316.22 30.114 316.487 30.205 316.812 30.27C317.15 30.335 317.559 30.3675 318.04 30.3675C318.534 30.3675 318.885 30.4975 319.093 30.7575C319.301 31.0045 319.405 31.3165 319.405 31.6935C319.405 32.0965 319.269 32.4345 318.996 32.7075C318.736 32.9675 318.352 33.0975 317.845 33.0975C317.26 33.0975 316.727 33.052 316.246 32.961C315.778 32.87 315.369 32.7205 315.018 32.5125C314.68 32.2915 314.4 32.0055 314.179 31.6545C313.971 31.2905 313.841 30.8485 313.789 30.3285H314.725C314.491 30.9525 314.192 31.453 313.828 31.83C313.477 32.194 313.081 32.467 312.639 32.649C312.197 32.831 311.735 32.948 311.254 33C310.786 33.065 310.325 33.0975 309.87 33.0975ZM316.129 24.498C315.752 24.498 315.427 24.368 315.154 24.108C314.894 23.835 314.764 23.5165 314.764 23.1525C314.764 22.7755 314.894 22.4505 315.154 22.1775C315.427 21.9045 315.752 21.768 316.129 21.768C316.493 21.768 316.805 21.9045 317.065 22.1775C317.325 22.4505 317.455 22.7755 317.455 23.1525C317.455 23.5165 317.325 23.835 317.065 24.108C316.805 24.368 316.493 24.498 316.129 24.498ZM312.756 24.4785C312.379 24.4785 312.054 24.3485 311.781 24.0885C311.521 23.8155 311.391 23.497 311.391 23.133C311.391 22.756 311.521 22.431 311.781 22.158C312.054 21.885 312.379 21.7485 312.756 21.7485C313.12 21.7485 313.432 21.885 313.692 22.158C313.952 22.431 314.082 22.756 314.082 23.133C314.082 23.497 313.952 23.8155 313.692 24.0885C313.432 24.3485 313.12 24.4785 312.756 24.4785ZM317.849 33.0975L318.044 30.3675C318.473 30.3675 318.824 30.335 319.097 30.27C319.37 30.192 319.591 30.0295 319.76 29.7825C319.942 29.5225 320.098 29.139 320.228 28.632C320.371 28.112 320.527 27.41 320.696 26.526L323.231 26.994C323.179 27.28 323.107 27.6375 323.016 28.0665C322.938 28.4955 322.899 28.866 322.899 29.178C322.899 29.425 322.945 29.6395 323.036 29.8215C323.14 29.9905 323.309 30.127 323.543 30.231C323.79 30.322 324.128 30.3675 324.557 30.3675C324.895 30.3675 325.181 30.335 325.415 30.27C325.662 30.192 325.87 30.0295 326.039 29.7825C326.221 29.5225 326.377 29.126 326.507 28.593C326.65 28.047 326.786 27.3125 326.916 26.3895L329.49 26.799C329.438 27.098 329.386 27.4165 329.334 27.7545C329.282 28.0925 329.237 28.4045 329.198 28.6905C329.159 28.9765 329.139 29.2105 329.139 29.3925C329.139 29.5615 329.185 29.724 329.276 29.88C329.38 30.023 329.562 30.14 329.822 30.231C330.095 30.322 330.472 30.3675 330.953 30.3675C331.538 30.3675 331.967 30.244 332.24 29.997C332.526 29.737 332.669 29.347 332.669 28.827C332.669 28.528 332.662 28.2095 332.649 27.8715C332.636 27.5205 332.61 27.1305 332.571 26.7015C332.545 26.2595 332.493 25.759 332.415 25.2L334.931 25.005C335.022 26.123 335.126 27.033 335.243 27.735C335.36 28.437 335.516 28.983 335.711 29.373C335.919 29.75 336.192 30.01 336.53 30.153C336.881 30.296 337.336 30.3675 337.895 30.3675C338.389 30.3675 338.74 30.4975 338.948 30.7575C339.169 31.0045 339.279 31.3165 339.279 31.6935C339.279 32.0965 339.143 32.4345 338.87 32.7075C338.61 32.9675 338.22 33.0975 337.7 33.0975C337.349 33.0975 336.985 33.065 336.608 33C336.231 32.948 335.867 32.8375 335.516 32.6685C335.165 32.4865 334.853 32.2265 334.58 31.8885C334.307 31.5505 334.092 31.102 333.936 30.543L334.287 30.66C334.105 31.31 333.858 31.8105 333.546 32.1615C333.234 32.5125 332.851 32.7595 332.396 32.9025C331.941 33.0325 331.395 33.0975 330.758 33.0975C330.173 33.0975 329.653 33.0195 329.198 32.8635C328.743 32.7075 328.379 32.454 328.106 32.103C327.846 31.739 327.709 31.2515 327.696 30.6405H328.359C328.099 31.3685 327.8 31.908 327.462 32.259C327.124 32.61 326.715 32.8375 326.234 32.9415C325.753 33.0455 325.148 33.0975 324.42 33.0975C323.978 33.0975 323.543 33.052 323.114 32.961C322.685 32.857 322.301 32.6295 321.963 32.2785C321.625 31.9145 321.378 31.3425 321.222 30.5625L322.275 30.5235C322.002 31.2905 321.645 31.856 321.203 32.22C320.774 32.584 320.28 32.8245 319.721 32.9415C319.162 33.0455 318.538 33.0975 317.849 33.0975ZM337.71 33.0975L337.905 30.3675C338.23 30.3675 338.477 30.3025 338.646 30.1725C338.815 30.0425 338.984 29.815 339.153 29.49C339.322 29.165 339.556 28.723 339.855 28.164C340.18 27.54 340.518 27.02 340.869 26.604C341.22 26.175 341.571 25.837 341.922 25.59C342.286 25.33 342.644 25.148 342.995 25.044C343.359 24.927 343.716 24.8685 344.067 24.8685C344.548 24.8685 344.997 24.9725 345.413 25.1805C345.842 25.3755 346.251 25.72 346.641 26.214C347.031 26.695 347.402 27.358 347.753 28.203C348 28.788 348.247 29.2365 348.494 29.5485C348.741 29.8605 348.994 30.075 349.254 30.192C349.527 30.309 349.8 30.3675 350.073 30.3675C350.567 30.3675 350.918 30.4975 351.126 30.7575C351.334 31.0045 351.438 31.3165 351.438 31.6935C351.438 32.0965 351.302 32.4345 351.029 32.7075C350.756 32.9675 350.372 33.0975 349.878 33.0975C349.241 33.0975 348.663 32.9935 348.143 32.7855C347.623 32.5775 347.213 32.2655 346.914 31.8495L347.48 31.4205C347.363 31.6935 347.187 31.9795 346.953 32.2785C346.732 32.5775 346.44 32.831 346.076 33.039C345.725 33.247 345.302 33.351 344.808 33.351C344.483 33.351 344.1 33.286 343.658 33.156C343.229 33.039 342.78 32.8375 342.312 32.5515C341.857 32.2525 341.435 31.8495 341.045 31.3425C340.798 31.7975 340.525 32.155 340.226 32.415C339.927 32.662 339.576 32.8375 339.173 32.9415C338.77 33.0455 338.282 33.0975 337.71 33.0975ZM342.176 29.0415C342.306 29.2365 342.462 29.4315 342.644 29.6265C342.826 29.8215 343.027 29.997 343.248 30.153C343.469 30.296 343.703 30.413 343.95 30.504C344.21 30.595 344.464 30.6405 344.711 30.6405C344.971 30.6405 345.185 30.543 345.354 30.348C345.523 30.14 345.53 29.8345 345.374 29.4315C345.309 29.2625 345.218 29.074 345.101 28.866C344.997 28.645 344.873 28.437 344.73 28.242C344.6 28.047 344.451 27.8845 344.282 27.7545C344.126 27.6245 343.963 27.5595 343.794 27.5595C343.625 27.5595 343.45 27.6115 343.268 27.7155C343.086 27.8195 342.904 27.982 342.722 28.203C342.54 28.411 342.358 28.6905 342.176 29.0415ZM349.879 33.0975L350.074 30.3675C350.672 30.3675 351.101 30.309 351.361 30.192C351.621 30.062 351.777 29.828 351.829 29.49C351.881 29.139 351.894 28.632 351.868 27.969L351.517 18.726H354.266L354.656 28.164C354.682 28.918 354.65 29.6005 354.559 30.2115C354.481 30.8095 354.279 31.323 353.954 31.752C353.642 32.181 353.155 32.5125 352.492 32.7465C351.842 32.9805 350.971 33.0975 349.879 33.0975ZM357.228 33L356.818 18.726H359.548L359.958 33H357.228Z" fill="#223F99"/>
<path d="M22.18 117H18.26L13.04 109.12V117H9.12V102.9H13.04L18.26 110.88V102.9H22.18V117ZM26.393 104.74C25.6996 104.74 25.1396 104.553 24.713 104.18C24.2996 103.793 24.093 103.313 24.093 102.74C24.093 102.153 24.2996 101.667 24.713 101.28C25.1396 100.893 25.6996 100.7 26.393 100.7C27.073 100.7 27.6196 100.893 28.033 101.28C28.4596 101.667 28.673 102.153 28.673 102.74C28.673 103.313 28.4596 103.793 28.033 104.18C27.6196 104.553 27.073 104.74 26.393 104.74ZM28.333 105.78V117H24.413V105.78H28.333ZM37.9053 105.68C39.1986 105.68 40.2253 106.113 40.9853 106.98C41.7453 107.833 42.1253 108.993 42.1253 110.46V117H38.2053V110.98C38.2053 110.34 38.0386 109.84 37.7053 109.48C37.372 109.107 36.9253 108.92 36.3653 108.92C35.7786 108.92 35.3186 109.107 34.9853 109.48C34.652 109.84 34.4853 110.34 34.4853 110.98V117H30.5653V105.78H34.4853V107.38C34.832 106.873 35.2986 106.467 35.8853 106.16C36.472 105.84 37.1453 105.68 37.9053 105.68ZM50.8963 113.66V117H49.1963C46.3296 117 44.8963 115.58 44.8963 112.74V109.04H43.5163V105.78H44.8963V103.06H48.8363V105.78H50.8763V109.04H48.8363V112.8C48.8363 113.107 48.9029 113.327 49.0362 113.46C49.1829 113.593 49.4229 113.66 49.7563 113.66H50.8963ZM60.0742 105.68C61.3542 105.68 62.3676 106.113 63.1142 106.98C63.8742 107.833 64.2542 108.993 64.2542 110.46V117H60.3342V110.98C60.3342 110.34 60.1676 109.84 59.8342 109.48C59.5009 109.107 59.0542 108.92 58.4942 108.92C57.9076 108.92 57.4476 109.107 57.1142 109.48C56.7809 109.84 56.6142 110.34 56.6142 110.98V117H52.6942V102.2H56.6142V107.38C56.9609 106.873 57.4276 106.467 58.0142 106.16C58.6142 105.84 59.3009 105.68 60.0742 105.68ZM74.1533 114H78.5333V117H70.2333V102.9H74.1533V114ZM90.7775 111.26C90.7775 111.567 90.7575 111.873 90.7175 112.18H83.2975C83.3375 112.793 83.5042 113.253 83.7975 113.56C84.1042 113.853 84.4908 114 84.9575 114C85.6108 114 86.0775 113.707 86.3575 113.12H90.5375C90.3642 113.893 90.0242 114.587 89.5175 115.2C89.0242 115.8 88.3975 116.273 87.6375 116.62C86.8775 116.967 86.0375 117.14 85.1175 117.14C84.0108 117.14 83.0242 116.907 82.1575 116.44C81.3042 115.973 80.6308 115.307 80.1375 114.44C79.6575 113.573 79.4175 112.553 79.4175 111.38C79.4175 110.207 79.6575 109.193 80.1375 108.34C80.6175 107.473 81.2842 106.807 82.1375 106.34C83.0042 105.873 83.9975 105.64 85.1175 105.64C86.2242 105.64 87.2042 105.867 88.0575 106.32C88.9108 106.773 89.5775 107.427 90.0575 108.28C90.5375 109.12 90.7775 110.113 90.7775 111.26ZM86.7775 110.28C86.7775 109.8 86.6175 109.427 86.2975 109.16C85.9775 108.88 85.5775 108.74 85.0975 108.74C84.6175 108.74 84.2242 108.873 83.9175 109.14C83.6108 109.393 83.4108 109.773 83.3175 110.28H86.7775ZM97.7617 113.3L99.8617 105.78H104.042L100.182 117H95.3017L91.4417 105.78H95.6217L97.7617 113.3ZM116.09 111.26C116.09 111.567 116.07 111.873 116.03 112.18H108.61C108.65 112.793 108.817 113.253 109.11 113.56C109.417 113.853 109.803 114 110.27 114C110.923 114 111.39 113.707 111.67 113.12H115.85C115.677 113.893 115.337 114.587 114.83 115.2C114.337 115.8 113.71 116.273 112.95 116.62C112.19 116.967 111.35 117.14 110.43 117.14C109.323 117.14 108.337 116.907 107.47 116.44C106.617 115.973 105.943 115.307 105.45 114.44C104.97 113.573 104.73 112.553 104.73 111.38C104.73 110.207 104.97 109.193 105.45 108.34C105.93 107.473 106.597 106.807 107.45 106.34C108.317 105.873 109.31 105.64 110.43 105.64C111.537 105.64 112.517 105.867 113.37 106.32C114.223 106.773 114.89 107.427 115.37 108.28C115.85 109.12 116.09 110.113 116.09 111.26ZM112.09 110.28C112.09 109.8 111.93 109.427 111.61 109.16C111.29 108.88 110.89 108.74 110.41 108.74C109.93 108.74 109.537 108.873 109.23 109.14C108.923 109.393 108.723 109.773 108.63 110.28H112.09ZM121.614 102.2V117H117.694V102.2H121.614Z" fill="#223F99"/>
</g>
</g>
<defs>
<filter id="filter0_d_8_615" x="145" y="45" width="84" height="84" filterUnits="userSpaceOnUse" color-interpolation-filters="sRGB">
<feFlood flood-opacity="0" result="BackgroundImageFix"/>
<feColorMatrix in="SourceAlpha" type="matrix" values="0 0 0 0 0 0 0 0 0 0 0 0 0 0 0 0 0 0 127 0" result="hardAlpha"/>
<feOffset dy="4"/>
<feGaussianBlur stdDeviation="2"/>
<feComposite in2="hardAlpha" operator="out"/>
<feColorMatrix type="matrix" values="0 0 0 0 0 0 0 0 0 0 0 0 0 0 0 0 0 0 0.25 0"/>
<feBlend mode="normal" in2="BackgroundImageFix" result="effect1_dropShadow_8_615"/>
<feBlend mode="normal" in="SourceGraphic" in2="effect1_dropShadow_8_615" result="shape"/>
</filter>
<linearGradient id="paint0_linear_8_615" x1="39" y1="-127.5" x2="320" y2="185" gradientUnits="userSpaceOnUse">
<stop stop-color="#E6E6E6"/>
<stop offset="1" stop-color="#D9D9D9" stop-opacity="0"/>
</linearGradient>
<clipPath id="clip0_8_615">
<rect width="374" height="138.5" fill="white"/>
</clipPath>
<clipPath id="clip1_8_615">
<rect width="373.799" height="138.5" fill="white"/>
</clipPath>
</defs>
</svg>
