<svg width="143" height="143" viewBox="0 0 143 143" fill="none" xmlns="http://www.w3.org/2000/svg">
<path d="M16.4492 96.6577L25.2543 92.6709L25.9521 94.1962L21.8369 101.379L27.9514 98.6107L28.6453 100.143L19.8402 104.129L19.1464 102.597L23.2629 95.4144L17.147 98.183L16.4492 96.6577Z" fill="#1E4397"/>
<path d="M28.7851 102.868C29.9253 103.05 30.9668 103.622 31.7322 104.487C32.4977 105.351 32.9395 106.454 32.9825 107.608C33.0256 108.762 32.667 109.895 31.9682 110.814C31.2692 111.733 30.2731 112.381 29.1498 112.648C28.0264 112.915 26.8452 112.784 25.8077 112.277C24.7701 111.771 23.9404 110.92 23.4601 109.87C22.9797 108.82 22.8784 107.636 23.1734 106.519C23.4683 105.403 24.1413 104.424 25.0777 103.748C25.6031 103.357 26.203 103.076 26.8404 102.925C27.478 102.774 28.1397 102.754 28.7851 102.868ZM26.076 105.132C25.7246 105.385 25.4269 105.706 25.1999 106.075C24.9728 106.444 24.821 106.854 24.753 107.282C24.6851 107.71 24.7025 108.148 24.804 108.569C24.9057 108.99 25.0896 109.387 25.3452 109.737C25.5918 110.088 25.9083 110.385 26.2749 110.609C26.6414 110.833 27.0502 110.979 27.4756 111.037C27.9037 111.107 28.3415 111.09 28.7625 110.985C29.1835 110.88 29.5786 110.691 29.9238 110.428C30.6248 109.92 31.0955 109.155 31.2328 108.301C31.3701 107.446 31.1626 106.572 30.656 105.871C30.4076 105.517 30.0898 105.217 29.722 104.989C29.3542 104.761 28.944 104.611 28.5163 104.547C28.0912 104.471 27.655 104.483 27.235 104.584C26.815 104.685 26.4204 104.871 26.076 105.132Z" fill="#1E4397"/>
<path d="M28.9453 116.681L35.473 109.554L36.7137 110.688L35.7484 118.912L40.282 113.962L41.5227 115.098L34.995 122.226L33.7623 121.09L34.7222 112.867L30.1873 117.817L28.9453 116.681Z" fill="#1E4397"/>
<path d="M43.444 122.886L39.3672 120.169L40.0729 119.109L44.1497 121.826L43.444 122.886Z" fill="#1E4397"/>
<path d="M49.666 120.022L51.3026 120.802L50.2367 130.998L48.575 130.203L48.8398 127.846L45.7441 126.37L44.0758 128.053L42.4141 127.259L49.666 120.022ZM49.0887 126.246L49.4979 122.465L46.8418 125.173L49.0887 126.246Z" fill="#1E4397"/>
<path d="M58.4469 123.388C59.4056 123.663 60.098 124.171 60.5244 124.912C60.7331 125.267 60.8656 125.661 60.9134 126.069C60.9613 126.478 60.9235 126.892 60.8025 127.285C60.6371 127.891 60.2781 128.427 59.7803 128.81C59.2893 129.196 58.6833 129.406 58.059 129.406L59.1593 133.643L57.3135 133.113L56.343 129.24L54.8031 128.8L53.8511 132.122L52.2344 131.66L54.8958 122.367L58.4469 123.388ZM57.1639 127.773C57.5806 127.914 58.0357 127.886 58.4324 127.697C58.607 127.609 58.7615 127.486 58.8864 127.336C59.0111 127.185 59.1034 127.01 59.1572 126.823C59.2111 126.635 59.2255 126.438 59.1994 126.244C59.1733 126.05 59.1074 125.864 59.0057 125.697C58.7691 125.327 58.3978 125.063 57.9703 124.961L56.0609 124.414L55.2546 127.227L57.1639 127.773Z" fill="#1E4397"/>
<path d="M65.0043 124.728L66.8064 124.933L69.1182 134.923L67.2897 134.714L66.76 132.403L63.3625 132.01L62.3336 134.146L60.5117 133.942L65.0043 124.728ZM66.4859 130.8L65.6425 127.092L64.0126 130.518L66.4859 130.8Z" fill="#1E4397"/>
<path d="M70.7227 125.248L74.2407 125.071C75.1394 125.025 75.8826 125.219 76.4705 125.654C76.7555 125.858 76.9888 126.126 77.1518 126.437C77.3148 126.747 77.403 127.092 77.4092 127.442C77.4406 127.832 77.367 128.223 77.1961 128.574C77.0251 128.926 76.7632 129.225 76.4374 129.44C76.9259 129.593 77.3581 129.887 77.6793 130.285C78.0017 130.697 78.1833 131.202 78.1971 131.725C78.2257 132.107 78.1692 132.49 78.0319 132.847C77.8945 133.205 77.6796 133.528 77.4026 133.793C76.8342 134.351 76.0781 134.655 75.1345 134.702L71.2073 134.902L70.7227 125.248ZM72.6015 129.088L74.5055 128.992C74.8603 128.983 75.1998 128.846 75.4602 128.605C75.5729 128.497 75.6601 128.365 75.7157 128.219C75.7714 128.073 75.794 127.916 75.7819 127.76C75.7774 127.595 75.7376 127.433 75.6649 127.284C75.5923 127.136 75.4887 127.004 75.3609 126.9C75.0961 126.68 74.735 126.581 74.2778 126.603L72.4797 126.694L72.6015 129.088ZM72.8094 133.201L74.9915 133.091C75.4668 133.066 75.8362 132.924 76.0971 132.663C76.2252 132.535 76.324 132.38 76.3861 132.21C76.4484 132.039 76.4726 131.858 76.4572 131.677C76.4546 131.497 76.4114 131.321 76.3309 131.16C76.2505 131 76.1348 130.859 75.9925 130.75C75.6875 130.517 75.3063 130.406 74.9239 130.44L72.673 130.554L72.8094 133.201Z" fill="#1E4397"/>
<path d="M85.4991 123.115C86.4577 122.839 87.3144 122.903 88.0691 123.307C88.4294 123.505 88.747 123.772 89.0038 124.093C89.2604 124.414 89.451 124.783 89.5645 125.178C89.6781 125.573 89.7125 125.986 89.6655 126.395C89.6187 126.803 89.4914 127.198 89.2912 127.557C88.8658 128.299 88.1737 128.807 87.2151 129.084L85.2819 129.64L86.2366 132.961L84.6199 133.425L81.9492 124.137L85.4991 123.115ZM86.7357 127.508C87.1637 127.406 87.5351 127.141 87.7712 126.769C87.873 126.602 87.9391 126.416 87.9651 126.223C87.9912 126.029 87.9768 125.832 87.9228 125.644C87.8688 125.456 87.7763 125.282 87.6512 125.131C87.5262 124.981 87.3714 124.859 87.1965 124.771C86.7997 124.582 86.3446 124.555 85.9281 124.696L84.0187 125.244L84.8278 128.056L86.7357 127.508Z" fill="#1E4397"/>
<path d="M94.5767 130.092L93.1202 130.693L89.1758 121.153L90.6323 120.551L94.5767 130.092Z" fill="#1E4397"/>
<path d="M94.3056 123.389C94.4041 122.934 94.5995 122.506 94.8785 122.134C95.1575 121.761 95.5135 121.454 95.9223 121.231C96.3824 120.972 96.9055 120.847 97.433 120.868C97.9343 120.878 98.4228 121.029 98.8418 121.304L98.2473 120.055L99.5092 119.354L103.051 125.717L101.789 126.419L101.045 125.272C101.053 125.769 100.921 126.258 100.664 126.682C100.401 127.139 100.018 127.515 99.5555 127.768C99.1502 127.999 98.7002 128.139 98.2358 128.181C97.7713 128.223 97.3034 128.164 96.8637 128.009C95.9351 127.7 95.1564 127.054 94.6816 126.199C94.2069 125.343 94.0708 124.341 94.3003 123.389H94.3056ZM97.392 126.46C97.6657 126.546 97.9545 126.575 98.2398 126.544C98.5251 126.513 98.8009 126.423 99.0497 126.28C99.3118 126.146 99.5441 125.961 99.7329 125.735C99.9219 125.51 100.063 125.248 100.149 124.967C100.235 124.686 100.263 124.39 100.232 124.097C100.201 123.805 100.112 123.522 99.9688 123.264C99.8259 123.007 99.6328 122.781 99.4009 122.6C99.1689 122.42 98.9029 122.287 98.6187 122.211C98.3345 122.135 98.038 122.117 97.7467 122.158C97.4554 122.199 97.1754 122.299 96.9233 122.451C96.6706 122.586 96.4486 122.772 96.2713 122.997C96.094 123.222 95.9653 123.481 95.8931 123.759C95.8118 124.036 95.7877 124.327 95.8223 124.614C95.857 124.9 95.9495 125.177 96.0944 125.427C96.2288 125.679 96.4132 125.9 96.6365 126.078C96.8596 126.255 97.1167 126.385 97.392 126.46Z" fill="#1E4397"/>
<path d="M100.252 118.782L101.068 118.17L99.8086 116.136L100.857 115.35L102.287 117.256L103.654 116.233L104.496 117.356L103.128 118.38L104.916 120.764C105.212 121.16 105.526 121.394 105.856 121.466C106.028 121.499 106.206 121.493 106.376 121.449C106.546 121.404 106.704 121.322 106.838 121.209C106.981 121.099 107.106 120.967 107.206 120.818L108.365 121.703C108.158 122.038 107.888 122.33 107.57 122.563C106.952 123.024 106.304 123.207 105.624 123.111C104.944 123.016 104.294 122.556 103.674 121.73L101.872 119.324L101.098 119.904L100.252 118.782Z" fill="#1E4397"/>
<path d="M104.452 115.598L105.136 114.972L104.983 114.807C104.277 114.039 103.944 113.305 103.984 112.607C104.023 111.909 104.332 111.291 104.91 110.754C105.186 110.5 105.502 110.295 105.847 110.148L106.491 111.461C106.341 111.556 106.195 111.658 106.056 111.769C105.75 112.05 105.597 112.349 105.595 112.667C105.593 112.985 105.775 113.343 106.139 113.741L106.292 113.906L107.616 112.691L108.564 113.725L107.24 114.942L111.212 119.277L110.041 120.336L106.084 116.007L105.395 116.634L104.452 115.598Z" fill="#1E4397"/>
<path d="M109.7 112.017C109.629 111.153 109.86 110.291 110.353 109.579C110.846 108.866 111.571 108.346 112.404 108.108C113.237 107.87 114.127 107.928 114.922 108.273C115.717 108.617 116.369 109.227 116.765 109.997C117.161 110.768 117.278 111.652 117.095 112.499C116.912 113.346 116.441 114.104 115.763 114.643C115.084 115.182 114.24 115.469 113.373 115.455C112.507 115.441 111.672 115.127 111.011 114.567C110.63 114.254 110.316 113.866 110.091 113.428C109.865 112.989 109.733 112.509 109.7 112.017ZM112.046 113.341C112.26 113.525 112.509 113.665 112.777 113.753C113.046 113.84 113.329 113.873 113.611 113.849C113.892 113.826 114.166 113.747 114.416 113.616C114.667 113.486 114.889 113.306 115.069 113.089C115.255 112.877 115.394 112.63 115.48 112.362C115.565 112.093 115.594 111.811 115.564 111.531C115.517 110.965 115.246 110.441 114.812 110.075C114.378 109.708 113.817 109.529 113.251 109.577C112.685 109.625 112.161 109.895 111.795 110.329C111.428 110.763 111.249 111.325 111.297 111.891C111.316 112.171 111.392 112.444 111.521 112.694C111.65 112.943 111.829 113.163 112.046 113.341Z" fill="#1E4397"/>
<path d="M113.645 105.529L114.424 104.313L115.417 104.826C115.014 104.031 115.082 103.214 115.62 102.375C115.629 102.36 115.643 102.342 115.656 102.319C115.765 102.147 115.887 101.983 116.019 101.828L117.118 102.911C117.064 102.976 117.015 103.045 116.971 103.116C116.802 103.359 116.683 103.633 116.62 103.922C116.558 104.211 116.552 104.51 116.605 104.801C116.714 105.373 117.155 105.908 117.929 106.404L120.625 108.129L119.774 109.453L113.645 105.529Z" fill="#1E4397"/>
<path d="M123.348 103.963L116.652 101.103L117.219 99.7792L118.278 100.13C118.015 99.8254 117.842 99.4534 117.778 99.056C117.714 98.6585 117.762 98.2509 117.917 97.8791C118.082 97.4492 118.377 97.0807 118.759 96.8241C119.142 96.5675 119.595 96.4351 120.055 96.4451C119.749 96.1296 119.536 95.7348 119.441 95.3051C119.345 94.8696 119.392 94.4148 119.573 94.0075C119.903 93.2361 120.43 92.7387 121.154 92.5153C121.878 92.2921 122.796 92.4178 123.908 92.8927L127.44 94.4008L126.821 95.8493L123.286 94.3332C122.651 94.0631 122.134 93.9863 121.735 94.1029C121.546 94.1537 121.372 94.2477 121.225 94.3775C121.078 94.5074 120.964 94.6694 120.891 94.851C120.811 95.0298 120.774 95.2246 120.782 95.4202C120.789 95.6156 120.841 95.8069 120.934 95.9791C121.123 96.356 121.534 96.68 122.167 96.9509L125.698 98.4591L125.08 99.9089L121.551 98.4008C120.911 98.1272 120.392 98.0495 119.996 98.1678C119.807 98.2198 119.634 98.3147 119.488 98.4449C119.342 98.5752 119.229 98.7373 119.156 98.9185C119.078 99.1022 119.046 99.3021 119.062 99.5011C119.079 99.7 119.144 99.8918 119.252 100.06C119.474 100.447 119.91 100.78 120.561 101.058L123.971 102.515L123.348 103.963Z" fill="#1E4397"/>
<path d="M7.2098 58.8679C6.97126 58.7804 6.7766 58.6028 6.66773 58.3732C6.55885 58.1436 6.54446 57.8805 6.62765 57.6405C6.66831 57.5184 6.73363 57.406 6.81955 57.3102C6.90546 57.2145 7.01014 57.1374 7.12707 57.0838C7.24018 57.0275 7.36361 56.995 7.48977 56.9881C7.61594 56.9812 7.74218 57.0001 7.86072 57.044C7.98194 57.0838 8.09348 57.1486 8.18821 57.2341C8.28293 57.3196 8.35875 57.424 8.4108 57.5405C8.46482 57.6566 8.4951 57.7823 8.49985 57.9103C8.50461 58.0383 8.48374 58.1659 8.43848 58.2857C8.39783 58.4047 8.33363 58.5143 8.24971 58.608C8.16578 58.7016 8.06385 58.7773 7.94999 58.8307C7.83606 58.8883 7.71131 58.9214 7.58382 58.9277C7.45634 58.9341 7.32892 58.9137 7.2098 58.8679ZM8.07446 56.4261C7.95546 56.3855 7.84587 56.3213 7.75223 56.2373C7.65859 56.1534 7.58283 56.0514 7.52945 55.9377C7.47532 55.823 7.4443 55.6988 7.43817 55.5723C7.43203 55.4457 7.45088 55.3191 7.49366 55.1998C7.53643 55.0805 7.60229 54.9707 7.68747 54.8769C7.77266 54.783 7.87549 54.7068 7.9901 54.6527C8.10472 54.5985 8.22888 54.5675 8.35548 54.5615C8.48208 54.5552 8.60867 54.5742 8.72798 54.6169C8.84729 54.6597 8.95702 54.7255 9.05088 54.8108C9.14476 54.8959 9.22092 54.9988 9.27505 55.1133C9.35784 55.2853 9.38735 55.4781 9.3598 55.6669C9.33223 55.8557 9.24887 56.032 9.12041 56.1731C8.99193 56.3143 8.82421 56.4137 8.63879 56.4589C8.45337 56.504 8.25869 56.4926 8.07975 56.4263L8.07446 56.4261ZM9.62187 60.3038C9.41038 59.876 9.2888 59.4094 9.26463 58.9329C9.24045 58.4562 9.3142 57.9797 9.48131 57.5327L10.6551 54.2402L14.7199 55.6892C15.5251 55.977 16.0419 55.8003 16.2704 55.1586L16.4146 54.7468L18.0052 55.3142L17.8609 55.726C17.5382 56.6326 16.9265 57.1206 16.0254 57.1901C16.6029 58.0254 16.7088 58.9555 16.343 59.981C16.1839 60.4309 15.9378 60.8452 15.6186 61.2001C15.2992 61.555 14.9132 61.8433 14.4824 62.0487C14.0515 62.2542 13.5844 62.3726 13.1077 62.3973C12.631 62.4221 12.1542 62.3526 11.7044 62.1928C11.2466 62.037 10.8255 61.7892 10.4673 61.4643C10.1091 61.1393 9.82136 60.7444 9.62187 60.3038ZM12.2632 60.5808C12.5031 60.6697 12.7586 60.709 13.0141 60.6966C13.2696 60.684 13.52 60.6199 13.7502 60.5081C13.9839 60.4043 14.1936 60.2531 14.3661 60.0643C14.5386 59.8755 14.6701 59.6531 14.7525 59.4109C14.8385 59.1872 14.8763 58.948 14.863 58.7087C14.8498 58.4696 14.786 58.2359 14.6757 58.0231C14.4299 57.5614 14.0111 57.216 13.511 57.0626L11.6753 56.4073L11.0733 58.0936C10.984 58.3331 10.9452 58.5885 10.9593 58.8438C10.9734 59.0991 11.0402 59.3486 11.1554 59.5768C11.2623 59.8097 11.4153 60.0184 11.6053 60.1902C11.7953 60.3622 12.0183 60.4937 12.2606 60.5767L12.2632 60.5808Z" fill="black"/>
<path d="M16.2857 55.0943L16.716 54.0723C16.7849 53.9448 16.8217 53.8026 16.8235 53.6579C16.8254 53.5131 16.7921 53.3699 16.7266 53.2408C16.557 52.9534 16.2973 52.73 15.9878 52.6053L12.0977 50.782L12.8007 49.2461L16.7041 51.076C16.9984 51.2342 17.337 51.2906 17.6667 51.2362C17.8097 51.2023 17.9424 51.1342 18.0533 51.0378C18.1643 50.9414 18.2501 50.8196 18.3036 50.6827L18.8676 49.6526L20.2844 50.4364L19.8342 51.4004C19.4873 52.1373 18.9401 52.5726 18.1924 52.7059C18.5701 53.3653 18.5879 54.0599 18.2453 54.79L17.8004 55.7433L16.2857 55.0943ZM19.4555 55.4692C19.4071 55.3503 19.3843 55.2226 19.3889 55.0943C19.3934 54.966 19.4252 54.8402 19.482 54.7251C19.5919 54.4959 19.7873 54.319 20.0263 54.2327C20.2653 54.1462 20.5287 54.1571 20.7597 54.263C20.8751 54.3154 20.9789 54.3901 21.0652 54.4828C21.1517 54.5756 21.2188 54.6845 21.2629 54.8032C21.3094 54.9225 21.3309 55.05 21.3263 55.1779C21.3218 55.306 21.2912 55.4316 21.2364 55.5474C21.1836 55.663 21.107 55.7661 21.012 55.8506C20.9169 55.9349 20.8053 55.9985 20.6843 56.0373C20.565 56.0816 20.438 56.1015 20.3109 56.0959C20.1836 56.0902 20.059 56.059 19.9441 56.0042C19.8305 55.9529 19.7285 55.8792 19.6446 55.7872C19.5605 55.6951 19.4962 55.587 19.4555 55.4692ZM21.0444 53.6566C20.9299 53.6045 20.827 53.5301 20.742 53.4374C20.6569 53.3449 20.5913 53.2362 20.5492 53.1177C20.5029 52.9988 20.4818 52.8715 20.4875 52.744C20.4932 52.6167 20.5255 52.4918 20.5823 52.3775C20.6354 52.2643 20.7107 52.163 20.8038 52.0796C20.8968 51.9961 21.0056 51.9321 21.1239 51.8916C21.2414 51.8442 21.3678 51.8218 21.4945 51.8259C21.6212 51.83 21.7458 51.8605 21.86 51.9154C21.9763 51.9688 22.0804 52.0454 22.1658 52.1407C22.2512 52.2359 22.3161 52.3475 22.3566 52.4689C22.4028 52.5858 22.4248 52.7108 22.4211 52.8365C22.4175 52.9621 22.3883 53.0858 22.3354 53.1998C22.2826 53.3151 22.2063 53.4183 22.1115 53.5026C22.0167 53.5869 21.9053 53.6506 21.7846 53.6897C21.6653 53.734 21.5383 53.7539 21.4112 53.7483C21.2839 53.7427 21.1593 53.7114 21.0444 53.6566Z" fill="black"/>
<path d="M18.8224 49.698C19.1544 49.1154 18.9492 48.6128 18.2067 48.1899L14.4609 46.0555L15.3044 44.5752L19.0502 46.7096C19.8181 47.151 20.3178 47.7204 20.549 48.4177C20.7803 49.1151 20.6943 49.8212 20.2908 50.5362L20.0896 50.891L18.6026 50.1677L18.8224 49.698ZM22.0082 51.0314C21.7807 50.9007 21.6141 50.6854 21.5447 50.4325C21.4752 50.1795 21.5086 49.9094 21.6374 49.6808C21.7015 49.5634 21.7885 49.4601 21.8934 49.377C21.9982 49.2939 22.1189 49.2329 22.2478 49.1975C22.3728 49.1589 22.5044 49.1466 22.6344 49.1617C22.7643 49.1768 22.8897 49.2187 23.0025 49.2849C23.1177 49.3493 23.2185 49.4365 23.2987 49.5413C23.3788 49.646 23.4367 49.7661 23.4686 49.894C23.5062 50.023 23.5168 50.1583 23.5 50.2915C23.4832 50.4247 23.4391 50.5531 23.3706 50.6686C23.3079 50.7827 23.2223 50.8826 23.1193 50.9623C23.0164 51.042 22.8983 51.0998 22.7722 51.132C22.6446 51.168 22.5112 51.1777 22.3798 51.1603C22.2485 51.143 22.122 51.0992 22.0082 51.0314Z" fill="black"/>
<path d="M22.9949 48.8774C23.1489 48.7611 23.283 48.6208 23.3921 48.4616C23.9217 47.6672 23.7169 46.961 22.7777 46.3431L16.7188 42.302L17.6522 40.876L22.3169 43.9876L23.1246 42.776L24.5308 43.7121L23.7231 44.925L24.0144 45.1183C24.7576 45.6135 25.2193 46.2248 25.3994 46.9522C25.5795 47.6795 25.3786 48.4792 24.7969 49.3514C24.5965 49.6567 24.3453 49.9254 24.0541 50.1458L22.9949 48.8774Z" fill="black"/>
<path d="M24.7421 40.6615L21.126 40.2192L19.1836 38.5456L22.8235 34.3191C23.3875 33.665 23.9675 33.2519 24.5633 33.0798C25.1591 32.9077 25.7262 33.0528 26.2647 33.5154C26.4913 33.7131 26.6817 33.9488 26.8275 34.2119C26.9974 34.526 27.1217 34.8625 27.1969 35.2116C27.2869 35.6088 27.3558 35.9425 27.4008 36.2245C27.4458 36.5065 27.4975 36.8971 27.5557 37.395L29.5259 35.3532L30.6514 36.6111L24.4945 43.7611L23.1042 42.8343L24.7421 40.6615ZM22.3931 38.6634L26.0542 39.1441L26.3005 38.8567C26.2925 38.7482 26.274 38.5721 26.2462 38.3271C26.2184 38.0822 26.1972 37.91 26.1866 37.8041C26.176 37.6982 26.1548 37.5393 26.1257 37.3394C26.0966 37.1394 26.0727 36.9792 26.0555 36.8746C26.0383 36.77 26.0132 36.6363 25.984 36.4774C25.963 36.3483 25.9311 36.2212 25.8887 36.0974C25.8543 36.0028 25.8159 35.9022 25.7735 35.7955C25.7376 35.7011 25.689 35.612 25.6292 35.5307C25.5769 35.4594 25.5165 35.3946 25.4491 35.3374C25.1658 35.0831 24.8917 35.0107 24.6269 35.1202C24.362 35.2296 24.0531 35.4838 23.7 35.8829L21.7708 38.1232L22.3931 38.6634Z" fill="black"/>
<path d="M29.4607 35.4244L29.7626 35.149C30.2569 34.6979 30.2164 34.1563 29.6408 33.5243L23.9844 27.329L25.2422 26.1797L30.8987 32.3764C31.4945 33.0286 31.7947 33.7243 31.7991 34.4631C31.8034 35.2019 31.5042 35.8462 30.9013 36.3962L30.6008 36.6769L29.4607 35.4244Z" fill="black"/>
<path d="M27.4219 24.3229L28.7565 23.2637L33.9774 29.8311C34.507 30.5003 35.0366 30.6261 35.5663 30.2084L35.8509 29.982L36.9022 31.3061L36.6176 31.5325C35.9794 32.0402 35.2957 32.2335 34.5666 32.1125C33.8374 31.9916 33.1979 31.5851 32.648 30.893L27.4219 24.3229Z" fill="black"/>
<path d="M35.9037 29.9575C36.4545 29.5761 36.4867 29.0342 36.0004 28.3315L33.5469 24.787L34.9544 23.8164L37.4079 27.3623C37.911 28.0879 38.1149 28.8174 38.0196 29.551C37.9243 30.2845 37.5416 30.883 36.8716 31.3464L36.5366 31.5795L35.5687 30.1892L35.9037 29.9575ZM38.671 32.4732C38.5222 32.2561 38.4654 31.9887 38.5133 31.7299C38.5613 31.471 38.7098 31.2417 38.9266 31.0922C39.0352 31.0143 39.1583 30.959 39.2886 30.9297C39.4189 30.9003 39.5538 30.8976 39.6853 30.9214C39.8148 30.9406 39.939 30.9865 40.0497 31.0562C40.1605 31.126 40.2556 31.2181 40.3288 31.3266C40.4048 31.4343 40.4577 31.5567 40.4846 31.6858C40.5115 31.8149 40.5116 31.9482 40.485 32.0773C40.4637 32.2106 40.4151 32.3383 40.3424 32.4522C40.2699 32.566 40.1745 32.6637 40.0626 32.7393C39.9543 32.8134 39.8325 32.8651 39.7041 32.8919C39.5757 32.9185 39.4432 32.9195 39.3145 32.8951C39.1857 32.8704 39.063 32.8206 38.9535 32.7485C38.844 32.6763 38.7498 32.5832 38.6763 32.4745L38.671 32.4732Z" fill="black"/>
<path d="M41.6384 19.3582L43.7326 23.7977C44.0599 24.4912 44.5193 24.959 45.1106 25.2012C45.3937 25.3147 45.6972 25.3684 46.002 25.3593C46.3068 25.3503 46.6064 25.2784 46.8822 25.1483C47.1582 25.0183 47.4042 24.8327 47.6052 24.6034C47.806 24.3739 47.9575 24.1056 48.0502 23.815C48.239 23.2051 48.1703 22.5536 47.8439 21.86L45.1266 16.1032L46.6686 15.3756L48.5072 19.2754C48.8739 20.0476 49.3593 20.2912 49.9635 20.0062L50.2328 19.8809L51.0137 21.3783L50.684 21.5336C50.513 21.6268 50.3228 21.6794 50.1283 21.6874C49.9337 21.6953 49.74 21.6585 49.5619 21.5797C49.9421 22.6325 49.9433 23.6359 49.5653 24.5897C49.1837 25.5441 48.4424 26.3104 47.501 26.7231C46.5597 27.1359 45.4938 27.1623 44.5333 26.7964C43.4977 26.3969 42.7169 25.6393 42.1906 24.5238L40.0977 20.0843L41.6384 19.3582ZM41.4462 15.9409C41.3349 15.7032 41.322 15.4311 41.4105 15.184C41.4989 14.9368 41.6816 14.7346 41.9185 14.6217C42.0368 14.5646 42.1653 14.5319 42.2964 14.5256C42.4276 14.5192 42.5587 14.5392 42.682 14.5845C42.8064 14.6246 42.9212 14.6901 43.0192 14.7769C43.1172 14.8636 43.196 14.9697 43.2509 15.0884C43.3077 15.2056 43.3402 15.3331 43.346 15.4633C43.352 15.5934 43.3313 15.7233 43.2854 15.8453C43.2433 15.9726 43.1753 16.09 43.086 16.1899C42.9966 16.2899 42.8876 16.3704 42.7658 16.4264C42.649 16.4837 42.5216 16.5164 42.3917 16.5227C42.2617 16.5288 42.1318 16.5082 42.0101 16.4622C41.8852 16.4185 41.7705 16.3497 41.673 16.2601C41.5756 16.1705 41.4975 16.0619 41.4436 15.941L41.4462 15.9409Z" fill="black"/>
<path d="M50.2344 19.8809L50.9839 19.8029C51.1242 19.7667 51.2535 19.6971 51.3609 19.6C51.4683 19.5028 51.5506 19.3812 51.6006 19.2452C51.6968 18.9254 51.6838 18.5827 51.5637 18.2712L50.2529 14.1861L51.858 13.6562L53.1732 17.7623C53.257 18.0855 53.4454 18.3719 53.709 18.5768C53.8314 18.6585 53.9716 18.7096 54.1178 18.7255C54.2641 18.7414 54.412 18.7216 54.5489 18.668L55.5617 18.3431L56.0771 19.9524L55.0643 20.276C54.2874 20.5253 53.5961 20.4208 52.9903 19.9626C52.7647 20.6868 51.7573 21.1442 50.9891 21.3906L50.592 21.3976L50.2344 19.8809ZM51.825 22.7665C51.8786 22.65 51.9566 22.5465 52.0535 22.4625C52.1506 22.3787 52.2643 22.3164 52.3872 22.2799C52.63 22.2045 52.8926 22.2272 53.1187 22.3434C53.3449 22.4596 53.5165 22.6598 53.5965 22.9011C53.6363 23.0216 53.6519 23.1487 53.6425 23.2751C53.6331 23.4017 53.599 23.5251 53.5418 23.6383C53.486 23.7536 53.4073 23.8563 53.3103 23.9399C53.2134 24.0236 53.1005 24.0865 52.9783 24.1249C52.8578 24.1649 52.7301 24.1791 52.6038 24.1668C52.4775 24.1543 52.3551 24.1156 52.2447 24.053C52.1308 23.9959 52.0296 23.9164 51.9472 23.8193C51.8647 23.7223 51.8026 23.6096 51.7647 23.4879C51.7246 23.3701 51.7094 23.2451 51.7197 23.121C51.73 22.9968 51.7659 22.8762 51.825 22.7665ZM54.2339 22.698C54.1935 22.5789 54.1777 22.4527 54.1877 22.3273C54.1975 22.202 54.2328 22.0799 54.2913 21.9687C54.3467 21.8535 54.4256 21.7514 54.5229 21.6686C54.6202 21.586 54.7338 21.5247 54.8565 21.4887C54.9754 21.4504 55.1009 21.4365 55.2253 21.448C55.3498 21.4595 55.4707 21.4961 55.5806 21.5554C55.6957 21.6093 55.7983 21.6865 55.8818 21.7821C55.9652 21.8778 56.028 21.9898 56.0657 22.1111C56.1053 22.2327 56.1195 22.3611 56.1077 22.4884C56.0958 22.6156 56.0579 22.7391 55.9966 22.8513C55.9421 22.965 55.865 23.0664 55.7699 23.1493C55.6749 23.2322 55.564 23.2948 55.4439 23.3334C55.3239 23.3719 55.1971 23.3855 55.0716 23.3735C54.9461 23.3613 54.8244 23.3238 54.7138 23.2631C54.5996 23.2052 54.4982 23.1248 54.4157 23.0269C54.3332 22.9289 54.2713 22.8151 54.2339 22.6927V22.698Z" fill="black"/>
<path d="M55.8638 19.9812L55.5039 18.3321L57.3057 17.9179C56.9122 17.7312 56.5704 17.4509 56.3104 17.1015C56.0504 16.7522 55.8799 16.3444 55.814 15.9139C55.7271 15.4798 55.7315 15.0324 55.8267 14.6002C55.922 14.1679 56.1061 13.7601 56.3673 13.4027C56.9313 12.6387 57.7706 12.1244 58.7074 11.9689C59.644 11.8133 60.6045 12.0288 61.385 12.5695C62.2004 13.1521 62.707 13.9736 62.9047 15.0339L63.2362 16.8093L64.1452 16.4597L64.3065 18.1123L55.8638 19.9812ZM55.9664 10.6115C55.9403 10.4854 55.9405 10.3554 55.9667 10.2294C55.9929 10.1034 56.0448 9.9842 56.1192 9.87913C56.1881 9.77289 56.2778 9.68188 56.3832 9.61172C56.4886 9.54155 56.6073 9.49371 56.7319 9.47115C56.857 9.44682 56.9857 9.44793 57.1104 9.47441C57.235 9.5009 57.3531 9.55224 57.4576 9.62534C57.565 9.69593 57.6567 9.78795 57.727 9.89565C57.7972 10.0033 57.8445 10.1244 57.8658 10.2512C57.8903 10.3748 57.8884 10.5022 57.8602 10.6251C57.832 10.7479 57.7781 10.8634 57.702 10.9639C57.632 11.0703 57.5409 11.1614 57.4344 11.2316C57.3279 11.3017 57.2083 11.3495 57.0827 11.372C56.8325 11.4164 56.5747 11.3608 56.3648 11.2171C56.1551 11.0734 56.01 10.8531 55.961 10.6036L55.9664 10.6115ZM57.4058 15.9152C57.4487 16.1692 57.5434 16.4118 57.6837 16.6277C57.8242 16.8438 58.0075 17.0287 58.2222 17.171C58.4301 17.3186 58.6661 17.422 58.9155 17.4749C59.165 17.5276 59.4225 17.5288 59.6724 17.4781L61.5744 17.1217L61.2165 15.2038C61.1732 14.9497 61.0784 14.7072 60.9379 14.4911C60.7976 14.2749 60.6146 14.0896 60.4001 13.9467C60.083 13.7301 59.7086 13.6127 59.3245 13.6092C58.9405 13.6059 58.5642 13.7168 58.2433 13.9277C57.9225 14.1386 57.6714 14.4402 57.5223 14.7942C57.3732 15.1479 57.3326 15.5383 57.4058 15.9152ZM58.8804 9.35815C58.9495 9.25448 59.0391 9.16599 59.1435 9.09813C59.248 9.03027 59.3652 8.98446 59.488 8.96351C59.6124 8.93881 59.7404 8.93926 59.8646 8.96484C59.9888 8.99042 60.1065 9.04062 60.211 9.11246C60.3189 9.18289 60.4109 9.27503 60.4812 9.38302C60.5515 9.49101 60.5985 9.61248 60.6192 9.73966C60.644 9.86326 60.6422 9.99072 60.614 10.1136C60.5858 10.2365 60.5318 10.3519 60.4555 10.4523C60.3855 10.5589 60.2945 10.6501 60.188 10.7202C60.0815 10.7904 59.9618 10.8381 59.8363 10.8604C59.7123 10.8848 59.5847 10.8835 59.4613 10.8567C59.3379 10.83 59.2212 10.7783 59.1185 10.7048C59.0116 10.6363 58.9203 10.5463 58.85 10.4406C58.7798 10.3349 58.7323 10.2158 58.7104 10.0908C58.6867 9.96344 58.6894 9.83256 58.7185 9.70629C58.7475 9.58003 58.8022 9.46107 58.8791 9.35686L58.8804 9.35815Z" fill="black"/>
<path d="M65.5662 16.4587L65.5551 6.79173L67.2447 6.79004L67.2517 12.8048C68.474 11.5121 69.7062 10.8651 70.9484 10.8638C71.9874 10.8615 72.835 11.2149 73.4909 11.9238C74.1468 12.6328 74.4761 13.5403 74.4787 14.6466L74.4793 15.2861C74.4607 16.1896 74.2116 16.8918 73.732 17.3928C73.2526 17.8939 72.5851 18.1448 71.7296 18.1456L64.1072 18.1502L64.1055 16.4604L65.5662 16.4587ZM71.7279 16.4518C72.4342 16.4501 72.7878 16.0272 72.789 15.1832L72.7889 14.6442C72.7876 14.0121 72.6069 13.5049 72.2472 13.1228C71.8873 12.7406 71.3928 12.5493 70.7632 12.5488C69.733 12.5509 68.5639 13.3001 67.2561 14.7965L67.256 16.4571L71.7279 16.4518Z" fill="black"/>
<path d="M77.1775 7.0752L78.8718 7.25883L77.9685 15.599C77.8757 16.45 78.1627 16.911 78.8296 16.9824L79.1919 17.021L79.0093 18.7008L78.6483 18.6621C77.8364 18.5747 77.2125 18.2324 76.7765 17.6354C76.3405 17.0383 76.1714 16.2996 76.269 15.4194L77.1775 7.0752Z" fill="black"/>
<path d="M79.2743 17.0438C79.4149 17.0773 79.5616 17.0765 79.7019 17.0413C79.8421 17.0062 79.9718 16.9376 80.0799 16.8417C80.3146 16.6038 80.4639 16.2946 80.5043 15.963L81.2684 11.7198L82.9317 12.0192L82.1674 16.2623C82.0893 16.5874 82.1213 16.9291 82.2585 17.2341C82.3286 17.3634 82.4287 17.474 82.5503 17.5565C82.6722 17.639 82.812 17.6909 82.9582 17.7078L83.3739 17.7826L83.0691 19.4406L82.6534 19.3658C81.85 19.221 81.2888 18.8043 80.9695 18.116C80.4289 18.6499 79.7622 18.8456 78.9695 18.7031L78.5391 18.6246L78.8386 16.9626L79.2743 17.0438ZM81.8453 9.33798C82.0088 9.22312 82.2028 9.15958 82.4024 9.15548C82.6022 9.15139 82.7986 9.20693 82.9668 9.315C83.1348 9.42307 83.2668 9.57876 83.3458 9.76221C83.425 9.94565 83.4477 10.1485 83.411 10.3449C83.3807 10.5069 83.311 10.6589 83.2081 10.7876C83.1054 10.9163 82.9725 11.0178 82.8211 11.083C82.6698 11.1483 82.5048 11.1753 82.3406 11.1618C82.1764 11.1483 82.0181 11.0946 81.8794 11.0055C81.7409 10.9164 81.6264 10.7945 81.5459 10.6507C81.4655 10.5069 81.4217 10.3456 81.4184 10.1808C81.415 10.0161 81.4522 9.85309 81.5266 9.7061C81.601 9.55913 81.7105 9.43271 81.8453 9.33798Z" fill="black"/>
<path d="M83.0388 17.7112L83.4379 17.8115C84.0871 17.9767 84.5174 17.6457 84.729 16.8183L86.8027 8.68945L88.4507 9.11093L86.3758 17.2399C86.1577 18.0964 85.741 18.7292 85.1257 19.1382C84.5104 19.5471 83.806 19.6507 83.0122 19.4491L82.6133 19.3488L83.0388 17.7112Z" fill="black"/>
<path d="M89.2589 21.2379L87.6406 20.7046L91.1907 9.91602L92.809 10.4479L89.2589 21.2379Z" fill="black"/>
<path d="M95.243 23.1303C95.3689 23.2774 95.5177 23.4033 95.6835 23.5034C96.5071 23.9797 97.2012 23.7305 97.7659 22.756L101.411 16.4502L102.893 17.2915L100.085 22.1444L101.346 22.8734L100.499 24.3352L99.2394 23.6063L99.0645 23.9086C98.6166 24.6806 98.0357 25.1806 97.3219 25.4083C96.6081 25.6361 95.797 25.4867 94.8885 24.96C94.5692 24.7795 94.2833 24.5457 94.043 24.2686L95.243 23.1303Z" fill="black"/>
<path d="M100.078 25.7234C100.203 25.6958 100.333 25.6952 100.458 25.7214C100.584 25.7476 100.702 25.8002 100.806 25.8755C101.013 26.0229 101.154 26.2457 101.199 26.496C101.244 26.7462 101.188 27.004 101.045 27.214C100.973 27.3186 100.882 27.4081 100.775 27.4775C100.669 27.5467 100.55 27.5944 100.426 27.6177C100.3 27.6433 100.171 27.6429 100.046 27.6165C99.9207 27.59 99.8022 27.5383 99.6978 27.4643C99.5931 27.3926 99.5044 27.2999 99.4374 27.192C99.3704 27.0842 99.3267 26.9636 99.3091 26.838C99.2858 26.7128 99.2878 26.5843 99.315 26.4601C99.3422 26.3358 99.3941 26.2182 99.4677 26.1144C99.5372 26.0108 99.6273 25.9228 99.7324 25.8555C99.8374 25.7882 99.9551 25.7432 100.078 25.7234ZM101.061 22.6604L101.92 23.261C102.034 23.3506 102.167 23.4114 102.31 23.438C102.452 23.4646 102.599 23.4563 102.737 23.4138C103.051 23.2957 103.316 23.0763 103.491 22.7904L105.948 19.2676L107.342 20.2224L104.876 23.7579C104.67 24.0206 104.556 24.3443 104.553 24.6784C104.563 24.825 104.607 24.9672 104.683 25.0928C104.759 25.2185 104.865 25.3239 104.99 25.4L105.863 26.0092L104.896 27.3946L104.024 26.7854C103.355 26.3199 103.018 25.7068 103.016 24.9465C102.302 25.2062 101.615 25.1052 100.954 24.6436L100.093 24.0443L101.061 22.6604ZM101.598 27.5943C101.668 27.4902 101.759 27.4014 101.864 27.3332C101.969 27.2649 102.088 27.2185 102.211 27.1968C102.336 27.1719 102.465 27.1731 102.59 27.2005C102.715 27.2278 102.833 27.2805 102.936 27.3556C103.038 27.4274 103.125 27.5189 103.192 27.625C103.258 27.7309 103.303 27.849 103.323 27.9724C103.349 28.0964 103.35 28.2247 103.324 28.3489C103.299 28.4731 103.247 28.5906 103.174 28.6938C103.101 28.7993 103.008 28.8888 102.899 28.9568C102.791 29.0248 102.669 29.0698 102.543 29.089C102.419 29.1147 102.292 29.1149 102.168 29.0894C102.045 29.0641 101.928 29.0138 101.824 28.9417C101.721 28.8694 101.633 28.7768 101.567 28.6696C101.5 28.5623 101.456 28.4426 101.438 28.3178C101.415 28.1942 101.418 28.0675 101.445 27.9449C101.472 27.8223 101.523 27.7062 101.595 27.6034L101.598 27.5943Z" fill="black"/>
<path d="M105.611 25.7249L107.23 27.1596C107.148 26.7359 107.167 26.2988 107.288 25.8842C107.408 25.4698 107.625 25.0899 107.921 24.776C108.57 24.041 109.35 23.658 110.261 23.6271C111.171 23.5961 112.007 23.9184 112.77 24.5939C113.139 24.9086 113.441 25.2943 113.657 25.728C113.874 26.1616 114.001 26.6344 114.031 27.1182L112.476 27.4915C112.385 26.8158 112.126 26.2882 111.699 25.9087C111.513 25.7358 111.294 25.6017 111.056 25.5143C110.818 25.4269 110.564 25.3879 110.311 25.3997C110.061 25.4071 109.815 25.4673 109.589 25.5761C109.364 25.6849 109.164 25.84 109.002 26.0312C108.648 26.4244 108.462 26.9416 108.487 27.4707C108.488 27.7286 108.544 27.9833 108.652 28.2176C108.76 28.4519 108.916 28.6605 109.111 28.8293L111.347 30.8094L110.219 32.0761L104.484 27.0024L105.611 25.7249ZM113.197 22.6539C113.283 22.5539 113.389 22.4721 113.508 22.4134C113.626 22.3548 113.755 22.3205 113.888 22.3124C114.02 22.3043 114.152 22.3229 114.277 22.3667C114.402 22.4105 114.516 22.479 114.615 22.5678C114.765 22.6997 114.873 22.8733 114.924 23.0664C114.976 23.2596 114.968 23.4638 114.904 23.6529C114.839 23.8421 114.719 24.0077 114.56 24.1289C114.401 24.2499 114.21 24.3211 114.01 24.3332C113.811 24.3454 113.612 24.2978 113.439 24.1969C113.267 24.0959 113.128 23.9459 113.041 23.7661C112.954 23.5861 112.922 23.3844 112.95 23.1863C112.978 22.9883 113.063 22.803 113.197 22.6539Z" fill="black"/>
<path d="M118.214 33.1259C118.689 33.1644 119.151 33.2996 119.572 33.5232C119.994 33.7467 120.365 34.0541 120.663 34.4261L122.882 37.1272L119.551 39.8694C118.891 40.4123 118.777 40.9463 119.208 41.4715L119.486 41.8078L118.18 42.8817L117.904 42.544C117.294 41.8008 117.19 41.0249 117.593 40.2163C116.578 40.2825 115.727 39.8955 115.037 39.0551C114.579 38.4986 114.296 37.8184 114.225 37.1008C114.154 36.3832 114.298 35.6607 114.638 35.0251C114.979 34.3896 115.501 33.8698 116.138 33.5315C116.775 33.1933 117.498 33.0521 118.215 33.1259H118.214ZM116.625 35.2444C116.425 35.4044 116.26 35.6031 116.139 35.8286C116.018 36.0541 115.944 36.3017 115.922 36.5566C115.89 36.8103 115.912 37.0678 115.985 37.3127C116.058 37.5577 116.181 37.7848 116.347 37.9799C116.494 38.1688 116.68 38.3242 116.892 38.4358C117.104 38.5474 117.338 38.6127 117.577 38.6274C118.096 38.6535 118.605 38.4726 118.992 38.1243L120.491 36.8889L119.354 35.5039C119.194 35.3043 118.995 35.1395 118.769 35.0204C118.543 34.9012 118.295 34.8301 118.04 34.8114C117.786 34.7844 117.529 34.8091 117.285 34.884C117.041 34.9588 116.815 35.0823 116.619 35.2471L116.625 35.2444ZM120.688 31.7925C120.886 31.6327 121.138 31.557 121.391 31.5818C121.644 31.6065 121.877 31.7298 122.04 31.925C122.122 32.0225 122.183 32.1351 122.221 32.2565C122.259 32.3778 122.273 32.5054 122.262 32.6321C122.25 32.7587 122.214 32.882 122.155 32.9945C122.096 33.1072 122.016 33.2072 121.918 33.2888C121.821 33.372 121.708 33.434 121.586 33.4709C121.464 33.5079 121.335 33.5189 121.209 33.5033C121.081 33.4907 120.958 33.4524 120.845 33.3907C120.733 33.329 120.635 33.2453 120.556 33.1444C120.475 33.0486 120.414 32.9375 120.376 32.8176C120.339 32.6977 120.326 32.5716 120.339 32.4466C120.348 32.3202 120.383 32.1969 120.442 32.0848C120.502 31.9726 120.584 31.8741 120.683 31.7952L120.688 31.7925ZM122.334 33.7945C122.43 33.7136 122.542 33.6529 122.662 33.6158C122.782 33.5787 122.908 33.5661 123.033 33.5787C123.16 33.5887 123.284 33.6247 123.396 33.6846C123.509 33.7445 123.608 33.827 123.687 33.927C123.847 34.1249 123.922 34.3775 123.898 34.6306C123.873 34.8837 123.75 35.1169 123.555 35.2802C123.458 35.3636 123.345 35.4259 123.223 35.4631C123.101 35.5002 122.972 35.5115 122.845 35.496C122.655 35.4781 122.475 35.4041 122.327 35.2831C122.18 35.1622 122.072 35.0001 122.017 34.8174C121.962 34.6347 121.963 34.4398 122.019 34.2576C122.076 34.0752 122.185 33.9141 122.334 33.7945Z" fill="black"/>
<path d="M117.844 42.3706L119.499 41.7748L119.981 42.5573L124.843 39.7939L125.677 41.2637L123.993 42.221C125.719 42.6456 126.892 43.3985 127.509 44.4798C128.022 45.3829 128.13 46.2961 127.834 47.2194C127.537 48.1426 126.899 48.882 125.921 49.4372L125.477 49.6887C124.751 50.1009 124.544 50.5816 124.856 51.1307L125.057 51.4855L123.589 52.3197L123.388 51.9648C122.983 51.2587 122.975 50.5657 123.361 49.886C122.545 49.803 121.927 49.3899 121.507 48.6467L117.844 42.3706ZM120.815 44.0257L122.965 47.8125C123.04 47.9521 123.143 48.0742 123.269 48.1706C123.395 48.267 123.539 48.3354 123.694 48.3713C124.011 48.4481 124.363 48.3713 124.753 48.1555L125.057 47.982C125.63 47.6563 125.999 47.2401 126.164 46.7334C126.329 46.2267 126.256 45.6971 125.943 45.1445C125.436 44.2495 124.209 43.6016 122.26 43.2008L120.815 44.0257Z" fill="black"/>
<path d="M125.059 51.5062C125.105 51.6432 125.098 51.6346 125.203 51.7345C125.307 51.8344 125.435 51.9074 125.574 51.9471C125.9 52.0194 126.241 51.9813 126.543 51.8385L130.539 50.2192L131.173 51.7856L127.177 53.4062C126.861 53.5139 126.59 53.7235 126.405 54.0021C126.333 54.1302 126.293 54.274 126.288 54.421C126.283 54.5681 126.314 54.7142 126.378 54.8468L126.405 55.2798L124.811 55.6108L124.728 55.4784C124.422 54.7228 124.559 54.0259 124.97 53.3877C124.23 53.2112 123.708 52.7517 123.406 52.0093L123.242 51.6042L124.794 50.9766L125.059 51.5062ZM132.862 49.4367C133.08 49.5259 133.261 49.6885 133.374 49.8965C133.485 50.1045 133.522 50.345 133.477 50.5769C133.431 50.8088 133.306 51.0177 133.124 51.1679C132.941 51.318 132.713 51.4001 132.476 51.4001C132.24 51.4001 132.011 51.318 131.829 51.1679C131.646 51.0177 131.521 50.8088 131.476 50.5769C131.43 50.345 131.467 50.1045 131.579 49.8965C131.691 49.6885 131.872 49.5259 132.091 49.4367C132.213 49.3846 132.344 49.358 132.476 49.3584C132.609 49.3589 132.74 49.3865 132.862 49.4393V49.4367Z" fill="black"/>
<path d="M126.913 56.9443C127.04 56.589 127.253 56.2706 127.532 56.0175C127.812 55.7645 128.15 55.5848 128.517 55.4944C129.211 55.295 129.949 55.3062 130.637 55.5267C131.324 55.7473 131.931 56.167 132.38 56.7329C132.829 57.2988 133.101 57.9854 133.158 58.7054C133.216 59.4254 133.06 60.1464 132.707 60.7771C132.355 61.4077 131.824 61.9196 131.18 62.2477C130.536 62.5759 129.81 62.7054 129.093 62.6202C128.375 62.5348 127.7 62.2383 127.151 61.7684C126.602 61.2985 126.206 60.6762 126.012 59.9804L124.77 55.5633L126.397 55.1064L126.913 56.9443ZM127.828 58.0485C127.7 58.2694 127.617 58.5137 127.584 58.7671C127.552 59.0205 127.571 59.2778 127.639 59.5238C127.708 59.7698 127.826 59.9996 127.985 60.1995C128.144 60.3993 128.341 60.5653 128.566 60.6874C129.016 60.9377 129.547 60.9998 130.043 60.8602C130.539 60.7205 130.96 60.3906 131.214 59.942C131.341 59.7208 131.422 59.4766 131.453 59.2235C131.485 58.9705 131.465 58.7138 131.396 58.4683C131.327 58.2229 131.21 57.9936 131.051 57.7941C130.893 57.5944 130.696 57.4285 130.472 57.3057C130.251 57.1781 130.005 57.0967 129.751 57.0666C129.496 57.0365 129.239 57.0585 128.993 57.131C128.747 57.1964 128.516 57.3116 128.316 57.4693C128.115 57.6271 127.95 57.8242 127.828 58.0485Z" fill="black"/>
<path d="M66.793 90.4791C67.0313 90.4605 67.271 90.4907 67.4974 90.5678C67.7229 90.6443 67.9302 90.7664 68.1065 90.9265C69.7973 92.5035 71.4074 94.1587 73.085 95.7476C73.8225 96.4427 74.65 97.0531 75.6576 97.8807C76.2756 97.5504 76.8855 97.2005 77.4875 96.8307C78.9841 96.1245 80.303 95.0915 81.3472 93.8077C80.709 93.8077 80.1873 94.205 79.5147 94.2183C78.763 94.2395 78.0148 94.1098 77.3141 93.8369C76.6175 93.565 75.9832 93.1546 75.4498 92.6307C74.037 91.2987 72.6546 89.9336 71.263 88.583" fill="#EFC31A"/>
<path d="M75.7383 97.943C73.6673 98.7793 71.5485 99.4924 69.3933 100.079C66.9453 100.61 64.4513 100.901 61.9467 100.946C56.4113 100.962 50.982 99.4265 46.2755 96.5128C41.5688 93.5992 37.7733 89.4245 35.3196 84.4626C33.0134 79.7518 32.0949 74.4821 32.6714 69.2688C32.9666 66.0924 33.8383 62.9964 35.2441 60.1327C36.4801 57.4659 38.1181 55.0044 40.1008 52.8344C40.5952 52.2746 41.2081 51.8317 41.8949 51.5381C42.5863 51.2429 43.3343 51.1032 44.0857 51.129C44.8371 51.1548 45.5737 51.3456 46.2432 51.6878C46.9069 52.0279 47.4861 52.5125 47.938 53.1058C48.6746 54.038 49.0493 55.2049 48.9934 56.3915C48.9374 57.5783 48.4544 58.7047 47.6335 59.5634C45.4849 61.9067 43.968 64.7582 43.2256 67.8494C42.4892 70.9295 42.5572 74.1472 43.4229 77.1934C44.2951 80.2528 45.9291 83.0409 48.1723 85.2967C50.4401 87.5753 53.2383 89.2551 56.3154 90.1852C59.7208 91.2185 63.3405 91.3222 66.7994 90.4858C67.0379 90.4674 67.2774 90.4976 67.5038 90.5745C67.7292 90.6514 67.9364 90.7735 68.1129 90.9333C69.8037 92.5103 71.4138 94.1654 73.0941 95.7543C73.8435 96.4613 74.6896 97.0836 75.7383 97.943Z" fill="#FFCB58"/>
<path d="M79.2499 81.9471C81.8437 79.397 84.1807 77.0798 86.5323 74.7773L103.083 58.6077C103.522 58.0404 104.072 57.5692 104.7 57.2227C105.652 56.6974 106.741 56.4735 107.824 56.5809C108.906 56.6883 109.93 57.1217 110.76 57.8238C111.304 58.2861 111.747 58.8558 112.06 59.4975C112.37 60.1337 112.542 60.8279 112.566 61.5349C112.59 62.242 112.466 62.9463 112.201 63.6021C111.933 64.2629 111.53 64.8609 111.018 65.3578C110.899 65.4925 110.772 65.6197 110.638 65.7391C107.009 69.3098 103.364 72.8676 99.7028 76.4125C94.3112 81.6757 88.8521 86.8727 83.5611 92.2325C83.0273 92.8149 82.3779 93.2794 81.6544 93.5963C80.9253 93.9142 80.1386 94.0783 79.3432 94.0783C78.5478 94.0783 77.7611 93.9142 77.032 93.5963C76.3087 93.279 75.6594 92.8145 75.1254 92.2325C70.7467 87.7717 66.2249 83.4447 61.7522 79.0712C61.2447 78.6225 60.8327 78.0763 60.5406 77.4651C60.2485 76.8541 60.0823 76.1903 60.052 75.5137C60.0215 74.837 60.1276 74.1611 60.3638 73.5262C60.5999 72.8913 60.9614 72.3104 61.4265 71.818C62.3805 70.8109 63.6889 70.2146 65.0749 70.1553C66.4608 70.096 67.8153 70.5784 68.8519 71.5002C68.9459 71.5849 69.0386 71.675 69.13 71.765C72.2107 74.7406 75.2759 77.7353 78.3257 80.7488C78.6564 81.1302 78.9651 81.5303 79.2499 81.9471Z" fill="#1E4397"/>
<path d="M61.4291 43.1644C66.8117 43.0645 72.1244 44.3954 76.8241 47.0215C77.5743 47.4166 78.2152 47.9909 78.6897 48.6938C79.1588 49.3894 79.4435 50.1929 79.5171 51.0286C79.5907 51.8644 79.4509 52.7053 79.1108 53.4723C78.7125 54.3323 78.0941 55.0718 77.3182 55.6161C76.5425 56.1605 75.6365 56.4902 74.6923 56.572C73.6388 56.6488 72.5869 56.4005 71.6787 55.861C68.2017 53.9325 64.2243 53.0964 60.2652 53.4617C59.2404 53.5491 58.2301 53.7716 57.2106 53.9556C55.9021 54.2106 54.5456 53.9629 53.4118 53.2618C52.2897 52.5718 51.4797 51.4726 51.1529 50.1966C50.8312 48.9285 51.0215 47.5848 51.6826 46.4561C52.3547 45.3147 53.4383 44.4742 54.7107 44.1072C55.6641 43.8265 56.6381 43.6215 57.6237 43.4941C59.1292 43.3048 60.6439 43.2227 61.4291 43.1644Z" fill="#FFCB58"/>
<path d="M89.6169 62.2756C89.6156 62.9498 89.4805 63.6172 89.2193 64.2388C88.9582 64.8605 88.5762 65.424 88.0955 65.897C87.1111 66.8659 85.7892 67.4155 84.408 67.4302C82.9377 67.4095 81.5333 66.8179 80.4914 65.7804C79.9832 65.2736 79.5811 64.6707 79.3082 64.007C79.0354 63.3432 78.8974 62.6318 78.9025 61.9142C78.9071 61.2313 79.0481 60.5564 79.317 59.929C79.5861 59.3014 79.9776 58.7339 80.4689 58.2597C81.4757 57.2901 82.8208 56.7509 84.2186 56.7569C85.6681 56.8129 87.0414 57.42 88.0584 58.4543C89.0593 59.4742 89.6191 60.8467 89.6169 62.2756Z" fill="#FFCB58"/>
<path d="M71.501 140.63C109.68 140.63 140.631 109.679 140.631 71.5C140.631 33.3206 109.68 2.37012 71.501 2.37012C33.3216 2.37012 2.37109 33.3206 2.37109 71.5C2.37109 109.679 33.3216 140.63 71.501 140.63Z" stroke="#FFCB58" stroke-width="2" stroke-miterlimit="10"/>
</svg>
