<svg width="46" height="45" viewBox="0 0 46 45" fill="none" xmlns="http://www.w3.org/2000/svg">
<g clip-path="url(#clip0_215_3182)">
<path d="M6.28222 43.6842C4.48877 41.9297 4.48877 39.0853 6.28222 37.3309L18.1879 25.6841C19.9813 23.9296 22.889 23.9296 24.6823 25.6841C26.4758 27.4385 26.4758 30.2829 24.6823 32.0373L12.7767 43.6842C10.9833 45.4385 8.07567 45.4387 6.28222 43.6842Z" fill="url(#paint0_linear_215_3182)"/>
<path d="M39.7178 43.6842C41.5113 41.9297 41.5113 39.0853 39.7178 37.3309L27.8122 25.6841C26.0187 23.9296 23.1111 23.9296 21.3177 25.6841C19.5243 27.4385 19.5243 30.2829 21.3177 32.0373L33.2234 43.6842C35.0168 45.4385 37.9244 45.4387 39.7178 43.6842Z" fill="url(#paint1_linear_215_3182)"/>
<path d="M3.87666 6.5433C5.50942 6.5433 6.83303 5.24846 6.83303 3.6512C6.83303 2.05393 5.50942 0.759094 3.87666 0.759094C2.2439 0.759094 0.920288 2.05393 0.920288 3.6512C0.920288 5.24846 2.2439 6.5433 3.87666 6.5433Z" fill="url(#paint2_linear_215_3182)"/>
<path d="M11.89 11.4904C13.3928 10.0203 15.5314 7.47523 16.811 5.01968C17.9326 2.8673 16.4909 0.298265 14.0339 0.0538129C10.3288 -0.314882 6.8261 1.24246 4.12017 3.88957C1.41423 6.53668 -0.177717 9.96314 0.199171 13.5877C0.449055 15.9913 3.07527 17.4017 5.27539 16.3045C7.7856 15.0526 10.3873 12.9606 11.89 11.4904Z" fill="url(#paint3_linear_215_3182)"/>
<path d="M42.1235 6.5433C43.7562 6.5433 45.0799 5.24846 45.0799 3.6512C45.0799 2.05393 43.7562 0.759094 42.1235 0.759094C40.4907 0.759094 39.1671 2.05393 39.1671 3.6512C39.1671 5.24846 40.4907 6.5433 42.1235 6.5433Z" fill="url(#paint4_linear_215_3182)"/>
<path d="M34.1101 11.4904C32.6073 10.0203 30.4688 7.47523 29.1891 5.01968C28.0675 2.8673 29.5094 0.298265 31.9662 0.0538129C35.6713 -0.314882 39.174 1.24246 41.88 3.88957C44.586 6.53677 46.1779 9.96323 45.801 13.5878C45.5511 15.9913 42.9249 17.4018 40.7247 16.3046C38.2145 15.0526 35.6129 12.9606 34.1101 11.4904Z" fill="url(#paint5_linear_215_3182)"/>
<path d="M10.6559 3.76327C6.26328 6.55721 2.92397 10.799 1.34521 15.8014C2.19356 16.5444 3.39341 16.8702 4.55953 16.5713C5.93349 12.3788 8.7602 8.82398 12.4596 6.47089C13.1736 6.01677 13.406 5.0983 13.0051 4.36324C12.5512 3.53083 11.4645 3.24909 10.6559 3.76327Z" fill="#FDC515"/>
<path d="M23 41.3004C33.6936 41.3004 42.3624 32.82 42.3624 22.3589C42.3624 11.8978 33.6936 3.41742 23 3.41742C12.3064 3.41742 3.63757 11.8978 3.63757 22.3589C3.63757 32.82 12.3064 41.3004 23 41.3004Z" fill="url(#paint6_linear_215_3182)"/>
<path d="M23 35.6923C30.5275 35.6923 36.6297 29.7227 36.6297 22.3589C36.6297 14.9951 30.5275 9.02557 23 9.02557C15.4726 9.02557 9.37036 14.9951 9.37036 22.3589C9.37036 29.7227 15.4726 35.6923 23 35.6923Z" fill="url(#paint7_linear_215_3182)"/>
<path d="M16.3155 18.1238C16.3155 18.718 15.7027 19.1997 14.9468 19.1997C14.1909 19.1997 13.5781 18.718 13.5781 18.1238C13.5781 17.5295 14.1909 17.0478 14.9468 17.0478C15.7027 17.0478 16.3155 17.5295 16.3155 18.1238ZM32.422 18.1238C32.422 18.718 31.8092 19.1997 31.0534 19.1997C30.2975 19.1997 29.6847 18.718 29.6847 18.1238C29.6847 17.5295 30.2975 17.0478 31.0534 17.0478C31.8092 17.0478 32.422 17.5295 32.422 18.1238Z" fill="#FDAECE"/>
<path d="M17.2932 18.1237C18.7921 18.1237 20.0072 16.935 20.0072 15.4687C20.0072 14.0024 18.7921 12.8137 17.2932 12.8137C15.7943 12.8137 14.5792 14.0024 14.5792 15.4687C14.5792 16.935 15.7943 18.1237 17.2932 18.1237Z" fill="white"/>
<path d="M20.0072 15.4687C20.0072 16.3426 19.2831 17.0511 18.3897 17.0511C17.4964 17.0511 16.7722 16.3427 16.7722 15.4687C16.7722 14.5948 17.4964 13.8864 18.3897 13.8864C19.2831 13.8864 20.0072 14.5948 20.0072 15.4687Z" fill="#383842"/>
<path d="M28.7069 18.1237C30.2058 18.1237 31.4209 16.935 31.4209 15.4687C31.4209 14.0024 30.2058 12.8137 28.7069 12.8137C27.208 12.8137 25.9929 14.0024 25.9929 15.4687C25.9929 16.935 27.208 18.1237 28.7069 18.1237Z" fill="white"/>
<path d="M31.4152 15.4687C31.4152 16.3426 30.691 17.0511 29.7977 17.0511C28.9044 17.0511 28.1802 16.3427 28.1802 15.4687C28.1802 14.5948 28.9044 13.8864 29.7977 13.8864C30.6909 13.8864 31.4152 14.5948 31.4152 15.4687Z" fill="#383842"/>
<path d="M23.0001 19.0368C23.6707 19.0368 24.2144 18.3404 24.2144 17.4814C24.2144 16.6223 23.6707 15.9259 23.0001 15.9259C22.3294 15.9259 21.7858 16.6223 21.7858 17.4814C21.7858 18.3404 22.3294 19.0368 23.0001 19.0368Z" fill="#383842"/>
<path d="M24.296 23.6267L20.1903 27.643C19.4747 28.3431 18.3143 28.3432 17.5986 27.643C16.8828 26.9429 16.8828 25.8077 17.5986 25.1076L21.7042 21.0912L24.296 23.6267Z" fill="url(#paint8_linear_215_3182)"/>
<path d="M23.9623 25.8357L21.7042 23.6267C20.9884 22.9265 20.9884 21.7913 21.7042 21.0912C22.4199 20.3911 23.5803 20.3911 24.2959 21.0912L26.5541 23.3003C27.2697 24.0004 27.2697 25.1356 26.5541 25.8357C25.8384 26.5358 24.678 26.5359 23.9623 25.8357Z" fill="url(#paint9_linear_215_3182)"/>
</g>
<defs>
<linearGradient id="paint0_linear_215_3182" x1="4.93713" y1="24.3682" x2="26.0274" y2="24.3682" gradientUnits="userSpaceOnUse">
<stop stop-color="#495560"/>
<stop offset="1" stop-color="#5B778E"/>
</linearGradient>
<linearGradient id="paint1_linear_215_3182" x1="19.9727" y1="24.3682" x2="41.0629" y2="24.3682" gradientUnits="userSpaceOnUse">
<stop stop-color="#495560"/>
<stop offset="1" stop-color="#5B778E"/>
</linearGradient>
<linearGradient id="paint2_linear_215_3182" x1="3.87666" y1="6.52833" x2="3.87666" y2="0.114393" gradientUnits="userSpaceOnUse">
<stop stop-color="#FFC200"/>
<stop offset="1" stop-color="#FFE194"/>
</linearGradient>
<linearGradient id="paint3_linear_215_3182" x1="0.144287" y1="0.00012207" x2="17.1972" y2="0.00012207" gradientUnits="userSpaceOnUse">
<stop stop-color="#FDD943"/>
<stop offset="1" stop-color="#FDEDAC"/>
</linearGradient>
<linearGradient id="paint4_linear_215_3182" x1="42.1235" y1="6.52833" x2="42.1235" y2="0.114393" gradientUnits="userSpaceOnUse">
<stop stop-color="#FFC200"/>
<stop offset="1" stop-color="#FFE194"/>
</linearGradient>
<linearGradient id="paint5_linear_215_3182" x1="28.803" y1="0.00012207" x2="45.8559" y2="0.00012207" gradientUnits="userSpaceOnUse">
<stop stop-color="#FDD943"/>
<stop offset="1" stop-color="#FDEDAC"/>
</linearGradient>
<linearGradient id="paint6_linear_215_3182" x1="23" y1="40.6473" x2="23" y2="3.50124" gradientUnits="userSpaceOnUse">
<stop stop-color="#1E4396"/>
<stop offset="1" stop-color="#5984E5"/>
</linearGradient>
<linearGradient id="paint7_linear_215_3182" x1="23" y1="3.79778" x2="23" y2="33.1344" gradientUnits="userSpaceOnUse">
<stop stop-color="#D1DBDB"/>
<stop offset="1" stop-color="#F2F2F2"/>
</linearGradient>
<linearGradient id="paint8_linear_215_3182" x1="17.0618" y1="21.0912" x2="24.296" y2="21.0912" gradientUnits="userSpaceOnUse">
<stop stop-color="#495560"/>
<stop offset="1" stop-color="#5B778E"/>
</linearGradient>
<linearGradient id="paint9_linear_215_3182" x1="21.1674" y1="20.5661" x2="27.0908" y2="20.5661" gradientUnits="userSpaceOnUse">
<stop stop-color="#FFC200"/>
<stop offset="1" stop-color="#FFE194"/>
</linearGradient>
<clipPath id="clip0_215_3182">
<rect width="46" height="45" fill="white"/>
</clipPath>
</defs>
</svg>
