<svg width="57" height="56" viewBox="0 0 57 56" fill="none" xmlns="http://www.w3.org/2000/svg">
<g clip-path="url(#clip0_1375_1725)">
<path d="M7.78393 54.3625C5.56161 52.1792 5.56161 48.6395 7.78393 46.4562L22.5366 31.9624C24.7589 29.7791 28.3618 29.7791 30.584 31.9624C32.8064 34.1457 32.8064 37.6854 30.584 39.8687L15.8314 54.3625C13.6092 56.5457 10.0062 56.5459 7.78393 54.3625Z" fill="url(#paint0_linear_1375_1725)"/>
<path d="M49.2169 54.3625C51.4392 52.1792 51.4392 48.6395 49.2169 46.4562L34.4642 31.9624C32.2419 29.7791 28.6389 29.7791 26.4167 31.9624C24.1944 34.1457 24.1944 37.6854 26.4167 39.8687L41.1694 54.3625C43.3916 56.5457 46.9945 56.5459 49.2169 54.3625Z" fill="url(#paint1_linear_1375_1725)"/>
<path d="M4.80395 8.14276C6.82715 8.14276 8.46728 6.53141 8.46728 4.5437C8.46728 2.556 6.82715 0.944641 4.80395 0.944641C2.78075 0.944641 1.14062 2.556 1.14062 4.5437C1.14062 6.53141 2.78075 8.14276 4.80395 8.14276Z" fill="url(#paint2_linear_1375_1725)"/>
<path d="M14.7342 14.2992C16.5964 12.4697 19.2463 9.30247 20.832 6.24668C22.2218 3.56816 20.4352 0.371144 17.3907 0.0669373C12.7996 -0.391883 8.45933 1.54614 5.10632 4.84032C1.75331 8.13451 -0.219318 12.3985 0.247696 16.9091C0.557335 19.9002 3.81156 21.6554 6.53779 20.29C9.64827 18.7321 12.8721 16.1287 14.7342 14.2992Z" fill="url(#paint3_linear_1375_1725)"/>
<path d="M52.1985 8.14276C54.2217 8.14276 55.8618 6.53141 55.8618 4.5437C55.8618 2.556 54.2217 0.944641 52.1985 0.944641C50.1753 0.944641 48.5352 2.556 48.5352 4.5437C48.5352 6.53141 50.1753 8.14276 52.1985 8.14276Z" fill="url(#paint4_linear_1375_1725)"/>
<path d="M42.2676 14.2992C40.4055 12.4697 37.7555 9.30248 36.1699 6.24668C34.7801 3.56816 36.5667 0.371144 39.6111 0.0669373C44.2022 -0.391883 48.5425 1.54614 51.8955 4.84032C55.2486 8.13462 57.2211 12.3987 56.7541 16.9092C56.4445 19.9002 53.1903 21.6555 50.464 20.2901C47.3536 18.7321 44.1298 16.1287 42.2676 14.2992Z" fill="url(#paint5_linear_1375_1725)"/>
<path d="M13.2051 4.68314C7.76209 8.16004 3.62425 13.4387 1.66797 19.6639C2.71918 20.5886 4.20594 20.994 5.65093 20.6221C7.35344 15.4047 10.8561 10.9809 15.4402 8.05262C16.3249 7.48749 16.6129 6.34451 16.1161 5.42977C15.5536 4.39388 14.2071 4.04326 13.2051 4.68314Z" fill="#FDC515"/>
<path d="M28.5004 51.3961C41.7511 51.3961 52.493 40.8427 52.493 27.8244C52.493 14.8062 41.7511 4.25278 28.5004 4.25278C15.2497 4.25278 4.50781 14.8062 4.50781 27.8244C4.50781 40.8427 15.2497 51.3961 28.5004 51.3961Z" fill="url(#paint6_linear_1375_1725)"/>
<path d="M28.5022 44.417C37.8297 44.417 45.3911 36.9883 45.3911 27.8244C45.3911 18.6605 37.8297 11.2318 28.5022 11.2318C19.1747 11.2318 11.6133 18.6605 11.6133 27.8244C11.6133 36.9883 19.1747 44.417 28.5022 44.417Z" fill="url(#paint7_linear_1375_1725)"/>
<path d="M20.2162 22.5539C20.2162 23.2934 19.4569 23.8929 18.5201 23.8929C17.5835 23.8929 16.8242 23.2934 16.8242 22.5539C16.8242 21.8145 17.5835 21.215 18.5201 21.215C19.4569 21.215 20.2162 21.8145 20.2162 22.5539ZM40.1742 22.5539C40.1742 23.2934 39.415 23.8929 38.4783 23.8929C37.5417 23.8929 36.7824 23.2934 36.7824 22.5539C36.7824 21.8145 37.5417 21.215 38.4783 21.215C39.415 21.215 40.1742 21.8145 40.1742 22.5539Z" fill="#FDAECE"/>
<path d="M21.4294 22.554C23.2867 22.554 24.7924 21.0747 24.7924 19.25C24.7924 17.4252 23.2867 15.946 21.4294 15.946C19.5721 15.946 18.0664 17.4252 18.0664 19.25C18.0664 21.0747 19.5721 22.554 21.4294 22.554Z" fill="white"/>
<path d="M24.7938 19.2499C24.7938 20.3375 23.8964 21.2192 22.7895 21.2192C21.6825 21.2192 20.7852 20.3376 20.7852 19.2499C20.7852 18.1624 21.6825 17.2808 22.7895 17.2808C23.8964 17.2808 24.7938 18.1624 24.7938 19.2499Z" fill="#383842"/>
<path d="M35.5739 22.554C37.4313 22.554 38.9369 21.0747 38.9369 19.25C38.9369 17.4252 37.4313 15.946 35.5739 15.946C33.7166 15.946 32.2109 17.4252 32.2109 19.25C32.2109 21.0747 33.7166 22.554 35.5739 22.554Z" fill="white"/>
<path d="M38.9266 19.2499C38.9266 20.3375 38.0292 21.2192 36.9223 21.2192C35.8153 21.2192 34.918 20.3376 34.918 19.2499C34.918 18.1624 35.8153 17.2808 36.9223 17.2808C38.0291 17.2808 38.9266 18.1624 38.9266 19.2499Z" fill="#383842"/>
<path d="M28.5008 23.6902C29.3318 23.6902 30.0055 22.8236 30.0055 21.7545C30.0055 20.6855 29.3318 19.8188 28.5008 19.8188C27.6698 19.8188 26.9961 20.6855 26.9961 21.7545C26.9961 22.8236 27.6698 23.6902 28.5008 23.6902Z" fill="#383842"/>
<path d="M30.1087 29.402L25.0212 34.4002C24.1344 35.2714 22.6966 35.2715 21.8097 34.4002C20.9228 33.5288 20.9228 32.1162 21.8097 31.245L26.8971 26.2468L30.1087 29.402Z" fill="url(#paint8_linear_1375_1725)"/>
<path d="M29.6938 32.151L26.8956 29.402C26.0087 28.5307 26.0087 27.1181 26.8956 26.2468C27.7826 25.3755 29.2204 25.3755 30.1072 26.2468L32.9053 28.9959C33.7921 29.8671 33.7921 31.2798 32.9053 32.151C32.0185 33.0223 30.5807 33.0224 29.6938 32.151Z" fill="url(#paint9_linear_1375_1725)"/>
</g>
<defs>
<linearGradient id="paint0_linear_1375_1725" x1="6.11719" y1="30.3249" x2="32.2508" y2="30.3249" gradientUnits="userSpaceOnUse">
<stop stop-color="#495560"/>
<stop offset="1" stop-color="#5B778E"/>
</linearGradient>
<linearGradient id="paint1_linear_1375_1725" x1="24.75" y1="30.3249" x2="50.8836" y2="30.3249" gradientUnits="userSpaceOnUse">
<stop stop-color="#495560"/>
<stop offset="1" stop-color="#5B778E"/>
</linearGradient>
<linearGradient id="paint2_linear_1375_1725" x1="4.80395" y1="8.12413" x2="4.80395" y2="0.142346" gradientUnits="userSpaceOnUse">
<stop stop-color="#FFC200"/>
<stop offset="1" stop-color="#FFE194"/>
</linearGradient>
<linearGradient id="paint3_linear_1375_1725" x1="0.179688" y1="0.00012207" x2="21.3104" y2="0.00012207" gradientUnits="userSpaceOnUse">
<stop stop-color="#FDD943"/>
<stop offset="1" stop-color="#FDEDAC"/>
</linearGradient>
<linearGradient id="paint4_linear_1375_1725" x1="52.1985" y1="8.12413" x2="52.1985" y2="0.142346" gradientUnits="userSpaceOnUse">
<stop stop-color="#FFC200"/>
<stop offset="1" stop-color="#FFE194"/>
</linearGradient>
<linearGradient id="paint5_linear_1375_1725" x1="35.6914" y1="0.00012207" x2="56.8221" y2="0.00012207" gradientUnits="userSpaceOnUse">
<stop stop-color="#FDD943"/>
<stop offset="1" stop-color="#FDEDAC"/>
</linearGradient>
<linearGradient id="paint6_linear_1375_1725" x1="9.62641" y1="27.8244" x2="69.6784" y2="27.8244" gradientUnits="userSpaceOnUse">
<stop stop-color="#39D670"/>
<stop offset="1" stop-color="#B3E69E"/>
</linearGradient>
<linearGradient id="paint7_linear_1375_1725" x1="28.5022" y1="4.72608" x2="28.5022" y2="41.2338" gradientUnits="userSpaceOnUse">
<stop stop-color="#D1DBDB"/>
<stop offset="1" stop-color="#F2F2F2"/>
</linearGradient>
<linearGradient id="paint8_linear_1375_1725" x1="21.1445" y1="26.2468" x2="30.1087" y2="26.2468" gradientUnits="userSpaceOnUse">
<stop stop-color="#495560"/>
<stop offset="1" stop-color="#5B778E"/>
</linearGradient>
<linearGradient id="paint9_linear_1375_1725" x1="26.2305" y1="25.5933" x2="33.5704" y2="25.5933" gradientUnits="userSpaceOnUse">
<stop stop-color="#FFC200"/>
<stop offset="1" stop-color="#FFE194"/>
</linearGradient>
<clipPath id="clip0_1375_1725">
<rect width="57" height="56" fill="white"/>
</clipPath>
</defs>
</svg>
