<svg width="33" height="32" viewBox="0 0 33 32" fill="none" xmlns="http://www.w3.org/2000/svg">
<path d="M31.5691 12.5281L27.9742 14.103L24.4076 12.5281L16.043 6.68153L18.8763 0.834961H22.7201C24.8643 0.834961 26.8354 2.01112 27.854 3.89734L30.9581 9.64554C31.4346 10.5277 31.6467 11.5285 31.5691 12.5281Z" fill="url(#paint0_linear_1177_42709)"/>
<path d="M13.2085 0.835025L16.0418 6.68159L7.67721 12.5282L4.52827 14.976L0.515651 12.5281C0.438047 11.5285 0.650178 10.5277 1.12665 9.64554L4.23077 3.89734C5.24929 2.01112 7.22042 0.834961 9.36461 0.834961H13.2085V0.835025Z" fill="url(#paint1_linear_1177_42709)"/>
<path d="M24.405 12.528L16.0404 14.9759L7.67578 12.528L13.2071 0.834961H18.8737L24.405 12.528Z" fill="url(#paint2_linear_1177_42709)"/>
<path d="M14.5409 30.9694C14.14 30.8637 13.7515 30.7154 13.3822 30.5268C12.559 30.106 11.8473 29.4961 11.3054 28.747L1.49041 15.1818C0.926948 14.4042 0.589579 13.4858 0.515625 12.5283H7.67712L13.1056 20.758L14.5409 30.9694Z" fill="url(#paint3_linear_1177_42709)"/>
<path d="M31.5682 12.5283C31.4943 13.4858 31.1569 14.4042 30.5934 15.1818L20.7785 28.747C19.9888 29.839 18.8457 30.6242 17.543 30.9693L18.8241 20.2497L24.4067 12.5283H31.5682Z" fill="url(#paint4_linear_1177_42709)"/>
<path d="M25.3713 19.7434C25.239 19.7435 25.1099 19.7022 25.0022 19.6252C24.7154 19.4211 24.6484 19.023 24.8526 18.7362C25.1208 18.3599 25.386 17.9815 25.6481 17.6009C25.8477 17.3109 26.2446 17.2375 26.5346 17.4372C26.8246 17.6368 26.8979 18.0337 26.6983 18.3237C26.4324 18.7098 26.1633 19.0938 25.8912 19.4756C25.8323 19.5585 25.7543 19.6261 25.6638 19.6727C25.5734 19.7193 25.4731 19.7436 25.3713 19.7434ZM27.5022 16.7755C27.3639 16.7756 27.2293 16.7304 27.1189 16.6469C26.8378 16.435 26.7818 16.0353 26.9938 15.7542C27.1224 15.5842 27.2494 15.4128 27.3746 15.2403C27.581 14.9551 27.9796 14.8913 28.2648 15.0977C28.55 15.3042 28.6138 15.7027 28.4074 15.9878C28.2772 16.1671 28.1453 16.345 28.0117 16.5217C27.9523 16.6006 27.8753 16.6647 27.7869 16.7087C27.6985 16.7527 27.601 16.7756 27.5022 16.7755Z" fill="#BFE7F8"/>
<path d="M6.93784 10.9683C7.79235 10.9683 8.48506 10.4116 8.48506 9.72486C8.48506 9.03814 7.79235 8.48145 6.93784 8.48145C6.08334 8.48145 5.39062 9.03814 5.39062 9.72486C5.39062 10.4116 6.08334 10.9683 6.93784 10.9683Z" fill="#FD9BAE"/>
<path d="M25.1449 10.9683C25.9994 10.9683 26.6921 10.4116 26.6921 9.72486C26.6921 9.03814 25.9994 8.48145 25.1449 8.48145C24.2904 8.48145 23.5977 9.03814 23.5977 9.72486C23.5977 10.4116 24.2904 10.9683 25.1449 10.9683Z" fill="#FD9BAE"/>
<path d="M9.59142 7.0677C10.3355 7.0677 11.0222 7.23229 11.576 7.51035C12.0467 7.74665 12.6079 7.42735 12.6497 6.90235C12.6614 6.7549 12.6627 6.60453 12.6527 6.45192C12.5501 4.88303 11.2438 3.63019 9.672 3.5899C7.94074 3.54553 6.52344 4.93569 6.52344 6.65686C6.52344 6.74419 6.52714 6.8307 6.53427 6.91618C6.57794 7.43513 7.14094 7.74429 7.60634 7.51054C8.16022 7.23248 8.84714 7.0677 9.59142 7.0677Z" fill="white"/>
<path d="M16.0414 10.7799C15.3736 10.7799 14.7058 10.5566 14.1485 10.1102C13.6317 9.6962 13.5484 8.94159 13.9625 8.42475C14.3765 7.90784 15.1312 7.82465 15.6479 8.23867C15.7593 8.32876 15.8982 8.3779 16.0415 8.3779C16.1847 8.3779 16.3236 8.32876 16.435 8.23867C16.9516 7.82465 17.7063 7.9079 18.1205 8.42475C18.5345 8.94159 18.4512 9.69614 17.9344 10.1102C17.377 10.5566 16.7092 10.7799 16.0414 10.7799ZM9.59018 7.06749C10.204 7.06749 10.7786 7.17955 11.2722 7.3748C11.3665 7.15424 11.4188 6.91176 11.4188 6.65665C11.4188 5.6468 10.6001 4.82812 9.59024 4.82812C8.5804 4.82812 7.76172 5.6468 7.76172 6.65665C7.76172 6.91176 7.81393 7.15424 7.90833 7.3748C8.40172 7.17962 8.97638 7.06749 9.59018 7.06749Z" fill="#383842"/>
<path d="M22.4938 7.0677C23.2378 7.0677 23.9245 7.23229 24.4783 7.51035C24.949 7.74665 25.5102 7.42735 25.5521 6.90235C25.5638 6.7549 25.5651 6.60453 25.5551 6.45192C25.4524 4.88303 24.1461 3.63019 22.5743 3.5899C20.8431 3.54553 19.4258 4.93569 19.4258 6.65686C19.4258 6.74419 19.4295 6.8307 19.4366 6.91618C19.4803 7.43513 20.0433 7.74429 20.5087 7.51054C21.0626 7.23248 21.7495 7.0677 22.4938 7.0677Z" fill="white"/>
<path d="M22.4925 7.06749C23.1063 7.06749 23.681 7.17955 24.1745 7.3748C24.2688 7.15424 24.3211 6.91176 24.3211 6.65665C24.3211 5.6468 23.5024 4.82812 22.4926 4.82812C21.4827 4.82812 20.6641 5.6468 20.6641 6.65665C20.6641 6.91176 20.7163 7.15424 20.8107 7.3748C21.3041 7.17962 21.8787 7.06749 22.4925 7.06749Z" fill="#383842"/>
<path d="M6.07839 15.8546C5.8709 15.8108 5.75916 15.6982 5.71594 15.4896C5.50354 14.4629 4.58395 13.7178 3.52936 13.7178H3.4892C2.58376 13.7178 1.77554 14.2821 1.4375 15.1052C1.45522 15.1306 1.47243 15.1562 1.4906 15.1814L5.63434 20.9083C5.66817 20.8133 5.69543 20.7161 5.71594 20.6173C5.75909 20.4087 5.8709 20.2961 6.07839 20.2523C7.10647 20.0352 7.85267 19.1221 7.85267 18.0812V18.0257C7.85267 16.9846 7.10641 16.0716 6.07839 15.8546Z" fill="url(#paint5_linear_1177_42709)"/>
<path d="M2.87607 15.8207C2.70364 16.6388 2.11247 17.2419 1.27441 17.4152C0.982011 17.4757 0.773438 17.7349 0.773438 18.04V18.0737C0.773438 18.3733 0.983796 18.6315 1.27715 18.6925C2.11349 18.8665 2.70351 19.4688 2.87594 20.2857C2.93796 20.5795 3.1874 20.7956 3.49548 20.7956H3.53564C3.83415 20.7956 4.09341 20.587 4.1539 20.2947C4.32716 19.4569 4.92993 18.8658 5.74765 18.6931C6.04145 18.6311 6.25755 18.3816 6.25755 18.0813V18.0258C6.25755 17.7255 6.04145 17.476 5.74765 17.414C4.92993 17.2413 4.32716 16.6503 4.1539 15.8125C4.09341 15.5201 3.83422 15.3115 3.52786 15.3115H3.48764C3.18765 15.3115 2.93796 15.5272 2.87607 15.8207Z" fill="url(#paint6_linear_1177_42709)"/>
<path d="M30.3971 3.81877C30.5695 4.63681 31.1607 5.2399 31.9988 5.41322C32.2912 5.47371 32.4997 5.7329 32.4997 6.03805V6.07171C32.4997 6.37131 32.2894 6.62954 31.996 6.69054C31.1597 6.86457 30.5697 7.46689 30.3972 8.28372C30.3352 8.57752 30.0858 8.79362 29.7777 8.79362H29.7375C29.439 8.79362 29.1798 8.58504 29.1193 8.29271C28.946 7.45491 28.3432 6.8638 27.5255 6.69118C27.2317 6.62916 27.0156 6.37966 27.0156 6.07936V6.02383C27.0156 5.72353 27.2317 5.47403 27.5255 5.41201C28.3432 5.23939 28.946 4.64834 29.1193 3.81054C29.1798 3.51814 29.439 3.30957 29.7453 3.30957H29.7855C30.0855 3.30957 30.3353 3.52522 30.3971 3.81877Z" fill="url(#paint7_linear_1177_42709)"/>
<path d="M24.405 12.5283L17.5413 30.9694C17.0569 31.0987 16.553 31.1661 16.0404 31.1661C15.5278 31.1661 15.0239 31.0987 14.5395 30.9694L7.67578 12.5283H24.405Z" fill="url(#paint8_linear_1177_42709)"/>
<defs>
<linearGradient id="paint0_linear_1177_42709" x1="16.043" y1="0.834961" x2="31.5847" y2="0.834961" gradientUnits="userSpaceOnUse">
<stop offset="0.022" stop-color="#F7D681"/>
<stop offset="0.999" stop-color="#FFB800"/>
</linearGradient>
<linearGradient id="paint1_linear_1177_42709" x1="0.5" y1="0.834961" x2="16.0418" y2="0.834961" gradientUnits="userSpaceOnUse">
<stop offset="0.022" stop-color="#F7D681"/>
<stop offset="0.999" stop-color="#FFB800"/>
</linearGradient>
<linearGradient id="paint2_linear_1177_42709" x1="16.0404" y1="14.9759" x2="16.0404" y2="0.834961" gradientUnits="userSpaceOnUse">
<stop stop-color="#F3C757"/>
<stop offset="1" stop-color="#F9E09D"/>
</linearGradient>
<linearGradient id="paint3_linear_1177_42709" x1="0.515625" y1="12.5283" x2="14.5409" y2="12.5283" gradientUnits="userSpaceOnUse">
<stop offset="0.022" stop-color="#F7D681"/>
<stop offset="0.999" stop-color="#FFB800"/>
</linearGradient>
<linearGradient id="paint4_linear_1177_42709" x1="17.543" y1="12.5283" x2="31.5682" y2="12.5283" gradientUnits="userSpaceOnUse">
<stop offset="0.022" stop-color="#F7D681"/>
<stop offset="0.999" stop-color="#FFB800"/>
</linearGradient>
<linearGradient id="paint5_linear_1177_42709" x1="4.64509" y1="20.9083" x2="4.64509" y2="13.7178" gradientUnits="userSpaceOnUse">
<stop stop-color="#F3C757"/>
<stop offset="1" stop-color="#F9E09D"/>
</linearGradient>
<linearGradient id="paint6_linear_1177_42709" x1="3.51549" y1="20.7955" x2="3.51549" y2="15.3115" gradientUnits="userSpaceOnUse">
<stop stop-color="#1E4396"/>
<stop offset="1" stop-color="#5984E5"/>
</linearGradient>
<linearGradient id="paint7_linear_1177_42709" x1="29.7577" y1="8.79355" x2="29.7577" y2="3.30957" gradientUnits="userSpaceOnUse">
<stop stop-color="#1E4396"/>
<stop offset="1" stop-color="#5984E5"/>
</linearGradient>
<linearGradient id="paint8_linear_1177_42709" x1="16.0404" y1="31.1661" x2="16.0404" y2="12.5283" gradientUnits="userSpaceOnUse">
<stop stop-color="#F3C757"/>
<stop offset="1" stop-color="#F9E09D"/>
</linearGradient>
</defs>
</svg>
