<svg width="34" height="45" viewBox="0 0 34 45" fill="none" xmlns="http://www.w3.org/2000/svg">
<path d="M1.96875 17.9707C1.96875 16.3138 3.3119 14.9707 4.96875 14.9707H28.9688C30.6256 14.9707 31.9688 16.3138 31.9688 17.9707V39.7476C31.9688 42.063 29.4571 43.5056 27.4571 42.3389L18.4804 37.1025C17.5463 36.5576 16.3912 36.5576 15.4571 37.1025L6.48036 42.3389C4.48039 43.5056 1.96875 42.063 1.96875 39.7476V17.9707Z" fill="#FFC803"/>
<circle cx="16.9688" cy="16.9707" r="13.5" fill="#FEEA66" stroke="#FFC803" stroke-width="3"/>
<path d="M25.454 25.4558C26.5683 24.3415 27.4522 23.0187 28.0553 21.5628C28.6584 20.1069 28.9687 18.5464 28.9687 16.9706C28.9687 15.3947 28.6584 13.8343 28.0553 12.3784C27.4522 10.9225 26.5683 9.59958 25.454 8.48528C24.3397 7.37098 23.0169 6.48706 21.561 5.88401C20.105 5.28095 18.5446 4.97056 16.9687 4.97056C15.3929 4.97056 13.8325 5.28095 12.3765 5.88401C10.9206 6.48707 9.59777 7.37098 8.48347 8.48528L16.9688 16.9706L25.454 25.4558Z" fill="#FFD900"/>
<path d="M20.567 20.6347C21.047 20.6347 21.399 20.7307 21.623 20.9227C21.847 21.1147 21.959 21.4027 21.959 21.7867C21.959 22.576 21.495 22.9707 20.567 22.9707H15.015C14.087 22.9707 13.623 22.576 13.623 21.7867C13.623 21.4027 13.735 21.1147 13.959 20.9227C14.183 20.7307 14.535 20.6347 15.015 20.6347H16.311V14.8587L15.031 15.6107C14.8497 15.7174 14.663 15.7707 14.471 15.7707C14.1723 15.7707 13.9163 15.6427 13.703 15.3867C13.4897 15.12 13.383 14.8267 13.383 14.5067C13.383 14.0694 13.5697 13.7387 13.943 13.5147L16.503 12.0267C16.9723 11.76 17.415 11.6267 17.831 11.6267C18.2577 11.6267 18.599 11.7547 18.855 12.0107C19.1217 12.2667 19.255 12.6134 19.255 13.0507V20.6347H20.567Z" fill="#FF9601"/>
</svg>
