<svg width="24" height="24" viewBox="0 0 24 24" fill="none" xmlns="http://www.w3.org/2000/svg">
<path d="M8.4375 5.80182C8.82968 5.3256 10.4469 2.83031 11.158 0.704401C11.3947 -0.00336032 12.2837 -0.23485 12.8291 0.2746C14.4307 1.77082 15.6279 4.17326 15.8741 6.25146V8.74182H8.4375V5.80182Z" fill="url(#paint0_linear_1066_5435)"/>
<path d="M22.3159 15.575C22.3159 20.228 17.6972 24.0001 11.9998 24.0001C6.3023 24.0001 1.68359 20.228 1.68359 15.575C1.68359 9.66921 3.42818 4.72359 6.4933 0.857821C7.28831 -0.144873 8.88785 0.168657 9.237 1.39973C9.80903 3.41669 10.7115 5.04563 11.9678 6.63159C12.2165 6.9456 12.7072 6.88426 12.878 6.52192C13.4276 5.35572 14.5047 3.94746 16.5845 2.79599C17.4687 2.30643 18.57 2.8067 18.7899 3.79313C19.7652 8.1684 22.3159 9.30142 22.3159 15.575Z" fill="url(#paint1_linear_1066_5435)"/>
<path d="M7.7961 16.1955C8.19047 16.1955 8.51018 15.9386 8.51018 15.6217C8.51018 15.3048 8.19047 15.0479 7.7961 15.0479C7.40173 15.0479 7.08203 15.3048 7.08203 15.6217C7.08203 15.9386 7.40173 16.1955 7.7961 16.1955Z" fill="#FDC5DC"/>
<path d="M16.2024 16.1955C16.5967 16.1955 16.9164 15.9386 16.9164 15.6217C16.9164 15.3048 16.5967 15.0479 16.2024 15.0479C15.808 15.0479 15.4883 15.3048 15.4883 15.6217C15.4883 15.9386 15.808 16.1955 16.2024 16.1955Z" fill="#FDC5DC"/>
<path d="M10.3342 14.7513C10.6337 14.0289 10.2909 13.2004 9.56848 12.9009C8.84608 12.6014 8.01764 12.9442 7.71812 13.6666C7.41859 14.389 7.7614 15.2174 8.48381 15.5169C9.20621 15.8165 10.0346 15.4737 10.3342 14.7513Z" fill="white"/>
<path d="M16.2912 14.7513C16.5907 14.0289 16.2479 13.2004 15.5255 12.9009C14.8031 12.6014 13.9747 12.9442 13.6751 13.6666C13.3756 14.389 13.7184 15.2174 14.4408 15.5169C15.1632 15.8165 15.9917 15.4737 16.2912 14.7513Z" fill="white"/>
<path d="M9.85213 14.3635C9.94026 13.9058 9.64069 13.4634 9.18301 13.3752C8.72534 13.2871 8.28287 13.5867 8.19474 14.0444C8.1066 14.502 8.40618 14.9445 8.86385 15.0326C9.32153 15.1208 9.76399 14.8212 9.85213 14.3635Z" fill="#383842"/>
<path d="M15.7897 14.4553C15.9249 14.0093 15.6729 13.5381 15.2269 13.4029C14.7808 13.2677 14.3096 13.5197 14.1745 13.9658C14.0393 14.4118 14.2913 14.883 14.7373 15.0182C15.1834 15.1534 15.6546 14.9014 15.7897 14.4553Z" fill="#383842"/>
<path d="M12.0017 14.968C11.7508 14.968 11.5 15.0629 11.2953 15.2526C11.2723 15.274 11.2537 15.2996 11.2406 15.3282C11.2275 15.3567 11.2201 15.3875 11.2189 15.4189C11.2177 15.4503 11.2227 15.4816 11.2336 15.511C11.2446 15.5404 11.2612 15.5674 11.2825 15.5905C11.3038 15.6135 11.3295 15.6321 11.358 15.6452C11.3866 15.6583 11.4174 15.6656 11.4488 15.6668C11.4801 15.668 11.5114 15.663 11.5409 15.6521C11.5703 15.6412 11.5973 15.6246 11.6203 15.6032C11.8448 15.395 12.1586 15.395 12.3831 15.6032C12.4296 15.6464 12.4913 15.6692 12.5546 15.6668C12.618 15.6644 12.6778 15.637 12.7209 15.5905C12.764 15.544 12.7869 15.4822 12.7845 15.4189C12.7821 15.3555 12.7546 15.2957 12.7081 15.2526C12.5035 15.0629 12.2526 14.968 12.0017 14.968Z" fill="#383842"/>
<path d="M17.9552 6.20438C17.7579 6.20438 17.5732 6.08127 17.5041 5.88454C17.3053 5.31944 17.1408 4.74288 17.0114 4.15797C16.9543 3.90019 17.1169 3.64489 17.3747 3.58766C17.6324 3.53034 17.8877 3.69308 17.945 3.95087C18.0661 4.49863 18.2202 5.03858 18.4063 5.56781C18.4938 5.81694 18.3627 6.08978 18.1136 6.17727C18.0627 6.1952 18.0091 6.20436 17.9552 6.20438ZM18.8173 8.22535C18.7277 8.22542 18.6399 8.20032 18.5639 8.15291C18.4879 8.10551 18.4268 8.03771 18.3874 7.95724C18.3468 7.87422 18.3066 7.79101 18.2667 7.70763C18.1528 7.46945 18.2537 7.18398 18.4919 7.0701C18.73 6.95617 19.0155 7.05705 19.1294 7.29528C19.1684 7.37675 19.2074 7.45735 19.2464 7.53715C19.3624 7.77437 19.2642 8.06065 19.027 8.17668C18.9617 8.20869 18.89 8.22534 18.8173 8.22535Z" fill="white"/>
<defs>
<linearGradient id="paint0_linear_1066_5435" x1="8.4375" y1="0" x2="15.8741" y2="0" gradientUnits="userSpaceOnUse">
<stop stop-color="#C8E6FF"/>
<stop offset="1" stop-color="#8CC6F7"/>
</linearGradient>
<linearGradient id="paint1_linear_1066_5435" x1="1.68359" y1="0.260742" x2="22.3159" y2="0.260742" gradientUnits="userSpaceOnUse">
<stop stop-color="#C8E6FF"/>
<stop offset="1" stop-color="#8CC6F7"/>
</linearGradient>
</defs>
</svg>
