<svg width="243" height="160" viewBox="0 0 243 160" fill="none" xmlns="http://www.w3.org/2000/svg">
<path d="M240.152 37.5001C237.602 33.7951 234.539 29.8262 231.858 27.0552C231.572 26.7593 231.384 26.3826 231.32 25.9763C231.255 25.57 231.318 25.1537 231.498 24.784C233.192 21.3197 234.878 16.5982 236.159 12.2868C237.476 7.84902 233.339 3.71177 228.901 5.02974C224.59 6.31009 219.869 7.99616 216.404 9.69042C216.035 9.87082 215.618 9.93306 215.212 9.86867C214.806 9.80429 214.429 9.61641 214.133 9.33054C211.362 6.64875 207.393 3.58634 203.688 1.03625C199.875 -1.58861 194.662 1.06809 194.544 5.69597C194.429 10.1917 194.575 15.2021 195.115 19.02C195.173 19.4274 195.104 19.8427 194.917 20.2093C194.73 20.576 194.435 20.8762 194.072 21.0693C190.664 22.876 186.524 25.7054 182.954 28.4412C179.279 31.2571 180.194 37.0356 184.559 38.5779C188.8 40.0763 193.611 41.4874 197.409 42.1531C197.814 42.2244 198.187 42.4187 198.478 42.7096C198.769 43.0004 198.963 43.3738 199.035 43.7789C199.7 47.5775 201.112 52.3882 202.61 56.6287C204.152 60.9936 209.931 61.9088 212.747 58.2342C215.483 54.6633 218.312 50.5236 220.118 47.1163C220.312 46.7529 220.612 46.4578 220.978 46.271C221.345 46.0843 221.76 46.0149 222.168 46.0723C225.985 46.6136 230.996 46.7583 235.492 46.6445C240.12 46.5267 242.777 41.3137 240.152 37.5001Z" fill="url(#paint0_linear_1196_48496)"/>
<path d="M2.02844 37.9826C4.57852 34.2776 7.64094 30.3087 10.3227 27.5376C10.6085 27.2417 10.7963 26.865 10.8607 26.4587C10.925 26.0524 10.8629 25.6362 10.6826 25.2664C8.98834 21.8021 7.30228 17.0807 6.02193 12.7692C4.70395 8.33144 8.84121 4.19419 13.279 5.51216C17.5909 6.79251 22.3119 8.47858 25.7762 10.1728C26.1459 10.3532 26.5622 10.4155 26.9685 10.3511C27.3749 10.2867 27.7515 10.0988 28.0474 9.81296C30.8184 7.13117 34.7873 4.06876 38.4923 1.51867C42.3059 -1.10619 47.5189 1.55051 47.6366 6.17839C47.751 10.6741 47.6058 15.6845 47.0645 19.5024C47.0071 19.9098 47.0765 20.3251 47.2633 20.6917C47.4501 21.0583 47.7451 21.3586 48.1084 21.5517C51.5158 23.3584 55.6555 26.1878 59.2263 28.9236C62.901 31.7395 61.9858 37.0356 57.6208 38.5779C53.3799 40.0763 48.5692 41.9698 44.771 42.6355C44.366 42.7069 43.9927 42.9012 43.7018 43.1921C43.411 43.4829 43.2167 43.8562 43.1453 44.2613C42.4795 48.0599 41.0685 52.8706 39.57 57.1111C38.0277 61.476 32.2488 62.3912 29.4334 58.7166C26.6971 55.1457 23.8682 51.006 22.0615 47.5987C21.8684 47.2353 21.5681 46.9402 21.2015 46.7534C20.8349 46.5667 20.4196 46.4973 20.0122 46.5547C16.1948 47.096 11.1838 47.2407 6.68815 47.1269C2.06028 47.0092 -0.59642 41.7961 2.02844 37.9826Z" fill="url(#paint1_linear_1196_48496)"/>
<path d="M24.1075 155.738C18.9485 150.579 18.9485 142.215 24.1075 137.055L34.4651 126.698C39.6247 121.538 47.9884 121.538 53.1479 126.698C58.3069 131.857 58.3069 140.222 53.1479 145.381L42.7903 155.738C37.6308 160.897 29.2666 160.897 24.1075 155.738Z" fill="url(#paint2_linear_1196_48496)"/>
<path d="M27.8579 106.959H13.2106C5.91498 106.959 0 101.045 0 93.7492C0 86.4531 5.91498 80.5386 13.2106 80.5386H27.8579C35.1536 80.5386 41.0686 86.4531 41.0686 93.7492C41.0686 101.045 35.1536 106.959 27.8579 106.959Z" fill="url(#paint3_linear_1196_48496)"/>
<path d="M218.074 155.738C223.233 150.579 223.233 142.215 218.074 137.055L207.716 126.698C202.557 121.538 194.193 121.538 189.033 126.698C183.874 131.857 183.874 140.222 189.033 145.381L199.391 155.738C204.55 160.897 212.915 160.897 218.074 155.738Z" fill="url(#paint4_linear_1196_48496)"/>
<path d="M214.32 106.959H228.967C236.263 106.959 242.178 101.044 242.178 93.7482C242.178 86.4521 236.263 80.5376 228.967 80.5376H214.32C207.024 80.5376 201.109 86.4521 201.109 93.7482C201.109 101.045 207.024 106.959 214.32 106.959Z" fill="url(#paint5_linear_1196_48496)"/>
<rect x="56.0898" y="19.6074" width="129" height="129" rx="64.5" fill="url(#paint6_linear_1196_48496)"/>
<path d="M78.3718 101.339C82.3936 101.339 85.6538 98.7193 85.6538 95.4873C85.6538 92.2553 82.3936 89.6353 78.3718 89.6353C74.3501 89.6353 71.0898 92.2553 71.0898 95.4873C71.0898 98.7193 74.3501 101.339 78.3718 101.339Z" fill="#FB99AC"/>
<path d="M164.067 101.339C168.089 101.339 171.349 98.7193 171.349 95.4873C171.349 92.2553 168.089 89.6353 164.067 89.6353C160.045 89.6353 156.785 92.2553 156.785 95.4873C156.785 98.7193 160.045 101.339 164.067 101.339Z" fill="#FB99AC"/>
<path d="M90.8542 95.4878C98.8293 95.4878 105.294 89.0227 105.294 81.0476C105.294 73.0725 98.8293 66.6074 90.8542 66.6074C82.8791 66.6074 76.4141 73.0725 76.4141 81.0476C76.4141 89.0227 82.8791 95.4878 90.8542 95.4878Z" fill="white"/>
<path d="M151.581 95.4878C159.556 95.4878 166.021 89.0227 166.021 81.0476C166.021 73.0725 159.556 66.6074 151.581 66.6074C143.606 66.6074 137.141 73.0725 137.141 81.0476C137.141 89.0227 143.606 95.4878 151.581 95.4878Z" fill="white"/>
<path d="M90.8562 89.6538C95.6092 89.6538 99.4624 85.8006 99.4624 81.0476C99.4624 76.2945 95.6092 72.4414 90.8562 72.4414C86.1031 72.4414 82.25 76.2945 82.25 81.0476C82.25 85.8006 86.1031 89.6538 90.8562 89.6538Z" fill="#383842"/>
<path d="M151.583 89.6538C156.336 89.6538 160.189 85.8006 160.189 81.0476C160.189 76.2945 156.336 72.4414 151.583 72.4414C146.83 72.4414 142.977 76.2945 142.977 81.0476C142.977 85.8006 146.83 89.6538 151.583 89.6538Z" fill="#383842"/>
<path d="M121.218 95.9468C118.66 95.9468 116.102 94.9795 114.015 93.0444C113.541 92.6049 113.261 91.995 113.236 91.349C113.212 90.7029 113.445 90.0736 113.884 89.5994C114.324 89.1253 114.934 88.8451 115.58 88.8206C116.226 88.7961 116.855 89.0292 117.329 89.4688C119.619 91.592 122.817 91.592 125.107 89.4688C125.342 89.2511 125.617 89.0819 125.917 88.9707C126.218 88.8595 126.537 88.8085 126.857 88.8206C127.177 88.8327 127.491 88.9078 127.782 89.0414C128.073 89.175 128.335 89.3646 128.552 89.5994C128.77 89.8342 128.939 90.1095 129.05 90.4097C129.161 90.7099 129.212 91.0291 129.2 91.349C129.188 91.6689 129.113 91.9833 128.979 92.2742C128.846 92.5651 128.656 92.8268 128.421 93.0444C126.335 94.979 123.777 95.9468 121.218 95.9468Z" fill="#383842"/>
<defs>
<linearGradient id="paint0_linear_1196_48496" x1="180.668" y1="0" x2="241.188" y2="0" gradientUnits="userSpaceOnUse">
<stop stop-color="#FCD843"/>
<stop offset="1" stop-color="#FCECAB"/>
</linearGradient>
<linearGradient id="paint1_linear_1196_48496" x1="0.992188" y1="0.482422" x2="61.512" y2="0.482422" gradientUnits="userSpaceOnUse">
<stop stop-color="#FCD843"/>
<stop offset="1" stop-color="#FCECAB"/>
</linearGradient>
<linearGradient id="paint2_linear_1196_48496" x1="38.6277" y1="159.607" x2="38.6277" y2="122.828" gradientUnits="userSpaceOnUse">
<stop stop-color="#FD869C"/>
<stop offset="1" stop-color="#F7496E"/>
</linearGradient>
<linearGradient id="paint3_linear_1196_48496" x1="0" y1="80.5386" x2="41.0686" y2="80.5386" gradientUnits="userSpaceOnUse">
<stop stop-color="#1E4396"/>
<stop offset="1" stop-color="#5984E5"/>
</linearGradient>
<linearGradient id="paint4_linear_1196_48496" x1="203.554" y1="159.607" x2="203.554" y2="122.828" gradientUnits="userSpaceOnUse">
<stop stop-color="#FD869C"/>
<stop offset="1" stop-color="#F7496E"/>
</linearGradient>
<linearGradient id="paint5_linear_1196_48496" x1="201.109" y1="80.5376" x2="242.178" y2="80.5376" gradientUnits="userSpaceOnUse">
<stop stop-color="#1E4396"/>
<stop offset="1" stop-color="#5984E5"/>
</linearGradient>
<linearGradient id="paint6_linear_1196_48496" x1="69.8503" y1="84.1074" x2="231.29" y2="84.1074" gradientUnits="userSpaceOnUse">
<stop stop-color="#39D670"/>
<stop offset="1" stop-color="#B3E69E"/>
</linearGradient>
</defs>
</svg>
