<svg width="28" height="28" viewBox="0 0 28 28" fill="none" xmlns="http://www.w3.org/2000/svg">
<path d="M14 23.8488C13.9481 21.5183 12.4281 15.3439 6.82218 7.53751C5.3842 6.483 2.55017 6.54134 0.688955 8.27327C-0.427196 9.31189 -0.145857 11.1647 1.23412 11.813C5.25223 13.7005 9.69748 19.6135 10.9454 23.8488H14Z" fill="url(#paint0_linear_215_3209)"/>
<path d="M14 23.8488C14.0519 21.5183 15.5719 15.3439 21.1778 7.53751C22.6158 6.483 25.4498 6.54134 27.311 8.27327C28.4272 9.31189 28.1459 11.1647 26.7659 11.813C22.7478 13.7005 18.3025 19.6135 17.0546 23.8488H14Z" fill="url(#paint1_linear_215_3209)"/>
<path d="M21.4912 10.6719C20.6922 13.063 18.7807 14.9448 16.3708 15.7023C16.0359 16.4341 15.743 17.132 15.489 17.7915C19.121 17.2318 22.097 14.6578 23.2371 11.2503C23.4075 10.7409 23.1091 10.1941 22.588 10.0641C22.1195 9.94725 21.6443 10.2139 21.4912 10.6719ZM12.5109 17.7915C11.4254 14.9731 9.6401 11.4617 6.82209 7.53752C6.19772 7.07965 5.30998 6.83195 4.35312 6.83959C4.29268 7.27965 4.26231 7.72333 4.26221 8.16752C4.26226 13.0308 7.84582 17.0726 12.5109 17.7915Z" fill="#FFB400"/>
<path d="M14 16.0646C18.3614 16.0646 21.897 12.5289 21.897 8.16751C21.897 3.80608 18.3614 0.270447 14 0.270447C9.63854 0.270447 6.10291 3.80608 6.10291 8.16751C6.10291 12.5289 9.63854 16.0646 14 16.0646Z" fill="url(#paint2_linear_215_3209)"/>
<path d="M17.8162 6.37098C17.1615 6.25012 16.4257 6.15524 15.855 6.14587C15.7941 6.14482 15.7351 6.12505 15.6858 6.08926C15.6366 6.05346 15.5995 6.00337 15.5797 5.9458C15.3945 5.40593 15.0768 4.73538 14.7596 4.15012C14.433 3.54778 13.5671 3.54778 13.2406 4.15012C12.9233 4.73538 12.6057 5.40593 12.4204 5.9458C12.4006 6.00337 12.3636 6.05345 12.3143 6.08925C12.2651 6.12504 12.206 6.14481 12.1451 6.14587C11.5745 6.15524 10.8386 6.25012 10.184 6.37098C9.51012 6.49537 9.24256 7.31902 9.7146 7.81566C10.1731 8.29813 10.7127 8.80732 11.1689 9.15023C11.2175 9.18687 11.2537 9.23759 11.2725 9.29551C11.2913 9.35343 11.2919 9.41573 11.2741 9.47396C11.1066 10.0196 10.9694 10.749 10.882 11.409C10.7921 12.0883 11.4927 12.5973 12.1109 12.3019C12.7115 12.0149 13.3627 11.6591 13.8299 11.3312C13.8797 11.2963 13.9392 11.2776 14 11.2776C14.0609 11.2776 14.1204 11.2963 14.1702 11.3312C14.6374 11.6591 15.2886 12.0149 15.8892 12.3019C16.5074 12.5973 17.208 12.0883 17.1181 11.409C17.0307 10.749 16.8935 10.0196 16.726 9.47396C16.7082 9.41573 16.7088 9.35343 16.7276 9.29552C16.7464 9.2376 16.7826 9.18688 16.8312 9.15023C17.2874 8.80732 17.827 8.29813 18.2855 7.81566C18.7575 7.31902 18.49 6.49542 17.8162 6.37098Z" fill="url(#paint3_linear_215_3209)"/>
<path d="M19.7003 20.08H8.29976C6.18738 20.08 4.47498 21.7924 4.47498 23.9047C4.47498 26.0171 6.18738 27.7295 8.29976 27.7295H19.7003C21.8127 27.7295 23.5251 26.0171 23.5251 23.9047C23.5251 21.7924 21.8127 20.08 19.7003 20.08Z" fill="url(#paint4_linear_215_3209)"/>
<path d="M9.0981 25.7999C9.5582 25.7999 9.93118 25.5001 9.93118 25.1304C9.93118 24.7606 9.5582 24.4609 9.0981 24.4609C8.638 24.4609 8.26501 24.7606 8.26501 25.1304C8.26501 25.5001 8.638 25.7999 9.0981 25.7999Z" fill="#FCADCD"/>
<path d="M18.9021 25.7999C19.3622 25.7999 19.7351 25.5001 19.7351 25.1304C19.7351 24.7606 19.3622 24.4609 18.9021 24.4609C18.442 24.4609 18.069 24.7606 18.069 25.1304C18.069 25.5001 18.442 25.7999 18.9021 25.7999Z" fill="#FCADCD"/>
<path d="M12.0584 24.1174C12.4079 23.2746 12.0079 22.308 11.1651 21.9586C10.3223 21.6092 9.35583 22.0091 9.00638 22.8519C8.65694 23.6947 9.05688 24.6612 9.89968 25.0107C10.7425 25.3601 11.709 24.9602 12.0584 24.1174Z" fill="white"/>
<path d="M19.0081 24.1165C19.3576 23.2737 18.9576 22.3072 18.1148 21.9577C17.272 21.6083 16.3055 22.0082 15.9561 22.851C15.6066 23.6939 16.0066 24.6604 16.8494 25.0098C17.6922 25.3592 18.6587 24.9593 19.0081 24.1165Z" fill="white"/>
<path d="M11.493 23.6616C11.5958 23.1276 11.2463 22.6114 10.7123 22.5086C10.1784 22.4058 9.66217 22.7553 9.55935 23.2892C9.45652 23.8232 9.80602 24.3394 10.34 24.4422C10.8739 24.545 11.3901 24.1955 11.493 23.6616Z" fill="#383842"/>
<path d="M18.4176 23.7707C18.5753 23.2503 18.2813 22.7005 17.7609 22.5428C17.2405 22.3851 16.6908 22.6791 16.5331 23.1995C16.3754 23.7199 16.6694 24.2696 17.1898 24.4273C17.7102 24.5851 18.2599 24.291 18.4176 23.7707Z" fill="#383842"/>
<path d="M14 25.1829C13.7073 25.1829 13.4146 25.0723 13.1758 24.8508C13.149 24.826 13.1273 24.796 13.112 24.7627C13.0967 24.7295 13.0881 24.6935 13.0867 24.6569C13.0854 24.6203 13.0912 24.5838 13.1039 24.5495C13.1167 24.5151 13.136 24.4836 13.1609 24.4568C13.2112 24.4026 13.281 24.3705 13.3549 24.3677C13.4288 24.3649 13.5008 24.3916 13.5551 24.4419C13.817 24.6847 14.1829 24.6847 14.4449 24.4419C14.4718 24.417 14.5033 24.3976 14.5376 24.3849C14.572 24.3721 14.6085 24.3663 14.6451 24.3677C14.6817 24.3691 14.7176 24.3777 14.7509 24.3929C14.7842 24.4082 14.8142 24.4299 14.839 24.4568C14.8893 24.511 14.916 24.583 14.9132 24.6569C14.9104 24.7308 14.8784 24.8006 14.8242 24.8508C14.5854 25.0723 14.2927 25.1829 14 25.1829Z" fill="#383842"/>
<path d="M17.1143 3.18597C17.0186 3.18598 16.9244 3.16119 16.8411 3.11401C16.305 2.81169 15.7238 2.5974 15.1198 2.47933C14.8175 2.4202 14.6203 2.12721 14.6795 1.8249C14.7387 1.52259 15.0316 1.32525 15.334 1.38459C16.055 1.52548 16.7487 1.78126 17.3887 2.14216C17.6571 2.29337 17.752 2.63349 17.6008 2.90189C17.5522 2.98816 17.4816 3.05994 17.3961 3.10986C17.3106 3.15978 17.2133 3.18605 17.1143 3.18597ZM12.454 2.56082C12.204 2.56082 11.9766 2.39165 11.9133 2.1382C11.8386 1.83934 12.0203 1.53653 12.3191 1.46185C12.5065 1.41507 12.6957 1.37614 12.8862 1.34516C13.1905 1.29563 13.4768 1.50234 13.5262 1.80638C13.5755 2.11048 13.369 2.39695 13.0649 2.44631C12.9052 2.47225 12.7466 2.50485 12.5897 2.54403C12.5453 2.55516 12.4997 2.5608 12.454 2.56082Z" fill="#FFFBE1"/>
<defs>
<linearGradient id="paint0_linear_215_3209" x1="0" y1="6.83905" x2="14" y2="6.83905" gradientUnits="userSpaceOnUse">
<stop stop-color="#FFC100"/>
<stop offset="1" stop-color="#FFE093"/>
</linearGradient>
<linearGradient id="paint1_linear_215_3209" x1="14" y1="6.83905" x2="28" y2="6.83905" gradientUnits="userSpaceOnUse">
<stop stop-color="#FFC100"/>
<stop offset="1" stop-color="#FFE093"/>
</linearGradient>
<linearGradient id="paint2_linear_215_3209" x1="14" y1="20.3395" x2="14" y2="1.26272" gradientUnits="userSpaceOnUse">
<stop stop-color="#FCD843"/>
<stop offset="1" stop-color="#FCECAB"/>
</linearGradient>
<linearGradient id="paint3_linear_215_3209" x1="9.47644" y1="3.69836" x2="18.5237" y2="3.69836" gradientUnits="userSpaceOnUse">
<stop stop-color="#FFC100"/>
<stop offset="1" stop-color="#FFE093"/>
</linearGradient>
<linearGradient id="paint4_linear_215_3209" x1="14.0001" y1="26.9013" x2="14.0001" y2="18.3205" gradientUnits="userSpaceOnUse">
<stop stop-color="#3256D5"/>
<stop offset="1" stop-color="#8AA4FF"/>
</linearGradient>
</defs>
</svg>
