<svg width="40" height="40" viewBox="0 0 40 40" fill="none" xmlns="http://www.w3.org/2000/svg">
<path d="M20.5675 3.03248C20.2693 2.83612 19.9202 2.7343 19.5638 2.74158C16.3638 2.74158 10.6766 9.97067 9.76748 10.8798C9.09839 11.5343 8.5093 12.2688 8.00748 13.0616C6.60385 12.9016 4.22567 13.1125 3.04748 14.1307C2.19882 15.015 1.70228 16.1788 1.65112 17.4034C1.44748 19.6288 1.65112 24.0652 2.84385 25.287C4.22567 26.6834 6.87294 26.4434 7.10567 26.4288C7.33839 26.4143 7.68021 26.3925 8.03657 26.3852C8.29112 26.8725 9.54203 28.567 9.9493 29.0907C11.2511 30.7707 15.6584 35.9852 17.6511 37.0034C17.9929 37.1925 18.3784 37.287 18.7711 37.2943C21.6366 37.2943 21.9711 32.2761 22.1238 25.1925V23.9343C22.5675 7.7743 21.8184 3.89794 20.5675 3.03248ZM28.1093 14.4943C27.4475 13.9852 26.5602 13.8688 25.7893 14.1888C25.4212 14.339 25.099 14.5834 24.8552 14.8974C24.6114 15.2114 24.4545 15.5841 24.4002 15.9779V16.1888C24.3784 16.9525 24.7275 17.6798 25.3384 18.1379C25.8911 18.5888 26.2038 19.2798 26.1675 19.9998C26.1457 20.5379 25.9348 21.0543 25.5784 21.4543C25.2356 21.8253 25.0187 22.295 24.9586 22.7965C24.8986 23.298 24.9984 23.8056 25.2438 24.247C25.4344 24.6071 25.719 24.9088 26.0673 25.1201C26.4156 25.3314 26.8146 25.4444 27.222 25.447C27.3602 25.447 27.5057 25.4325 27.6438 25.4034C27.7966 25.3743 27.942 25.3307 28.0875 25.2798C28.2184 25.2216 28.342 25.1488 28.4511 25.0616C31.2875 22.5525 31.5566 18.2107 29.0475 15.367C28.7566 15.047 28.4438 14.7561 28.1093 14.4943Z" fill="url(#paint0_linear_1066_4603)"/>
<path d="M31.9283 8.50187C31.3743 8.22649 30.7339 8.18128 30.1468 8.37609C29.5596 8.57091 29.0732 8.98995 28.7937 9.54187C28.5284 10.0723 28.4747 10.6838 28.6435 11.2523C28.8123 11.8209 29.191 12.304 29.7028 12.6037C32.8301 14.5019 33.7828 18.1891 33.6374 20.9964C33.4483 23.5928 32.1392 25.9782 30.0592 27.5419C29.4628 28 29.1283 28.7273 29.1719 29.4764C29.1937 29.7891 29.281 30.0946 29.4192 30.371C29.7174 30.9673 30.2628 31.4037 30.9101 31.5564C31.0992 31.6073 31.2956 31.6291 31.4919 31.6291C31.9937 31.6291 32.481 31.4764 32.8883 31.1782C36.0956 28.7855 38.1028 25.1128 38.3792 21.1201C38.801 15.3673 36.4519 10.7782 31.9283 8.50187Z" fill="url(#paint1_linear_1066_4603)"/>
<defs>
<linearGradient id="paint0_linear_1066_4603" x1="16.1745" y1="37.2938" x2="16.1745" y2="2.74121" gradientUnits="userSpaceOnUse">
<stop stop-color="#1E4396"/>
<stop offset="1" stop-color="#5984E5"/>
</linearGradient>
<linearGradient id="paint1_linear_1066_4603" x1="33.4873" y1="31.6288" x2="33.4873" y2="8.25684" gradientUnits="userSpaceOnUse">
<stop stop-color="#1E4396"/>
<stop offset="1" stop-color="#5984E5"/>
</linearGradient>
</defs>
</svg>
