<svg width="76" height="50" viewBox="0 0 76 50" fill="none" xmlns="http://www.w3.org/2000/svg">
<g clip-path="url(#clip0_1274_7186)">
<path d="M73.028 18.9281C67.2002 10.7619 53.378 5.22461 37.9984 5.22461C22.6188 5.22461 8.79978 10.7619 2.97198 18.9281H1.34233L0.211939 25.2799C-2.09594 38.2571 14.7029 50.0003 37.9984 50.0003C61.2939 50.0003 78.0928 38.2571 75.7849 25.2799L74.6545 18.9281H73.0249H73.028Z" fill="url(#paint0_linear_1274_7186)"/>
<path d="M73.028 18.9281C67.2002 10.7619 53.378 5.22461 37.9984 5.22461C22.6188 5.22461 8.79978 10.7619 2.97198 18.9281H1.34233L0.211939 25.2799C-2.09594 38.2571 14.7029 50.0003 37.9984 50.0003C61.2939 50.0003 78.0928 38.2571 75.7849 25.2799L74.6545 18.9281H73.0249H73.028Z" fill="black" fill-opacity="0.26"/>
<path d="M74.6601 18.9278C76.8266 31.1178 60.5239 42.1134 38.0008 42.1134C15.4778 42.1134 -0.824983 31.1178 1.3416 18.9278C3.27897 8.02638 19.6131 0 38.0008 0C56.3885 0 72.7196 8.02638 74.6601 18.9278Z" fill="url(#paint1_linear_1274_7186)"/>
<path d="M74.6601 18.9278C76.8266 31.1178 60.5239 42.1134 38.0008 42.1134C15.4778 42.1134 -0.824983 31.1178 1.3416 18.9278C3.27897 8.02638 19.6131 0 38.0008 0C56.3885 0 72.7196 8.02638 74.6601 18.9278Z" fill="black" fill-opacity="0.09"/>
<path d="M63.8156 18.928C64.8707 27.3647 53.3501 34.7285 38.0019 34.7285C22.6537 34.7285 11.1331 27.3647 12.1881 18.928C13.1647 11.1296 24.6915 5.22754 38.0019 5.22754C51.3123 5.22754 62.8391 11.1296 63.8156 18.928Z" fill="url(#paint2_linear_1274_7186)"/>
<path d="M40.4035 10.9254L43.6094 14.1499C44.0208 14.5632 44.7524 14.855 45.5907 14.9401L52.2538 15.6087C54.4643 15.8306 55.4628 17.341 53.9808 18.2619L49.409 21.0974C48.8218 21.4621 48.5643 21.9666 48.7087 22.468L49.8768 26.5405C50.2725 27.9203 47.9049 28.9657 45.7446 28.3518L39.2794 26.5131C38.4693 26.2822 37.5304 26.2822 36.7203 26.5131L30.2551 28.3518C28.0948 28.9657 25.7273 27.9203 26.1229 26.5405L27.291 22.468C27.4354 21.9635 27.1779 21.459 26.5907 21.0974L22.0189 18.2619C20.5369 17.344 21.5354 15.8306 23.7459 15.6087L30.409 14.9401C31.2473 14.855 31.9758 14.5632 32.3903 14.1499L35.5962 10.9254C36.6324 9.88295 39.3673 9.88295 40.4035 10.9254Z" fill="url(#paint3_linear_1274_7186)"/>
</g>
<defs>
<linearGradient id="paint0_linear_1274_7186" x1="37.9984" y1="49.2743" x2="37.9984" y2="1.36025" gradientUnits="userSpaceOnUse">
<stop stop-color="#D4DBDB"/>
<stop offset="1" stop-color="#F3F3F3"/>
</linearGradient>
<linearGradient id="paint1_linear_1274_7186" x1="38.0008" y1="41.4306" x2="38.0008" y2="-3.63459" gradientUnits="userSpaceOnUse">
<stop stop-color="#D4DBDB"/>
<stop offset="1" stop-color="#F3F3F3"/>
</linearGradient>
<linearGradient id="paint2_linear_1274_7186" x1="38.0019" y1="34.2502" x2="38.0019" y2="2.68147" gradientUnits="userSpaceOnUse">
<stop stop-color="#CCDFE3"/>
<stop offset="1" stop-color="#E6ECF5"/>
</linearGradient>
<linearGradient id="paint3_linear_1274_7186" x1="21.3156" y1="19.3377" x2="54.681" y2="19.3377" gradientUnits="userSpaceOnUse">
<stop stop-color="#747777"/>
<stop offset="1" stop-color="#B8BABA"/>
</linearGradient>
<clipPath id="clip0_1274_7186">
<rect width="76" height="50" fill="white"/>
</clipPath>
</defs>
</svg>
