<svg width="34" height="46" viewBox="0 0 34 46" fill="none" xmlns="http://www.w3.org/2000/svg">
<path d="M1.96875 18.9121C1.96875 17.2553 3.3119 15.9121 4.96875 15.9121H28.9688C30.6256 15.9121 31.9688 17.2553 31.9688 18.9121V40.689C31.9688 43.0044 29.4571 44.447 27.4571 43.2803L18.4804 38.0439C17.5463 37.499 16.3912 37.499 15.4571 38.0439L6.48036 43.2803C4.48039 44.447 1.96875 43.0044 1.96875 40.689V18.9121Z" fill="#9E6F3A"/>
<circle cx="16.9688" cy="17.9121" r="13.5" fill="#FFCFAF" stroke="#9E6F3A" stroke-width="3"/>
<path d="M25.454 26.3972C26.5683 25.2829 27.4522 23.9601 28.0553 22.5042C28.6584 21.0483 28.9687 19.4878 28.9687 17.912C28.9687 16.3361 28.6584 14.7757 28.0553 13.3198C27.4522 11.8639 26.5683 10.541 25.454 9.42669C24.3397 8.31238 23.0169 7.42847 21.561 6.82541C20.105 6.22236 18.5446 5.91197 16.9687 5.91197C15.3929 5.91197 13.8325 6.22236 12.3765 6.82541C10.9206 7.42847 9.59777 8.31239 8.48347 9.42669L16.9688 17.912L25.454 26.3972Z" fill="#DB9667"/>
<path d="M20.567 21.5761C21.047 21.5761 21.399 21.6721 21.623 21.8641C21.847 22.0561 21.959 22.3441 21.959 22.7281C21.959 23.5174 21.495 23.9121 20.567 23.9121H15.015C14.087 23.9121 13.623 23.5174 13.623 22.7281C13.623 22.3441 13.735 22.0561 13.959 21.8641C14.183 21.6721 14.535 21.5761 15.015 21.5761H16.311V15.8001L15.031 16.5521C14.8497 16.6588 14.663 16.7121 14.471 16.7121C14.1723 16.7121 13.9163 16.5841 13.703 16.3281C13.4897 16.0614 13.383 15.7681 13.383 15.4481C13.383 15.0108 13.5697 14.6801 13.943 14.4561L16.503 12.9681C16.9723 12.7014 17.415 12.5681 17.831 12.5681C18.2577 12.5681 18.599 12.6961 18.855 12.9521C19.1217 13.2081 19.255 13.5548 19.255 13.9921V21.5761H20.567Z" fill="#553D1A"/>
</svg>
